<svg width="122" height="16" viewBox="0 0 122 16" fill="none" xmlns="http://www.w3.org/2000/svg">
<path d="M7.27344 7.54492V9.02832H0.451172V7.54492H7.27344ZM4.66211 4.75586V12.002H3.06934V4.75586H4.66211ZM10.7458 7.27832H11.7302C12.113 7.27832 12.4297 7.21224 12.6804 7.08008C12.9356 6.94792 13.1247 6.76562 13.2478 6.5332C13.3708 6.30078 13.4323 6.03418 13.4323 5.7334C13.4323 5.41895 13.3754 5.15007 13.2614 4.92676C13.1521 4.69889 12.9835 4.52344 12.7556 4.40039C12.5323 4.27734 12.2474 4.21582 11.9011 4.21582C11.6094 4.21582 11.3451 4.27507 11.1081 4.39355C10.8757 4.50749 10.6911 4.67155 10.5544 4.88574C10.4177 5.09538 10.3493 5.34603 10.3493 5.6377H8.69504C8.69504 5.10905 8.83404 4.63965 9.11203 4.22949C9.39003 3.81934 9.76828 3.49805 10.2468 3.26562C10.7299 3.02865 11.2722 2.91016 11.8737 2.91016C12.5163 2.91016 13.0769 3.01725 13.5554 3.23145C14.0385 3.44108 14.4144 3.75553 14.6833 4.1748C14.9522 4.59408 15.0866 5.11361 15.0866 5.7334C15.0866 6.01595 15.0206 6.30306 14.8884 6.59473C14.7562 6.88639 14.5603 7.15299 14.3005 7.39453C14.0407 7.63151 13.7172 7.8252 13.3298 7.97559C12.9424 8.12142 12.4935 8.19434 11.9831 8.19434H10.7458V7.27832ZM10.7458 8.56348V7.66113H11.9831C12.5665 7.66113 13.0632 7.72949 13.4734 7.86621C13.8881 8.00293 14.2253 8.19206 14.4851 8.43359C14.7448 8.67057 14.934 8.94173 15.0525 9.24707C15.1755 9.55241 15.237 9.87598 15.237 10.2178C15.237 10.6826 15.1527 11.0973 14.9841 11.4619C14.82 11.8219 14.5853 12.1273 14.28 12.3779C13.9747 12.6286 13.6169 12.8177 13.2068 12.9453C12.8012 13.0729 12.3591 13.1367 11.8806 13.1367C11.4522 13.1367 11.042 13.0775 10.6501 12.959C10.2582 12.8405 9.90728 12.665 9.59738 12.4326C9.28749 12.1956 9.04139 11.9017 8.8591 11.5508C8.68137 11.1953 8.5925 10.7852 8.5925 10.3203H10.24C10.24 10.6165 10.3083 10.8786 10.445 11.1064C10.5863 11.3298 10.7823 11.5052 11.0329 11.6328C11.2881 11.7604 11.5798 11.8242 11.9079 11.8242C12.2543 11.8242 12.5528 11.7627 12.8034 11.6396C13.0541 11.5166 13.2455 11.3343 13.3777 11.0928C13.5144 10.8512 13.5827 10.5596 13.5827 10.2178C13.5827 9.8304 13.5075 9.51595 13.3571 9.27441C13.2068 9.03288 12.9926 8.85514 12.7146 8.74121C12.4366 8.62272 12.1085 8.56348 11.7302 8.56348H10.7458ZM23.5561 10.2861C23.5561 10.9059 23.4125 11.4277 23.1254 11.8516C22.8383 12.2754 22.4464 12.5967 21.9496 12.8154C21.4575 13.0296 20.9015 13.1367 20.2817 13.1367C19.6619 13.1367 19.1036 13.0296 18.6069 12.8154C18.1101 12.5967 17.7182 12.2754 17.4311 11.8516C17.144 11.4277 17.0004 10.9059 17.0004 10.2861C17.0004 9.87598 17.0802 9.50456 17.2397 9.17188C17.3992 8.83464 17.6248 8.54525 17.9164 8.30371C18.2127 8.05762 18.559 7.86849 18.9555 7.73633C19.3565 7.60417 19.794 7.53809 20.268 7.53809C20.8969 7.53809 21.4597 7.6543 21.9565 7.88672C22.4532 8.11914 22.8429 8.44043 23.1254 8.85059C23.4125 9.26074 23.5561 9.73926 23.5561 10.2861ZM21.9018 10.2041C21.9018 9.87142 21.8334 9.57975 21.6967 9.3291C21.56 9.07845 21.3686 8.88477 21.1225 8.74805C20.8764 8.61133 20.5916 8.54297 20.268 8.54297C19.9399 8.54297 19.6551 8.61133 19.4135 8.74805C19.172 8.88477 18.9829 9.07845 18.8461 9.3291C18.714 9.57975 18.6479 9.87142 18.6479 10.2041C18.6479 10.5413 18.714 10.833 18.8461 11.0791C18.9783 11.3206 19.1674 11.5052 19.4135 11.6328C19.6596 11.7604 19.949 11.8242 20.2817 11.8242C20.6144 11.8242 20.9015 11.7604 21.143 11.6328C21.3845 11.5052 21.5714 11.3206 21.7036 11.0791C21.8357 10.833 21.9018 10.5413 21.9018 10.2041ZM23.3305 5.66504C23.3305 6.16178 23.1983 6.60384 22.934 6.99121C22.6743 7.37858 22.3142 7.68392 21.8539 7.90723C21.3937 8.12598 20.8696 8.23535 20.2817 8.23535C19.6892 8.23535 19.1606 8.12598 18.6957 7.90723C18.2355 7.68392 17.8732 7.37858 17.6088 6.99121C17.3491 6.60384 17.2192 6.16178 17.2192 5.66504C17.2192 5.07259 17.3491 4.57357 17.6088 4.16797C17.8732 3.75781 18.2355 3.44564 18.6957 3.23145C19.156 3.01725 19.6824 2.91016 20.2748 2.91016C20.8673 2.91016 21.3937 3.01725 21.8539 3.23145C22.3142 3.44564 22.6743 3.75781 22.934 4.16797C23.1983 4.57357 23.3305 5.07259 23.3305 5.66504ZM21.683 5.71973C21.683 5.4235 21.6238 5.16374 21.5053 4.94043C21.3914 4.71257 21.2296 4.53483 21.02 4.40723C20.8103 4.27962 20.562 4.21582 20.2748 4.21582C19.9877 4.21582 19.7394 4.27734 19.5297 4.40039C19.3201 4.52344 19.1583 4.69661 19.0444 4.91992C18.9304 5.14323 18.8735 5.40983 18.8735 5.71973C18.8735 6.02507 18.9304 6.29167 19.0444 6.51953C19.1583 6.74284 19.3201 6.91829 19.5297 7.0459C19.7439 7.1735 19.9946 7.2373 20.2817 7.2373C20.5688 7.2373 20.8172 7.1735 21.0268 7.0459C21.2364 6.91829 21.3982 6.74284 21.5121 6.51953C21.6261 6.29167 21.683 6.02507 21.683 5.71973ZM35.5389 7.18945V8.81641C35.5389 9.5957 35.4615 10.2611 35.3065 10.8125C35.1561 11.3594 34.9374 11.8037 34.6503 12.1455C34.3632 12.4873 34.0191 12.738 33.618 12.8975C33.2216 13.057 32.7772 13.1367 32.285 13.1367C31.8931 13.1367 31.5285 13.0866 31.1913 12.9863C30.8586 12.8861 30.5578 12.7288 30.2889 12.5146C30.0201 12.3005 29.7899 12.0247 29.5985 11.6875C29.4117 11.3457 29.2658 10.9378 29.161 10.4639C29.0608 9.98991 29.0106 9.44076 29.0106 8.81641V7.18945C29.0106 6.4056 29.0881 5.74479 29.243 5.20703C29.398 4.66471 29.619 4.22493 29.9061 3.8877C30.1932 3.5459 30.535 3.29753 30.9315 3.14258C31.3326 2.98763 31.7792 2.91016 32.2714 2.91016C32.6679 2.91016 33.0324 2.96029 33.3651 3.06055C33.7024 3.15625 34.0031 3.30892 34.2675 3.51855C34.5363 3.72819 34.7642 4.00163 34.9511 4.33887C35.1425 4.67155 35.2883 5.07487 35.3886 5.54883C35.4888 6.01823 35.5389 6.5651 35.5389 7.18945ZM33.8915 9.04883V6.94336C33.8915 6.54688 33.8687 6.19824 33.8231 5.89746C33.7776 5.59212 33.7092 5.33464 33.618 5.125C33.5315 4.91081 33.4221 4.73763 33.2899 4.60547C33.1578 4.46875 33.0074 4.37077 32.8388 4.31152C32.6701 4.24772 32.481 4.21582 32.2714 4.21582C32.0162 4.21582 31.7883 4.26595 31.5878 4.36621C31.3873 4.46191 31.2186 4.61686 31.0819 4.83105C30.9452 5.04525 30.8404 5.3278 30.7675 5.67871C30.6991 6.02507 30.6649 6.44661 30.6649 6.94336V9.04883C30.6649 9.44987 30.6877 9.80306 30.7333 10.1084C30.7789 10.4137 30.8472 10.6758 30.9384 10.8945C31.0295 11.1087 31.1389 11.2865 31.2665 11.4277C31.3986 11.5645 31.549 11.6647 31.7177 11.7285C31.8908 11.7923 32.08 11.8242 32.285 11.8242C32.5448 11.8242 32.7749 11.7741 32.9755 11.6738C33.176 11.5736 33.3446 11.4141 33.4813 11.1953C33.618 10.972 33.7206 10.6826 33.7889 10.3271C33.8573 9.97168 33.8915 9.54557 33.8915 9.04883ZM38.6148 11.7012H38.7516C39.3805 11.7012 39.9046 11.6191 40.3238 11.4551C40.7477 11.2865 41.0849 11.054 41.3355 10.7578C41.5862 10.4616 41.7662 10.113 41.8756 9.71191C41.985 9.31087 42.0396 8.87565 42.0396 8.40625V6.69043C42.0396 6.28483 41.9964 5.92936 41.9098 5.62402C41.8277 5.31413 41.7092 5.05664 41.5543 4.85156C41.4039 4.64193 41.2285 4.4847 41.0279 4.37988C40.832 4.27507 40.6201 4.22266 40.3922 4.22266C40.1415 4.22266 39.916 4.27962 39.7154 4.39355C39.5195 4.50293 39.3531 4.6556 39.2164 4.85156C39.0842 5.04297 38.9817 5.26855 38.9088 5.52832C38.8404 5.78353 38.8063 6.05697 38.8063 6.34863C38.8063 6.62207 38.8382 6.88639 38.902 7.1416C38.9703 7.39225 39.0706 7.61556 39.2027 7.81152C39.3349 8.00749 39.5012 8.16243 39.7018 8.27637C39.9023 8.3903 40.137 8.44727 40.4059 8.44727C40.6611 8.44727 40.8958 8.39941 41.11 8.30371C41.3242 8.20345 41.511 8.06901 41.6705 7.90039C41.83 7.73177 41.9553 7.54264 42.0465 7.33301C42.1376 7.12337 42.1878 6.90918 42.1969 6.69043L42.8258 6.88184C42.8258 7.22819 42.7529 7.56999 42.607 7.90723C42.4658 8.23991 42.2675 8.54525 42.0123 8.82324C41.7617 9.09668 41.4677 9.31543 41.1305 9.47949C40.7978 9.64355 40.4355 9.72559 40.0436 9.72559C39.5696 9.72559 39.1503 9.63672 38.7857 9.45898C38.4257 9.27669 38.1249 9.0306 37.8834 8.7207C37.6464 8.41081 37.4687 8.05534 37.3502 7.6543C37.2317 7.25326 37.1725 6.83171 37.1725 6.38965C37.1725 5.91113 37.2454 5.46224 37.3912 5.04297C37.537 4.6237 37.749 4.25456 38.027 3.93555C38.3049 3.61198 38.6422 3.36133 39.0387 3.18359C39.4397 3.0013 39.8932 2.91016 40.399 2.91016C40.9368 2.91016 41.4085 3.01497 41.8141 3.22461C42.2197 3.43424 42.5615 3.72363 42.8395 4.09277C43.1174 4.46191 43.3271 4.8903 43.4684 5.37793C43.6096 5.86556 43.6803 6.38965 43.6803 6.9502V7.53125C43.6803 8.11914 43.6279 8.68652 43.523 9.2334C43.4182 9.77572 43.2473 10.2793 43.0104 10.7441C42.7779 11.2044 42.4703 11.61 42.0875 11.9609C41.7092 12.3073 41.2444 12.5785 40.693 12.7744C40.1461 12.9658 39.5035 13.0615 38.7652 13.0615H38.6148V11.7012ZM50.5023 2.98535H50.7073V4.33203H50.5911C50.0032 4.33203 49.4951 4.42318 49.0667 4.60547C48.6429 4.78776 48.2943 5.03841 48.0208 5.35742C47.7474 5.67643 47.5423 6.05013 47.4056 6.47852C47.2734 6.90234 47.2073 7.35352 47.2073 7.83203V9.39746C47.2073 9.79395 47.2506 10.1449 47.3372 10.4502C47.4238 10.751 47.5446 11.0039 47.6995 11.209C47.859 11.4095 48.0413 11.5622 48.2464 11.667C48.4515 11.7718 48.6725 11.8242 48.9095 11.8242C49.1556 11.8242 49.3789 11.7741 49.5794 11.6738C49.7799 11.569 49.9508 11.4255 50.0921 11.2432C50.2334 11.0609 50.3405 10.8444 50.4134 10.5938C50.4863 10.3431 50.5228 10.0697 50.5228 9.77344C50.5228 9.49089 50.4863 9.22656 50.4134 8.98047C50.345 8.72982 50.2425 8.51107 50.1058 8.32422C49.9691 8.13281 49.7982 7.9847 49.5931 7.87988C49.3926 7.77051 49.1601 7.71582 48.8958 7.71582C48.5677 7.71582 48.2692 7.79329 48.0003 7.94824C47.736 8.10319 47.5218 8.30599 47.3577 8.55664C47.1982 8.80273 47.1116 9.06478 47.098 9.34277L46.4691 9.1377C46.5055 8.71387 46.5989 8.33333 46.7493 7.99609C46.9043 7.65885 47.1071 7.37174 47.3577 7.13477C47.6084 6.89779 47.8978 6.71777 48.2259 6.59473C48.5586 6.46712 48.9232 6.40332 49.3196 6.40332C49.8027 6.40332 50.222 6.49447 50.5775 6.67676C50.9329 6.85905 51.2269 7.10742 51.4593 7.42188C51.6963 7.73177 51.8717 8.08724 51.9857 8.48828C52.1042 8.88477 52.1634 9.29948 52.1634 9.73242C52.1634 10.2109 52.0905 10.6576 51.9446 11.0723C51.7988 11.4824 51.5846 11.8424 51.3021 12.1523C51.0241 12.4622 50.6846 12.7038 50.2835 12.877C49.887 13.0501 49.4359 13.1367 48.93 13.1367C48.3968 13.1367 47.9206 13.0342 47.5013 12.8291C47.0866 12.624 46.7334 12.3415 46.4417 11.9814C46.1546 11.6214 45.9359 11.2067 45.7855 10.7373C45.6351 10.2679 45.5599 9.77116 45.5599 9.24707V8.56348C45.5599 7.80697 45.6556 7.09375 45.847 6.42383C46.0384 5.74935 46.3323 5.15462 46.7288 4.63965C47.1299 4.12467 47.6426 3.72135 48.2669 3.42969C48.8913 3.13346 49.6364 2.98535 50.5023 2.98535ZM62.0271 3.0127V13H60.3797V4.96777L57.9392 5.79492V4.43457L61.8289 3.0127H62.0271ZM70.2641 3.0127V13H68.6167V4.96777L66.1762 5.79492V4.43457L70.0659 3.0127H70.2641ZM78.5012 3.0127V13H76.8537V4.96777L74.4133 5.79492V4.43457L78.3029 3.0127H78.5012ZM90.5045 3.0127V13H88.8571V4.96777L86.4166 5.79492V4.43457L90.3063 3.0127H90.5045ZM98.7416 3.0127V13H97.0941V4.96777L94.6537 5.79492V4.43457L98.5433 3.0127H98.7416ZM110.745 3.0127V13H109.097V4.96777L106.657 5.79492V4.43457L110.547 3.0127H110.745ZM118.982 3.0127V13H117.334V4.96777L114.894 5.79492V4.43457L118.784 3.0127H118.982Z" fill="#757575"/>
</svg>
