<svg aria-hidden="true" style="position: absolute; width: 0; height: 0; overflow: hidden;" version="1.1" xmlns="http://www.w3.org/2000/svg" xmlns:xlink="http://www.w3.org/1999/xlink">
<defs>
<symbol id="icon-Group-1" viewBox="0 0 32 32">
<path fill="#fff" style="fill: var(--color1, #fff); stroke: var(--color2, #fed136)" stroke="#fed136" stroke-linejoin="miter" stroke-linecap="butt" stroke-miterlimit="4" stroke-width="1.3151" d="M31.41 15.917c0-8.382-6.795-15.177-15.177-15.177s-15.177 6.795-15.177 15.177c0 8.382 6.795 15.177 15.177 15.177s15.177-6.795 15.177-15.177z"></path>
<path fill="#fed136" style="fill: var(--color2, #fed136)" d="M17.122 6.737c-0.577 0.333-0.775 1.071-0.442 1.649l1.277 2.212h-4.99l1.277-2.212c0.333-0.577 0.136-1.315-0.442-1.649s-1.315-0.136-1.649 0.442l-1.81 3.136c-0.053 0.091-0.092 0.186-0.119 0.283h-1.703c-0.833 0-1.509 0.675-1.509 1.508s0.675 1.509 1.509 1.509h13.88c0.833 0 1.509-0.676 1.509-1.509s-0.675-1.508-1.509-1.508h-1.703c-0.027-0.097-0.066-0.192-0.119-0.283l-1.81-3.136c-0.333-0.577-1.071-0.775-1.649-0.442zM8.778 23.271l-0.522-9.052h14.414l-0.522 9.052h-13.369zM16.066 17.236c0-0.333-0.27-0.603-0.603-0.603s-0.604 0.27-0.604 0.603v3.621c0 0.333 0.27 0.603 0.604 0.603s0.603-0.27 0.603-0.603v-3.621zM19.083 16.633c0.333 0 0.603 0.27 0.603 0.603v3.621c0 0.333-0.27 0.603-0.603 0.603s-0.604-0.27-0.604-0.603v-3.621c0-0.333 0.27-0.603 0.604-0.603zM12.445 17.236c0-0.333-0.27-0.603-0.603-0.603s-0.604 0.27-0.604 0.603v3.621c0 0.333 0.27 0.603 0.604 0.603s0.603-0.27 0.603-0.603v-3.621z"></path>
</symbol>
<symbol id="icon-Group-2" viewBox="0 0 32 32">
<path fill="#fff" style="fill: var(--color1, #fff); stroke: var(--color2, #fed136)" stroke="#fed136" stroke-linejoin="miter" stroke-linecap="butt" stroke-miterlimit="4" stroke-width="1.3151" d="M31.359 15.92c0-8.382-6.795-15.177-15.177-15.177s-15.177 6.795-15.177 15.177c0 8.382 6.795 15.177 15.177 15.177s15.177-6.795 15.177-15.177z"></path>
<path fill="#fed136" style="fill: var(--color2, #fed136)" d="M21.757 7.89h-11.795c-0.977 0-1.769 0.792-1.769 1.769v7.667c0 0.207 0.036 0.405 0.101 0.59h-0.101v1.18h1.769v-9.436h11.795v9.436h1.769v-1.18h-0.101c0.065-0.184 0.101-0.383 0.101-0.59v-7.667c0-0.977-0.792-1.769-1.769-1.769zM8.193 20.275h15.333c0.651 0 1.18 0.528 1.18 1.18s-1.118 1.179-1.769 1.179h-14.154c-0.651 0-1.769-0.528-1.769-1.179s0.528-1.18 1.179-1.18zM17.629 21.455h-3.538c-0.326 0-0.59 0.132-0.59 0.295s0.264 0.295 0.59 0.295h3.538c0.326 0 0.59-0.132 0.59-0.295s-0.264-0.295-0.59-0.295zM11.9 14.809l0.83-0.834c0.229-0.23 0.601-0.23 0.83 0l1.088 1.093 3.508-3.524c0.229-0.23 0.601-0.23 0.83 0l0.83 0.834c0.229 0.23 0.229 0.604 0 0.834l-4.567 4.587c-0.196 0.197-0.497 0.226-0.723 0.085-0.192 0.046-0.402-0.006-0.552-0.157l-2.076-2.085c-0.229-0.23-0.229-0.604 0-0.834z"></path>
</symbol>
<symbol id="icon-Group-3" viewBox="0 0 32 32">
<path fill="#fff" style="fill: var(--color1, #fff); stroke: var(--color2, #fed136)" stroke="#fed136" stroke-linejoin="miter" stroke-linecap="butt" stroke-miterlimit="4" stroke-width="1.3151" d="M31.377 15.916c0-8.382-6.795-15.177-15.177-15.177s-15.177 6.795-15.177 15.177c0 8.382 6.795 15.177 15.177 15.177s15.177-6.795 15.177-15.177z"></path>
<path fill="#fed136" style="fill: var(--color2, #fed136)" d="M15.342 6.137c2.26 0 4.091 1.603 4.091 3.58v4.091h0.511c0.847 0 1.534 0.687 1.534 1.534v5.625c0 0.847-0.687 1.534-1.534 1.534h-9.205c-0.847 0-1.534-0.687-1.534-1.534v-5.625c0-0.848 0.687-1.534 1.534-1.534h0.511v-4.091c0-1.977 1.832-3.58 4.091-3.58zM17.271 13.808h-3.858c-0.075-0.16-0.116-0.332-0.116-0.512v-3.58c0-0.847 0.916-1.534 2.046-1.534s2.046 0.687 2.046 1.534v3.58c0 0.179-0.041 0.352-0.116 0.512zM16.365 19.16c0.611-0.354 1.023-1.015 1.023-1.772 0-1.129-0.916-2.045-2.046-2.045s-2.046 0.916-2.046 2.045c0 0.757 0.411 1.418 1.023 1.772v0.785c0 0.565 0.458 1.023 1.023 1.023s1.023-0.458 1.023-1.023v-0.785z"></path>
</symbol>
<symbol id="icon-Logo" viewBox="0 0 133 32">
<path fill="#fed136" style="fill: var(--color2, #fed136)" d="M51.698 12.944c0.689 0 1.034 0.089 1.034 0.266 0 0.197-0.345 0.354-1.034 0.473s-1.28 0.177-1.772 0.177c-1.378 5.081-2.353 8.231-2.924 9.452-1.457 3.092-3.033 5.297-4.726 6.617s-3.377 1.979-5.051 1.979c-1.753 0-3.121-0.61-4.106-1.831-0.374-0.453-0.561-0.886-0.561-1.3 0.020-0.197 0.079-0.305 0.177-0.325 0.158 0 0.345 0.148 0.561 0.443 0.335 0.453 0.62 0.807 0.857 1.063 0.256 0.256 0.62 0.512 1.093 0.768 0.492 0.256 1.004 0.384 1.536 0.384 1.398 0 2.737-0.482 4.017-1.447s2.373-2.196 3.279-3.692c0.906-1.497 1.664-3.013 2.274-4.549 0.61-1.516 1.073-2.974 1.388-4.372-0.827 1.595-2.393 2.934-4.697 4.017s-4.628 1.625-6.971 1.625c-2.481 0-4.45-0.709-5.908-2.127-1.457-1.438-2.186-3.21-2.186-5.317 0-1.241 0.217-2.442 0.65-3.604s1.024-2.206 1.772-3.131c0.768-0.945 1.664-1.802 2.688-2.57 1.024-0.788 2.117-1.438 3.279-1.95 1.182-0.532 2.402-0.945 3.663-1.241 1.28-0.295 2.54-0.443 3.781-0.443 0.276 0 0.551 0.010 0.827 0.030 1.418 0.079 2.57 0.295 3.456 0.65 0.906 0.354 1.477 0.719 1.713 1.093 0.118 0.197 0.177 0.374 0.177 0.532 0 0.079-0.020 0.167-0.059 0.266-0.039 0.079-0.089 0.148-0.148 0.207-0.039 0.039-0.108 0.108-0.207 0.207s-0.167 0.177-0.207 0.236c-0.059 0.079-0.128 0.187-0.207 0.325-0.079 0.118-0.158 0.236-0.236 0.354-0.059 0.118-0.128 0.236-0.207 0.354-0.079 0.098-0.158 0.187-0.236 0.266-0.059 0.059-0.118 0.089-0.177 0.089-0.039 0-0.079-0.010-0.118-0.030-0.020-0.020-0.039-0.049-0.059-0.089v-0.030c0-0.138 0.069-0.345 0.207-0.62 0.138-0.295 0.207-0.542 0.207-0.738 0-0.295-0.128-0.62-0.384-0.975-0.61-0.847-1.881-1.359-3.81-1.536-0.236-0.020-0.492-0.030-0.768-0.030-0.492 0-1.024 0.030-1.595 0.089-0.551 0.059-1.172 0.177-1.861 0.354-0.67 0.158-1.349 0.364-2.038 0.62-0.67 0.236-1.359 0.561-2.068 0.975-0.709 0.394-1.369 0.847-1.979 1.359-0.61 0.492-1.201 1.103-1.772 1.831-0.571 0.709-1.054 1.477-1.447 2.304-0.788 1.654-1.182 3.249-1.182 4.785 0 1.93 0.709 3.505 2.127 4.726 1.418 1.201 3.033 1.802 4.844 1.802 2.934 0 5.327-0.62 7.178-1.861 1.871-1.26 3.436-3.21 4.697-5.849-1.674 0.098-4.352 0.148-8.034 0.148-0.335 0-0.61-0.098-0.827-0.295-0.197-0.217-0.295-0.453-0.295-0.709s0.197-0.482 0.591-0.679c0.414-0.197 0.768-0.295 1.063-0.295 0.020 0 0.039 0 0.059 0 0.118 0 0.187 0.039 0.207 0.118 0 0.020-0.010 0.039-0.030 0.059-0.098 0.118-0.167 0.217-0.207 0.295-0.020 0.079 0.020 0.138 0.118 0.177 0.217 0 0.847 0.020 1.89 0.059 1.044 0.020 2.274 0.039 3.692 0.059 1.438 0 2.619 0 3.545 0 0.63 0 1.113 0 1.447 0zM62.029 12.531c0.374 0.059 0.561 0.167 0.561 0.325s-0.148 0.315-0.443 0.473c-0.295 0.138-0.561 0.207-0.798 0.207 0 2.304-0.601 4.273-1.802 5.908s-2.393 2.452-3.574 2.452c-1.142 0-1.713-0.827-1.713-2.481 0-0.453 0.039-0.906 0.118-1.359 0.098-0.512 0.276-1.172 0.532-1.979s0.591-1.684 1.004-2.629c0.414-0.945 0.916-1.743 1.506-2.393 0.61-0.67 1.221-1.004 1.831-1.004h0.207c0-0.276 0.079-0.512 0.236-0.709s0.374-0.295 0.65-0.295c0.276 0.020 0.522 0.601 0.738 1.743 0.217 1.122 0.532 1.703 0.945 1.743zM60.523 13.299c-0.177-0.098-0.394-0.443-0.65-1.034-0.256-0.61-0.433-0.916-0.532-0.916-0.61 0-1.319 0.906-2.127 2.718-0.807 1.792-1.31 3.21-1.506 4.254-0.079 0.453-0.118 0.866-0.118 1.241 0 0.965 0.276 1.447 0.827 1.447 0.788 0 1.664-0.798 2.629-2.393 0.985-1.615 1.477-3.387 1.477-5.317zM70.355 2.931c-1.083 2.245-2.186 4.962-3.308 8.153-1.122 3.17-1.95 5.947-2.481 8.33-0.020 0.059-0.030 0.138-0.030 0.236 0 0.236 0.098 0.354 0.295 0.354 0.118 0 0.433-0.148 0.945-0.443 0.532-0.295 0.866-0.443 1.004-0.443 0.118 0 0.207 0.039 0.266 0.118 0 0.236-0.492 0.679-1.477 1.329-0.985 0.63-1.684 0.945-2.097 0.945-0.374 0-0.561-0.177-0.561-0.532 0-0.197 0.039-0.404 0.118-0.62 0.512-1.398 0.985-2.786 1.418-4.165 0.453-1.378 0.965-3.013 1.536-4.903 0.571-1.91 0.994-3.318 1.27-4.224 0.059-0.177 0.089-0.354 0.089-0.532 0-0.079-0.020-0.148-0.059-0.207-0.020-0.079-0.030-0.148-0.030-0.207s0.030-0.177 0.089-0.354c0.394-1.241 0.758-2.068 1.093-2.481s0.827-0.62 1.477-0.62c0.276 0 0.423 0.089 0.443 0.266zM81.338 2.192c0.059 0.039 0.089 0.128 0.089 0.266 0 0.315-0.158 0.906-0.473 1.772-0.295 0.847-0.719 1.959-1.27 3.338-0.532 1.359-0.945 2.471-1.241 3.338 0.020-0.020 0.039-0.030 0.059-0.030 0.079 0 0.158 0.069 0.236 0.207 0.098 0.138 0.148 0.266 0.148 0.384s-0.098 0.177-0.295 0.177c-0.256 0-0.394-0.030-0.414-0.089-0.394 0.886-0.896 2.324-1.506 4.313-0.591 1.989-0.886 3.21-0.886 3.663s0.128 0.679 0.384 0.679c0.295 0 0.64-0.167 1.034-0.502 0.394-0.354 0.738-0.709 1.034-1.063 0.315-0.354 0.502-0.532 0.561-0.532s0.089 0.049 0.089 0.148c0 0.059-0.020 0.138-0.059 0.236-0.020 0.098-0.049 0.187-0.089 0.266-0.020 0.059-0.039 0.089-0.059 0.089-0.453 0.453-1.083 0.975-1.89 1.566-0.807 0.571-1.438 0.857-1.89 0.857-0.374 0-0.561-0.207-0.561-0.62 0-1.063 0.374-2.688 1.122-4.874-0.847 1.201-1.881 2.462-3.102 3.781-1.201 1.319-2.146 1.979-2.836 1.979-0.414 0-0.62-0.295-0.62-0.886 0-0.847 0.295-2.068 0.886-3.663 0.591-1.615 1.29-3.072 2.097-4.372 0.827-1.319 1.516-1.979 2.068-1.979h0.118c0.138 0 0.295-0.069 0.473-0.207 0.197-0.158 0.404-0.236 0.62-0.236 0.295 0 0.709 0.079 1.241 0.236 0.551 0.158 0.847 0.236 0.886 0.236 0.020 0 0.030-0.010 0.030-0.030 1.418-3.82 2.146-5.79 2.186-5.908-0.217 0-0.325-0.118-0.325-0.354 0-0.551 0.295-1.27 0.886-2.156 0.079-0.158 0.236-0.236 0.473-0.236 0.256 0 0.522 0.069 0.798 0.207zM77.114 11.32c0-0.217-0.581-0.325-1.743-0.325-0.335 0-0.581 0.020-0.738 0.059-0.433 0.118-1.27 1.31-2.511 3.574-1.221 2.265-1.831 3.919-1.831 4.962 0 0.315 0.098 0.473 0.295 0.473s0.482-0.158 0.857-0.473c0.374-0.315 0.719-0.65 1.034-1.004s0.66-0.738 1.034-1.152c0.374-0.433 0.571-0.67 0.591-0.709 0.532-0.591 1.014-1.28 1.447-2.068 0.453-0.807 0.817-1.556 1.093-2.245 0.295-0.689 0.453-1.054 0.473-1.093zM87.6 12.147c0.118 0.61 0.177 1.103 0.177 1.477 0 0.433-0.148 0.807-0.443 1.122-0.295 0.295-0.679 0.512-1.152 0.65-0.473 0.118-0.896 0.207-1.27 0.266-0.374 0.039-0.729 0.059-1.063 0.059-0.197 0-0.423 0-0.679 0-0.236-0.020-0.364-0.030-0.384-0.030-0.65 1.654-0.975 2.954-0.975 3.899 0 0.788 0.296 1.182 0.886 1.182 0.414 0 0.896-0.256 1.447-0.768 0.551-0.532 1.034-1.054 1.447-1.566 0.414-0.532 0.66-0.798 0.738-0.798 0.138 0 0.207 0.079 0.207 0.236 0 0.551-0.542 1.319-1.625 2.304-1.083 0.965-1.93 1.447-2.54 1.447-0.493 0-0.945-0.148-1.359-0.443-0.394-0.315-0.591-0.827-0.591-1.536 0-0.217 0.030-0.473 0.089-0.768 0.138-0.748 0.315-1.477 0.532-2.186 0.236-0.709 0.364-1.142 0.384-1.3-0.295-0.079-0.443-0.236-0.443-0.473 0-0.217 0.167-0.325 0.502-0.325h0.207c0.788-1.556 1.241-2.452 1.359-2.688 0.551-1.044 1.605-1.566 3.161-1.566 0.67 0 1.132 0.601 1.388 1.802zM86.536 13.565c0-0.492-0.049-0.916-0.148-1.27s-0.217-0.601-0.354-0.738c-0.118-0.138-0.246-0.207-0.384-0.207-0.394 0-0.866 0.423-1.418 1.27-0.532 0.847-0.926 1.595-1.182 2.245 0.039 0 0.197 0.010 0.473 0.030s0.512 0.030 0.709 0.030c0.807 0 1.388-0.089 1.743-0.266s0.542-0.542 0.561-1.093zM99.002 10.345c-1.004 1.674-1.94 3.594-2.806 5.76s-1.3 3.791-1.3 4.874c0 0.354 0.079 0.532 0.236 0.532 0.059 0 0.246-0.098 0.561-0.295 0.335-0.197 0.532-0.295 0.591-0.295 0.118 0 0.177 0.059 0.177 0.177 0 0.236-0.217 0.502-0.65 0.798s-0.866 0.443-1.3 0.443c-0.571 0-0.857-0.423-0.857-1.27 0-0.768 0.158-1.664 0.473-2.688s0.807-2.334 1.477-3.929c0.67-1.595 1.004-2.402 1.004-2.422 0.098-0.256 0.148-0.453 0.148-0.591 0-0.098-0.030-0.148-0.089-0.148-0.098 0-0.315 0.177-0.65 0.532-0.847 0.945-2.058 2.56-3.633 4.844s-2.383 3.692-2.422 4.224c-0.020 0.138-0.207 0.325-0.561 0.561-0.354 0.256-0.65 0.384-0.886 0.384-0.138 0-0.217-0.069-0.236-0.207 0.039 0.059 0.404-0.926 1.093-2.954 0.709-2.028 1.211-3.495 1.506-4.401 0.079-0.236 0.118-0.414 0.118-0.532 0-0.079-0.020-0.148-0.059-0.207-0.020-0.079-0.030-0.138-0.030-0.177 0-0.079 0.030-0.207 0.089-0.384 0.453-1.26 0.837-2.087 1.152-2.481 0.315-0.414 0.798-0.62 1.447-0.62 0.256 0 0.404 0.089 0.443 0.266-1.615 3.308-2.58 5.671-2.895 7.089 3.249-5.238 5.74-7.857 7.473-7.857 0.394 0 0.591 0.128 0.591 0.384 0 0.177-0.069 0.374-0.207 0.591z"></path>
</symbol>
</defs>
</svg>
