<svg width="74" height="73" viewBox="0 0 74 73" fill="none" xmlns="http://www.w3.org/2000/svg">
<path d="M71.579 36.309C71.579 17.1877 56.0781 1.68708 36.9568 1.68708C17.8356 1.68708 2.3347 17.1877 2.3347 36.309C2.3347 55.43 17.8355 70.9314 36.9568 70.9314C56.0781 70.9314 71.579 55.43 71.579 36.309Z" fill="white" stroke="#FED136" stroke-width="3"/>
<path fill-rule="evenodd" clip-rule="evenodd" d="M34.9994 14C40.1539 14 44.3323 17.6563 44.3323 22.1667V31.4996H45.499C47.4319 31.4996 48.9988 33.0663 48.9988 34.9997V47.8321C48.9988 49.7648 47.4319 51.3322 45.499 51.3322H24.4999C22.567 51.3322 21 49.7648 21 47.8321V34.9997C21 33.0663 22.567 31.4996 24.4999 31.4996H25.6665V22.1667C25.6665 17.6563 29.845 14 34.9994 14ZM39.4001 31.4996H30.5986C30.4265 31.1346 30.3329 30.7417 30.3329 30.3325V22.1667C30.3329 20.234 32.4222 18.6666 34.9994 18.6666C37.5766 18.6666 39.6658 20.234 39.6658 22.1667V30.3325C39.6658 30.7417 39.5722 31.1346 39.4001 31.4996ZM37.3326 43.7079C38.7274 42.9009 39.6658 41.3926 39.6658 39.6654C39.6658 37.089 37.5766 34.9997 34.9994 34.9997C32.4222 34.9997 30.3329 37.089 30.3329 39.6654C30.3329 41.3927 31.2714 42.901 32.6662 43.7079V45.4984C32.6662 46.788 33.7108 47.8321 34.9994 47.8321C36.2881 47.8321 37.3326 46.788 37.3326 45.4984V43.7079Z" fill="#FED136"/>
</svg>
