<svg width="74" height="73" viewBox="0 0 74 73" fill="none" xmlns="http://www.w3.org/2000/svg">
<path d="M71.5371 36.3166C71.5371 17.1949 56.0362 1.69453 36.915 1.69453C17.7937 1.69453 2.29291 17.1949 2.29291 36.3166C2.29291 55.4374 17.7937 70.9384 36.915 70.9384C56.0363 70.9384 71.5371 55.4374 71.5371 36.3166Z" fill="white" stroke="#FED136" stroke-width="3"/>
<path fill-rule="evenodd" clip-rule="evenodd" d="M49.634 18H22.7268C20.4978 18 18.6907 19.8069 18.6907 22.0358V39.5256C18.6907 39.9973 18.7717 40.4502 18.9204 40.871H18.6907V43.5617H22.7268V22.0358H49.634V43.5617H53.6702V40.871H53.4404C53.5892 40.4502 53.6702 39.9973 53.6702 39.5256V22.0358C53.6702 19.8069 51.863 18 49.634 18ZM18.6907 46.2519H53.6702C55.1561 46.2519 56.3609 47.4571 56.3609 48.9432C56.3609 50.4291 53.8108 51.6338 52.3248 51.6338H20.0361C18.55 51.6338 16 50.4291 16 48.9432C16 47.4571 17.2048 46.2519 18.6907 46.2519ZM40.2166 48.9432H32.1444C31.4013 48.9432 30.7991 49.2443 30.7991 49.6156C30.7991 49.987 31.4013 50.2883 32.1444 50.2883H40.2166C40.9596 50.2883 41.562 49.987 41.562 49.6156C41.562 49.2443 40.9596 48.9432 40.2166 48.9432ZM27.147 33.7839L29.0413 31.8807C29.5642 31.3556 30.4123 31.3556 30.9353 31.8807L33.4182 34.375L41.4206 26.337C41.9436 25.8113 42.7918 25.8113 43.3148 26.337L45.209 28.2391C45.732 28.7645 45.732 29.6167 45.209 30.142L34.791 40.6063C34.3431 41.0562 33.6569 41.1208 33.1405 40.8002C32.7031 40.9046 32.2236 40.7854 31.8824 40.4427L27.147 35.6864C26.624 35.1611 26.624 34.3096 27.147 33.7839Z" fill="#FED136"/>
</svg>
