<svg width="270" height="74" viewBox="0 0 270 74" fill="none" xmlns="http://www.w3.org/2000/svg">
<path d="M8.99609 3.04688V13H6.94531V4.65332H2.94629V13H0.895508V3.04688H8.99609ZM17.8448 3.04688V4.65332H12.8956V3.04688H17.8448ZM19.3077 3.04688V13H17.2569V3.04688H19.3077ZM12.6358 3.04688H14.6798L14.4268 8.04395C14.3904 8.79134 14.3197 9.44076 14.2149 9.99219C14.1147 10.5436 13.9779 11.013 13.8048 11.4004C13.6316 11.7832 13.4174 12.0931 13.1622 12.3301C12.9115 12.5625 12.6153 12.7334 12.2735 12.8428C11.9317 12.9476 11.5421 13 11.1046 13H10.5987V11.4004L10.8585 11.3799C11.0818 11.3571 11.2777 11.2979 11.4464 11.2021C11.615 11.1064 11.7585 10.9629 11.877 10.7715C12.0001 10.5801 12.1003 10.3363 12.1778 10.04C12.2598 9.73926 12.3236 9.3724 12.3692 8.93945C12.4193 8.50651 12.4535 8.00065 12.4718 7.42188L12.6358 3.04688ZM25.6818 4.74902L22.9748 13H20.7941L24.4923 3.04688H25.88L25.6818 4.74902ZM27.9308 13L25.217 4.74902L24.9982 3.04688H26.3996L30.1183 13H27.9308ZM27.8078 9.29492V10.9014H22.5509V9.29492H27.8078ZM38.0989 7.10059V8.7002H32.9036V7.10059H38.0989ZM33.512 3.04688V13H31.4612V3.04688H33.512ZM39.5618 3.04688V13H37.5178V3.04688H39.5618ZM44.89 9.39062L47.3372 3.04688H49.5452L46.1341 11.0723C46.0156 11.3457 45.8789 11.6077 45.7239 11.8584C45.5736 12.1045 45.3935 12.3255 45.1839 12.5215C44.9743 12.7129 44.7236 12.8656 44.432 12.9795C44.1403 13.0889 43.7917 13.1436 43.3861 13.1436C43.2858 13.1436 43.1627 13.1413 43.0169 13.1367C42.8711 13.1322 42.7549 13.1253 42.6683 13.1162L42.6546 11.5166C42.7093 11.5303 42.7959 11.5394 42.9144 11.5439C43.0329 11.5439 43.1195 11.5439 43.1741 11.5439C43.443 11.5439 43.6549 11.5052 43.8099 11.4277C43.9648 11.3503 44.0879 11.2409 44.179 11.0996C44.2747 10.9538 44.359 10.7829 44.432 10.5869L44.89 9.39062ZM43.2698 3.04688L45.5394 7.97559L46.1751 10.2383L44.6507 10.2656L41.0687 3.04688H43.2698ZM54.9281 8.63184H52.3715L52.3578 7.22363H54.5043C54.8826 7.22363 55.1924 7.17578 55.434 7.08008C55.6755 6.97982 55.8555 6.83626 55.974 6.64941C56.0971 6.45801 56.1586 6.22559 56.1586 5.95215C56.1586 5.64225 56.0993 5.3916 55.9809 5.2002C55.8669 5.00879 55.6869 4.86979 55.4408 4.7832C55.1993 4.69661 54.8871 4.65332 54.5043 4.65332H53.0824V13H51.0316V3.04688H54.5043C55.0831 3.04688 55.6003 3.10156 56.0561 3.21094C56.5163 3.32031 56.906 3.48665 57.225 3.70996C57.544 3.93327 57.7878 4.21582 57.9564 4.55762C58.1251 4.89486 58.2094 5.2959 58.2094 5.76074C58.2094 6.1709 58.1159 6.54915 57.9291 6.89551C57.7468 7.24186 57.4574 7.52441 57.0609 7.74316C56.669 7.96191 56.1563 8.08268 55.5229 8.10547L54.9281 8.63184ZM54.8393 13H51.8109L52.6107 11.4004H54.8393C55.1993 11.4004 55.4932 11.3434 55.7211 11.2295C55.949 11.111 56.1176 10.9515 56.227 10.751C56.3363 10.5505 56.391 10.3203 56.391 10.0605C56.391 9.76888 56.3409 9.51595 56.2406 9.30176C56.1449 9.08757 55.99 8.9235 55.7758 8.80957C55.5616 8.69108 55.279 8.63184 54.9281 8.63184H52.9525L52.9662 7.22363H55.4271L55.8988 7.77734C56.5049 7.76823 56.9926 7.87533 57.3617 8.09863C57.7354 8.31738 58.0066 8.60221 58.1752 8.95312C58.3484 9.30404 58.435 9.68001 58.435 10.0811C58.435 10.7191 58.296 11.2568 58.018 11.6943C57.74 12.1273 57.3321 12.4531 56.7943 12.6719C56.2611 12.8906 55.6094 13 54.8393 13ZM64.4399 4.74902L61.7329 13H59.5522L63.2505 3.04688H64.6382L64.4399 4.74902ZM66.6889 13L63.9751 4.74902L63.7563 3.04688H65.1577L68.8764 13H66.6889ZM66.5659 9.29492V10.9014H61.3091V9.29492H66.5659ZM76.857 7.10059V8.7002H71.6617V7.10059H76.857ZM72.2701 3.04688V13H70.2193V3.04688H72.2701ZM78.3199 3.04688V13H76.2759V3.04688H78.3199ZM87.1618 7.10059V8.7002H81.9664V7.10059H87.1618ZM82.5748 3.04688V13H80.5241V3.04688H82.5748ZM88.6246 3.04688V13H86.5807V3.04688H88.6246ZM96.1198 9.38379H93.4128L92.7224 9.09668C91.9431 8.85059 91.3461 8.48145 90.9314 7.98926C90.5212 7.49707 90.3161 6.87044 90.3161 6.10938C90.3161 5.43945 90.4642 4.87891 90.7605 4.42773C91.0612 3.97201 91.4851 3.62793 92.032 3.39551C92.5834 3.16309 93.2374 3.04688 93.9939 3.04688H97.4665V13H95.4089V4.65332H93.9939C93.4333 4.65332 93.0209 4.79232 92.7566 5.07031C92.4922 5.34831 92.3601 5.74251 92.3601 6.25293C92.3601 6.62663 92.4216 6.93424 92.5446 7.17578C92.6677 7.41276 92.8477 7.59049 93.0847 7.70898C93.3217 7.82292 93.6202 7.87988 93.9802 7.87988H96.113L96.1198 9.38379ZM94.1443 8.55664L91.9362 13H89.7146L91.9294 8.55664H94.1443Z" fill="#212121"/>
<path d="M4.83301 33.0469V43H3.53418V33.0469H4.83301ZM8.03223 33.0469V34.127H0.341797V33.0469H8.03223ZM13.3194 41.7354V37.9277C13.3194 37.6361 13.2602 37.3831 13.1417 37.1689C13.0277 36.9502 12.8546 36.7816 12.6221 36.6631C12.3897 36.5446 12.1026 36.4854 11.7608 36.4854C11.4418 36.4854 11.1615 36.54 10.92 36.6494C10.683 36.7588 10.4962 36.9023 10.3595 37.0801C10.2273 37.2578 10.1612 37.4492 10.1612 37.6543H8.89656C8.89656 37.39 8.96492 37.1279 9.10164 36.8682C9.23836 36.6084 9.43432 36.3737 9.68953 36.1641C9.9493 35.9499 10.2592 35.7812 10.6192 35.6582C10.9838 35.5306 11.3894 35.4668 11.836 35.4668C12.3738 35.4668 12.8477 35.5579 13.2579 35.7402C13.6726 35.9225 13.9962 36.1982 14.2286 36.5674C14.4656 36.932 14.5841 37.39 14.5841 37.9414V41.3867C14.5841 41.6328 14.6046 41.8949 14.6456 42.1729C14.6912 42.4508 14.7572 42.6901 14.8438 42.8906V43H13.5245C13.4607 42.8542 13.4106 42.6605 13.3741 42.4189C13.3376 42.1729 13.3194 41.945 13.3194 41.7354ZM13.5382 38.5156L13.5518 39.4043H12.2735C11.9135 39.4043 11.5922 39.4339 11.3096 39.4932C11.0271 39.5479 10.7901 39.6322 10.5987 39.7461C10.4073 39.86 10.2615 40.0036 10.1612 40.1768C10.061 40.3454 10.0108 40.5436 10.0108 40.7715C10.0108 41.0039 10.0632 41.2158 10.168 41.4072C10.2729 41.5986 10.4301 41.7513 10.6397 41.8652C10.8539 41.9746 11.116 42.0293 11.4259 42.0293C11.8132 42.0293 12.155 41.9473 12.4513 41.7832C12.7475 41.6191 12.9822 41.4186 13.1554 41.1816C13.3331 40.9447 13.4288 40.7145 13.4425 40.4912L13.9825 41.0996C13.9506 41.291 13.864 41.5029 13.7227 41.7354C13.5815 41.9678 13.3923 42.1911 13.1554 42.4053C12.9229 42.6149 12.6449 42.7904 12.3214 42.9316C12.0024 43.0684 11.6423 43.1367 11.2413 43.1367C10.74 43.1367 10.3002 43.0387 9.92195 42.8428C9.54826 42.6468 9.25659 42.3848 9.04695 42.0566C8.84188 41.724 8.73934 41.3525 8.73934 40.9424C8.73934 40.5459 8.81681 40.1973 8.97176 39.8965C9.12671 39.5911 9.35001 39.3382 9.64168 39.1377C9.93335 38.9326 10.2843 38.7777 10.6944 38.6729C11.1046 38.568 11.5626 38.5156 12.0684 38.5156H13.5382ZM18.3673 35.6035V43H17.1027V35.6035H18.3673ZM23.2209 35.6035L19.714 39.8418H17.9435L17.7521 38.7344H19.2013L21.6828 35.6035H23.2209ZM21.8605 43L19.1398 39.6504L19.9533 38.7344L23.467 43H21.8605ZM31.8402 42.0977C32.1409 42.0977 32.4189 42.0361 32.6741 41.9131C32.9293 41.79 33.139 41.6214 33.303 41.4072C33.4671 41.1885 33.5605 40.9401 33.5833 40.6621H34.7864C34.7637 41.0996 34.6155 41.5075 34.3421 41.8857C34.0732 42.2594 33.72 42.5625 33.2825 42.7949C32.845 43.0228 32.3642 43.1367 31.8402 43.1367C31.2842 43.1367 30.7988 43.0387 30.3841 42.8428C29.9739 42.6468 29.6321 42.3779 29.3587 42.0361C29.0898 41.6943 28.887 41.3024 28.7503 40.8604C28.6182 40.4137 28.5521 39.9421 28.5521 39.4453V39.1582C28.5521 38.6615 28.6182 38.1921 28.7503 37.75C28.887 37.3034 29.0898 36.9092 29.3587 36.5674C29.6321 36.2256 29.9739 35.9567 30.3841 35.7607C30.7988 35.5648 31.2842 35.4668 31.8402 35.4668C32.4189 35.4668 32.9248 35.5853 33.3577 35.8223C33.7907 36.0547 34.1302 36.3737 34.3763 36.7793C34.6269 37.1803 34.7637 37.6361 34.7864 38.1465H33.5833C33.5605 37.8411 33.4739 37.5654 33.3236 37.3193C33.1777 37.0732 32.9772 36.8773 32.722 36.7314C32.4713 36.5811 32.1774 36.5059 31.8402 36.5059C31.4528 36.5059 31.1269 36.5833 30.8626 36.7383C30.6029 36.8887 30.3955 37.0938 30.2405 37.3535C30.0902 37.6087 29.9808 37.8936 29.9124 38.208C29.8486 38.5179 29.8167 38.8346 29.8167 39.1582V39.4453C29.8167 39.7689 29.8486 40.0879 29.9124 40.4023C29.9762 40.7168 30.0833 41.0016 30.2337 41.2568C30.3887 41.512 30.596 41.7171 30.8558 41.8721C31.1201 42.0225 31.4482 42.0977 31.8402 42.0977ZM40.9896 41.7354V37.9277C40.9896 37.6361 40.9304 37.3831 40.8119 37.1689C40.698 36.9502 40.5248 36.7816 40.2924 36.6631C40.06 36.5446 39.7729 36.4854 39.4311 36.4854C39.112 36.4854 38.8318 36.54 38.5902 36.6494C38.3533 36.7588 38.1664 36.9023 38.0297 37.0801C37.8975 37.2578 37.8314 37.4492 37.8314 37.6543H36.5668C36.5668 37.39 36.6352 37.1279 36.7719 36.8682C36.9086 36.6084 37.1046 36.3737 37.3598 36.1641C37.6195 35.9499 37.9294 35.7812 38.2895 35.6582C38.654 35.5306 39.0596 35.4668 39.5062 35.4668C40.044 35.4668 40.518 35.5579 40.9281 35.7402C41.3428 35.9225 41.6664 36.1982 41.8988 36.5674C42.1358 36.932 42.2543 37.39 42.2543 37.9414V41.3867C42.2543 41.6328 42.2748 41.8949 42.3158 42.1729C42.3614 42.4508 42.4275 42.6901 42.5141 42.8906V43H41.1947C41.1309 42.8542 41.0808 42.6605 41.0443 42.4189C41.0079 42.1729 40.9896 41.945 40.9896 41.7354ZM41.2084 38.5156L41.2221 39.4043H39.9437C39.5837 39.4043 39.2624 39.4339 38.9799 39.4932C38.6973 39.5479 38.4604 39.6322 38.2689 39.7461C38.0775 39.86 37.9317 40.0036 37.8314 40.1768C37.7312 40.3454 37.6811 40.5436 37.6811 40.7715C37.6811 41.0039 37.7335 41.2158 37.8383 41.4072C37.9431 41.5986 38.1003 41.7513 38.31 41.8652C38.5242 41.9746 38.7862 42.0293 39.0961 42.0293C39.4835 42.0293 39.8253 41.9473 40.1215 41.7832C40.4177 41.6191 40.6524 41.4186 40.8256 41.1816C41.0033 40.9447 41.099 40.7145 41.1127 40.4912L41.6527 41.0996C41.6208 41.291 41.5342 41.5029 41.393 41.7354C41.2517 41.9678 41.0626 42.1911 40.8256 42.4053C40.5932 42.6149 40.3152 42.7904 39.9916 42.9316C39.6726 43.0684 39.3126 43.1367 38.9115 43.1367C38.4102 43.1367 37.9704 43.0387 37.5922 42.8428C37.2185 42.6468 36.9268 42.3848 36.7172 42.0566C36.5121 41.724 36.4096 41.3525 36.4096 40.9424C36.4096 40.5459 36.487 40.1973 36.642 39.8965C36.7969 39.5911 37.0202 39.3382 37.3119 39.1377C37.6036 38.9326 37.9545 38.7777 38.3646 38.6729C38.7748 38.568 39.2328 38.5156 39.7387 38.5156H41.2084ZM48.9155 41.3184L51.4311 35.6035H52.6479L49.353 43H48.478L45.1968 35.6035H46.4136L48.9155 41.3184ZM46.0444 35.6035V43H44.7798V35.6035H46.0444ZM51.7456 43V35.6035H53.0171V43H51.7456ZM55.1392 39.3838V39.2266C55.1392 38.6934 55.2167 38.1989 55.3716 37.7432C55.5266 37.2829 55.7499 36.8841 56.0416 36.5469C56.3332 36.2051 56.6864 35.9408 57.1011 35.7539C57.5158 35.5625 57.9807 35.4668 58.4957 35.4668C59.0152 35.4668 59.4823 35.5625 59.897 35.7539C60.3163 35.9408 60.6718 36.2051 60.9634 36.5469C61.2597 36.8841 61.4852 37.2829 61.6402 37.7432C61.7951 38.1989 61.8726 38.6934 61.8726 39.2266V39.3838C61.8726 39.917 61.7951 40.4115 61.6402 40.8672C61.4852 41.3229 61.2597 41.7217 60.9634 42.0635C60.6718 42.4007 60.3186 42.665 59.9039 42.8564C59.4937 43.0433 59.0289 43.1367 58.5093 43.1367C57.9898 43.1367 57.5227 43.0433 57.108 42.8564C56.6933 42.665 56.3378 42.4007 56.0416 42.0635C55.7499 41.7217 55.5266 41.3229 55.3716 40.8672C55.2167 40.4115 55.1392 39.917 55.1392 39.3838ZM56.4039 39.2266V39.3838C56.4039 39.7529 56.4472 40.1016 56.5337 40.4297C56.6203 40.7533 56.7502 41.0404 56.9234 41.291C57.1011 41.5417 57.3222 41.7399 57.5865 41.8857C57.8508 42.027 58.1584 42.0977 58.5093 42.0977C58.8557 42.0977 59.1587 42.027 59.4185 41.8857C59.6828 41.7399 59.9016 41.5417 60.0748 41.291C60.2479 41.0404 60.3778 40.7533 60.4644 40.4297C60.5556 40.1016 60.6011 39.7529 60.6011 39.3838V39.2266C60.6011 38.862 60.5556 38.5179 60.4644 38.1943C60.3778 37.8662 60.2457 37.5768 60.0679 37.3262C59.8948 37.071 59.676 36.8704 59.4117 36.7246C59.1519 36.5788 58.8466 36.5059 58.4957 36.5059C58.1493 36.5059 57.844 36.5788 57.5796 36.7246C57.3199 36.8704 57.1011 37.071 56.9234 37.3262C56.7502 37.5768 56.6203 37.8662 56.5337 38.1943C56.4472 38.5179 56.4039 38.862 56.4039 39.2266ZM69.1452 35.6035V43H67.8806V35.6035H69.1452ZM73.9987 35.6035L70.4919 39.8418H68.7214L68.53 38.7344H69.9792L72.4607 35.6035H73.9987ZM72.6384 43L69.9177 39.6504L70.7312 38.7344L74.2448 43H72.6384ZM75.2801 39.3838V39.2266C75.2801 38.6934 75.3575 38.1989 75.5125 37.7432C75.6674 37.2829 75.8908 36.8841 76.1824 36.5469C76.4741 36.2051 76.8273 35.9408 77.242 35.7539C77.6567 35.5625 78.1215 35.4668 78.6365 35.4668C79.1561 35.4668 79.6232 35.5625 80.0379 35.7539C80.4572 35.9408 80.8126 36.2051 81.1043 36.5469C81.4005 36.8841 81.6261 37.2829 81.7811 37.7432C81.936 38.1989 82.0135 38.6934 82.0135 39.2266V39.3838C82.0135 39.917 81.936 40.4115 81.7811 40.8672C81.6261 41.3229 81.4005 41.7217 81.1043 42.0635C80.8126 42.4007 80.4594 42.665 80.0447 42.8564C79.6346 43.0433 79.1697 43.1367 78.6502 43.1367C78.1307 43.1367 77.6635 43.0433 77.2488 42.8564C76.8341 42.665 76.4786 42.4007 76.1824 42.0635C75.8908 41.7217 75.6674 41.3229 75.5125 40.8672C75.3575 40.4115 75.2801 39.917 75.2801 39.3838ZM76.5447 39.2266V39.3838C76.5447 39.7529 76.588 40.1016 76.6746 40.4297C76.7612 40.7533 76.8911 41.0404 77.0643 41.291C77.242 41.5417 77.463 41.7399 77.7273 41.8857C77.9917 42.027 78.2993 42.0977 78.6502 42.0977C78.9965 42.0977 79.2996 42.027 79.5594 41.8857C79.8237 41.7399 80.0424 41.5417 80.2156 41.291C80.3888 41.0404 80.5187 40.7533 80.6053 40.4297C80.6964 40.1016 80.742 39.7529 80.742 39.3838V39.2266C80.742 38.862 80.6964 38.5179 80.6053 38.1943C80.5187 37.8662 80.3865 37.5768 80.2088 37.3262C80.0356 37.071 79.8169 36.8704 79.5525 36.7246C79.2928 36.5788 78.9874 36.5059 78.6365 36.5059C78.2902 36.5059 77.9848 36.5788 77.7205 36.7246C77.4607 36.8704 77.242 37.071 77.0643 37.3262C76.8911 37.5768 76.7612 37.8662 76.6746 38.1943C76.588 38.5179 76.5447 38.862 76.5447 39.2266ZM89.037 38.8096V39.835H85.1268V38.8096H89.037ZM85.3934 35.6035V43H84.1288V35.6035H85.3934ZM90.0624 35.6035V43H88.7909V35.6035H90.0624ZM95.4795 42.0977C95.7802 42.0977 96.0582 42.0361 96.3134 41.9131C96.5686 41.79 96.7783 41.6214 96.9423 41.4072C97.1064 41.1885 97.1998 40.9401 97.2226 40.6621H98.4257C98.403 41.0996 98.2548 41.5075 97.9814 41.8857C97.7125 42.2594 97.3593 42.5625 96.9218 42.7949C96.4843 43.0228 96.0035 43.1367 95.4795 43.1367C94.9235 43.1367 94.4381 43.0387 94.0234 42.8428C93.6132 42.6468 93.2714 42.3779 92.998 42.0361C92.7291 41.6943 92.5263 41.3024 92.3896 40.8604C92.2574 40.4137 92.1914 39.9421 92.1914 39.4453V39.1582C92.1914 38.6615 92.2574 38.1921 92.3896 37.75C92.5263 37.3034 92.7291 36.9092 92.998 36.5674C93.2714 36.2256 93.6132 35.9567 94.0234 35.7607C94.4381 35.5648 94.9235 35.4668 95.4795 35.4668C96.0582 35.4668 96.5641 35.5853 96.997 35.8223C97.43 36.0547 97.7695 36.3737 98.0156 36.7793C98.2662 37.1803 98.403 37.6361 98.4257 38.1465H97.2226C97.1998 37.8411 97.1132 37.5654 96.9629 37.3193C96.817 37.0732 96.6165 36.8773 96.3613 36.7314C96.1106 36.5811 95.8167 36.5059 95.4795 36.5059C95.0921 36.5059 94.7662 36.5833 94.5019 36.7383C94.2421 36.8887 94.0348 37.0938 93.8798 37.3535C93.7295 37.6087 93.6201 37.8936 93.5517 38.208C93.4879 38.5179 93.456 38.8346 93.456 39.1582V39.4453C93.456 39.7689 93.4879 40.0879 93.5517 40.4023C93.6155 40.7168 93.7226 41.0016 93.873 41.2568C94.028 41.512 94.2353 41.7171 94.4951 41.8721C94.7594 42.0225 95.0875 42.0977 95.4795 42.0977ZM102.346 42.2344L104.403 35.6035H105.757L102.79 44.1416C102.722 44.3239 102.631 44.5199 102.517 44.7295C102.407 44.9437 102.266 45.1465 102.093 45.3379C101.92 45.5293 101.71 45.6842 101.464 45.8027C101.222 45.9258 100.933 45.9873 100.596 45.9873C100.495 45.9873 100.368 45.9736 100.213 45.9463C100.058 45.9189 99.9486 45.8962 99.8848 45.8779L99.878 44.8525C99.9144 44.8571 99.9714 44.8617 100.049 44.8662C100.131 44.8753 100.188 44.8799 100.22 44.8799C100.507 44.8799 100.751 44.8411 100.951 44.7637C101.152 44.6908 101.32 44.5654 101.457 44.3877C101.598 44.2145 101.719 43.9753 101.819 43.6699L102.346 42.2344ZM100.835 35.6035L102.756 41.3457L103.084 42.6787L102.175 43.1436L99.4541 35.6035H100.835ZM111.974 35.6035V36.6494H108.399V35.6035H111.974ZM113.088 35.6035V43H111.823V35.6035H113.088ZM108.091 35.6035H109.362L109.171 39.1719C109.139 39.7233 109.087 40.2109 109.014 40.6348C108.945 41.054 108.85 41.4141 108.727 41.7148C108.608 42.0156 108.458 42.2617 108.276 42.4531C108.098 42.64 107.884 42.779 107.633 42.8701C107.382 42.9567 107.093 43 106.765 43H106.368V41.8857L106.642 41.8652C106.838 41.8516 107.004 41.806 107.141 41.7285C107.282 41.651 107.401 41.5371 107.496 41.3867C107.592 41.2318 107.669 41.0335 107.729 40.792C107.792 40.5505 107.84 40.2633 107.872 39.9307C107.909 39.598 107.936 39.2106 107.954 38.7686L108.091 35.6035ZM116.584 38.1465H118.806C119.403 38.1465 119.906 38.2513 120.317 38.4609C120.727 38.666 121.037 38.9508 121.246 39.3154C121.46 39.6755 121.568 40.0856 121.568 40.5459C121.568 40.8877 121.508 41.209 121.39 41.5098C121.271 41.806 121.094 42.0658 120.857 42.2891C120.624 42.5124 120.335 42.6878 119.988 42.8154C119.647 42.9385 119.252 43 118.806 43H115.661V35.6035H116.926V41.9609H118.806C119.17 41.9609 119.462 41.8949 119.681 41.7627C119.9 41.6305 120.057 41.4596 120.153 41.25C120.248 41.0404 120.296 40.8216 120.296 40.5938C120.296 40.3704 120.248 40.1517 120.153 39.9375C120.057 39.7233 119.9 39.5456 119.681 39.4043C119.462 39.2585 119.17 39.1855 118.806 39.1855H116.584V38.1465ZM126.103 35.6035V43H124.831V35.6035H126.103ZM128.584 35.6035V36.6289H122.398V35.6035H128.584ZM134.5 41.7354V37.9277C134.5 37.6361 134.441 37.3831 134.323 37.1689C134.209 36.9502 134.036 36.7816 133.803 36.6631C133.571 36.5446 133.284 36.4854 132.942 36.4854C132.623 36.4854 132.342 36.54 132.101 36.6494C131.864 36.7588 131.677 36.9023 131.54 37.0801C131.408 37.2578 131.342 37.4492 131.342 37.6543H130.077C130.077 37.39 130.146 37.1279 130.283 36.8682C130.419 36.6084 130.615 36.3737 130.87 36.1641C131.13 35.9499 131.44 35.7812 131.8 35.6582C132.165 35.5306 132.57 35.4668 133.017 35.4668C133.555 35.4668 134.029 35.5579 134.439 35.7402C134.854 35.9225 135.177 36.1982 135.41 36.5674C135.647 36.932 135.765 37.39 135.765 37.9414V41.3867C135.765 41.6328 135.786 41.8949 135.827 42.1729C135.872 42.4508 135.938 42.6901 136.025 42.8906V43H134.705C134.642 42.8542 134.591 42.6605 134.555 42.4189C134.519 42.1729 134.5 41.945 134.5 41.7354ZM134.719 38.5156L134.733 39.4043H133.454C133.094 39.4043 132.773 39.4339 132.491 39.4932C132.208 39.5479 131.971 39.6322 131.78 39.7461C131.588 39.86 131.442 40.0036 131.342 40.1768C131.242 40.3454 131.192 40.5436 131.192 40.7715C131.192 41.0039 131.244 41.2158 131.349 41.4072C131.454 41.5986 131.611 41.7513 131.821 41.8652C132.035 41.9746 132.297 42.0293 132.607 42.0293C132.994 42.0293 133.336 41.9473 133.632 41.7832C133.928 41.6191 134.163 41.4186 134.336 41.1816C134.514 40.9447 134.61 40.7145 134.623 40.4912L135.163 41.0996C135.132 41.291 135.045 41.5029 134.904 41.7354C134.762 41.9678 134.573 42.1911 134.336 42.4053C134.104 42.6149 133.826 42.7904 133.502 42.9316C133.183 43.0684 132.823 43.1367 132.422 43.1367C131.921 43.1367 131.481 43.0387 131.103 42.8428C130.729 42.6468 130.438 42.3848 130.228 42.0566C130.023 41.724 129.92 41.3525 129.92 40.9424C129.92 40.5459 129.998 40.1973 130.153 39.8965C130.308 39.5911 130.531 39.3382 130.823 39.1377C131.114 38.9326 131.465 38.7777 131.875 38.6729C132.286 38.568 132.744 38.5156 133.249 38.5156H134.719ZM138.284 43V35.6035H139.548V41.9609H142.953V35.6035H144.224V43H138.284ZM145.099 41.9609L144.976 45.1943H143.848V43H142.884V41.9609H145.099ZM148.267 35.6035V43H146.996V35.6035H148.267ZM146.9 33.6416C146.9 33.4365 146.961 33.2633 147.084 33.1221C147.212 32.9808 147.399 32.9102 147.645 32.9102C147.887 32.9102 148.071 32.9808 148.199 33.1221C148.331 33.2633 148.397 33.4365 148.397 33.6416C148.397 33.8376 148.331 34.0062 148.199 34.1475C148.071 34.2842 147.887 34.3525 147.645 34.3525C147.399 34.3525 147.212 34.2842 147.084 34.1475C146.961 34.0062 146.9 33.8376 146.9 33.6416ZM152.214 39.4727H153.582L151.442 43H150.075L152.214 39.4727ZM153.274 35.6035H156.364V43H155.099V36.6289H153.274C152.914 36.6289 152.62 36.6904 152.392 36.8135C152.164 36.932 151.998 37.0869 151.893 37.2783C151.788 37.4697 151.736 37.668 151.736 37.873C151.736 38.0736 151.784 38.2673 151.879 38.4541C151.975 38.6364 152.126 38.7868 152.331 38.9053C152.536 39.0238 152.8 39.083 153.124 39.083H155.441V40.1221H153.124C152.7 40.1221 152.324 40.0651 151.996 39.9512C151.668 39.8372 151.39 39.68 151.162 39.4795C150.934 39.2744 150.761 39.0352 150.642 38.7617C150.524 38.4837 150.464 38.1829 150.464 37.8594C150.464 37.5358 150.526 37.2373 150.649 36.9639C150.777 36.6904 150.959 36.4512 151.196 36.2461C151.437 36.041 151.731 35.8838 152.078 35.7744C152.429 35.6605 152.827 35.6035 153.274 35.6035ZM165.475 39.4658H164.115V38.6865H165.373C165.724 38.6865 166.002 38.6432 166.207 38.5566C166.412 38.4655 166.558 38.3402 166.644 38.1807C166.731 38.0212 166.774 37.8343 166.774 37.6201C166.774 37.4287 166.724 37.2487 166.624 37.0801C166.528 36.9069 166.373 36.7679 166.159 36.6631C165.945 36.5537 165.658 36.499 165.298 36.499C165.006 36.499 164.742 36.5514 164.505 36.6562C164.268 36.7565 164.079 36.8955 163.937 37.0732C163.801 37.2464 163.732 37.4424 163.732 37.6611H162.468C162.468 37.21 162.595 36.8226 162.85 36.499C163.11 36.1709 163.454 35.918 163.883 35.7402C164.316 35.5625 164.787 35.4736 165.298 35.4736C165.726 35.4736 166.109 35.5215 166.446 35.6172C166.788 35.7083 167.077 35.8451 167.314 36.0273C167.551 36.2051 167.731 36.4284 167.854 36.6973C167.982 36.9616 168.046 37.2692 168.046 37.6201C168.046 37.8708 167.986 38.1077 167.868 38.3311C167.749 38.5544 167.579 38.7526 167.355 38.9258C167.132 39.0944 166.861 39.2266 166.542 39.3223C166.227 39.418 165.872 39.4658 165.475 39.4658ZM164.115 38.9873H165.475C165.917 38.9873 166.307 39.0306 166.644 39.1172C166.982 39.1992 167.264 39.3223 167.492 39.4863C167.72 39.6504 167.891 39.8532 168.005 40.0947C168.123 40.3317 168.182 40.6051 168.182 40.915C168.182 41.2614 168.112 41.5736 167.97 41.8516C167.834 42.125 167.638 42.3574 167.383 42.5488C167.127 42.7402 166.822 42.8861 166.467 42.9863C166.116 43.0866 165.726 43.1367 165.298 43.1367C164.819 43.1367 164.354 43.0547 163.903 42.8906C163.452 42.7266 163.081 42.4736 162.789 42.1318C162.497 41.7855 162.351 41.3457 162.351 40.8125H163.616C163.616 41.0358 163.687 41.2477 163.828 41.4482C163.969 41.6488 164.165 41.8105 164.416 41.9336C164.671 42.0566 164.965 42.1182 165.298 42.1182C165.653 42.1182 165.949 42.0635 166.186 41.9541C166.423 41.8447 166.601 41.6989 166.719 41.5166C166.843 41.3343 166.904 41.1361 166.904 40.9219C166.904 40.6439 166.849 40.4206 166.74 40.252C166.631 40.0833 166.462 39.9603 166.234 39.8828C166.011 39.8008 165.724 39.7598 165.373 39.7598H164.115V38.9873ZM174.245 35.6035H175.51V41.9609H178.217V35.6035H179.488V41.9609H182.188V35.6035H183.453V43H174.245V35.6035ZM187.257 40.9971L190.668 35.6035H191.939V43H190.668V37.6064L187.257 43H185.999V35.6035H187.257V40.9971ZM195.654 37.0254V45.8438H194.383V35.6035H195.545L195.654 37.0254ZM200.638 39.2402V39.3838C200.638 39.9215 200.574 40.4206 200.446 40.8809C200.319 41.3366 200.132 41.7331 199.886 42.0703C199.644 42.4076 199.346 42.6696 198.99 42.8564C198.635 43.0433 198.227 43.1367 197.767 43.1367C197.297 43.1367 196.883 43.0592 196.523 42.9043C196.163 42.7493 195.857 42.5238 195.607 42.2275C195.356 41.9313 195.155 41.5758 195.005 41.1611C194.859 40.7464 194.759 40.2793 194.704 39.7598V38.9941C194.759 38.4473 194.861 37.9574 195.012 37.5244C195.162 37.0915 195.36 36.7223 195.607 36.417C195.857 36.1071 196.16 35.8724 196.516 35.7129C196.871 35.5488 197.281 35.4668 197.746 35.4668C198.211 35.4668 198.623 35.5579 198.983 35.7402C199.344 35.918 199.647 36.1732 199.893 36.5059C200.139 36.8385 200.323 37.2373 200.446 37.7021C200.574 38.1624 200.638 38.6751 200.638 39.2402ZM199.366 39.3838V39.2402C199.366 38.8711 199.328 38.5247 199.25 38.2012C199.173 37.873 199.052 37.5859 198.888 37.3398C198.728 37.0892 198.523 36.8932 198.273 36.752C198.022 36.6061 197.723 36.5332 197.377 36.5332C197.058 36.5332 196.78 36.5879 196.543 36.6973C196.311 36.8066 196.112 36.9548 195.948 37.1416C195.784 37.3239 195.65 37.5335 195.545 37.7705C195.445 38.0029 195.37 38.2445 195.319 38.4951V40.2656C195.411 40.5846 195.538 40.8854 195.702 41.168C195.866 41.446 196.085 41.6715 196.358 41.8447C196.632 42.0133 196.976 42.0977 197.391 42.0977C197.732 42.0977 198.026 42.027 198.273 41.8857C198.523 41.7399 198.728 41.5417 198.888 41.291C199.052 41.0404 199.173 40.7533 199.25 40.4297C199.328 40.1016 199.366 39.7529 199.366 39.3838ZM202.336 39.3838V39.2266C202.336 38.6934 202.414 38.1989 202.569 37.7432C202.723 37.2829 202.947 36.8841 203.238 36.5469C203.53 36.2051 203.883 35.9408 204.298 35.7539C204.713 35.5625 205.178 35.4668 205.693 35.4668C206.212 35.4668 206.679 35.5625 207.094 35.7539C207.513 35.9408 207.869 36.2051 208.16 36.5469C208.457 36.8841 208.682 37.2829 208.837 37.7432C208.992 38.1989 209.069 38.6934 209.069 39.2266V39.3838C209.069 39.917 208.992 40.4115 208.837 40.8672C208.682 41.3229 208.457 41.7217 208.16 42.0635C207.869 42.4007 207.515 42.665 207.101 42.8564C206.691 43.0433 206.226 43.1367 205.706 43.1367C205.187 43.1367 204.72 43.0433 204.305 42.8564C203.89 42.665 203.535 42.4007 203.238 42.0635C202.947 41.7217 202.723 41.3229 202.569 40.8672C202.414 40.4115 202.336 39.917 202.336 39.3838ZM203.601 39.2266V39.3838C203.601 39.7529 203.644 40.1016 203.731 40.4297C203.817 40.7533 203.947 41.0404 204.12 41.291C204.298 41.5417 204.519 41.7399 204.783 41.8857C205.048 42.027 205.355 42.0977 205.706 42.0977C206.053 42.0977 206.356 42.027 206.615 41.8857C206.88 41.7399 207.098 41.5417 207.272 41.291C207.445 41.0404 207.575 40.7533 207.661 40.4297C207.752 40.1016 207.798 39.7529 207.798 39.3838V39.2266C207.798 38.862 207.752 38.5179 207.661 38.1943C207.575 37.8662 207.443 37.5768 207.265 37.3262C207.092 37.071 206.873 36.8704 206.609 36.7246C206.349 36.5788 206.043 36.5059 205.693 36.5059C205.346 36.5059 205.041 36.5788 204.777 36.7246C204.517 36.8704 204.298 37.071 204.12 37.3262C203.947 37.5768 203.817 37.8662 203.731 38.1943C203.644 38.5179 203.601 38.862 203.601 39.2266ZM212.449 35.6035V43H211.185V35.6035H212.449ZM217.303 35.6035L213.796 39.8418H212.026L211.834 38.7344H213.283L215.765 35.6035H217.303ZM215.943 43L213.222 39.6504L214.035 38.7344L217.549 43H215.943ZM220.437 40.9971L223.848 35.6035H225.119V43H223.848V37.6064L220.437 43H219.179V35.6035H220.437V40.9971ZM231.822 41.3184L234.337 35.6035H235.554L232.259 43H231.384L228.103 35.6035H229.32L231.822 41.3184ZM228.951 35.6035V43H227.686V35.6035H228.951ZM234.652 43V35.6035H235.923V43H234.652ZM5.3252 65.7354V61.9277C5.3252 61.6361 5.26595 61.3831 5.14746 61.1689C5.03353 60.9502 4.86035 60.7816 4.62793 60.6631C4.39551 60.5446 4.1084 60.4854 3.7666 60.4854C3.44759 60.4854 3.16732 60.54 2.92578 60.6494C2.6888 60.7588 2.50195 60.9023 2.36523 61.0801C2.23307 61.2578 2.16699 61.4492 2.16699 61.6543H0.902344C0.902344 61.39 0.970703 61.1279 1.10742 60.8682C1.24414 60.6084 1.4401 60.3737 1.69531 60.1641C1.95508 59.9499 2.26497 59.7812 2.625 59.6582C2.98958 59.5306 3.39518 59.4668 3.8418 59.4668C4.37956 59.4668 4.85352 59.5579 5.26367 59.7402C5.67839 59.9225 6.00195 60.1982 6.23438 60.5674C6.47135 60.932 6.58984 61.39 6.58984 61.9414V65.3867C6.58984 65.6328 6.61035 65.8949 6.65137 66.1729C6.69694 66.4508 6.76302 66.6901 6.84961 66.8906V67H5.53027C5.46647 66.8542 5.41634 66.6605 5.37988 66.4189C5.34342 66.1729 5.3252 65.945 5.3252 65.7354ZM5.54395 62.5156L5.55762 63.4043H4.2793C3.91927 63.4043 3.59798 63.4339 3.31543 63.4932C3.03288 63.5479 2.7959 63.6322 2.60449 63.7461C2.41309 63.86 2.26725 64.0036 2.16699 64.1768C2.06673 64.3454 2.0166 64.5436 2.0166 64.7715C2.0166 65.0039 2.06901 65.2158 2.17383 65.4072C2.27865 65.5986 2.43587 65.7513 2.64551 65.8652C2.8597 65.9746 3.12174 66.0293 3.43164 66.0293C3.81901 66.0293 4.16081 65.9473 4.45703 65.7832C4.75326 65.6191 4.98796 65.4186 5.16113 65.1816C5.33887 64.9447 5.43457 64.7145 5.44824 64.4912L5.98828 65.0996C5.95638 65.291 5.86979 65.5029 5.72852 65.7354C5.58724 65.9678 5.39811 66.1911 5.16113 66.4053C4.92871 66.6149 4.65072 66.7904 4.32715 66.9316C4.00814 67.0684 3.64811 67.1367 3.24707 67.1367C2.74577 67.1367 2.30599 67.0387 1.92773 66.8428C1.55404 66.6468 1.26237 66.3848 1.05273 66.0566C0.847656 65.724 0.745117 65.3525 0.745117 64.9424C0.745117 64.5459 0.822591 64.1973 0.977539 63.8965C1.13249 63.5911 1.35579 63.3382 1.64746 63.1377C1.93913 62.9326 2.29004 62.7777 2.7002 62.6729C3.11035 62.568 3.56836 62.5156 4.07422 62.5156H5.54395ZM10.3731 59.6035V67H9.10848V59.6035H10.3731ZM15.2266 59.6035L11.7198 63.8418H9.9493L9.75789 62.7344H11.2071L13.6886 59.6035H15.2266ZM13.8663 67L11.1456 63.6504L11.9591 62.7344L15.4727 67H13.8663ZM20.008 59.6035V67H18.7365V59.6035H20.008ZM22.4894 59.6035V60.6289H16.3029V59.6035H22.4894ZM25.5207 64.9971L28.9319 59.6035H30.2034V67H28.9319V61.6064L25.5207 67H24.2629V59.6035H25.5207V64.9971ZM36.1263 63.7461H33.6995L33.6859 62.7344H35.6683C36.0602 62.7344 36.3861 62.6956 36.6458 62.6182C36.9101 62.5407 37.1084 62.4245 37.2405 62.2695C37.3727 62.1146 37.4388 61.9232 37.4388 61.6953C37.4388 61.5176 37.4001 61.3626 37.3226 61.2305C37.2497 61.0938 37.138 60.9821 36.9876 60.8955C36.8372 60.8044 36.6504 60.7383 36.4271 60.6973C36.2083 60.6517 35.9508 60.6289 35.6546 60.6289H34.0345V67H32.7698V59.6035H35.6546C36.124 59.6035 36.5456 59.6445 36.9193 59.7266C37.2975 59.8086 37.6188 59.9339 37.8831 60.1025C38.152 60.2666 38.3571 60.4762 38.4984 60.7314C38.6396 60.9867 38.7103 61.2874 38.7103 61.6338C38.7103 61.8571 38.6647 62.069 38.5736 62.2695C38.4824 62.4701 38.348 62.6478 38.1702 62.8027C37.9925 62.9577 37.7738 63.0853 37.514 63.1855C37.2542 63.2812 36.9557 63.3428 36.6185 63.3701L36.1263 63.7461ZM36.1263 67H33.2415L33.8704 65.9746H36.1263C36.4772 65.9746 36.7689 65.9313 37.0013 65.8447C37.2337 65.7536 37.4069 65.626 37.5208 65.4619C37.6393 65.2933 37.6986 65.0928 37.6986 64.8604C37.6986 64.6279 37.6393 64.4297 37.5208 64.2656C37.4069 64.097 37.2337 63.9694 37.0013 63.8828C36.7689 63.7917 36.4772 63.7461 36.1263 63.7461H34.2054L34.2191 62.7344H36.6185L37.0765 63.1172C37.4821 63.1491 37.8262 63.2493 38.1087 63.418C38.3913 63.5866 38.6055 63.8008 38.7513 64.0605C38.8971 64.3158 38.97 64.5938 38.97 64.8945C38.97 65.2409 38.904 65.5462 38.7718 65.8105C38.6442 66.0749 38.4573 66.2959 38.2113 66.4736C37.9652 66.6468 37.6667 66.779 37.3157 66.8701C36.9648 66.9567 36.5683 67 36.1263 67ZM40.7504 63.3838V63.2266C40.7504 62.6934 40.8279 62.1989 40.9828 61.7432C41.1378 61.2829 41.3611 60.8841 41.6527 60.5469C41.9444 60.2051 42.2976 59.9408 42.7123 59.7539C43.127 59.5625 43.5919 59.4668 44.1068 59.4668C44.6264 59.4668 45.0935 59.5625 45.5082 59.7539C45.9275 59.9408 46.2829 60.2051 46.5746 60.5469C46.8708 60.8841 47.0964 61.2829 47.2514 61.7432C47.4063 62.1989 47.4838 62.6934 47.4838 63.2266V63.3838C47.4838 63.917 47.4063 64.4115 47.2514 64.8672C47.0964 65.3229 46.8708 65.7217 46.5746 66.0635C46.2829 66.4007 45.9298 66.665 45.515 66.8564C45.1049 67.0433 44.64 67.1367 44.1205 67.1367C43.601 67.1367 43.1339 67.0433 42.7191 66.8564C42.3044 66.665 41.949 66.4007 41.6527 66.0635C41.3611 65.7217 41.1378 65.3229 40.9828 64.8672C40.8279 64.4115 40.7504 63.917 40.7504 63.3838ZM42.015 63.2266V63.3838C42.015 63.7529 42.0583 64.1016 42.1449 64.4297C42.2315 64.7533 42.3614 65.0404 42.5346 65.291C42.7123 65.5417 42.9333 65.7399 43.1977 65.8857C43.462 66.027 43.7696 66.0977 44.1205 66.0977C44.4669 66.0977 44.7699 66.027 45.0297 65.8857C45.294 65.7399 45.5128 65.5417 45.6859 65.291C45.8591 65.0404 45.989 64.7533 46.0756 64.4297C46.1667 64.1016 46.2123 63.7529 46.2123 63.3838V63.2266C46.2123 62.862 46.1667 62.5179 46.0756 62.1943C45.989 61.8662 45.8568 61.5768 45.6791 61.3262C45.5059 61.071 45.2872 60.8704 45.0229 60.7246C44.7631 60.5788 44.4577 60.5059 44.1068 60.5059C43.7605 60.5059 43.4551 60.5788 43.1908 60.7246C42.9311 60.8704 42.7123 61.071 42.5346 61.3262C42.3614 61.5768 42.2315 61.8662 42.1449 62.1943C42.0583 62.5179 42.015 62.862 42.015 63.2266ZM53.7417 65.3184L56.2573 59.6035H57.4741L54.1792 67H53.3042L50.0229 59.6035H51.2397L53.7417 65.3184ZM50.8706 59.6035V67H49.6059V59.6035H50.8706ZM56.5718 67V59.6035H57.8432V67H56.5718ZM66.9547 63.4658H65.5944V62.6865H66.8522C67.2031 62.6865 67.4811 62.6432 67.6862 62.5566C67.8913 62.4655 68.0371 62.3402 68.1237 62.1807C68.2103 62.0212 68.2536 61.8343 68.2536 61.6201C68.2536 61.4287 68.2034 61.2487 68.1032 61.0801C68.0075 60.9069 67.8525 60.7679 67.6383 60.6631C67.4241 60.5537 67.137 60.499 66.777 60.499C66.4853 60.499 66.221 60.5514 65.984 60.6562C65.747 60.7565 65.5579 60.8955 65.4166 61.0732C65.2799 61.2464 65.2116 61.4424 65.2116 61.6611H63.9469C63.9469 61.21 64.0745 60.8226 64.3297 60.499C64.5895 60.1709 64.9336 59.918 65.362 59.7402C65.7949 59.5625 66.2666 59.4736 66.777 59.4736C67.2054 59.4736 67.5882 59.5215 67.9254 59.6172C68.2672 59.7083 68.5566 59.8451 68.7936 60.0273C69.0306 60.2051 69.2106 60.4284 69.3336 60.6973C69.4612 60.9616 69.525 61.2692 69.525 61.6201C69.525 61.8708 69.4658 62.1077 69.3473 62.3311C69.2288 62.5544 69.0579 62.7526 68.8346 62.9258C68.6113 63.0944 68.3401 63.2266 68.0211 63.3223C67.7067 63.418 67.3512 63.4658 66.9547 63.4658ZM65.5944 62.9873H66.9547C67.3968 62.9873 67.7864 63.0306 68.1237 63.1172C68.4609 63.1992 68.7435 63.3223 68.9713 63.4863C69.1992 63.6504 69.3701 63.8532 69.484 64.0947C69.6025 64.3317 69.6618 64.6051 69.6618 64.915C69.6618 65.2614 69.5911 65.5736 69.4498 65.8516C69.3131 66.125 69.1172 66.3574 68.862 66.5488C68.6067 66.7402 68.3014 66.8861 67.9459 66.9863C67.595 67.0866 67.2054 67.1367 66.777 67.1367C66.2985 67.1367 65.8336 67.0547 65.3825 66.8906C64.9313 66.7266 64.5599 66.4736 64.2682 66.1318C63.9765 65.7855 63.8307 65.3457 63.8307 64.8125H65.0954C65.0954 65.0358 65.166 65.2477 65.3073 65.4482C65.4485 65.6488 65.6445 65.8105 65.8952 65.9336C66.1504 66.0566 66.4443 66.1182 66.777 66.1182C67.1325 66.1182 67.4287 66.0635 67.6657 65.9541C67.9026 65.8447 68.0804 65.6989 68.1989 65.5166C68.3219 65.3343 68.3834 65.1361 68.3834 64.9219C68.3834 64.6439 68.3288 64.4206 68.2194 64.252C68.11 64.0833 67.9414 63.9603 67.7135 63.8828C67.4902 63.8008 67.2031 63.7598 66.8522 63.7598H65.5944V62.9873ZM76.74 62.8096V63.835H72.8298V62.8096H76.74ZM73.0964 59.6035V67H71.8318V59.6035H73.0964ZM77.7654 59.6035V67H76.4939V59.6035H77.7654ZM84.5838 65.7354V61.9277C84.5838 61.6361 84.5245 61.3831 84.4061 61.1689C84.2921 60.9502 84.1189 60.7816 83.8865 60.6631C83.6541 60.5446 83.367 60.4854 83.0252 60.4854C82.7062 60.4854 82.4259 60.54 82.1844 60.6494C81.9474 60.7588 81.7605 60.9023 81.6238 61.0801C81.4917 61.2578 81.4256 61.4492 81.4256 61.6543H80.1609C80.1609 61.39 80.2293 61.1279 80.366 60.8682C80.5027 60.6084 80.6987 60.3737 80.9539 60.1641C81.2137 59.9499 81.5236 59.7812 81.8836 59.6582C82.2482 59.5306 82.6538 59.4668 83.1004 59.4668C83.6381 59.4668 84.1121 59.5579 84.5223 59.7402C84.937 59.9225 85.2605 60.1982 85.493 60.5674C85.7299 60.932 85.8484 61.39 85.8484 61.9414V65.3867C85.8484 65.6328 85.8689 65.8949 85.91 66.1729C85.9555 66.4508 86.0216 66.6901 86.1082 66.8906V67H84.7889C84.7251 66.8542 84.6749 66.6605 84.6385 66.4189C84.602 66.1729 84.5838 65.945 84.5838 65.7354ZM84.8025 62.5156L84.8162 63.4043H83.5379C83.1779 63.4043 82.8566 63.4339 82.574 63.4932C82.2915 63.5479 82.0545 63.6322 81.8631 63.7461C81.6717 63.86 81.5258 64.0036 81.4256 64.1768C81.3253 64.3454 81.2752 64.5436 81.2752 64.7715C81.2752 65.0039 81.3276 65.2158 81.4324 65.4072C81.5372 65.5986 81.6945 65.7513 81.9041 65.8652C82.1183 65.9746 82.3803 66.0293 82.6902 66.0293C83.0776 66.0293 83.4194 65.9473 83.7156 65.7832C84.0118 65.6191 84.2465 65.4186 84.4197 65.1816C84.5975 64.9447 84.6932 64.7145 84.7068 64.4912L85.2469 65.0996C85.215 65.291 85.1284 65.5029 84.9871 65.7354C84.8458 65.9678 84.6567 66.1911 84.4197 66.4053C84.1873 66.6149 83.9093 66.7904 83.5857 66.9316C83.2667 67.0684 82.9067 67.1367 82.5057 67.1367C82.0044 67.1367 81.5646 67.0387 81.1863 66.8428C80.8126 66.6468 80.521 66.3848 80.3113 66.0566C80.1062 65.724 80.0037 65.3525 80.0037 64.9424C80.0037 64.5459 80.0812 64.1973 80.2361 63.8965C80.3911 63.5911 80.6144 63.3382 80.9061 63.1377C81.1977 62.9326 81.5486 62.7777 81.9588 62.6729C82.3689 62.568 82.827 62.5156 83.3328 62.5156H84.8025ZM93.8358 59.6035V67H92.5712V59.6035H93.8358ZM93.4052 63.001V64.04C93.15 64.1357 92.8902 64.2223 92.6259 64.2998C92.3661 64.3727 92.0904 64.432 91.7987 64.4775C91.5116 64.5186 91.1994 64.5391 90.8622 64.5391C90.2789 64.5391 89.773 64.4388 89.3446 64.2383C88.9162 64.0332 88.5858 63.7256 88.3534 63.3154C88.121 62.9007 88.0048 62.3789 88.0048 61.75V59.5898H89.2694V61.75C89.2694 62.1602 89.3309 62.4928 89.454 62.748C89.577 63.0033 89.757 63.1924 89.994 63.3154C90.231 63.4339 90.5204 63.4932 90.8622 63.4932C91.1903 63.4932 91.4979 63.4727 91.785 63.4316C92.0767 63.3861 92.3547 63.3268 92.619 63.2539C92.8879 63.181 93.15 63.0967 93.4052 63.001ZM101.311 62.8096V63.835H97.4004V62.8096H101.311ZM97.667 59.6035V67H96.4023V59.6035H97.667ZM102.336 59.6035V67H101.064V59.6035H102.336ZM104.458 63.3838V63.2266C104.458 62.6934 104.536 62.1989 104.69 61.7432C104.845 61.2829 105.069 60.8841 105.36 60.5469C105.652 60.2051 106.005 59.9408 106.42 59.7539C106.835 59.5625 107.3 59.4668 107.814 59.4668C108.334 59.4668 108.801 59.5625 109.216 59.7539C109.635 59.9408 109.991 60.2051 110.282 60.5469C110.578 60.8841 110.804 61.2829 110.959 61.7432C111.114 62.1989 111.191 62.6934 111.191 63.2266V63.3838C111.191 63.917 111.114 64.4115 110.959 64.8672C110.804 65.3229 110.578 65.7217 110.282 66.0635C109.991 66.4007 109.637 66.665 109.223 66.8564C108.813 67.0433 108.348 67.1367 107.828 67.1367C107.309 67.1367 106.842 67.0433 106.427 66.8564C106.012 66.665 105.657 66.4007 105.36 66.0635C105.069 65.7217 104.845 65.3229 104.69 64.8672C104.536 64.4115 104.458 63.917 104.458 63.3838ZM105.723 63.2266V63.3838C105.723 63.7529 105.766 64.1016 105.853 64.4297C105.939 64.7533 106.069 65.0404 106.242 65.291C106.42 65.5417 106.641 65.7399 106.905 65.8857C107.17 66.027 107.477 66.0977 107.828 66.0977C108.175 66.0977 108.478 66.027 108.737 65.8857C109.002 65.7399 109.22 65.5417 109.394 65.291C109.567 65.0404 109.697 64.7533 109.783 64.4297C109.874 64.1016 109.92 63.7529 109.92 63.3838V63.2266C109.92 62.862 109.874 62.5179 109.783 62.1943C109.697 61.8662 109.564 61.5768 109.387 61.3262C109.214 61.071 108.995 60.8704 108.731 60.7246C108.471 60.5788 108.165 60.5059 107.814 60.5059C107.468 60.5059 107.163 60.5788 106.898 60.7246C106.639 60.8704 106.42 61.071 106.242 61.3262C106.069 61.5768 105.939 61.8662 105.853 62.1943C105.766 62.5179 105.723 62.862 105.723 63.2266ZM117.408 62.7412V63.7734H113.478V62.7412H117.408ZM114.578 59.6035V67H113.314V59.6035H114.578ZM116.328 63.3838V63.2266C116.328 62.6934 116.406 62.1989 116.561 61.7432C116.716 61.2829 116.939 60.8841 117.231 60.5469C117.527 60.2051 117.88 59.9408 118.29 59.7539C118.705 59.5625 119.17 59.4668 119.685 59.4668C120.209 59.4668 120.678 59.5625 121.093 59.7539C121.508 59.9408 121.861 60.2051 122.152 60.5469C122.449 60.8841 122.674 61.2829 122.829 61.7432C122.984 62.1989 123.062 62.6934 123.062 63.2266V63.3838C123.062 63.917 122.984 64.4115 122.829 64.8672C122.674 65.3229 122.451 65.7217 122.159 66.0635C121.868 66.4007 121.514 66.665 121.1 66.8564C120.685 67.0433 120.218 67.1367 119.698 67.1367C119.179 67.1367 118.712 67.0433 118.297 66.8564C117.882 66.665 117.527 66.4007 117.231 66.0635C116.939 65.7217 116.716 65.3229 116.561 64.8672C116.406 64.4115 116.328 63.917 116.328 63.3838ZM117.6 63.2266V63.3838C117.6 63.7529 117.643 64.1016 117.73 64.4297C117.816 64.7533 117.946 65.0404 118.119 65.291C118.297 65.5417 118.516 65.7399 118.776 65.8857C119.04 66.027 119.347 66.0977 119.698 66.0977C120.049 66.0977 120.355 66.027 120.614 65.8857C120.879 65.7399 121.097 65.5417 121.271 65.291C121.444 65.0404 121.574 64.7533 121.66 64.4297C121.751 64.1016 121.797 63.7529 121.797 63.3838V63.2266C121.797 62.862 121.751 62.5179 121.66 62.1943C121.574 61.8662 121.442 61.5768 121.264 61.3262C121.091 61.071 120.872 60.8704 120.608 60.7246C120.343 60.5788 120.036 60.5059 119.685 60.5059C119.338 60.5059 119.035 60.5788 118.776 60.7246C118.516 60.8704 118.297 61.071 118.119 61.3262C117.946 61.5768 117.816 61.8662 117.73 62.1943C117.643 62.5179 117.6 62.862 117.6 63.2266ZM133.192 65.3184L135.707 59.6035H136.924L133.629 67H132.754L129.473 59.6035H130.69L133.192 65.3184ZM130.321 59.6035V67H129.056V59.6035H130.321ZM136.022 67V59.6035H137.293V67H136.022ZM141.124 59.6035V67H139.853V59.6035H141.124ZM139.757 57.6416C139.757 57.4365 139.819 57.2633 139.942 57.1221C140.069 56.9808 140.256 56.9102 140.502 56.9102C140.744 56.9102 140.928 56.9808 141.056 57.1221C141.188 57.2633 141.254 57.4365 141.254 57.6416C141.254 57.8376 141.188 58.0062 141.056 58.1475C140.928 58.2842 140.744 58.3525 140.502 58.3525C140.256 58.3525 140.069 58.2842 139.942 58.1475C139.819 58.0062 139.757 57.8376 139.757 57.6416ZM144.839 61.0254V69.8438H143.568V59.6035H144.73L144.839 61.0254ZM149.823 63.2402V63.3838C149.823 63.9215 149.759 64.4206 149.631 64.8809C149.504 65.3366 149.317 65.7331 149.071 66.0703C148.829 66.4076 148.531 66.6696 148.175 66.8564C147.82 67.0433 147.412 67.1367 146.952 67.1367C146.482 67.1367 146.067 67.0592 145.707 66.9043C145.347 66.7493 145.042 66.5238 144.791 66.2275C144.541 65.9313 144.34 65.5758 144.19 65.1611C144.044 64.7464 143.944 64.2793 143.889 63.7598V62.9941C143.944 62.4473 144.046 61.9574 144.197 61.5244C144.347 61.0915 144.545 60.7223 144.791 60.417C145.042 60.1071 145.345 59.8724 145.701 59.7129C146.056 59.5488 146.466 59.4668 146.931 59.4668C147.396 59.4668 147.808 59.5579 148.168 59.7402C148.528 59.918 148.831 60.1732 149.078 60.5059C149.324 60.8385 149.508 61.2373 149.631 61.7021C149.759 62.1624 149.823 62.6751 149.823 63.2402ZM148.551 63.3838V63.2402C148.551 62.8711 148.512 62.5247 148.435 62.2012C148.358 61.873 148.237 61.5859 148.073 61.3398C147.913 61.0892 147.708 60.8932 147.457 60.752C147.207 60.6061 146.908 60.5332 146.562 60.5332C146.243 60.5332 145.965 60.5879 145.728 60.6973C145.496 60.8066 145.297 60.9548 145.133 61.1416C144.969 61.3239 144.835 61.5335 144.73 61.7705C144.63 62.0029 144.554 62.2445 144.504 62.4951V64.2656C144.595 64.5846 144.723 64.8854 144.887 65.168C145.051 65.446 145.27 65.6715 145.543 65.8447C145.817 66.0133 146.161 66.0977 146.576 66.0977C146.917 66.0977 147.211 66.027 147.457 65.8857C147.708 65.7399 147.913 65.5417 148.073 65.291C148.237 65.0404 148.358 64.7533 148.435 64.4297C148.512 64.1016 148.551 63.7529 148.551 63.3838ZM151.521 63.3838V63.2266C151.521 62.6934 151.598 62.1989 151.753 61.7432C151.908 61.2829 152.132 60.8841 152.423 60.5469C152.715 60.2051 153.068 59.9408 153.483 59.7539C153.898 59.5625 154.362 59.4668 154.877 59.4668C155.397 59.4668 155.864 59.5625 156.279 59.7539C156.698 59.9408 157.054 60.2051 157.345 60.5469C157.641 60.8841 157.867 61.2829 158.022 61.7432C158.177 62.1989 158.254 62.6934 158.254 63.2266V63.3838C158.254 63.917 158.177 64.4115 158.022 64.8672C157.867 65.3229 157.641 65.7217 157.345 66.0635C157.054 66.4007 156.7 66.665 156.286 66.8564C155.876 67.0433 155.411 67.1367 154.891 67.1367C154.372 67.1367 153.904 67.0433 153.49 66.8564C153.075 66.665 152.72 66.4007 152.423 66.0635C152.132 65.7217 151.908 65.3229 151.753 64.8672C151.598 64.4115 151.521 63.917 151.521 63.3838ZM152.786 63.2266V63.3838C152.786 63.7529 152.829 64.1016 152.916 64.4297C153.002 64.7533 153.132 65.0404 153.305 65.291C153.483 65.5417 153.704 65.7399 153.968 65.8857C154.233 66.027 154.54 66.0977 154.891 66.0977C155.237 66.0977 155.541 66.027 155.8 65.8857C156.065 65.7399 156.283 65.5417 156.457 65.291C156.63 65.0404 156.76 64.7533 156.846 64.4297C156.937 64.1016 156.983 63.7529 156.983 63.3838V63.2266C156.983 62.862 156.937 62.5179 156.846 62.1943C156.76 61.8662 156.627 61.5768 156.45 61.3262C156.277 61.071 156.058 60.8704 155.793 60.7246C155.534 60.5788 155.228 60.5059 154.877 60.5059C154.531 60.5059 154.226 60.5788 153.961 60.7246C153.702 60.8704 153.483 61.071 153.305 61.3262C153.132 61.5768 153.002 61.8662 152.916 62.1943C152.829 62.5179 152.786 62.862 152.786 63.2266ZM164.471 62.7412V63.7734H160.541V62.7412H164.471ZM161.641 59.6035V67H160.377V59.6035H161.641ZM163.391 63.3838V63.2266C163.391 62.6934 163.469 62.1989 163.624 61.7432C163.779 61.2829 164.002 60.8841 164.294 60.5469C164.59 60.2051 164.943 59.9408 165.353 59.7539C165.768 59.5625 166.233 59.4668 166.748 59.4668C167.272 59.4668 167.741 59.5625 168.156 59.7539C168.571 59.9408 168.924 60.2051 169.215 60.5469C169.512 60.8841 169.737 61.2829 169.892 61.7432C170.047 62.1989 170.125 62.6934 170.125 63.2266V63.3838C170.125 63.917 170.047 64.4115 169.892 64.8672C169.737 65.3229 169.514 65.7217 169.222 66.0635C168.931 66.4007 168.577 66.665 168.163 66.8564C167.748 67.0433 167.281 67.1367 166.761 67.1367C166.242 67.1367 165.775 67.0433 165.36 66.8564C164.945 66.665 164.59 66.4007 164.294 66.0635C164.002 65.7217 163.779 65.3229 163.624 64.8672C163.469 64.4115 163.391 63.917 163.391 63.3838ZM164.663 63.2266V63.3838C164.663 63.7529 164.706 64.1016 164.793 64.4297C164.879 64.7533 165.009 65.0404 165.182 65.291C165.36 65.5417 165.579 65.7399 165.838 65.8857C166.103 66.027 166.41 66.0977 166.761 66.0977C167.112 66.0977 167.418 66.027 167.677 65.8857C167.942 65.7399 168.16 65.5417 168.334 65.291C168.507 65.0404 168.637 64.7533 168.723 64.4297C168.814 64.1016 168.86 63.7529 168.86 63.3838V63.2266C168.86 62.862 168.814 62.5179 168.723 62.1943C168.637 61.8662 168.504 61.5768 168.327 61.3262C168.154 61.071 167.935 60.8704 167.671 60.7246C167.406 60.5788 167.099 60.5059 166.748 60.5059C166.401 60.5059 166.098 60.5788 165.838 60.7246C165.579 60.8704 165.36 61.071 165.182 61.3262C165.009 61.5768 164.879 61.8662 164.793 62.1943C164.706 62.5179 164.663 62.862 164.663 63.2266ZM178.764 63.4658H177.404V62.6865H178.662C179.013 62.6865 179.291 62.6432 179.496 62.5566C179.701 62.4655 179.847 62.3402 179.933 62.1807C180.02 62.0212 180.063 61.8343 180.063 61.6201C180.063 61.4287 180.013 61.2487 179.913 61.0801C179.817 60.9069 179.662 60.7679 179.448 60.6631C179.234 60.5537 178.947 60.499 178.587 60.499C178.295 60.499 178.031 60.5514 177.794 60.6562C177.557 60.7565 177.368 60.8955 177.226 61.0732C177.09 61.2464 177.021 61.4424 177.021 61.6611H175.757C175.757 61.21 175.884 60.8226 176.139 60.499C176.399 60.1709 176.743 59.918 177.172 59.7402C177.605 59.5625 178.076 59.4736 178.587 59.4736C179.015 59.4736 179.398 59.5215 179.735 59.6172C180.077 59.7083 180.366 59.8451 180.603 60.0273C180.84 60.2051 181.02 60.4284 181.143 60.6973C181.271 60.9616 181.335 61.2692 181.335 61.6201C181.335 61.8708 181.275 62.1077 181.157 62.3311C181.039 62.5544 180.868 62.7526 180.644 62.9258C180.421 63.0944 180.15 63.2266 179.831 63.3223C179.516 63.418 179.161 63.4658 178.764 63.4658ZM177.404 62.9873H178.764C179.206 62.9873 179.596 63.0306 179.933 63.1172C180.271 63.1992 180.553 63.3223 180.781 63.4863C181.009 63.6504 181.18 63.8532 181.294 64.0947C181.412 64.3317 181.471 64.6051 181.471 64.915C181.471 65.2614 181.401 65.5736 181.26 65.8516C181.123 66.125 180.927 66.3574 180.672 66.5488C180.416 66.7402 180.111 66.8861 179.756 66.9863C179.405 67.0866 179.015 67.1367 178.587 67.1367C178.108 67.1367 177.643 67.0547 177.192 66.8906C176.741 66.7266 176.37 66.4736 176.078 66.1318C175.786 65.7855 175.64 65.3457 175.64 64.8125H176.905C176.905 65.0358 176.976 65.2477 177.117 65.4482C177.258 65.6488 177.454 65.8105 177.705 65.9336C177.96 66.0566 178.254 66.1182 178.587 66.1182C178.942 66.1182 179.238 66.0635 179.475 65.9541C179.712 65.8447 179.89 65.6989 180.009 65.5166C180.132 65.3343 180.193 65.1361 180.193 64.9219C180.193 64.6439 180.138 64.4206 180.029 64.252C179.92 64.0833 179.751 63.9603 179.523 63.8828C179.3 63.8008 179.013 63.7598 178.662 63.7598H177.404V62.9873ZM185.61 66.2344L187.668 59.6035H189.021L186.055 68.1416C185.986 68.3239 185.895 68.5199 185.781 68.7295C185.672 68.9437 185.53 69.1465 185.357 69.3379C185.184 69.5293 184.974 69.6842 184.728 69.8027C184.487 69.9258 184.197 69.9873 183.86 69.9873C183.76 69.9873 183.632 69.9736 183.477 69.9463C183.322 69.9189 183.213 69.8962 183.149 69.8779L183.142 68.8525C183.179 68.8571 183.236 68.8617 183.313 68.8662C183.395 68.8753 183.452 68.8799 183.484 68.8799C183.771 68.8799 184.015 68.8411 184.216 68.7637C184.416 68.6908 184.585 68.5654 184.722 68.3877C184.863 68.2145 184.984 67.9753 185.084 67.6699L185.61 66.2344ZM184.099 59.6035L186.02 65.3457L186.348 66.6787L185.439 67.1436L182.719 59.6035H184.099ZM194.835 65.3184L197.351 59.6035H198.567L195.272 67H194.397L191.116 59.6035H192.333L194.835 65.3184ZM191.964 59.6035V67H190.699V59.6035H191.964ZM197.665 67V59.6035H198.936V67H197.665ZM201.059 63.3838V63.2266C201.059 62.6934 201.136 62.1989 201.291 61.7432C201.446 61.2829 201.669 60.8841 201.961 60.5469C202.253 60.2051 202.606 59.9408 203.021 59.7539C203.435 59.5625 203.9 59.4668 204.415 59.4668C204.935 59.4668 205.402 59.5625 205.816 59.7539C206.236 59.9408 206.591 60.2051 206.883 60.5469C207.179 60.8841 207.405 61.2829 207.56 61.7432C207.715 62.1989 207.792 62.6934 207.792 63.2266V63.3838C207.792 63.917 207.715 64.4115 207.56 64.8672C207.405 65.3229 207.179 65.7217 206.883 66.0635C206.591 66.4007 206.238 66.665 205.823 66.8564C205.413 67.0433 204.948 67.1367 204.429 67.1367C203.909 67.1367 203.442 67.0433 203.027 66.8564C202.613 66.665 202.257 66.4007 201.961 66.0635C201.669 65.7217 201.446 65.3229 201.291 64.8672C201.136 64.4115 201.059 63.917 201.059 63.3838ZM202.323 63.2266V63.3838C202.323 63.7529 202.367 64.1016 202.453 64.4297C202.54 64.7533 202.67 65.0404 202.843 65.291C203.021 65.5417 203.242 65.7399 203.506 65.8857C203.77 66.027 204.078 66.0977 204.429 66.0977C204.775 66.0977 205.078 66.027 205.338 65.8857C205.602 65.7399 205.821 65.5417 205.994 65.291C206.167 65.0404 206.297 64.7533 206.384 64.4297C206.475 64.1016 206.521 63.7529 206.521 63.3838V63.2266C206.521 62.862 206.475 62.5179 206.384 62.1943C206.297 61.8662 206.165 61.5768 205.987 61.3262C205.814 61.071 205.595 60.8704 205.331 60.7246C205.071 60.5788 204.766 60.5059 204.415 60.5059C204.069 60.5059 203.763 60.5788 203.499 60.7246C203.239 60.8704 203.021 61.071 202.843 61.3262C202.67 61.5768 202.54 61.8662 202.453 62.1943C202.367 62.5179 202.323 62.862 202.323 63.2266ZM213.271 63.7461H210.844L210.83 62.7344H212.813C213.205 62.7344 213.53 62.6956 213.79 62.6182C214.054 62.5407 214.253 62.4245 214.385 62.2695C214.517 62.1146 214.583 61.9232 214.583 61.6953C214.583 61.5176 214.544 61.3626 214.467 61.2305C214.394 61.0938 214.282 60.9821 214.132 60.8955C213.982 60.8044 213.795 60.7383 213.571 60.6973C213.353 60.6517 213.095 60.6289 212.799 60.6289H211.179V67H209.914V59.6035H212.799C213.268 59.6035 213.69 59.6445 214.064 59.7266C214.442 59.8086 214.763 59.9339 215.027 60.1025C215.296 60.2666 215.501 60.4762 215.643 60.7314C215.784 60.9867 215.855 61.2874 215.855 61.6338C215.855 61.8571 215.809 62.069 215.718 62.2695C215.627 62.4701 215.492 62.6478 215.315 62.8027C215.137 62.9577 214.918 63.0853 214.658 63.1855C214.399 63.2812 214.1 63.3428 213.763 63.3701L213.271 63.7461ZM213.271 67H210.386L211.015 65.9746H213.271C213.621 65.9746 213.913 65.9313 214.146 65.8447C214.378 65.7536 214.551 65.626 214.665 65.4619C214.784 65.2933 214.843 65.0928 214.843 64.8604C214.843 64.6279 214.784 64.4297 214.665 64.2656C214.551 64.097 214.378 63.9694 214.146 63.8828C213.913 63.7917 213.621 63.7461 213.271 63.7461H211.35L211.363 62.7344H213.763L214.221 63.1172C214.626 63.1491 214.97 63.2493 215.253 63.418C215.536 63.5866 215.75 63.8008 215.896 64.0605C216.041 64.3158 216.114 64.5938 216.114 64.8945C216.114 65.2409 216.048 65.5462 215.916 65.8105C215.788 66.0749 215.602 66.2959 215.356 66.4736C215.109 66.6468 214.811 66.779 214.46 66.8701C214.109 66.9567 213.713 67 213.271 67ZM223.172 59.6035V60.6494H219.597V59.6035H223.172ZM224.286 59.6035V67H223.022V59.6035H224.286ZM219.289 59.6035H220.561L220.369 63.1719C220.337 63.7233 220.285 64.2109 220.212 64.6348C220.144 65.054 220.048 65.4141 219.925 65.7148C219.806 66.0156 219.656 66.2617 219.474 66.4531C219.296 66.64 219.082 66.779 218.831 66.8701C218.581 66.9567 218.291 67 217.963 67H217.567V65.8857L217.84 65.8652C218.036 65.8516 218.202 65.806 218.339 65.7285C218.48 65.651 218.599 65.5371 218.694 65.3867C218.79 65.2318 218.868 65.0335 218.927 64.792C218.991 64.5505 219.039 64.2633 219.07 63.9307C219.107 63.598 219.134 63.2106 219.152 62.7686L219.289 59.6035ZM230.954 62.7412V63.7734H227.024V62.7412H230.954ZM228.124 59.6035V67H226.86V59.6035H228.124ZM229.874 63.3838V63.2266C229.874 62.6934 229.952 62.1989 230.107 61.7432C230.262 61.2829 230.485 60.8841 230.777 60.5469C231.073 60.2051 231.426 59.9408 231.836 59.7539C232.251 59.5625 232.716 59.4668 233.231 59.4668C233.755 59.4668 234.224 59.5625 234.639 59.7539C235.054 59.9408 235.407 60.2051 235.698 60.5469C235.995 60.8841 236.22 61.2829 236.375 61.7432C236.53 62.1989 236.608 62.6934 236.608 63.2266V63.3838C236.608 63.917 236.53 64.4115 236.375 64.8672C236.22 65.3229 235.997 65.7217 235.705 66.0635C235.414 66.4007 235.06 66.665 234.646 66.8564C234.231 67.0433 233.764 67.1367 233.244 67.1367C232.725 67.1367 232.258 67.0433 231.843 66.8564C231.428 66.665 231.073 66.4007 230.777 66.0635C230.485 65.7217 230.262 65.3229 230.107 64.8672C229.952 64.4115 229.874 63.917 229.874 63.3838ZM231.146 63.2266V63.3838C231.146 63.7529 231.189 64.1016 231.276 64.4297C231.362 64.7533 231.492 65.0404 231.665 65.291C231.843 65.5417 232.062 65.7399 232.322 65.8857C232.586 66.027 232.893 66.0977 233.244 66.0977C233.595 66.0977 233.901 66.027 234.16 65.8857C234.425 65.7399 234.643 65.5417 234.817 65.291C234.99 65.0404 235.12 64.7533 235.206 64.4297C235.297 64.1016 235.343 63.7529 235.343 63.3838V63.2266C235.343 62.862 235.297 62.5179 235.206 62.1943C235.12 61.8662 234.988 61.5768 234.81 61.3262C234.637 61.071 234.418 60.8704 234.154 60.7246C233.889 60.5788 233.582 60.5059 233.231 60.5059C232.884 60.5059 232.581 60.5788 232.322 60.7246C232.062 60.8704 231.843 61.071 231.665 61.3262C231.492 61.5768 231.362 61.8662 231.276 62.1943C231.189 62.5179 231.146 62.862 231.146 63.2266ZM242.38 62.7891V63.8281H238.593V62.7891H242.38ZM241.628 66.0977C241.929 66.0977 242.207 66.0361 242.462 65.9131C242.717 65.79 242.927 65.6214 243.091 65.4072C243.255 65.1885 243.349 64.9401 243.371 64.6621H244.568C244.545 65.0996 244.397 65.5075 244.123 65.8857C243.854 66.2594 243.501 66.5625 243.064 66.7949C242.631 67.0228 242.152 67.1367 241.628 67.1367C241.072 67.1367 240.587 67.0387 240.172 66.8428C239.757 66.6468 239.413 66.3779 239.14 66.0361C238.871 65.6943 238.668 65.3024 238.532 64.8604C238.399 64.4137 238.333 63.9421 238.333 63.4453V63.1582C238.333 62.6615 238.399 62.1921 238.532 61.75C238.668 61.3034 238.873 60.9092 239.147 60.5674C239.42 60.2256 239.762 59.9567 240.172 59.7607C240.587 59.5648 241.07 59.4668 241.621 59.4668C242.2 59.4668 242.706 59.5853 243.139 59.8223C243.572 60.0547 243.911 60.3737 244.158 60.7793C244.408 61.1803 244.545 61.6361 244.568 62.1465H243.371C243.349 61.8411 243.262 61.5654 243.112 61.3193C242.966 61.0732 242.765 60.8773 242.51 60.7314C242.259 60.5811 241.963 60.5059 241.621 60.5059C241.234 60.5059 240.908 60.5833 240.644 60.7383C240.384 60.8887 240.177 61.0938 240.022 61.3535C239.871 61.6087 239.762 61.8936 239.694 62.208C239.63 62.5179 239.598 62.8346 239.598 63.1582V63.4453C239.598 63.7689 239.63 64.0879 239.694 64.4023C239.762 64.7168 239.871 65.0016 240.022 65.2568C240.177 65.512 240.384 65.7171 240.644 65.8721C240.908 66.0225 241.236 66.0977 241.628 66.0977ZM246.567 66.3301C246.567 66.1159 246.633 65.9359 246.765 65.79C246.902 65.6396 247.098 65.5645 247.353 65.5645C247.608 65.5645 247.802 65.6396 247.934 65.79C248.071 65.9359 248.139 66.1159 248.139 66.3301C248.139 66.5397 248.071 66.7174 247.934 66.8633C247.802 67.0091 247.608 67.082 247.353 67.082C247.098 67.082 246.902 67.0091 246.765 66.8633C246.633 66.7174 246.567 66.5397 246.567 66.3301Z" fill="#757575"/>
</svg>
