<svg width="270" height="98" viewBox="0 0 270 98" fill="none" xmlns="http://www.w3.org/2000/svg">
<path d="M4.0127 9.39062L6.45996 3.04688H8.66797L5.25684 11.0723C5.13835 11.3457 5.00163 11.6077 4.84668 11.8584C4.69629 12.1045 4.51628 12.3255 4.30664 12.5215C4.09701 12.7129 3.84635 12.8656 3.55469 12.9795C3.26302 13.0889 2.91439 13.1436 2.50879 13.1436C2.40853 13.1436 2.28548 13.1413 2.13965 13.1367C1.99382 13.1322 1.8776 13.1253 1.79102 13.1162L1.77734 11.5166C1.83203 11.5303 1.91862 11.5394 2.03711 11.5439C2.1556 11.5439 2.24219 11.5439 2.29688 11.5439C2.56576 11.5439 2.77767 11.5052 2.93262 11.4277C3.08757 11.3503 3.21061 11.2409 3.30176 11.0996C3.39746 10.9538 3.48177 10.7829 3.55469 10.5869L4.0127 9.39062ZM2.39258 3.04688L4.66211 7.97559L5.29785 10.2383L3.77344 10.2656L0.191406 3.04688H2.39258ZM14.0509 8.63184H11.4942L11.4805 7.22363H13.627C14.0053 7.22363 14.3152 7.17578 14.5567 7.08008C14.7983 6.97982 14.9783 6.83626 15.0968 6.64941C15.2198 6.45801 15.2813 6.22559 15.2813 5.95215C15.2813 5.64225 15.2221 5.3916 15.1036 5.2002C14.9897 5.00879 14.8096 4.86979 14.5636 4.7832C14.322 4.69661 14.0098 4.65332 13.627 4.65332H12.2052V13H10.1544V3.04688H13.627C14.2058 3.04688 14.7231 3.10156 15.1788 3.21094C15.6391 3.32031 16.0287 3.48665 16.3477 3.70996C16.6667 3.93327 16.9106 4.21582 17.0792 4.55762C17.2478 4.89486 17.3321 5.2959 17.3321 5.76074C17.3321 6.1709 17.2387 6.54915 17.0518 6.89551C16.8695 7.24186 16.5802 7.52441 16.1837 7.74316C15.7917 7.96191 15.279 8.08268 14.6456 8.10547L14.0509 8.63184ZM13.962 13H10.9337L11.7335 11.4004H13.962C14.322 11.4004 14.616 11.3434 14.8438 11.2295C15.0717 11.111 15.2403 10.9515 15.3497 10.751C15.4591 10.5505 15.5138 10.3203 15.5138 10.0605C15.5138 9.76888 15.4636 9.51595 15.3634 9.30176C15.2677 9.08757 15.1127 8.9235 14.8985 8.80957C14.6843 8.69108 14.4018 8.63184 14.0509 8.63184H12.0753L12.0889 7.22363H14.5499L15.0216 7.77734C15.6277 7.76823 16.1153 7.87533 16.4845 8.09863C16.8582 8.31738 17.1293 8.60221 17.2979 8.95312C17.4711 9.30404 17.5577 9.68001 17.5577 10.0811C17.5577 10.7191 17.4187 11.2568 17.1407 11.6943C16.8627 12.1273 16.4548 12.4531 15.9171 12.6719C15.3839 12.8906 14.7322 13 13.962 13ZM23.5627 4.74902L20.8556 13H18.675L22.3732 3.04688H23.7609L23.5627 4.74902ZM25.8117 13L23.0978 4.74902L22.8791 3.04688H24.2804L27.9992 13H25.8117ZM25.6886 9.29492V10.9014H20.4318V9.29492H25.6886ZM35.8772 3.04688V4.65332H31.3928V13H29.3489V3.04688H35.8772ZM40.2347 4.74902L37.5277 13H35.347L39.0452 3.04688H40.4329L40.2347 4.74902ZM42.4837 13L39.7698 4.74902L39.5511 3.04688H40.9525L44.6712 13H42.4837ZM42.3607 9.29492V10.9014H37.1038V9.29492H42.3607ZM57.8159 11.4004V13H50.645V11.4004H57.8159ZM51.2534 11.4004V15.4404H49.3257L49.2163 11.4004H51.2534ZM59.2925 11.4004L59.1147 15.4473H57.2348V11.4004H59.2925ZM56.688 3.04688V4.65332H51.896V3.04688H56.688ZM58.1509 3.04688V13H56.1069V3.04688H58.1509ZM51.643 3.04688H53.6938L53.4272 7.10059C53.3862 7.77051 53.3133 8.36296 53.2085 8.87793C53.1082 9.38835 52.9852 9.83724 52.8393 10.2246C52.6981 10.612 52.5408 10.9515 52.3677 11.2432C52.1945 11.5303 52.0122 11.7809 51.8208 11.9951C51.6294 12.2048 51.4357 12.3916 51.2397 12.5557C51.0438 12.7152 50.8524 12.8633 50.6655 13H49.4897V11.4004H49.9477C50.0799 11.291 50.2189 11.1406 50.3647 10.9492C50.5151 10.7578 50.6564 10.5003 50.7886 10.1768C50.9253 9.84863 51.0438 9.43392 51.144 8.93262C51.2488 8.43132 51.3263 7.82064 51.3764 7.10059L51.643 3.04688ZM68.7837 7.79102V8.2627C68.7837 9.01921 68.6812 9.69824 68.4761 10.2998C68.2711 10.9014 67.9817 11.4141 67.608 11.8379C67.2343 12.2572 66.7877 12.5785 66.2681 12.8018C65.7531 13.0251 65.1812 13.1367 64.5523 13.1367C63.928 13.1367 63.356 13.0251 62.8365 12.8018C62.3215 12.5785 61.8749 12.2572 61.4966 11.8379C61.1184 11.4141 60.8244 10.9014 60.6148 10.2998C60.4097 9.69824 60.3072 9.01921 60.3072 8.2627V7.79102C60.3072 7.02995 60.4097 6.35091 60.6148 5.75391C60.8199 5.15234 61.1093 4.63965 61.483 4.21582C61.8612 3.79199 62.3078 3.46842 62.8228 3.24512C63.3423 3.02181 63.9143 2.91016 64.5386 2.91016C65.1675 2.91016 65.7395 3.02181 66.2545 3.24512C66.774 3.46842 67.2206 3.79199 67.5943 4.21582C67.9726 4.63965 68.2642 5.15234 68.4693 5.75391C68.6789 6.35091 68.7837 7.02995 68.7837 7.79102ZM66.7125 8.2627V7.77734C66.7125 7.2487 66.6646 6.78385 66.5689 6.38281C66.4732 5.98177 66.3319 5.64453 66.1451 5.37109C65.9582 5.09766 65.7304 4.89258 65.4615 4.75586C65.1926 4.61458 64.885 4.54395 64.5386 4.54395C64.1923 4.54395 63.8847 4.61458 63.6158 4.75586C63.3515 4.89258 63.1259 5.09766 62.939 5.37109C62.7567 5.64453 62.6177 5.98177 62.522 6.38281C62.4263 6.78385 62.3785 7.2487 62.3785 7.77734V8.2627C62.3785 8.78678 62.4263 9.25163 62.522 9.65723C62.6177 10.0583 62.759 10.3978 62.9459 10.6758C63.1327 10.9492 63.3606 11.1566 63.6295 11.2979C63.8983 11.4391 64.2059 11.5098 64.5523 11.5098C64.8987 11.5098 65.2063 11.4391 65.4752 11.2979C65.744 11.1566 65.9696 10.9492 66.1519 10.6758C66.3342 10.3978 66.4732 10.0583 66.5689 9.65723C66.6646 9.25163 66.7125 8.78678 66.7125 8.2627ZM82.4821 11.4004V13H75.3112V11.4004H82.4821ZM75.9196 11.4004V15.4404H73.9919L73.8825 11.4004H75.9196ZM83.9587 11.4004L83.781 15.4473H81.9011V11.4004H83.9587ZM81.3542 3.04688V4.65332H76.5622V3.04688H81.3542ZM82.8171 3.04688V13H80.7732V3.04688H82.8171ZM76.3093 3.04688H78.3601L78.0935 7.10059C78.0525 7.77051 77.9795 8.36296 77.8747 8.87793C77.7745 9.38835 77.6514 9.83724 77.5056 10.2246C77.3643 10.612 77.2071 10.9515 77.0339 11.2432C76.8607 11.5303 76.6784 11.7809 76.487 11.9951C76.2956 12.2048 76.1019 12.3916 75.906 12.5557C75.71 12.7152 75.5186 12.8633 75.3318 13H74.156V11.4004H74.614C74.7461 11.291 74.8851 11.1406 75.031 10.9492C75.1814 10.7578 75.3226 10.5003 75.4548 10.1768C75.5915 9.84863 75.71 9.43392 75.8103 8.93262C75.9151 8.43132 75.9926 7.82064 76.0427 7.10059L76.3093 3.04688ZM92.117 11.4004V13H86.8191V11.4004H92.117ZM87.4891 3.04688V13H85.4383V3.04688H87.4891ZM91.4266 7.10059V8.65918H86.8191V7.10059H91.4266ZM92.1102 3.04688V4.65332H86.8191V3.04688H92.1102ZM98.3202 3.04688V13H96.2763V3.04688H98.3202ZM101.383 3.04688V4.65332H93.2616V3.04688H101.383ZM106.28 4.74902L103.573 13H101.393L105.091 3.04688H106.478L106.28 4.74902ZM108.529 13L105.815 4.74902L105.597 3.04688H106.998L110.717 13H108.529ZM108.406 9.29492V10.9014H103.149V9.29492H108.406ZM118.82 3.04688V4.65332H113.871V3.04688H118.82ZM120.283 3.04688V13H118.232V3.04688H120.283ZM113.611 3.04688H115.655L115.402 8.04395C115.366 8.79134 115.295 9.44076 115.19 9.99219C115.09 10.5436 114.953 11.013 114.78 11.4004C114.607 11.7832 114.393 12.0931 114.138 12.3301C113.887 12.5625 113.591 12.7334 113.249 12.8428C112.907 12.9476 112.518 13 112.08 13H111.574V11.4004L111.834 11.3799C112.057 11.3571 112.253 11.2979 112.422 11.2021C112.591 11.1064 112.734 10.9629 112.853 10.7715C112.976 10.5801 113.076 10.3363 113.153 10.04C113.235 9.73926 113.299 9.3724 113.345 8.93945C113.395 8.50651 113.429 8.00065 113.447 7.42188L113.611 3.04688ZM129.166 11.4004V13H123.868V11.4004H129.166ZM124.538 3.04688V13H122.487V3.04688H124.538ZM128.476 7.10059V8.65918H123.868V7.10059H128.476ZM129.159 3.04688V4.65332H123.868V3.04688H129.159ZM132.758 9.77344L136.757 3.04688H138.808V13H136.757V6.27344L132.758 13H130.707V3.04688H132.758V9.77344ZM135.752 0.435547H137.154C137.154 0.827474 137.056 1.17611 136.86 1.48145C136.668 1.78223 136.395 2.01921 136.039 2.19238C135.684 2.361 135.265 2.44531 134.781 2.44531C134.048 2.44531 133.467 2.25846 133.038 1.88477C132.614 1.51107 132.403 1.02799 132.403 0.435547H133.797C133.797 0.672526 133.87 0.88444 134.016 1.07129C134.166 1.25814 134.421 1.35156 134.781 1.35156C135.137 1.35156 135.388 1.25814 135.533 1.07129C135.679 0.88444 135.752 0.672526 135.752 0.435547Z" fill="#212121"/>
<path d="M2.57031 33.0469V43H1.25098V33.0469H2.57031ZM6.68172 35.6035H7.94637L7.83699 38.3721C7.80965 39.0739 7.7299 39.68 7.59773 40.1904C7.46557 40.7008 7.29695 41.1361 7.09188 41.4961C6.8868 41.8516 6.65665 42.1501 6.40145 42.3916C6.15079 42.6331 5.89103 42.8359 5.62215 43H4.99324L5.02742 41.9678L5.28719 41.9609C5.43758 41.7832 5.58341 41.6009 5.72469 41.4141C5.86596 41.2227 5.99585 40.9971 6.11434 40.7373C6.23283 40.473 6.33081 40.1517 6.40828 39.7734C6.49031 39.3906 6.54272 38.9235 6.56551 38.3721L6.68172 35.6035ZM6.99617 35.6035H11.4464V43H10.1817V36.7725H6.99617V35.6035ZM4.70613 41.9609H12.3966V45.1807H11.1319V43H5.97078V45.1807H4.6993L4.70613 41.9609ZM17.2873 43.1367C16.7723 43.1367 16.3052 43.0501 15.8859 42.877C15.4712 42.6992 15.1134 42.4508 14.8127 42.1318C14.5164 41.8128 14.2886 41.4346 14.1291 40.9971C13.9696 40.5596 13.8898 40.0811 13.8898 39.5615V39.2744C13.8898 38.6729 13.9787 38.1374 14.1564 37.668C14.3341 37.194 14.5757 36.793 14.881 36.4648C15.1864 36.1367 15.5327 35.8883 15.9201 35.7197C16.3074 35.5511 16.7085 35.4668 17.1232 35.4668C17.6518 35.4668 18.1076 35.5579 18.4904 35.7402C18.8778 35.9225 19.1945 36.1777 19.4406 36.5059C19.6867 36.8294 19.869 37.2122 19.9875 37.6543C20.106 38.0918 20.1652 38.5703 20.1652 39.0898V39.6572H14.6418V38.625H18.9005V38.5293C18.8823 38.2012 18.814 37.8822 18.6955 37.5723C18.5815 37.2624 18.3992 37.0072 18.1486 36.8066C17.8979 36.6061 17.5561 36.5059 17.1232 36.5059C16.8361 36.5059 16.5718 36.5674 16.3302 36.6904C16.0887 36.8089 15.8813 36.9867 15.7082 37.2236C15.535 37.4606 15.4005 37.75 15.3048 38.0918C15.2091 38.4336 15.1613 38.8278 15.1613 39.2744V39.5615C15.1613 39.9124 15.2091 40.2428 15.3048 40.5527C15.4051 40.8581 15.5487 41.127 15.7355 41.3594C15.9269 41.5918 16.1571 41.7741 16.4259 41.9062C16.6994 42.0384 17.0093 42.1045 17.3556 42.1045C17.8022 42.1045 18.1805 42.0133 18.4904 41.8311C18.8003 41.6488 19.0714 41.4049 19.3039 41.0996L20.0695 41.708C19.91 41.9495 19.7072 42.1797 19.4611 42.3984C19.215 42.6172 18.9119 42.7949 18.5519 42.9316C18.1964 43.0684 17.7749 43.1367 17.2873 43.1367ZM23.4289 40.9971L26.8401 35.6035H28.1116V43H26.8401V37.6064L23.4289 43H22.1711V35.6035H23.4289V40.9971ZM26.1496 32.9238H27.175C27.175 33.2793 27.093 33.596 26.9289 33.874C26.7649 34.1475 26.5302 34.3617 26.2248 34.5166C25.9195 34.6715 25.5572 34.749 25.1379 34.749C24.5045 34.749 24.0032 34.5804 23.634 34.2432C23.2694 33.9014 23.0871 33.4616 23.0871 32.9238H24.1125C24.1125 33.1927 24.19 33.4297 24.345 33.6348C24.4999 33.8398 24.7642 33.9424 25.1379 33.9424C25.5025 33.9424 25.7623 33.8398 25.9172 33.6348C26.0722 33.4297 26.1496 33.1927 26.1496 32.9238ZM35.5794 38.8096V39.835H31.6693V38.8096H35.5794ZM31.9359 35.6035V43H30.6712V35.6035H31.9359ZM36.6048 35.6035V43H35.3333V35.6035H36.6048ZM40.4359 35.6035V43H39.1645V35.6035H40.4359ZM39.0687 33.6416C39.0687 33.4365 39.1303 33.2633 39.2533 33.1221C39.3809 32.9808 39.5678 32.9102 39.8139 32.9102C40.0554 32.9102 40.24 32.9808 40.3676 33.1221C40.4997 33.2633 40.5658 33.4365 40.5658 33.6416C40.5658 33.8376 40.4997 34.0062 40.3676 34.1475C40.24 34.2842 40.0554 34.3525 39.8139 34.3525C39.5678 34.3525 39.3809 34.2842 39.2533 34.1475C39.1303 34.0062 39.0687 33.8376 39.0687 33.6416ZM51.0308 41.3184L53.5464 35.6035H54.7632L51.4683 43H50.5933L47.3121 35.6035H48.5289L51.0308 41.3184ZM48.1597 35.6035V43H46.8951V35.6035H48.1597ZM53.8609 43V35.6035H55.1324V43H53.8609ZM58.9635 35.6035V43H57.692V35.6035H58.9635ZM57.5963 33.6416C57.5963 33.4365 57.6579 33.2633 57.7809 33.1221C57.9085 32.9808 58.0954 32.9102 58.3414 32.9102C58.583 32.9102 58.7676 32.9808 58.8952 33.1221C59.0273 33.2633 59.0934 33.4365 59.0934 33.6416C59.0934 33.8376 59.0273 34.0062 58.8952 34.1475C58.7676 34.2842 58.583 34.3525 58.3414 34.3525C58.0954 34.3525 57.9085 34.2842 57.7809 34.1475C57.6579 34.0062 57.5963 33.8376 57.5963 33.6416ZM62.6784 37.0254V45.8438H61.407V35.6035H62.5691L62.6784 37.0254ZM67.6618 39.2402V39.3838C67.6618 39.9215 67.598 40.4206 67.4704 40.8809C67.3428 41.3366 67.156 41.7331 66.9099 42.0703C66.6683 42.4076 66.3698 42.6696 66.0144 42.8564C65.6589 43.0433 65.251 43.1367 64.7907 43.1367C64.3213 43.1367 63.9066 43.0592 63.5466 42.9043C63.1866 42.7493 62.8812 42.5238 62.6306 42.2275C62.3799 41.9313 62.1794 41.5758 62.029 41.1611C61.8832 40.7464 61.7829 40.2793 61.7282 39.7598V38.9941C61.7829 38.4473 61.8855 37.9574 62.0359 37.5244C62.1862 37.0915 62.3845 36.7223 62.6306 36.417C62.8812 36.1071 63.1843 35.8724 63.5398 35.7129C63.8952 35.5488 64.3054 35.4668 64.7702 35.4668C65.2351 35.4668 65.6475 35.5579 66.0075 35.7402C66.3676 35.918 66.6706 36.1732 66.9167 36.5059C67.1628 36.8385 67.3474 37.2373 67.4704 37.7021C67.598 38.1624 67.6618 38.6751 67.6618 39.2402ZM66.3904 39.3838V39.2402C66.3904 38.8711 66.3516 38.5247 66.2741 38.2012C66.1967 37.873 66.0759 37.5859 65.9118 37.3398C65.7523 37.0892 65.5473 36.8932 65.2966 36.752C65.0459 36.6061 64.7474 36.5332 64.4011 36.5332C64.0821 36.5332 63.8041 36.5879 63.5671 36.6973C63.3347 36.8066 63.1364 36.9548 62.9724 37.1416C62.8083 37.3239 62.6739 37.5335 62.5691 37.7705C62.4688 38.0029 62.3936 38.2445 62.3435 38.4951V40.2656C62.4346 40.5846 62.5622 40.8854 62.7263 41.168C62.8904 41.446 63.1091 41.6715 63.3825 41.8447C63.656 42.0133 64.0001 42.0977 64.4148 42.0977C64.7566 42.0977 65.0505 42.027 65.2966 41.8857C65.5473 41.7399 65.7523 41.5417 65.9118 41.291C66.0759 41.0404 66.1967 40.7533 66.2741 40.4297C66.3516 40.1016 66.3904 39.7529 66.3904 39.3838ZM71.0691 35.6035V43H69.8045V35.6035H71.0691ZM75.9227 35.6035L72.4158 39.8418H70.6453L70.4539 38.7344H71.9031L74.3846 35.6035H75.9227ZM74.5623 43L71.8416 39.6504L72.6551 38.7344L76.1687 43H74.5623ZM79.7675 42.2344L81.8251 35.6035H83.1786L80.2118 44.1416C80.1434 44.3239 80.0523 44.5199 79.9384 44.7295C79.829 44.9437 79.6877 45.1465 79.5145 45.3379C79.3414 45.5293 79.1317 45.6842 78.8856 45.8027C78.6441 45.9258 78.3547 45.9873 78.0175 45.9873C77.9172 45.9873 77.7896 45.9736 77.6347 45.9463C77.4797 45.9189 77.3703 45.8962 77.3065 45.8779L77.2997 44.8525C77.3361 44.8571 77.3931 44.8617 77.4706 44.8662C77.5526 44.8753 77.6096 44.8799 77.6415 44.8799C77.9286 44.8799 78.1724 44.8411 78.3729 44.7637C78.5735 44.6908 78.7421 44.5654 78.8788 44.3877C79.0201 44.2145 79.1408 43.9753 79.2411 43.6699L79.7675 42.2344ZM78.2567 35.6035L80.1776 41.3457L80.5057 42.6787L79.5966 43.1436L76.8759 35.6035H78.2567ZM88.2129 39.7461H85.7861L85.7724 38.7344H87.7548C88.1468 38.7344 88.4726 38.6956 88.7324 38.6182C88.9967 38.5407 89.1949 38.4245 89.3271 38.2695C89.4593 38.1146 89.5254 37.9232 89.5254 37.6953C89.5254 37.5176 89.4866 37.3626 89.4091 37.2305C89.3362 37.0938 89.2246 36.9821 89.0742 36.8955C88.9238 36.8044 88.7369 36.7383 88.5136 36.6973C88.2949 36.6517 88.0374 36.6289 87.7412 36.6289H86.1211V43H84.8564V35.6035H87.7412C88.2106 35.6035 88.6321 35.6445 89.0058 35.7266C89.3841 35.8086 89.7054 35.9339 89.9697 36.1025C90.2386 36.2666 90.4436 36.4762 90.5849 36.7314C90.7262 36.9867 90.7968 37.2874 90.7968 37.6338C90.7968 37.8571 90.7513 38.069 90.6601 38.2695C90.569 38.4701 90.4345 38.6478 90.2568 38.8027C90.0791 38.9577 89.8603 39.0853 89.6005 39.1855C89.3408 39.2812 89.0423 39.3428 88.705 39.3701L88.2129 39.7461ZM88.2129 43H85.3281L85.957 41.9746H88.2129C88.5638 41.9746 88.8554 41.9313 89.0879 41.8447C89.3203 41.7536 89.4935 41.626 89.6074 41.4619C89.7259 41.2933 89.7851 41.0928 89.7851 40.8604C89.7851 40.6279 89.7259 40.4297 89.6074 40.2656C89.4935 40.097 89.3203 39.9694 89.0879 39.8828C88.8554 39.7917 88.5638 39.7461 88.2129 39.7461H86.292L86.3056 38.7344H88.705L89.163 39.1172C89.5686 39.1491 89.9127 39.2493 90.1953 39.418C90.4778 39.5866 90.692 39.8008 90.8379 40.0605C90.9837 40.3158 91.0566 40.5938 91.0566 40.8945C91.0566 41.2409 90.9905 41.5462 90.8584 41.8105C90.7308 42.0749 90.5439 42.2959 90.2978 42.4736C90.0517 42.6468 89.7532 42.779 89.4023 42.8701C89.0514 42.9567 88.6549 43 88.2129 43ZM97.5332 41.7354V37.9277C97.5332 37.6361 97.474 37.3831 97.3555 37.1689C97.2416 36.9502 97.0684 36.7816 96.836 36.6631C96.6036 36.5446 96.3164 36.4854 95.9746 36.4854C95.6556 36.4854 95.3754 36.54 95.1338 36.6494C94.8968 36.7588 94.71 36.9023 94.5733 37.0801C94.4411 37.2578 94.375 37.4492 94.375 37.6543H93.1104C93.1104 37.39 93.1787 37.1279 93.3155 36.8682C93.4522 36.6084 93.6482 36.3737 93.9034 36.1641C94.1631 35.9499 94.473 35.7812 94.833 35.6582C95.1976 35.5306 95.6032 35.4668 96.0498 35.4668C96.5876 35.4668 97.0616 35.5579 97.4717 35.7402C97.8864 35.9225 98.21 36.1982 98.4424 36.5674C98.6794 36.932 98.7979 37.39 98.7979 37.9414V41.3867C98.7979 41.6328 98.8184 41.8949 98.8594 42.1729C98.905 42.4508 98.9711 42.6901 99.0577 42.8906V43H97.7383C97.6745 42.8542 97.6244 42.6605 97.5879 42.4189C97.5515 42.1729 97.5332 41.945 97.5332 41.7354ZM97.752 38.5156L97.7657 39.4043H96.4873C96.1273 39.4043 95.806 39.4339 95.5235 39.4932C95.2409 39.5479 95.0039 39.6322 94.8125 39.7461C94.6211 39.86 94.4753 40.0036 94.375 40.1768C94.2748 40.3454 94.2246 40.5436 94.2246 40.7715C94.2246 41.0039 94.2771 41.2158 94.3819 41.4072C94.4867 41.5986 94.6439 41.7513 94.8536 41.8652C95.0677 41.9746 95.3298 42.0293 95.6397 42.0293C96.0271 42.0293 96.3689 41.9473 96.6651 41.7832C96.9613 41.6191 97.196 41.4186 97.3692 41.1816C97.5469 40.9447 97.6426 40.7145 97.6563 40.4912L98.1963 41.0996C98.1644 41.291 98.0778 41.5029 97.9366 41.7354C97.7953 41.9678 97.6062 42.1911 97.3692 42.4053C97.1368 42.6149 96.8588 42.7904 96.5352 42.9316C96.2162 43.0684 95.8562 43.1367 95.4551 43.1367C94.9538 43.1367 94.514 43.0387 94.1358 42.8428C93.7621 42.6468 93.4704 42.3848 93.2608 42.0566C93.0557 41.724 92.9532 41.3525 92.9532 40.9424C92.9532 40.5459 93.0306 40.1973 93.1856 39.8965C93.3405 39.5911 93.5638 39.3382 93.8555 39.1377C94.1472 38.9326 94.4981 38.7777 94.9082 38.6729C95.3184 38.568 95.7764 38.5156 96.2823 38.5156H97.752ZM106.225 38.8096V39.835H102.315V38.8096H106.225ZM102.581 35.6035V43H101.317V35.6035H102.581ZM107.25 35.6035V43H105.979V35.6035H107.25ZM114.725 38.8096V39.835H110.815V38.8096H114.725ZM111.081 35.6035V43H109.817V35.6035H111.081ZM115.75 35.6035V43H114.479V35.6035H115.75ZM119.704 39.4727H121.072L118.932 43H117.565L119.704 39.4727ZM120.764 35.6035H123.854V43H122.589V36.6289H120.764C120.404 36.6289 120.11 36.6904 119.882 36.8135C119.654 36.932 119.488 37.0869 119.383 37.2783C119.278 37.4697 119.226 37.668 119.226 37.873C119.226 38.0736 119.274 38.2673 119.369 38.4541C119.465 38.6364 119.616 38.7868 119.821 38.9053C120.026 39.0238 120.29 39.083 120.614 39.083H122.931V40.1221H120.614C120.19 40.1221 119.814 40.0651 119.486 39.9512C119.158 39.8372 118.88 39.68 118.652 39.4795C118.424 39.2744 118.251 39.0352 118.132 38.7617C118.014 38.4837 117.954 38.1829 117.954 37.8594C117.954 37.5358 118.016 37.2373 118.139 36.9639C118.267 36.6904 118.449 36.4512 118.686 36.2461C118.927 36.041 119.221 35.8838 119.568 35.7744C119.919 35.6605 120.317 35.6035 120.764 35.6035ZM127.459 41.4961V42.5146C127.459 42.9294 127.355 43.3669 127.145 43.8271C126.935 44.292 126.641 44.6794 126.263 44.9893L125.545 44.4902C125.691 44.2897 125.814 44.0846 125.914 43.875C126.015 43.6699 126.09 43.4557 126.14 43.2324C126.195 43.0137 126.222 42.7812 126.222 42.5352V41.4961H127.459ZM134.759 35.6035V43H133.488V35.6035H134.759ZM133.392 33.6416C133.392 33.4365 133.454 33.2633 133.577 33.1221C133.704 32.9808 133.891 32.9102 134.137 32.9102C134.379 32.9102 134.563 32.9808 134.691 33.1221C134.823 33.2633 134.889 33.4365 134.889 33.6416C134.889 33.8376 134.823 34.0062 134.691 34.1475C134.563 34.2842 134.379 34.3525 134.137 34.3525C133.891 34.3525 133.704 34.2842 133.577 34.1475C133.454 34.0062 133.392 33.8376 133.392 33.6416ZM146.12 38.8096V39.835H142.21V38.8096H146.12ZM142.476 35.6035V43H141.212V35.6035H142.476ZM147.145 35.6035V43H145.874V35.6035H147.145ZM153.964 41.7354V37.9277C153.964 37.6361 153.904 37.3831 153.786 37.1689C153.672 36.9502 153.499 36.7816 153.266 36.6631C153.034 36.5446 152.747 36.4854 152.405 36.4854C152.086 36.4854 151.806 36.54 151.564 36.6494C151.327 36.7588 151.14 36.9023 151.004 37.0801C150.872 37.2578 150.805 37.4492 150.805 37.6543H149.541C149.541 37.39 149.609 37.1279 149.746 36.8682C149.883 36.6084 150.079 36.3737 150.334 36.1641C150.594 35.9499 150.903 35.7812 151.263 35.6582C151.628 35.5306 152.034 35.4668 152.48 35.4668C153.018 35.4668 153.492 35.5579 153.902 35.7402C154.317 35.9225 154.64 36.1982 154.873 36.5674C155.11 36.932 155.228 37.39 155.228 37.9414V41.3867C155.228 41.6328 155.249 41.8949 155.29 42.1729C155.335 42.4508 155.401 42.6901 155.488 42.8906V43H154.169C154.105 42.8542 154.055 42.6605 154.018 42.4189C153.982 42.1729 153.964 41.945 153.964 41.7354ZM154.182 38.5156L154.196 39.4043H152.918C152.558 39.4043 152.236 39.4339 151.954 39.4932C151.671 39.5479 151.434 39.6322 151.243 39.7461C151.052 39.86 150.906 40.0036 150.805 40.1768C150.705 40.3454 150.655 40.5436 150.655 40.7715C150.655 41.0039 150.707 41.2158 150.812 41.4072C150.917 41.5986 151.074 41.7513 151.284 41.8652C151.498 41.9746 151.76 42.0293 152.07 42.0293C152.457 42.0293 152.799 41.9473 153.095 41.7832C153.392 41.6191 153.626 41.4186 153.8 41.1816C153.977 40.9447 154.073 40.7145 154.087 40.4912L154.627 41.0996C154.595 41.291 154.508 41.5029 154.367 41.7354C154.226 41.9678 154.037 42.1911 153.8 42.4053C153.567 42.6149 153.289 42.7904 152.966 42.9316C152.647 43.0684 152.287 43.1367 151.886 43.1367C151.384 43.1367 150.944 43.0387 150.566 42.8428C150.192 42.6468 149.901 42.3848 149.691 42.0566C149.486 41.724 149.384 41.3525 149.384 40.9424C149.384 40.5459 149.461 40.1973 149.616 39.8965C149.771 39.5911 149.994 39.3382 150.286 39.1377C150.578 38.9326 150.928 38.7777 151.339 38.6729C151.749 38.568 152.207 38.5156 152.713 38.5156H154.182ZM161.11 39.7461H158.683L158.67 38.7344H160.652C161.044 38.7344 161.37 38.6956 161.63 38.6182C161.894 38.5407 162.092 38.4245 162.224 38.2695C162.357 38.1146 162.423 37.9232 162.423 37.6953C162.423 37.5176 162.384 37.3626 162.306 37.2305C162.234 37.0938 162.122 36.9821 161.972 36.8955C161.821 36.8044 161.634 36.7383 161.411 36.6973C161.192 36.6517 160.935 36.6289 160.639 36.6289H159.018V43H157.754V35.6035H160.639C161.108 35.6035 161.529 35.6445 161.903 35.7266C162.281 35.8086 162.603 35.9339 162.867 36.1025C163.136 36.2666 163.341 36.4762 163.482 36.7314C163.624 36.9867 163.694 37.2874 163.694 37.6338C163.694 37.8571 163.649 38.069 163.557 38.2695C163.466 38.4701 163.332 38.6478 163.154 38.8027C162.976 38.9577 162.758 39.0853 162.498 39.1855C162.238 39.2812 161.94 39.3428 161.602 39.3701L161.11 39.7461ZM161.11 43H158.225L158.854 41.9746H161.11C161.461 41.9746 161.753 41.9313 161.985 41.8447C162.218 41.7536 162.391 41.626 162.505 41.4619C162.623 41.2933 162.682 41.0928 162.682 40.8604C162.682 40.6279 162.623 40.4297 162.505 40.2656C162.391 40.097 162.218 39.9694 161.985 39.8828C161.753 39.7917 161.461 39.7461 161.11 39.7461H159.189L159.203 38.7344H161.602L162.06 39.1172C162.466 39.1491 162.81 39.2493 163.093 39.418C163.375 39.5866 163.589 39.8008 163.735 40.0605C163.881 40.3158 163.954 40.5938 163.954 40.8945C163.954 41.2409 163.888 41.5462 163.756 41.8105C163.628 42.0749 163.441 42.2959 163.195 42.4736C162.949 42.6468 162.651 42.779 162.3 42.8701C161.949 42.9567 161.552 43 161.11 43ZM167.443 35.6035V43H166.172V35.6035H167.443ZM166.076 33.6416C166.076 33.4365 166.138 33.2633 166.261 33.1221C166.388 32.9808 166.575 32.9102 166.821 32.9102C167.063 32.9102 167.247 32.9808 167.375 33.1221C167.507 33.2633 167.573 33.4365 167.573 33.6416C167.573 33.8376 167.507 34.0062 167.375 34.1475C167.247 34.2842 167.063 34.3525 166.821 34.3525C166.575 34.3525 166.388 34.2842 166.261 34.1475C166.138 34.0062 166.076 33.8376 166.076 33.6416ZM172.908 35.6035V43H171.637V35.6035H172.908ZM175.39 35.6035V36.6289H169.203V35.6035H175.39ZM178.093 38.1465H180.315C180.912 38.1465 181.415 38.2513 181.825 38.4609C182.235 38.666 182.545 38.9508 182.755 39.3154C182.969 39.6755 183.076 40.0856 183.076 40.5459C183.076 40.8877 183.017 41.209 182.899 41.5098C182.78 41.806 182.602 42.0658 182.365 42.2891C182.133 42.5124 181.844 42.6878 181.497 42.8154C181.155 42.9385 180.761 43 180.315 43H177.17V35.6035H178.435V41.9609H180.315C180.679 41.9609 180.971 41.8949 181.19 41.7627C181.408 41.6305 181.566 41.4596 181.661 41.25C181.757 41.0404 181.805 40.8216 181.805 40.5938C181.805 40.3704 181.757 40.1517 181.661 39.9375C181.566 39.7233 181.408 39.5456 181.19 39.4043C180.971 39.2585 180.679 39.1855 180.315 39.1855H178.093V38.1465ZM193.897 35.6035V36.6494H190.157V35.6035H193.897ZM190.342 35.6035V43H189.077V35.6035H190.342ZM195.018 35.6035V43H193.746V35.6035H195.018ZM197.133 39.3838V39.2266C197.133 38.6934 197.211 38.1989 197.366 37.7432C197.52 37.2829 197.744 36.8841 198.035 36.5469C198.327 36.2051 198.68 35.9408 199.095 35.7539C199.51 35.5625 199.975 35.4668 200.49 35.4668C201.009 35.4668 201.476 35.5625 201.891 35.7539C202.31 35.9408 202.666 36.2051 202.957 36.5469C203.254 36.8841 203.479 37.2829 203.634 37.7432C203.789 38.1989 203.867 38.6934 203.867 39.2266V39.3838C203.867 39.917 203.789 40.4115 203.634 40.8672C203.479 41.3229 203.254 41.7217 202.957 42.0635C202.666 42.4007 202.312 42.665 201.898 42.8564C201.488 43.0433 201.023 43.1367 200.503 43.1367C199.984 43.1367 199.517 43.0433 199.102 42.8564C198.687 42.665 198.332 42.4007 198.035 42.0635C197.744 41.7217 197.52 41.3229 197.366 40.8672C197.211 40.4115 197.133 39.917 197.133 39.3838ZM198.398 39.2266V39.3838C198.398 39.7529 198.441 40.1016 198.528 40.4297C198.614 40.7533 198.744 41.0404 198.917 41.291C199.095 41.5417 199.316 41.7399 199.58 41.8857C199.845 42.027 200.152 42.0977 200.503 42.0977C200.85 42.0977 201.153 42.027 201.412 41.8857C201.677 41.7399 201.895 41.5417 202.069 41.291C202.242 41.0404 202.372 40.7533 202.458 40.4297C202.549 40.1016 202.595 39.7529 202.595 39.3838V39.2266C202.595 38.862 202.549 38.5179 202.458 38.1943C202.372 37.8662 202.24 37.5768 202.062 37.3262C201.889 37.071 201.67 36.8704 201.406 36.7246C201.146 36.5788 200.84 36.5059 200.49 36.5059C200.143 36.5059 199.838 36.5788 199.574 36.7246C199.314 36.8704 199.095 37.071 198.917 37.3262C198.744 37.5768 198.614 37.8662 198.528 38.1943C198.441 38.5179 198.398 38.862 198.398 39.2266ZM211.451 35.6035V43H210.186V35.6035H211.451ZM211.02 39.001V40.04C210.765 40.1357 210.505 40.2223 210.241 40.2998C209.981 40.3727 209.705 40.432 209.413 40.4775C209.126 40.5186 208.814 40.5391 208.477 40.5391C207.894 40.5391 207.388 40.4388 206.959 40.2383C206.531 40.0332 206.201 39.7256 205.968 39.3154C205.736 38.9007 205.62 38.3789 205.62 37.75V35.5898H206.884V37.75C206.884 38.1602 206.946 38.4928 207.069 38.748C207.192 39.0033 207.372 39.1924 207.609 39.3154C207.846 39.4339 208.135 39.4932 208.477 39.4932C208.805 39.4932 209.113 39.4727 209.4 39.4316C209.691 39.3861 209.969 39.3268 210.234 39.2539C210.503 39.181 210.765 39.0967 211.02 39.001ZM218.269 41.7354V37.9277C218.269 37.6361 218.21 37.3831 218.091 37.1689C217.977 36.9502 217.804 36.7816 217.572 36.6631C217.339 36.5446 217.052 36.4854 216.71 36.4854C216.391 36.4854 216.111 36.54 215.87 36.6494C215.633 36.7588 215.446 36.9023 215.309 37.0801C215.177 37.2578 215.111 37.4492 215.111 37.6543H213.846C213.846 37.39 213.915 37.1279 214.051 36.8682C214.188 36.6084 214.384 36.3737 214.639 36.1641C214.899 35.9499 215.209 35.7812 215.569 35.6582C215.933 35.5306 216.339 35.4668 216.786 35.4668C217.323 35.4668 217.797 35.5579 218.208 35.7402C218.622 35.9225 218.946 36.1982 219.178 36.5674C219.415 36.932 219.534 37.39 219.534 37.9414V41.3867C219.534 41.6328 219.554 41.8949 219.595 42.1729C219.641 42.4508 219.707 42.6901 219.793 42.8906V43H218.474C218.41 42.8542 218.36 42.6605 218.324 42.4189C218.287 42.1729 218.269 41.945 218.269 41.7354ZM218.488 38.5156L218.501 39.4043H217.223C216.863 39.4043 216.542 39.4339 216.259 39.4932C215.977 39.5479 215.74 39.6322 215.548 39.7461C215.357 39.86 215.211 40.0036 215.111 40.1768C215.011 40.3454 214.96 40.5436 214.96 40.7715C214.96 41.0039 215.013 41.2158 215.118 41.4072C215.222 41.5986 215.38 41.7513 215.589 41.8652C215.804 41.9746 216.066 42.0293 216.375 42.0293C216.763 42.0293 217.105 41.9473 217.401 41.7832C217.697 41.6191 217.932 41.4186 218.105 41.1816C218.283 40.9447 218.378 40.7145 218.392 40.4912L218.932 41.0996C218.9 41.291 218.814 41.5029 218.672 41.7354C218.531 41.9678 218.342 42.1911 218.105 42.4053C217.873 42.6149 217.595 42.7904 217.271 42.9316C216.952 43.0684 216.592 43.1367 216.191 43.1367C215.69 43.1367 215.25 43.0387 214.872 42.8428C214.498 42.6468 214.206 42.3848 213.997 42.0566C213.791 41.724 213.689 41.3525 213.689 40.9424C213.689 40.5459 213.766 40.1973 213.921 39.8965C214.076 39.5911 214.3 39.3382 214.591 39.1377C214.883 38.9326 215.234 38.7777 215.644 38.6729C216.054 38.568 216.512 38.5156 217.018 38.5156H218.488ZM224.848 35.6035V43H223.577V35.6035H224.848ZM227.33 35.6035V36.6289H221.143V35.6035H227.33ZM228.372 39.3838V39.2266C228.372 38.6934 228.449 38.1989 228.604 37.7432C228.759 37.2829 228.982 36.8841 229.274 36.5469C229.566 36.2051 229.919 35.9408 230.334 35.7539C230.748 35.5625 231.213 35.4668 231.728 35.4668C232.248 35.4668 232.715 35.5625 233.13 35.7539C233.549 35.9408 233.904 36.2051 234.196 36.5469C234.492 36.8841 234.718 37.2829 234.873 37.7432C235.028 38.1989 235.105 38.6934 235.105 39.2266V39.3838C235.105 39.917 235.028 40.4115 234.873 40.8672C234.718 41.3229 234.492 41.7217 234.196 42.0635C233.904 42.4007 233.551 42.665 233.136 42.8564C232.726 43.0433 232.261 43.1367 231.742 43.1367C231.222 43.1367 230.755 43.0433 230.34 42.8564C229.926 42.665 229.57 42.4007 229.274 42.0635C228.982 41.7217 228.759 41.3229 228.604 40.8672C228.449 40.4115 228.372 39.917 228.372 39.3838ZM229.636 39.2266V39.3838C229.636 39.7529 229.68 40.1016 229.766 40.4297C229.853 40.7533 229.983 41.0404 230.156 41.291C230.334 41.5417 230.555 41.7399 230.819 41.8857C231.083 42.027 231.391 42.0977 231.742 42.0977C232.088 42.0977 232.391 42.027 232.651 41.8857C232.915 41.7399 233.134 41.5417 233.307 41.291C233.48 41.0404 233.61 40.7533 233.697 40.4297C233.788 40.1016 233.834 39.7529 233.834 39.3838V39.2266C233.834 38.862 233.788 38.5179 233.697 38.1943C233.61 37.8662 233.478 37.5768 233.3 37.3262C233.127 37.071 232.909 36.8704 232.644 36.7246C232.384 36.5788 232.079 36.5059 231.728 36.5059C231.382 36.5059 231.076 36.5788 230.812 36.7246C230.552 36.8704 230.334 37.071 230.156 37.3262C229.983 37.5768 229.853 37.8662 229.766 38.1943C229.68 38.5179 229.636 38.862 229.636 39.2266ZM238.485 35.6035V43H237.22V35.6035H238.485ZM243.339 35.6035L239.832 39.8418H238.061L237.87 38.7344H239.319L241.801 35.6035H243.339ZM241.978 43L239.258 39.6504L240.071 38.7344L243.585 43H241.978ZM5.89258 59.6035V60.6494H2.15332V59.6035H5.89258ZM2.33789 59.6035V67H1.07324V59.6035H2.33789ZM7.01367 59.6035V67H5.74219V59.6035H7.01367ZM9.12898 63.3838V63.2266C9.12898 62.6934 9.20646 62.1989 9.36141 61.7432C9.51635 61.2829 9.73966 60.8841 10.0313 60.5469C10.323 60.2051 10.6762 59.9408 11.0909 59.7539C11.5056 59.5625 11.9705 59.4668 12.4854 59.4668C13.005 59.4668 13.4721 59.5625 13.8868 59.7539C14.3061 59.9408 14.6615 60.2051 14.9532 60.5469C15.2494 60.8841 15.475 61.2829 15.63 61.7432C15.7849 62.1989 15.8624 62.6934 15.8624 63.2266V63.3838C15.8624 63.917 15.7849 64.4115 15.63 64.8672C15.475 65.3229 15.2494 65.7217 14.9532 66.0635C14.6615 66.4007 14.3083 66.665 13.8936 66.8564C13.4835 67.0433 13.0186 67.1367 12.4991 67.1367C11.9796 67.1367 11.5124 67.0433 11.0977 66.8564C10.683 66.665 10.3276 66.4007 10.0313 66.0635C9.73966 65.7217 9.51635 65.3229 9.36141 64.8672C9.20646 64.4115 9.12898 63.917 9.12898 63.3838ZM10.3936 63.2266V63.3838C10.3936 63.7529 10.4369 64.1016 10.5235 64.4297C10.6101 64.7533 10.74 65.0404 10.9132 65.291C11.0909 65.5417 11.3119 65.7399 11.5763 65.8857C11.8406 66.027 12.1482 66.0977 12.4991 66.0977C12.8455 66.0977 13.1485 66.027 13.4083 65.8857C13.6726 65.7399 13.8914 65.5417 14.0645 65.291C14.2377 65.0404 14.3676 64.7533 14.4542 64.4297C14.5453 64.1016 14.5909 63.7529 14.5909 63.3838V63.2266C14.5909 62.862 14.5453 62.5179 14.4542 62.1943C14.3676 61.8662 14.2354 61.5768 14.0577 61.3262C13.8845 61.071 13.6658 60.8704 13.4014 60.7246C13.1417 60.5788 12.8363 60.5059 12.4854 60.5059C12.1391 60.5059 11.8337 60.5788 11.5694 60.7246C11.3096 60.8704 11.0909 61.071 10.9132 61.3262C10.74 61.5768 10.6101 61.8662 10.5235 62.1943C10.4369 62.5179 10.3936 62.862 10.3936 63.2266ZM21.341 63.7461H18.9142L18.9005 62.7344H20.883C21.2749 62.7344 21.6007 62.6956 21.8605 62.6182C22.1248 62.5407 22.3231 62.4245 22.4552 62.2695C22.5874 62.1146 22.6535 61.9232 22.6535 61.6953C22.6535 61.5176 22.6147 61.3626 22.5373 61.2305C22.4643 61.0938 22.3527 60.9821 22.2023 60.8955C22.0519 60.8044 21.8651 60.7383 21.6418 60.6973C21.423 60.6517 21.1655 60.6289 20.8693 60.6289H19.2492V67H17.9845V59.6035H20.8693C21.3387 59.6035 21.7602 59.6445 22.1339 59.7266C22.5122 59.8086 22.8335 59.9339 23.0978 60.1025C23.3667 60.2666 23.5718 60.4762 23.713 60.7314C23.8543 60.9867 23.925 61.2874 23.925 61.6338C23.925 61.8571 23.8794 62.069 23.7882 62.2695C23.6971 62.4701 23.5627 62.6478 23.3849 62.8027C23.2072 62.9577 22.9884 63.0853 22.7287 63.1855C22.4689 63.2812 22.1704 63.3428 21.8332 63.3701L21.341 63.7461ZM21.341 67H18.4562L19.0851 65.9746H21.341C21.6919 65.9746 21.9836 65.9313 22.216 65.8447C22.4484 65.7536 22.6216 65.626 22.7355 65.4619C22.854 65.2933 22.9132 65.0928 22.9132 64.8604C22.9132 64.6279 22.854 64.4297 22.7355 64.2656C22.6216 64.097 22.4484 63.9694 22.216 63.8828C21.9836 63.7917 21.6919 63.7461 21.341 63.7461H19.4201L19.4338 62.7344H21.8332L22.2912 63.1172C22.6968 63.1491 23.0408 63.2493 23.3234 63.418C23.606 63.5866 23.8201 63.8008 23.966 64.0605C24.1118 64.3158 24.1847 64.5938 24.1847 64.8945C24.1847 65.2409 24.1186 65.5462 23.9865 65.8105C23.8589 66.0749 23.672 66.2959 23.4259 66.4736C23.1798 66.6468 22.8813 66.779 22.5304 66.8701C22.1795 66.9567 21.783 67 21.341 67ZM29.26 66.0977C29.5608 66.0977 29.8388 66.0361 30.094 65.9131C30.3492 65.79 30.5588 65.6214 30.7229 65.4072C30.887 65.1885 30.9804 64.9401 31.0032 64.6621H32.2063C32.1835 65.0996 32.0354 65.5075 31.762 65.8857C31.4931 66.2594 31.1399 66.5625 30.7024 66.7949C30.2649 67.0228 29.7841 67.1367 29.26 67.1367C28.704 67.1367 28.2187 67.0387 27.8039 66.8428C27.3938 66.6468 27.052 66.3779 26.7786 66.0361C26.5097 65.6943 26.3069 65.3024 26.1702 64.8604C26.038 64.4137 25.9719 63.9421 25.9719 63.4453V63.1582C25.9719 62.6615 26.038 62.1921 26.1702 61.75C26.3069 61.3034 26.5097 60.9092 26.7786 60.5674C27.052 60.2256 27.3938 59.9567 27.8039 59.7607C28.2187 59.5648 28.704 59.4668 29.26 59.4668C29.8388 59.4668 30.3446 59.5853 30.7776 59.8223C31.2105 60.0547 31.55 60.3737 31.7961 60.7793C32.0468 61.1803 32.1835 61.6361 32.2063 62.1465H31.0032C30.9804 61.8411 30.8938 61.5654 30.7434 61.3193C30.5976 61.0732 30.397 60.8773 30.1418 60.7314C29.8912 60.5811 29.5972 60.5059 29.26 60.5059C28.8726 60.5059 28.5468 60.5833 28.2825 60.7383C28.0227 60.8887 27.8153 61.0938 27.6604 61.3535C27.51 61.6087 27.4006 61.8936 27.3323 62.208C27.2685 62.5179 27.2366 62.8346 27.2366 63.1582V63.4453C27.2366 63.7689 27.2685 64.0879 27.3323 64.4023C27.3961 64.7168 27.5032 65.0016 27.6536 65.2568C27.8085 65.512 28.0159 65.7171 28.2756 65.8721C28.5399 66.0225 28.8681 66.0977 29.26 66.0977ZM35.5452 63.4727H36.9124L34.7728 67H33.4056L35.5452 63.4727ZM36.6048 59.6035H39.6946V67H38.43V60.6289H36.6048C36.2448 60.6289 35.9508 60.6904 35.723 60.8135C35.4951 60.932 35.3288 61.0869 35.2239 61.2783C35.1191 61.4697 35.0667 61.668 35.0667 61.873C35.0667 62.0736 35.1146 62.2673 35.2103 62.4541C35.306 62.6364 35.4564 62.7868 35.6614 62.9053C35.8665 63.0238 36.1308 63.083 36.4544 63.083H38.7718V64.1221H36.4544C36.0306 64.1221 35.6546 64.0651 35.3265 63.9512C34.9984 63.8372 34.7204 63.68 34.4925 63.4795C34.2646 63.2744 34.0915 63.0352 33.973 62.7617C33.8545 62.4837 33.7952 62.1829 33.7952 61.8594C33.7952 61.5358 33.8568 61.2373 33.9798 60.9639C34.1074 60.6904 34.2897 60.4512 34.5267 60.2461C34.7682 60.041 35.0622 59.8838 35.4085 59.7744C35.7594 59.6605 36.1582 59.6035 36.6048 59.6035ZM43.5258 59.6035V67H42.2611V59.6035H43.5258ZM48.3793 59.6035L44.8725 63.8418H43.102L42.9105 62.7344H44.3598L46.8412 59.6035H48.3793ZM47.0189 67L44.2982 63.6504L45.1117 62.7344L48.6254 67H47.0189ZM51.479 59.6035H52.7436L52.6343 62.3721C52.6069 63.0739 52.5272 63.68 52.395 64.1904C52.2628 64.7008 52.0942 65.1361 51.8891 65.4961C51.6841 65.8516 51.4539 66.1501 51.1987 66.3916C50.9481 66.6331 50.6883 66.8359 50.4194 67H49.7905L49.8247 65.9678L50.0845 65.9609C50.2348 65.7832 50.3807 65.6009 50.522 65.4141C50.6632 65.2227 50.7931 64.9971 50.9116 64.7373C51.0301 64.473 51.1281 64.1517 51.2055 63.7734C51.2876 63.3906 51.34 62.9235 51.3628 62.3721L51.479 59.6035ZM51.7934 59.6035H56.2436V67H54.979V60.7725H51.7934V59.6035ZM49.5034 65.9609H57.1938V69.1807H55.9292V67H50.768V69.1807H49.4966L49.5034 65.9609ZM62.0845 67.1367C61.5696 67.1367 61.1024 67.0501 60.6832 66.877C60.2684 66.6992 59.9107 66.4508 59.6099 66.1318C59.3137 65.8128 59.0858 65.4346 58.9263 64.9971C58.7668 64.5596 58.6871 64.0811 58.6871 63.5615V63.2744C58.6871 62.6729 58.7759 62.1374 58.9537 61.668C59.1314 61.194 59.3729 60.793 59.6783 60.4648C59.9836 60.1367 60.33 59.8883 60.7173 59.7197C61.1047 59.5511 61.5058 59.4668 61.9205 59.4668C62.4491 59.4668 62.9048 59.5579 63.2877 59.7402C63.675 59.9225 63.9918 60.1777 64.2379 60.5059C64.4839 60.8294 64.6662 61.2122 64.7847 61.6543C64.9032 62.0918 64.9625 62.5703 64.9625 63.0898V63.6572H59.439V62.625H63.6978V62.5293C63.6796 62.2012 63.6112 61.8822 63.4927 61.5723C63.3788 61.2624 63.1965 61.0072 62.9459 60.8066C62.6952 60.6061 62.3534 60.5059 61.9205 60.5059C61.6334 60.5059 61.369 60.5674 61.1275 60.6904C60.886 60.8089 60.6786 60.9867 60.5054 61.2236C60.3323 61.4606 60.1978 61.75 60.1021 62.0918C60.0064 62.4336 59.9586 62.8278 59.9586 63.2744V63.5615C59.9586 63.9124 60.0064 64.2428 60.1021 64.5527C60.2024 64.8581 60.3459 65.127 60.5328 65.3594C60.7242 65.5918 60.9543 65.7741 61.2232 65.9062C61.4966 66.0384 61.8065 66.1045 62.1529 66.1045C62.5995 66.1045 62.9778 66.0133 63.2877 65.8311C63.5976 65.6488 63.8687 65.4049 64.1011 65.0996L64.8668 65.708C64.7073 65.9495 64.5045 66.1797 64.2584 66.3984C64.0123 66.6172 63.7092 66.7949 63.3492 66.9316C62.9937 67.0684 62.5722 67.1367 62.0845 67.1367ZM71.8766 62.8096V63.835H67.9664V62.8096H71.8766ZM68.233 59.6035V67H66.9684V59.6035H68.233ZM72.902 59.6035V67H71.6305V59.6035H72.902ZM80.3767 62.8096V63.835H76.4665V62.8096H80.3767ZM76.7331 59.6035V67H75.4685V59.6035H76.7331ZM81.4021 59.6035V67H80.1306V59.6035H81.4021ZM83.5242 63.3838V63.2266C83.5242 62.6934 83.6017 62.1989 83.7566 61.7432C83.9116 61.2829 84.1349 60.8841 84.4266 60.5469C84.7182 60.2051 85.0714 59.9408 85.4861 59.7539C85.9008 59.5625 86.3657 59.4668 86.8807 59.4668C87.4002 59.4668 87.8673 59.5625 88.282 59.7539C88.7013 59.9408 89.0568 60.2051 89.3484 60.5469C89.6447 60.8841 89.8702 61.2829 90.0252 61.7432C90.1801 62.1989 90.2576 62.6934 90.2576 63.2266V63.3838C90.2576 63.917 90.1801 64.4115 90.0252 64.8672C89.8702 65.3229 89.6447 65.7217 89.3484 66.0635C89.0568 66.4007 88.7036 66.665 88.2889 66.8564C87.8787 67.0433 87.4139 67.1367 86.8943 67.1367C86.3748 67.1367 85.9077 67.0433 85.493 66.8564C85.0783 66.665 84.7228 66.4007 84.4266 66.0635C84.1349 65.7217 83.9116 65.3229 83.7566 64.8672C83.6017 64.4115 83.5242 63.917 83.5242 63.3838ZM84.7889 63.2266V63.3838C84.7889 63.7529 84.8322 64.1016 84.9187 64.4297C85.0053 64.7533 85.1352 65.0404 85.3084 65.291C85.4861 65.5417 85.7072 65.7399 85.9715 65.8857C86.2358 66.027 86.5434 66.0977 86.8943 66.0977C87.2407 66.0977 87.5437 66.027 87.8035 65.8857C88.0678 65.7399 88.2866 65.5417 88.4598 65.291C88.6329 65.0404 88.7628 64.7533 88.8494 64.4297C88.9406 64.1016 88.9861 63.7529 88.9861 63.3838V63.2266C88.9861 62.862 88.9406 62.5179 88.8494 62.1943C88.7628 61.8662 88.6307 61.5768 88.4529 61.3262C88.2797 61.071 88.061 60.8704 87.7967 60.7246C87.5369 60.5788 87.2316 60.5059 86.8807 60.5059C86.5343 60.5059 86.229 60.5788 85.9646 60.7246C85.7049 60.8704 85.4861 61.071 85.3084 61.3262C85.1352 61.5768 85.0053 61.8662 84.9187 62.1943C84.8322 62.5179 84.7889 62.862 84.7889 63.2266ZM93.6307 59.6035V67H92.3661V59.6035H93.6307ZM90.8212 57.6416C90.8212 57.4365 90.885 57.2633 91.0126 57.1221C91.1402 56.9808 91.3248 56.9102 91.5663 56.9102C91.8124 56.9102 91.9992 56.9808 92.1268 57.1221C92.2544 57.2633 92.3182 57.4365 92.3182 57.6416C92.3182 57.8376 92.2544 58.0062 92.1268 58.1475C91.9992 58.2842 91.8124 58.3525 91.5663 58.3525C91.3248 58.3525 91.1402 58.2842 91.0126 58.1475C90.885 58.0062 90.8212 57.8376 90.8212 57.6416ZM93.7675 57.6553C93.7675 57.4502 93.829 57.277 93.952 57.1357C94.0796 56.9945 94.2665 56.9238 94.5126 56.9238C94.7541 56.9238 94.9387 56.9945 95.0663 57.1357C95.1985 57.277 95.2645 57.4502 95.2645 57.6553C95.2645 57.8512 95.1985 58.0199 95.0663 58.1611C94.9387 58.2979 94.7541 58.3662 94.5126 58.3662C94.2665 58.3662 94.0796 58.2979 93.952 58.1611C93.829 58.0199 93.7675 57.8512 93.7675 57.6553ZM101.314 61.0254V69.8438H100.042V59.6035H101.204L101.314 61.0254ZM106.297 63.2402V63.3838C106.297 63.9215 106.233 64.4206 106.106 64.8809C105.978 65.3366 105.791 65.7331 105.545 66.0703C105.303 66.4076 105.005 66.6696 104.649 66.8564C104.294 67.0433 103.886 67.1367 103.426 67.1367C102.956 67.1367 102.542 67.0592 102.182 66.9043C101.822 66.7493 101.516 66.5238 101.266 66.2275C101.015 65.9313 100.814 65.5758 100.664 65.1611C100.518 64.7464 100.418 64.2793 100.363 63.7598V62.9941C100.418 62.4473 100.521 61.9574 100.671 61.5244C100.821 61.0915 101.02 60.7223 101.266 60.417C101.516 60.1071 101.819 59.8724 102.175 59.7129C102.53 59.5488 102.94 59.4668 103.405 59.4668C103.87 59.4668 104.283 59.5579 104.643 59.7402C105.003 59.918 105.306 60.1732 105.552 60.5059C105.798 60.8385 105.982 61.2373 106.106 61.7021C106.233 62.1624 106.297 62.6751 106.297 63.2402ZM105.025 63.3838V63.2402C105.025 62.8711 104.987 62.5247 104.909 62.2012C104.832 61.873 104.711 61.5859 104.547 61.3398C104.387 61.0892 104.182 60.8932 103.932 60.752C103.681 60.6061 103.383 60.5332 103.036 60.5332C102.717 60.5332 102.439 60.5879 102.202 60.6973C101.97 60.8066 101.772 60.9548 101.607 61.1416C101.443 61.3239 101.309 61.5335 101.204 61.7705C101.104 62.0029 101.029 62.2445 100.979 62.4951V64.2656C101.07 64.5846 101.197 64.8854 101.361 65.168C101.525 65.446 101.744 65.6715 102.018 65.8447C102.291 66.0133 102.635 66.0977 103.05 66.0977C103.392 66.0977 103.686 66.027 103.932 65.8857C104.182 65.7399 104.387 65.5417 104.547 65.291C104.711 65.0404 104.832 64.7533 104.909 64.4297C104.987 64.1016 105.025 63.7529 105.025 63.3838ZM107.995 63.3838V63.2266C107.995 62.6934 108.073 62.1989 108.228 61.7432C108.383 61.2829 108.606 60.8841 108.898 60.5469C109.189 60.2051 109.542 59.9408 109.957 59.7539C110.372 59.5625 110.837 59.4668 111.352 59.4668C111.871 59.4668 112.338 59.5625 112.753 59.7539C113.172 59.9408 113.528 60.2051 113.819 60.5469C114.116 60.8841 114.341 61.2829 114.496 61.7432C114.651 62.1989 114.729 62.6934 114.729 63.2266V63.3838C114.729 63.917 114.651 64.4115 114.496 64.8672C114.341 65.3229 114.116 65.7217 113.819 66.0635C113.528 66.4007 113.175 66.665 112.76 66.8564C112.35 67.0433 111.885 67.1367 111.365 67.1367C110.846 67.1367 110.379 67.0433 109.964 66.8564C109.549 66.665 109.194 66.4007 108.898 66.0635C108.606 65.7217 108.383 65.3229 108.228 64.8672C108.073 64.4115 107.995 63.917 107.995 63.3838ZM109.26 63.2266V63.3838C109.26 63.7529 109.303 64.1016 109.39 64.4297C109.476 64.7533 109.606 65.0404 109.779 65.291C109.957 65.5417 110.178 65.7399 110.442 65.8857C110.707 66.027 111.014 66.0977 111.365 66.0977C111.712 66.0977 112.015 66.027 112.275 65.8857C112.539 65.7399 112.758 65.5417 112.931 65.291C113.104 65.0404 113.234 64.7533 113.32 64.4297C113.412 64.1016 113.457 63.7529 113.457 63.3838V63.2266C113.457 62.862 113.412 62.5179 113.32 62.1943C113.234 61.8662 113.102 61.5768 112.924 61.3262C112.751 61.071 112.532 60.8704 112.268 60.7246C112.008 60.5788 111.703 60.5059 111.352 60.5059C111.005 60.5059 110.7 60.5788 110.436 60.7246C110.176 60.8704 109.957 61.071 109.779 61.3262C109.606 61.5768 109.476 61.8662 109.39 62.1943C109.303 62.5179 109.26 62.862 109.26 63.2266ZM121.479 56.3838H122.518C122.518 56.8304 122.449 57.1859 122.313 57.4502C122.176 57.71 121.989 57.9105 121.752 58.0518C121.52 58.193 121.255 58.3001 120.959 58.373C120.668 58.446 120.364 58.5166 120.05 58.585C119.658 58.667 119.293 58.7969 118.956 58.9746C118.624 59.1478 118.336 59.3939 118.095 59.7129C117.858 60.0319 117.682 60.4466 117.569 60.957C117.459 61.4674 117.43 62.0986 117.48 62.8506V63.4795H116.441V62.8506C116.441 62.0075 116.52 61.2715 116.68 60.6426C116.844 60.0137 117.074 59.4827 117.37 59.0498C117.667 58.6169 118.017 58.2728 118.423 58.0176C118.833 57.7624 119.284 57.5869 119.777 57.4912C120.132 57.4229 120.437 57.3499 120.693 57.2725C120.948 57.1904 121.141 57.0811 121.274 56.9443C121.41 56.8076 121.479 56.6208 121.479 56.3838ZM119.982 60.0273C120.465 60.0273 120.895 60.1117 121.274 60.2803C121.652 60.4489 121.973 60.6836 122.238 60.9844C122.502 61.2852 122.702 61.6406 122.839 62.0508C122.98 62.4564 123.051 62.8984 123.051 63.377V63.5273C123.051 64.0423 122.976 64.5208 122.825 64.9629C122.68 65.4004 122.463 65.7832 122.176 66.1113C121.893 66.4349 121.547 66.6878 121.137 66.8701C120.731 67.0524 120.269 67.1436 119.749 67.1436C119.23 67.1436 118.765 67.0524 118.355 66.8701C117.949 66.6878 117.603 66.4349 117.316 66.1113C117.029 65.7832 116.81 65.4004 116.659 64.9629C116.514 64.5208 116.441 64.0423 116.441 63.5273V63.377C116.441 63.263 116.461 63.1514 116.502 63.042C116.543 62.9326 116.593 62.821 116.653 62.707C116.716 62.5931 116.773 62.4723 116.823 62.3447C116.992 61.9346 117.222 61.554 117.514 61.2031C117.81 60.8522 118.163 60.5697 118.573 60.3555C118.988 60.1367 119.458 60.0273 119.982 60.0273ZM119.736 61.0596C119.271 61.0596 118.888 61.1667 118.587 61.3809C118.291 61.5951 118.07 61.8799 117.924 62.2354C117.778 62.5863 117.705 62.9668 117.705 63.377V63.5273C117.705 63.8737 117.746 64.2018 117.828 64.5117C117.91 64.8216 118.033 65.0973 118.197 65.3389C118.366 65.5758 118.578 65.7627 118.833 65.8994C119.093 66.0361 119.398 66.1045 119.749 66.1045C120.1 66.1045 120.403 66.0361 120.658 65.8994C120.914 65.7627 121.123 65.5758 121.287 65.3389C121.451 65.0973 121.574 64.8216 121.656 64.5117C121.738 64.2018 121.779 63.8737 121.779 63.5273V63.377C121.779 63.0671 121.738 62.7731 121.656 62.4951C121.574 62.2171 121.449 61.971 121.28 61.7568C121.116 61.5426 120.904 61.374 120.645 61.251C120.39 61.1234 120.086 61.0596 119.736 61.0596ZM124.572 63.3838V63.2266C124.572 62.6934 124.649 62.1989 124.804 61.7432C124.959 61.2829 125.182 60.8841 125.474 60.5469C125.766 60.2051 126.119 59.9408 126.533 59.7539C126.948 59.5625 127.413 59.4668 127.928 59.4668C128.448 59.4668 128.915 59.5625 129.329 59.7539C129.749 59.9408 130.104 60.2051 130.396 60.5469C130.692 60.8841 130.918 61.2829 131.073 61.7432C131.227 62.1989 131.305 62.6934 131.305 63.2266V63.3838C131.305 63.917 131.227 64.4115 131.073 64.8672C130.918 65.3229 130.692 65.7217 130.396 66.0635C130.104 66.4007 129.751 66.665 129.336 66.8564C128.926 67.0433 128.461 67.1367 127.942 67.1367C127.422 67.1367 126.955 67.0433 126.54 66.8564C126.126 66.665 125.77 66.4007 125.474 66.0635C125.182 65.7217 124.959 65.3229 124.804 64.8672C124.649 64.4115 124.572 63.917 124.572 63.3838ZM125.836 63.2266V63.3838C125.836 63.7529 125.88 64.1016 125.966 64.4297C126.053 64.7533 126.183 65.0404 126.356 65.291C126.533 65.5417 126.755 65.7399 127.019 65.8857C127.283 66.027 127.591 66.0977 127.942 66.0977C128.288 66.0977 128.591 66.027 128.851 65.8857C129.115 65.7399 129.334 65.5417 129.507 65.291C129.68 65.0404 129.81 64.7533 129.897 64.4297C129.988 64.1016 130.033 63.7529 130.033 63.3838V63.2266C130.033 62.862 129.988 62.5179 129.897 62.1943C129.81 61.8662 129.678 61.5768 129.5 61.3262C129.327 61.071 129.108 60.8704 128.844 60.7246C128.584 60.5788 128.279 60.5059 127.928 60.5059C127.582 60.5059 127.276 60.5788 127.012 60.7246C126.752 60.8704 126.533 61.071 126.356 61.3262C126.183 61.5768 126.053 61.8662 125.966 62.1943C125.88 62.5179 125.836 62.862 125.836 63.2266ZM136.175 59.6035V67H134.904V59.6035H136.175ZM138.657 59.6035V60.6289H132.47V59.6035H138.657ZM141.688 64.9971L145.099 59.6035H146.371V67H145.099V61.6064L141.688 67H140.43V59.6035H141.688V64.9971ZM155.475 63.4658H154.115V62.6865H155.373C155.724 62.6865 156.002 62.6432 156.207 62.5566C156.412 62.4655 156.558 62.3402 156.644 62.1807C156.731 62.0212 156.774 61.8343 156.774 61.6201C156.774 61.4287 156.724 61.2487 156.624 61.0801C156.528 60.9069 156.373 60.7679 156.159 60.6631C155.945 60.5537 155.657 60.499 155.297 60.499C155.006 60.499 154.741 60.5514 154.504 60.6562C154.268 60.7565 154.078 60.8955 153.937 61.0732C153.8 61.2464 153.732 61.4424 153.732 61.6611H152.467C152.467 61.21 152.595 60.8226 152.85 60.499C153.11 60.1709 153.454 59.918 153.882 59.7402C154.315 59.5625 154.787 59.4736 155.297 59.4736C155.726 59.4736 156.109 59.5215 156.446 59.6172C156.788 59.7083 157.077 59.8451 157.314 60.0273C157.551 60.2051 157.731 60.4284 157.854 60.6973C157.982 60.9616 158.046 61.2692 158.046 61.6201C158.046 61.8708 157.986 62.1077 157.868 62.3311C157.749 62.5544 157.578 62.7526 157.355 62.9258C157.132 63.0944 156.861 63.2266 156.542 63.3223C156.227 63.418 155.872 63.4658 155.475 63.4658ZM154.115 62.9873H155.475C155.917 62.9873 156.307 63.0306 156.644 63.1172C156.981 63.1992 157.264 63.3223 157.492 63.4863C157.72 63.6504 157.891 63.8532 158.004 64.0947C158.123 64.3317 158.182 64.6051 158.182 64.915C158.182 65.2614 158.112 65.5736 157.97 65.8516C157.834 66.125 157.638 66.3574 157.382 66.5488C157.127 66.7402 156.822 66.8861 156.466 66.9863C156.115 67.0866 155.726 67.1367 155.297 67.1367C154.819 67.1367 154.354 67.0547 153.903 66.8906C153.452 66.7266 153.08 66.4736 152.789 66.1318C152.497 65.7855 152.351 65.3457 152.351 64.8125H153.616C153.616 65.0358 153.686 65.2477 153.828 65.4482C153.969 65.6488 154.165 65.8105 154.416 65.9336C154.671 66.0566 154.965 66.1182 155.297 66.1182C155.653 66.1182 155.949 66.0635 156.186 65.9541C156.423 65.8447 156.601 65.6989 156.719 65.5166C156.842 65.3343 156.904 65.1361 156.904 64.9219C156.904 64.6439 156.849 64.4206 156.74 64.252C156.63 64.0833 156.462 63.9603 156.234 63.8828C156.011 63.8008 155.724 63.7598 155.373 63.7598H154.115V62.9873ZM172.639 63.4316V63.5752C172.639 64.0947 172.582 64.5732 172.469 65.0107C172.355 65.4437 172.184 65.8197 171.956 66.1387C171.733 66.4577 171.455 66.7061 171.122 66.8838C170.789 67.057 170.404 67.1436 169.967 67.1436C169.607 67.1436 169.29 67.0957 169.016 67C168.743 66.8997 168.511 66.7562 168.319 66.5693C168.132 66.3825 167.982 66.1592 167.868 65.8994C167.759 65.6351 167.683 65.3389 167.642 65.0107V61.7295C167.683 61.3786 167.759 61.0641 167.868 60.7861C167.982 60.5081 168.132 60.2712 168.319 60.0752C168.511 59.8792 168.741 59.7288 169.01 59.624C169.278 59.5192 169.593 59.4668 169.953 59.4668C170.308 59.4668 170.627 59.5306 170.91 59.6582C171.197 59.7812 171.448 59.959 171.662 60.1914C171.881 60.4238 172.061 60.7041 172.202 61.0322C172.348 61.3558 172.457 61.7204 172.53 62.126C172.603 62.5316 172.639 62.9668 172.639 63.4316ZM171.375 63.5752V63.4316C171.375 63.1126 171.352 62.8096 171.306 62.5225C171.265 62.2308 171.199 61.9642 171.108 61.7227C171.022 61.4766 170.908 61.2624 170.766 61.0801C170.625 60.8978 170.454 60.7565 170.254 60.6562C170.058 60.556 169.832 60.5059 169.577 60.5059C169.303 60.5059 169.076 60.54 168.893 60.6084C168.716 60.6768 168.577 60.7679 168.476 60.8818C168.376 60.9912 168.303 61.1074 168.258 61.2305V65.5166C168.312 65.6169 168.392 65.7126 168.497 65.8037C168.602 65.8903 168.743 65.9632 168.921 66.0225C169.098 66.0771 169.322 66.1045 169.591 66.1045C169.91 66.1045 170.181 66.0407 170.404 65.9131C170.632 65.7809 170.817 65.5986 170.958 65.3662C171.104 65.1338 171.208 64.8649 171.272 64.5596C171.341 64.2542 171.375 63.9261 171.375 63.5752ZM163.855 63.5752V63.4316C163.855 62.9668 163.892 62.5316 163.965 62.126C164.038 61.7204 164.147 61.3558 164.293 61.0322C164.439 60.7041 164.619 60.4238 164.833 60.1914C165.052 59.959 165.302 59.7812 165.585 59.6582C165.872 59.5306 166.193 59.4668 166.549 59.4668C166.9 59.4668 167.205 59.5192 167.465 59.624C167.729 59.7288 167.952 59.8792 168.135 60.0752C168.317 60.2712 168.463 60.5081 168.572 60.7861C168.681 61.0641 168.759 61.3786 168.804 61.7295V64.8809C168.763 65.2272 168.688 65.5394 168.579 65.8174C168.469 66.0954 168.324 66.3346 168.141 66.5352C167.959 66.7311 167.733 66.8815 167.465 66.9863C167.2 67.0911 166.89 67.1436 166.535 67.1436C166.097 67.1436 165.712 67.057 165.38 66.8838C165.047 66.7061 164.767 66.4577 164.539 66.1387C164.316 65.8197 164.145 65.4437 164.026 65.0107C163.912 64.5732 163.855 64.0947 163.855 63.5752ZM165.127 63.4316V63.5752C165.127 63.9261 165.156 64.2542 165.216 64.5596C165.279 64.8649 165.377 65.1338 165.51 65.3662C165.646 65.5986 165.824 65.7809 166.043 65.9131C166.261 66.0407 166.53 66.1045 166.849 66.1045C167.123 66.1045 167.348 66.0703 167.526 66.002C167.704 65.9336 167.845 65.8447 167.95 65.7354C168.055 65.626 168.135 65.512 168.189 65.3936V61.2305C168.144 61.1074 168.068 60.9912 167.964 60.8818C167.863 60.7679 167.724 60.6768 167.547 60.6084C167.369 60.54 167.141 60.5059 166.863 60.5059C166.544 60.5059 166.273 60.5833 166.05 60.7383C165.826 60.8932 165.646 61.1051 165.51 61.374C165.377 61.6429 165.279 61.9551 165.216 62.3105C165.156 62.6615 165.127 63.0352 165.127 63.4316ZM167.56 69.8438V56.5H168.832V69.8438H167.56ZM174.379 63.3838V63.2266C174.379 62.6934 174.456 62.1989 174.611 61.7432C174.766 61.2829 174.989 60.8841 175.281 60.5469C175.573 60.2051 175.926 59.9408 176.341 59.7539C176.755 59.5625 177.22 59.4668 177.735 59.4668C178.255 59.4668 178.722 59.5625 179.137 59.7539C179.556 59.9408 179.911 60.2051 180.203 60.5469C180.499 60.8841 180.725 61.2829 180.88 61.7432C181.035 62.1989 181.112 62.6934 181.112 63.2266V63.3838C181.112 63.917 181.035 64.4115 180.88 64.8672C180.725 65.3229 180.499 65.7217 180.203 66.0635C179.911 66.4007 179.558 66.665 179.143 66.8564C178.733 67.0433 178.268 67.1367 177.749 67.1367C177.229 67.1367 176.762 67.0433 176.348 66.8564C175.933 66.665 175.577 66.4007 175.281 66.0635C174.989 65.7217 174.766 65.3229 174.611 64.8672C174.456 64.4115 174.379 63.917 174.379 63.3838ZM175.643 63.2266V63.3838C175.643 63.7529 175.687 64.1016 175.773 64.4297C175.86 64.7533 175.99 65.0404 176.163 65.291C176.341 65.5417 176.562 65.7399 176.826 65.8857C177.09 66.027 177.398 66.0977 177.749 66.0977C178.095 66.0977 178.398 66.027 178.658 65.8857C178.922 65.7399 179.141 65.5417 179.314 65.291C179.487 65.0404 179.617 64.7533 179.704 64.4297C179.795 64.1016 179.841 63.7529 179.841 63.3838V63.2266C179.841 62.862 179.795 62.5179 179.704 62.1943C179.617 61.8662 179.485 61.5768 179.307 61.3262C179.134 61.071 178.916 60.8704 178.651 60.7246C178.391 60.5788 178.086 60.5059 177.735 60.5059C177.389 60.5059 177.084 60.5788 176.819 60.7246C176.559 60.8704 176.341 61.071 176.163 61.3262C175.99 61.5768 175.86 61.8662 175.773 62.1943C175.687 62.5179 175.643 62.862 175.643 63.2266ZM184.383 61.0254V69.8438H183.111V59.6035H184.273L184.383 61.0254ZM189.366 63.2402V63.3838C189.366 63.9215 189.302 64.4206 189.175 64.8809C189.047 65.3366 188.86 65.7331 188.614 66.0703C188.373 66.4076 188.074 66.6696 187.719 66.8564C187.363 67.0433 186.955 67.1367 186.495 67.1367C186.026 67.1367 185.611 67.0592 185.251 66.9043C184.891 66.7493 184.586 66.5238 184.335 66.2275C184.084 65.9313 183.884 65.5758 183.733 65.1611C183.587 64.7464 183.487 64.2793 183.433 63.7598V62.9941C183.487 62.4473 183.59 61.9574 183.74 61.5244C183.891 61.0915 184.089 60.7223 184.335 60.417C184.586 60.1071 184.889 59.8724 185.244 59.7129C185.6 59.5488 186.01 59.4668 186.475 59.4668C186.939 59.4668 187.352 59.5579 187.712 59.7402C188.072 59.918 188.375 60.1732 188.621 60.5059C188.867 60.8385 189.052 61.2373 189.175 61.7021C189.302 62.1624 189.366 62.6751 189.366 63.2402ZM188.095 63.3838V63.2402C188.095 62.8711 188.056 62.5247 187.978 62.2012C187.901 61.873 187.78 61.5859 187.616 61.3398C187.457 61.0892 187.252 60.8932 187.001 60.752C186.75 60.6061 186.452 60.5332 186.105 60.5332C185.786 60.5332 185.508 60.5879 185.271 60.6973C185.039 60.8066 184.841 60.9548 184.677 61.1416C184.513 61.3239 184.378 61.5335 184.273 61.7705C184.173 62.0029 184.098 62.2445 184.048 62.4951V64.2656C184.139 64.5846 184.267 64.8854 184.431 65.168C184.595 65.446 184.813 65.6715 185.087 65.8447C185.36 66.0133 185.704 66.0977 186.119 66.0977C186.461 66.0977 186.755 66.027 187.001 65.8857C187.252 65.7399 187.457 65.5417 187.616 65.291C187.78 65.0404 187.901 64.7533 187.978 64.4297C188.056 64.1016 188.095 63.7529 188.095 63.3838ZM195.651 65.3184L198.167 59.6035H199.384L196.089 67H195.214L191.933 59.6035H193.149L195.651 65.3184ZM192.78 59.6035V67H191.516V59.6035H192.78ZM198.481 67V59.6035H199.753V67H198.481ZM204.288 66.2344L206.346 59.6035H207.699L204.732 68.1416C204.664 68.3239 204.573 68.5199 204.459 68.7295C204.35 68.9437 204.208 69.1465 204.035 69.3379C203.862 69.5293 203.652 69.6842 203.406 69.8027C203.165 69.9258 202.875 69.9873 202.538 69.9873C202.438 69.9873 202.31 69.9736 202.155 69.9463C202 69.9189 201.891 69.8962 201.827 69.8779L201.82 68.8525C201.857 68.8571 201.914 68.8617 201.991 68.8662C202.073 68.8753 202.13 68.8799 202.162 68.8799C202.449 68.8799 202.693 68.8411 202.894 68.7637C203.094 68.6908 203.263 68.5654 203.399 68.3877C203.541 68.2145 203.662 67.9753 203.762 67.6699L204.288 66.2344ZM202.777 59.6035L204.698 65.3457L205.026 66.6787L204.117 67.1436L201.397 59.6035H202.777ZM212.734 63.7461H210.307L210.293 62.7344H212.276C212.667 62.7344 212.993 62.6956 213.253 62.6182C213.517 62.5407 213.716 62.4245 213.848 62.2695C213.98 62.1146 214.046 61.9232 214.046 61.6953C214.046 61.5176 214.007 61.3626 213.93 61.2305C213.857 61.0938 213.745 60.9821 213.595 60.8955C213.444 60.8044 213.258 60.7383 213.034 60.6973C212.816 60.6517 212.558 60.6289 212.262 60.6289H210.642V67H209.377V59.6035H212.262C212.731 59.6035 213.153 59.6445 213.527 59.7266C213.905 59.8086 214.226 59.9339 214.49 60.1025C214.759 60.2666 214.964 60.4762 215.106 60.7314C215.247 60.9867 215.318 61.2874 215.318 61.6338C215.318 61.8571 215.272 62.069 215.181 62.2695C215.09 62.4701 214.955 62.6478 214.777 62.8027C214.6 62.9577 214.381 63.0853 214.121 63.1855C213.861 63.2812 213.563 63.3428 213.226 63.3701L212.734 63.7461ZM212.734 67H209.849L210.478 65.9746H212.734C213.084 65.9746 213.376 65.9313 213.609 65.8447C213.841 65.7536 214.014 65.626 214.128 65.4619C214.247 65.2933 214.306 65.0928 214.306 64.8604C214.306 64.6279 214.247 64.4297 214.128 64.2656C214.014 64.097 213.841 63.9694 213.609 63.8828C213.376 63.7917 213.084 63.7461 212.734 63.7461H210.813L210.826 62.7344H213.226L213.684 63.1172C214.089 63.1491 214.433 63.2493 214.716 63.418C214.999 63.5866 215.213 63.8008 215.359 64.0605C215.504 64.3158 215.577 64.5938 215.577 64.8945C215.577 65.2409 215.511 65.5462 215.379 65.8105C215.251 66.0749 215.065 66.2959 214.819 66.4736C214.572 66.6468 214.274 66.779 213.923 66.8701C213.572 66.9567 213.176 67 212.734 67ZM222.054 65.7354V61.9277C222.054 61.6361 221.995 61.3831 221.876 61.1689C221.762 60.9502 221.589 60.7816 221.357 60.6631C221.124 60.5446 220.837 60.4854 220.495 60.4854C220.176 60.4854 219.896 60.54 219.655 60.6494C219.418 60.7588 219.231 60.9023 219.094 61.0801C218.962 61.2578 218.896 61.4492 218.896 61.6543H217.631C217.631 61.39 217.699 61.1279 217.836 60.8682C217.973 60.6084 218.169 60.3737 218.424 60.1641C218.684 59.9499 218.994 59.7812 219.354 59.6582C219.718 59.5306 220.124 59.4668 220.571 59.4668C221.108 59.4668 221.582 59.5579 221.992 59.7402C222.407 59.9225 222.731 60.1982 222.963 60.5674C223.2 60.932 223.319 61.39 223.319 61.9414V65.3867C223.319 65.6328 223.339 65.8949 223.38 66.1729C223.426 66.4508 223.492 66.6901 223.578 66.8906V67H222.259C222.195 66.8542 222.145 66.6605 222.109 66.4189C222.072 66.1729 222.054 65.945 222.054 65.7354ZM222.273 62.5156L222.286 63.4043H221.008C220.648 63.4043 220.327 63.4339 220.044 63.4932C219.762 63.5479 219.525 63.6322 219.333 63.7461C219.142 63.86 218.996 64.0036 218.896 64.1768C218.795 64.3454 218.745 64.5436 218.745 64.7715C218.745 65.0039 218.798 65.2158 218.903 65.4072C219.007 65.5986 219.165 65.7513 219.374 65.8652C219.588 65.9746 219.85 66.0293 220.16 66.0293C220.548 66.0293 220.89 65.9473 221.186 65.7832C221.482 65.6191 221.717 65.4186 221.89 65.1816C222.068 64.9447 222.163 64.7145 222.177 64.4912L222.717 65.0996C222.685 65.291 222.599 65.5029 222.457 65.7354C222.316 65.9678 222.127 66.1911 221.89 66.4053C221.657 66.6149 221.379 66.7904 221.056 66.9316C220.737 67.0684 220.377 67.1367 219.976 67.1367C219.475 67.1367 219.035 67.0387 218.656 66.8428C218.283 66.6468 217.991 66.3848 217.781 66.0566C217.576 65.724 217.474 65.3525 217.474 64.9424C217.474 64.5459 217.551 64.1973 217.706 63.8965C217.861 63.5911 218.085 63.3382 218.376 63.1377C218.668 62.9326 219.019 62.7777 219.429 62.6729C219.839 62.568 220.297 62.5156 220.803 62.5156H222.273ZM230.745 62.8096V63.835H226.835V62.8096H230.745ZM227.102 59.6035V67H225.837V59.6035H227.102ZM231.771 59.6035V67H230.499V59.6035H231.771ZM239.246 62.8096V63.835H235.335V62.8096H239.246ZM235.602 59.6035V67H234.337V59.6035H235.602ZM240.271 59.6035V67H238.999V59.6035H240.271ZM244.225 63.4727H245.592L243.453 67H242.085L244.225 63.4727ZM245.285 59.6035H248.374V67H247.11V60.6289H245.285C244.925 60.6289 244.631 60.6904 244.403 60.8135C244.175 60.932 244.009 61.0869 243.904 61.2783C243.799 61.4697 243.747 61.668 243.747 61.873C243.747 62.0736 243.794 62.2673 243.89 62.4541C243.986 62.6364 244.136 62.7868 244.341 62.9053C244.546 63.0238 244.811 63.083 245.134 63.083H247.452V64.1221H245.134C244.71 64.1221 244.334 64.0651 244.006 63.9512C243.678 63.8372 243.4 63.68 243.172 63.4795C242.944 63.2744 242.771 63.0352 242.653 62.7617C242.534 62.4837 242.475 62.1829 242.475 61.8594C242.475 61.5358 242.537 61.2373 242.66 60.9639C242.787 60.6904 242.97 60.4512 243.207 60.2461C243.448 60.041 243.742 59.8838 244.088 59.7744C244.439 59.6605 244.838 59.6035 245.285 59.6035ZM5.89258 83.6035V84.6494H2.15332V83.6035H5.89258ZM2.33789 83.6035V91H1.07324V83.6035H2.33789ZM7.01367 83.6035V91H5.74219V83.6035H7.01367ZM9.12898 87.3838V87.2266C9.12898 86.6934 9.20646 86.1989 9.36141 85.7432C9.51635 85.2829 9.73966 84.8841 10.0313 84.5469C10.323 84.2051 10.6762 83.9408 11.0909 83.7539C11.5056 83.5625 11.9705 83.4668 12.4854 83.4668C13.005 83.4668 13.4721 83.5625 13.8868 83.7539C14.3061 83.9408 14.6615 84.2051 14.9532 84.5469C15.2494 84.8841 15.475 85.2829 15.63 85.7432C15.7849 86.1989 15.8624 86.6934 15.8624 87.2266V87.3838C15.8624 87.917 15.7849 88.4115 15.63 88.8672C15.475 89.3229 15.2494 89.7217 14.9532 90.0635C14.6615 90.4007 14.3083 90.665 13.8936 90.8564C13.4835 91.0433 13.0186 91.1367 12.4991 91.1367C11.9796 91.1367 11.5124 91.0433 11.0977 90.8564C10.683 90.665 10.3276 90.4007 10.0313 90.0635C9.73966 89.7217 9.51635 89.3229 9.36141 88.8672C9.20646 88.4115 9.12898 87.917 9.12898 87.3838ZM10.3936 87.2266V87.3838C10.3936 87.7529 10.4369 88.1016 10.5235 88.4297C10.6101 88.7533 10.74 89.0404 10.9132 89.291C11.0909 89.5417 11.3119 89.7399 11.5763 89.8857C11.8406 90.027 12.1482 90.0977 12.4991 90.0977C12.8455 90.0977 13.1485 90.027 13.4083 89.8857C13.6726 89.7399 13.8914 89.5417 14.0645 89.291C14.2377 89.0404 14.3676 88.7533 14.4542 88.4297C14.5453 88.1016 14.5909 87.7529 14.5909 87.3838V87.2266C14.5909 86.862 14.5453 86.5179 14.4542 86.1943C14.3676 85.8662 14.2354 85.5768 14.0577 85.3262C13.8845 85.071 13.6658 84.8704 13.4014 84.7246C13.1417 84.5788 12.8363 84.5059 12.4854 84.5059C12.1391 84.5059 11.8337 84.5788 11.5694 84.7246C11.3096 84.8704 11.0909 85.071 10.9132 85.3262C10.74 85.5768 10.6101 85.8662 10.5235 86.1943C10.4369 86.5179 10.3936 86.862 10.3936 87.2266ZM20.63 87.4658H19.2697V86.6865H20.5275C20.8784 86.6865 21.1564 86.6432 21.3615 86.5566C21.5666 86.4655 21.7124 86.3402 21.799 86.1807C21.8856 86.0212 21.9289 85.8343 21.9289 85.6201C21.9289 85.4287 21.8787 85.2487 21.7785 85.0801C21.6828 84.9069 21.5278 84.7679 21.3136 84.6631C21.0994 84.5537 20.8123 84.499 20.4523 84.499C20.1606 84.499 19.8963 84.5514 19.6593 84.6562C19.4224 84.7565 19.2332 84.8955 19.092 85.0732C18.9552 85.2464 18.8869 85.4424 18.8869 85.6611H17.6222C17.6222 85.21 17.7498 84.8226 18.005 84.499C18.2648 84.1709 18.6089 83.918 19.0373 83.7402C19.4702 83.5625 19.9419 83.4736 20.4523 83.4736C20.8807 83.4736 21.2635 83.5215 21.6007 83.6172C21.9425 83.7083 22.2319 83.8451 22.4689 84.0273C22.7059 84.2051 22.8859 84.4284 23.0089 84.6973C23.1365 84.9616 23.2004 85.2692 23.2004 85.6201C23.2004 85.8708 23.1411 86.1077 23.0226 86.3311C22.9041 86.5544 22.7332 86.7526 22.5099 86.9258C22.2866 87.0944 22.0155 87.2266 21.6964 87.3223C21.382 87.418 21.0265 87.4658 20.63 87.4658ZM19.2697 86.9873H20.63C21.0721 86.9873 21.4617 87.0306 21.799 87.1172C22.1362 87.1992 22.4188 87.3223 22.6466 87.4863C22.8745 87.6504 23.0454 87.8532 23.1593 88.0947C23.2778 88.3317 23.3371 88.6051 23.3371 88.915C23.3371 89.2614 23.2664 89.5736 23.1252 89.8516C22.9884 90.125 22.7925 90.3574 22.5373 90.5488C22.2821 90.7402 21.9767 90.8861 21.6213 90.9863C21.2703 91.0866 20.8807 91.1367 20.4523 91.1367C19.9738 91.1367 19.5089 91.0547 19.0578 90.8906C18.6066 90.7266 18.2352 90.4736 17.9435 90.1318C17.6518 89.7855 17.506 89.3457 17.506 88.8125H18.7707C18.7707 89.0358 18.8413 89.2477 18.9826 89.4482C19.1239 89.6488 19.3198 89.8105 19.5705 89.9336C19.8257 90.0566 20.1196 90.1182 20.4523 90.1182C20.8078 90.1182 21.104 90.0635 21.341 89.9541C21.578 89.8447 21.7557 89.6989 21.8742 89.5166C21.9972 89.3343 22.0588 89.1361 22.0588 88.9219C22.0588 88.6439 22.0041 88.4206 21.8947 88.252C21.7853 88.0833 21.6167 87.9603 21.3888 87.8828C21.1655 87.8008 20.8784 87.7598 20.5275 87.7598H19.2697V86.9873ZM26.7649 88.9971L30.176 83.6035H31.4475V91H30.176V85.6064L26.7649 91H25.5071V83.6035H26.7649V88.9971ZM34.0071 91V83.6035H35.2718V89.9609H38.6761V83.6035H39.9476V91H34.0071ZM40.8226 89.9609L40.6995 93.1943H39.5716V91H38.6077V89.9609H40.8226ZM43.9906 83.6035V91H42.7191V83.6035H43.9906ZM42.6234 81.6416C42.6234 81.4365 42.685 81.2633 42.808 81.1221C42.9356 80.9808 43.1225 80.9102 43.3686 80.9102C43.6101 80.9102 43.7947 80.9808 43.9223 81.1221C44.0544 81.2633 44.1205 81.4365 44.1205 81.6416C44.1205 81.8376 44.0544 82.0062 43.9223 82.1475C43.7947 82.2842 43.6101 82.3525 43.3686 82.3525C43.1225 82.3525 42.9356 82.2842 42.808 82.1475C42.685 82.0062 42.6234 81.8376 42.6234 81.6416ZM47.8081 83.6035V91H46.5434V83.6035H47.8081ZM44.9985 81.6416C44.9985 81.4365 45.0623 81.2633 45.1899 81.1221C45.3175 80.9808 45.5021 80.9102 45.7436 80.9102C45.9897 80.9102 46.1766 80.9808 46.3042 81.1221C46.4318 81.2633 46.4956 81.4365 46.4956 81.6416C46.4956 81.8376 46.4318 82.0062 46.3042 82.1475C46.1766 82.2842 45.9897 82.3525 45.7436 82.3525C45.5021 82.3525 45.3175 82.2842 45.1899 82.1475C45.0623 82.0062 44.9985 81.8376 44.9985 81.6416ZM47.9448 81.6553C47.9448 81.4502 48.0063 81.277 48.1294 81.1357C48.257 80.9945 48.4438 80.9238 48.6899 80.9238C48.9315 80.9238 49.116 80.9945 49.2436 81.1357C49.3758 81.277 49.4419 81.4502 49.4419 81.6553C49.4419 81.8512 49.3758 82.0199 49.2436 82.1611C49.116 82.2979 48.9315 82.3662 48.6899 82.3662C48.4438 82.3662 48.257 82.2979 48.1294 82.1611C48.0063 82.0199 47.9448 81.8512 47.9448 81.6553ZM50.3541 90.3301C50.3541 90.1159 50.4201 89.9359 50.5523 89.79C50.689 89.6396 50.885 89.5645 51.1402 89.5645C51.3954 89.5645 51.5891 89.6396 51.7212 89.79C51.858 89.9359 51.9263 90.1159 51.9263 90.3301C51.9263 90.5397 51.858 90.7174 51.7212 90.8633C51.5891 91.0091 51.3954 91.082 51.1402 91.082C50.885 91.082 50.689 91.0091 50.5523 90.8633C50.4201 90.7174 50.3541 90.5397 50.3541 90.3301Z" fill="#757575"/>
</svg>
