<svg width="270" height="98" viewBox="0 0 270 98" fill="none" xmlns="http://www.w3.org/2000/svg">
<path d="M6.6582 9.69824H8.70215C8.66113 10.3682 8.47656 10.9629 8.14844 11.4824C7.82487 12.002 7.37142 12.4076 6.78809 12.6992C6.20931 12.9909 5.51204 13.1367 4.69629 13.1367C4.05827 13.1367 3.48633 13.0273 2.98047 12.8086C2.47461 12.5853 2.04167 12.2663 1.68164 11.8516C1.32617 11.4368 1.05501 10.9355 0.868164 10.3477C0.681315 9.75977 0.587891 9.10124 0.587891 8.37207V7.68164C0.587891 6.95247 0.683594 6.29395 0.875 5.70605C1.07096 5.11361 1.34896 4.61003 1.70898 4.19531C2.07357 3.7806 2.50879 3.46159 3.01465 3.23828C3.52051 3.01497 4.08561 2.90332 4.70996 2.90332C5.53939 2.90332 6.23893 3.05371 6.80859 3.35449C7.38281 3.65527 7.82715 4.06999 8.1416 4.59863C8.46061 5.12728 8.65202 5.72884 8.71582 6.40332H6.66504C6.64225 6.00228 6.5625 5.66276 6.42578 5.38477C6.28906 5.10221 6.08171 4.8903 5.80371 4.74902C5.53027 4.60319 5.16569 4.53027 4.70996 4.53027C4.36816 4.53027 4.06966 4.59408 3.81445 4.72168C3.55924 4.84928 3.34505 5.04297 3.17188 5.30273C2.9987 5.5625 2.86882 5.89062 2.78223 6.28711C2.7002 6.67904 2.65918 7.13932 2.65918 7.66797V8.37207C2.65918 8.88704 2.69792 9.34049 2.77539 9.73242C2.85286 10.1198 2.97135 10.4479 3.13086 10.7168C3.29492 10.9811 3.50456 11.1816 3.75977 11.3184C4.01953 11.4505 4.33171 11.5166 4.69629 11.5166C5.12467 11.5166 5.47786 11.4482 5.75586 11.3115C6.03385 11.1748 6.24577 10.972 6.3916 10.7031C6.54199 10.4342 6.63086 10.0993 6.6582 9.69824ZM13.5929 9.39062L16.0401 3.04688H18.2481L14.837 11.0723C14.7185 11.3457 14.5818 11.6077 14.4268 11.8584C14.2764 12.1045 14.0964 12.3255 13.8868 12.5215C13.6772 12.7129 13.4265 12.8656 13.1348 12.9795C12.8432 13.0889 12.4945 13.1436 12.0889 13.1436C11.9887 13.1436 11.8656 13.1413 11.7198 13.1367C11.574 13.1322 11.4578 13.1253 11.3712 13.1162L11.3575 11.5166C11.4122 11.5303 11.4988 11.5394 11.6173 11.5439C11.7358 11.5439 11.8223 11.5439 11.877 11.5439C12.1459 11.5439 12.3578 11.5052 12.5128 11.4277C12.6677 11.3503 12.7908 11.2409 12.8819 11.0996C12.9776 10.9538 13.0619 10.7829 13.1348 10.5869L13.5929 9.39062ZM11.9727 3.04688L14.2423 7.97559L14.878 10.2383L13.3536 10.2656L9.77156 3.04688H11.9727ZM19.7961 3.04688H21.8537V6.10254C21.8537 6.54004 21.9198 6.88184 22.0519 7.12793C22.1886 7.37402 22.3937 7.5472 22.6671 7.64746C22.9451 7.74316 23.2892 7.79102 23.6994 7.79102C23.8543 7.79102 24.0366 7.78418 24.2463 7.77051C24.4604 7.75684 24.6792 7.73633 24.9025 7.70898C25.1258 7.67708 25.34 7.6429 25.5451 7.60645C25.7502 7.56543 25.9211 7.51986 26.0578 7.46973V9.06934C25.9211 9.11491 25.7502 9.1582 25.5451 9.19922C25.34 9.24023 25.1258 9.27669 24.9025 9.30859C24.6792 9.33594 24.4604 9.35645 24.2463 9.37012C24.0366 9.38379 23.8543 9.39062 23.6994 9.39062C22.9064 9.39062 22.2183 9.27669 21.6349 9.04883C21.0516 8.82096 20.5981 8.46549 20.2746 7.98242C19.9556 7.49479 19.7961 6.86816 19.7961 6.10254V3.04688ZM25.6271 3.04688H27.6779V13H25.6271V3.04688ZM34.0452 4.74902L31.3381 13H29.1575L32.8557 3.04688H34.2434L34.0452 4.74902ZM36.2942 13L33.5803 4.74902L33.3616 3.04688H34.7629L38.4817 13H36.2942ZM36.1711 9.29492V10.9014H30.9143V9.29492H36.1711ZM45.471 9.69824H47.515C47.4739 10.3682 47.2894 10.9629 46.9613 11.4824C46.6377 12.002 46.1842 12.4076 45.6009 12.6992C45.0221 12.9909 44.3249 13.1367 43.5091 13.1367C42.8711 13.1367 42.2991 13.0273 41.7933 12.8086C41.2874 12.5853 40.8545 12.2663 40.4945 11.8516C40.139 11.4368 39.8678 10.9355 39.681 10.3477C39.4941 9.75977 39.4007 9.10124 39.4007 8.37207V7.68164C39.4007 6.95247 39.4964 6.29395 39.6878 5.70605C39.8838 5.11361 40.1618 4.61003 40.5218 4.19531C40.8864 3.7806 41.3216 3.46159 41.8275 3.23828C42.3333 3.01497 42.8984 2.90332 43.5228 2.90332C44.3522 2.90332 45.0517 3.05371 45.6214 3.35449C46.1956 3.65527 46.64 4.06999 46.9544 4.59863C47.2734 5.12728 47.4648 5.72884 47.5286 6.40332H45.4779C45.4551 6.00228 45.3753 5.66276 45.2386 5.38477C45.1019 5.10221 44.8945 4.8903 44.6165 4.74902C44.3431 4.60319 43.9785 4.53027 43.5228 4.53027C43.181 4.53027 42.8825 4.59408 42.6273 4.72168C42.3721 4.84928 42.1579 5.04297 41.9847 5.30273C41.8115 5.5625 41.6816 5.89062 41.595 6.28711C41.513 6.67904 41.472 7.13932 41.472 7.66797V8.37207C41.472 8.88704 41.5107 9.34049 41.5882 9.73242C41.6657 10.1198 41.7842 10.4479 41.9437 10.7168C42.1077 10.9811 42.3174 11.1816 42.5726 11.3184C42.8323 11.4505 43.1445 11.5166 43.5091 11.5166C43.9375 11.5166 44.2907 11.4482 44.5687 11.3115C44.8467 11.1748 45.0586 10.972 45.2044 10.7031C45.3548 10.4342 45.4437 10.0993 45.471 9.69824ZM55.9193 7.10059V8.7002H50.724V7.10059H55.9193ZM51.3324 3.04688V13H49.2816V3.04688H51.3324ZM57.3822 3.04688V13H55.3383V3.04688H57.3822ZM61.7671 3.04688V13H59.7231V3.04688H61.7671ZM72.0954 3.04688V13H70.0514V3.04688H72.0954ZM75.1579 3.04688V4.65332H67.0368V3.04688H75.1579ZM83.4255 11.4004V13H78.1277V11.4004H83.4255ZM78.7976 3.04688V13H76.7468V3.04688H78.7976ZM82.7351 7.10059V8.65918H78.1277V7.10059H82.7351ZM83.4187 3.04688V4.65332H78.1277V3.04688H83.4187ZM86.7303 3.04688L88.6033 6.51953L90.4764 3.04688H92.8211L89.9295 7.98242L92.8963 13H90.5311L88.6033 9.45898L86.6756 13H84.2967L87.2703 7.98242L84.3719 3.04688H86.7303ZM100.986 7.10059V8.7002H95.7909V7.10059H100.986ZM96.3993 3.04688V13H94.3485V3.04688H96.3993ZM102.449 3.04688V13H100.405V3.04688H102.449ZM112.829 7.79102V8.2627C112.829 9.01921 112.727 9.69824 112.521 10.2998C112.316 10.9014 112.027 11.4141 111.653 11.8379C111.28 12.2572 110.833 12.5785 110.313 12.8018C109.798 13.0251 109.227 13.1367 108.598 13.1367C107.973 13.1367 107.401 13.0251 106.882 12.8018C106.367 12.5785 105.92 12.2572 105.542 11.8379C105.164 11.4141 104.87 10.9014 104.66 10.2998C104.455 9.69824 104.353 9.01921 104.353 8.2627V7.79102C104.353 7.02995 104.455 6.35091 104.66 5.75391C104.865 5.15234 105.155 4.63965 105.528 4.21582C105.907 3.79199 106.353 3.46842 106.868 3.24512C107.388 3.02181 107.96 2.91016 108.584 2.91016C109.213 2.91016 109.785 3.02181 110.3 3.24512C110.819 3.46842 111.266 3.79199 111.64 4.21582C112.018 4.63965 112.31 5.15234 112.515 5.75391C112.724 6.35091 112.829 7.02995 112.829 7.79102ZM110.758 8.2627V7.77734C110.758 7.2487 110.71 6.78385 110.614 6.38281C110.519 5.98177 110.377 5.64453 110.19 5.37109C110.004 5.09766 109.776 4.89258 109.507 4.75586C109.238 4.61458 108.93 4.54395 108.584 4.54395C108.238 4.54395 107.93 4.61458 107.661 4.75586C107.397 4.89258 107.171 5.09766 106.984 5.37109C106.802 5.64453 106.663 5.98177 106.567 6.38281C106.472 6.78385 106.424 7.2487 106.424 7.77734V8.2627C106.424 8.78678 106.472 9.25163 106.567 9.65723C106.663 10.0583 106.804 10.3978 106.991 10.6758C107.178 10.9492 107.406 11.1566 107.675 11.2979C107.944 11.4391 108.251 11.5098 108.598 11.5098C108.944 11.5098 109.252 11.4391 109.52 11.2979C109.789 11.1566 110.015 10.9492 110.197 10.6758C110.38 10.3978 110.519 10.0583 110.614 9.65723C110.71 9.25163 110.758 8.78678 110.758 8.2627ZM121.145 3.04688V4.65332H116.195V3.04688H121.145ZM122.607 3.04688V13H120.557V3.04688H122.607ZM115.936 3.04688H117.98L117.727 8.04395C117.69 8.79134 117.62 9.44076 117.515 9.99219C117.414 10.5436 117.278 11.013 117.105 11.4004C116.931 11.7832 116.717 12.0931 116.462 12.3301C116.211 12.5625 115.915 12.7334 115.573 12.8428C115.231 12.9476 114.842 13 114.404 13H113.898V11.4004L114.158 11.3799C114.382 11.3571 114.578 11.2979 114.746 11.2021C114.915 11.1064 115.058 10.9629 115.177 10.7715C115.3 10.5801 115.4 10.3363 115.478 10.04C115.56 9.73926 115.623 9.3724 115.669 8.93945C115.719 8.50651 115.753 8.00065 115.772 7.42188L115.936 3.04688ZM132.987 7.79102V8.2627C132.987 9.01921 132.885 9.69824 132.68 10.2998C132.475 10.9014 132.185 11.4141 131.812 11.8379C131.438 12.2572 130.991 12.5785 130.472 12.8018C129.957 13.0251 129.385 13.1367 128.756 13.1367C128.132 13.1367 127.56 13.0251 127.04 12.8018C126.525 12.5785 126.079 12.2572 125.7 11.8379C125.322 11.4141 125.028 10.9014 124.818 10.2998C124.613 9.69824 124.511 9.01921 124.511 8.2627V7.79102C124.511 7.02995 124.613 6.35091 124.818 5.75391C125.024 5.15234 125.313 4.63965 125.687 4.21582C126.065 3.79199 126.512 3.46842 127.026 3.24512C127.546 3.02181 128.118 2.91016 128.742 2.91016C129.371 2.91016 129.943 3.02181 130.458 3.24512C130.978 3.46842 131.424 3.79199 131.798 4.21582C132.176 4.63965 132.468 5.15234 132.673 5.75391C132.883 6.35091 132.987 7.02995 132.987 7.79102ZM130.916 8.2627V7.77734C130.916 7.2487 130.868 6.78385 130.773 6.38281C130.677 5.98177 130.536 5.64453 130.349 5.37109C130.162 5.09766 129.934 4.89258 129.665 4.75586C129.396 4.61458 129.089 4.54395 128.742 4.54395C128.396 4.54395 128.088 4.61458 127.819 4.75586C127.555 4.89258 127.33 5.09766 127.143 5.37109C126.96 5.64453 126.821 5.98177 126.726 6.38281C126.63 6.78385 126.582 7.2487 126.582 7.77734V8.2627C126.582 8.78678 126.63 9.25163 126.726 9.65723C126.821 10.0583 126.963 10.3978 127.15 10.6758C127.336 10.9492 127.564 11.1566 127.833 11.2979C128.102 11.4391 128.41 11.5098 128.756 11.5098C129.102 11.5098 129.41 11.4391 129.679 11.2979C129.948 11.1566 130.173 10.9492 130.356 10.6758C130.538 10.3978 130.677 10.0583 130.773 9.65723C130.868 9.25163 130.916 8.78678 130.916 8.2627ZM141.419 3.04688V4.65332H136.935V13H134.891V3.04688H141.419ZM145.291 3.04688V13H143.247V3.04688H145.291ZM149.813 3.04688V13H147.769V3.04688H149.813ZM146.162 1.50879C146.162 1.27181 146.254 1.07129 146.436 0.907227C146.614 0.738607 146.835 0.654297 147.099 0.654297C147.372 0.654297 147.598 0.738607 147.776 0.907227C147.953 1.07129 148.042 1.27181 148.042 1.50879C148.042 1.74577 147.953 1.94629 147.776 2.11035C147.598 2.27441 147.372 2.35645 147.099 2.35645C146.835 2.35645 146.614 2.27441 146.436 2.11035C146.254 1.94629 146.162 1.74577 146.162 1.50879ZM149.519 1.51562C149.519 1.27409 149.608 1.07129 149.786 0.907227C149.963 0.743164 150.187 0.661133 150.455 0.661133C150.724 0.661133 150.948 0.743164 151.125 0.907227C151.308 1.07129 151.399 1.27409 151.399 1.51562C151.399 1.7526 151.308 1.95312 151.125 2.11719C150.948 2.27669 150.724 2.35645 150.455 2.35645C150.187 2.35645 149.963 2.27669 149.786 2.11719C149.608 1.95312 149.519 1.7526 149.519 1.51562Z" fill="#212121"/>
<path d="M4.2041 38.2217H3.02148V37.3809H4.15625C4.65755 37.3809 5.06315 37.3102 5.37305 37.1689C5.68294 37.0277 5.90853 36.8317 6.0498 36.5811C6.19108 36.3304 6.26172 36.041 6.26172 35.7129C6.26172 35.3984 6.18424 35.1113 6.0293 34.8516C5.87435 34.5872 5.63509 34.3776 5.31152 34.2227C4.98796 34.0632 4.57096 33.9834 4.06055 33.9834C3.67773 33.9834 3.33138 34.0563 3.02148 34.2021C2.71159 34.3434 2.46549 34.5417 2.2832 34.7969C2.10091 35.0475 2.00977 35.3369 2.00977 35.665H0.69043C0.69043 35.2412 0.779297 34.8607 0.957031 34.5234C1.13477 34.1816 1.37858 33.8923 1.68848 33.6553C1.99837 33.4137 2.35612 33.2292 2.76172 33.1016C3.17188 32.974 3.60482 32.9102 4.06055 32.9102C4.59375 32.9102 5.07682 32.9717 5.50977 33.0947C5.94271 33.2132 6.31413 33.391 6.62402 33.6279C6.93392 33.8649 7.1709 34.1589 7.33496 34.5098C7.49902 34.8607 7.58105 35.2686 7.58105 35.7334C7.58105 36.0752 7.5013 36.3965 7.3418 36.6973C7.18229 36.998 6.95443 37.2624 6.6582 37.4902C6.36198 37.7181 6.00651 37.8981 5.5918 38.0303C5.17708 38.1579 4.71452 38.2217 4.2041 38.2217ZM3.02148 37.6406H4.2041C4.76465 37.6406 5.26367 37.6976 5.70117 37.8115C6.13867 37.9255 6.50781 38.0918 6.80859 38.3105C7.10938 38.5293 7.33724 38.8005 7.49219 39.124C7.65169 39.443 7.73145 39.8099 7.73145 40.2246C7.73145 40.6895 7.6403 41.1019 7.45801 41.4619C7.28027 41.8219 7.02734 42.1273 6.69922 42.3779C6.37109 42.6286 5.98145 42.8177 5.53027 42.9453C5.08366 43.0729 4.59375 43.1367 4.06055 43.1367C3.63216 43.1367 3.20833 43.082 2.78906 42.9727C2.37435 42.8587 1.99837 42.6855 1.66113 42.4531C1.32389 42.2161 1.05273 41.9154 0.847656 41.5508C0.647135 41.1862 0.546875 40.7487 0.546875 40.2383H1.86621C1.86621 40.571 1.95736 40.8763 2.13965 41.1543C2.3265 41.4323 2.58398 41.6556 2.91211 41.8242C3.24023 41.9883 3.62305 42.0703 4.06055 42.0703C4.56185 42.0703 4.98568 41.9928 5.33203 41.8379C5.68294 41.6784 5.94954 41.4619 6.13184 41.1885C6.31868 40.9105 6.41211 40.5983 6.41211 40.252C6.41211 39.9466 6.36198 39.6823 6.26172 39.459C6.16602 39.2311 6.02246 39.0443 5.83105 38.8984C5.64421 38.7526 5.40951 38.6455 5.12695 38.5771C4.84896 38.5042 4.52539 38.4678 4.15625 38.4678H3.02148V37.6406ZM14.7139 38.8096V39.835H10.8038V38.8096H14.7139ZM11.0704 35.6035V43H9.80574V35.6035H11.0704ZM15.7393 35.6035V43H14.4679V35.6035H15.7393ZM22.5578 41.7354V37.9277C22.5578 37.6361 22.4985 37.3831 22.38 37.1689C22.2661 36.9502 22.0929 36.7816 21.8605 36.6631C21.6281 36.5446 21.341 36.4854 20.9992 36.4854C20.6802 36.4854 20.3999 36.54 20.1584 36.6494C19.9214 36.7588 19.7345 36.9023 19.5978 37.0801C19.4657 37.2578 19.3996 37.4492 19.3996 37.6543H18.1349C18.1349 37.39 18.2033 37.1279 18.34 36.8682C18.4767 36.6084 18.6727 36.3737 18.9279 36.1641C19.1877 35.9499 19.4976 35.7812 19.8576 35.6582C20.2222 35.5306 20.6278 35.4668 21.0744 35.4668C21.6121 35.4668 22.0861 35.5579 22.4963 35.7402C22.911 35.9225 23.2345 36.1982 23.467 36.5674C23.7039 36.932 23.8224 37.39 23.8224 37.9414V41.3867C23.8224 41.6328 23.8429 41.8949 23.8839 42.1729C23.9295 42.4508 23.9956 42.6901 24.0822 42.8906V43H22.7629C22.699 42.8542 22.6489 42.6605 22.6125 42.4189C22.576 42.1729 22.5578 41.945 22.5578 41.7354ZM22.7765 38.5156L22.7902 39.4043H21.5119C21.1518 39.4043 20.8306 39.4339 20.548 39.4932C20.2655 39.5479 20.0285 39.6322 19.8371 39.7461C19.6457 39.86 19.4998 40.0036 19.3996 40.1768C19.2993 40.3454 19.2492 40.5436 19.2492 40.7715C19.2492 41.0039 19.3016 41.2158 19.4064 41.4072C19.5112 41.5986 19.6685 41.7513 19.8781 41.8652C20.0923 41.9746 20.3543 42.0293 20.6642 42.0293C21.0516 42.0293 21.3934 41.9473 21.6896 41.7832C21.9858 41.6191 22.2205 41.4186 22.3937 41.1816C22.5714 40.9447 22.6671 40.7145 22.6808 40.4912L23.2209 41.0996C23.189 41.291 23.1024 41.5029 22.9611 41.7354C22.8198 41.9678 22.6307 42.1911 22.3937 42.4053C22.1613 42.6149 21.8833 42.7904 21.5597 42.9316C21.2407 43.0684 20.8807 43.1367 20.4796 43.1367C19.9783 43.1367 19.5386 43.0387 19.1603 42.8428C18.7866 42.6468 18.4949 42.3848 18.2853 42.0566C18.0802 41.724 17.9777 41.3525 17.9777 40.9424C17.9777 40.5459 18.0552 40.1973 18.2101 39.8965C18.3651 39.5911 18.5884 39.3382 18.88 39.1377C19.1717 38.9326 19.5226 38.7777 19.9328 38.6729C20.3429 38.568 20.8009 38.5156 21.3068 38.5156H22.7765ZM31.8098 35.6035V43H30.5452V35.6035H31.8098ZM31.3791 39.001V40.04C31.1239 40.1357 30.8642 40.2223 30.5998 40.2998C30.3401 40.3727 30.0644 40.432 29.7727 40.4775C29.4856 40.5186 29.1734 40.5391 28.8362 40.5391C28.2528 40.5391 27.747 40.4388 27.3186 40.2383C26.8902 40.0332 26.5598 39.7256 26.3274 39.3154C26.095 38.9007 25.9788 38.3789 25.9788 37.75V35.5898H27.2434V37.75C27.2434 38.1602 27.3049 38.4928 27.428 38.748C27.551 39.0033 27.731 39.1924 27.968 39.3154C28.205 39.4339 28.4944 39.4932 28.8362 39.4932C29.1643 39.4932 29.4719 39.4727 29.759 39.4316C30.0507 39.3861 30.3287 39.3268 30.593 39.2539C30.8619 39.181 31.1239 39.0967 31.3791 39.001ZM35.6341 40.9971L39.0452 35.6035H40.3167V43H39.0452V37.6064L35.6341 43H34.3763V35.6035H35.6341V40.9971ZM47.0189 41.3184L49.5346 35.6035H50.7514L47.4564 43H46.5814L43.3002 35.6035H44.517L47.0189 41.3184ZM44.1479 35.6035V43H42.8832V35.6035H44.1479ZM49.849 43V35.6035H51.1205V43H49.849ZM54.9516 35.6035V43H53.6802V35.6035H54.9516ZM53.5845 33.6416C53.5845 33.4365 53.646 33.2633 53.769 33.1221C53.8966 32.9808 54.0835 32.9102 54.3296 32.9102C54.5711 32.9102 54.7557 32.9808 54.8833 33.1221C55.0154 33.2633 55.0815 33.4365 55.0815 33.6416C55.0815 33.8376 55.0154 34.0062 54.8833 34.1475C54.7557 34.2842 54.5711 34.3525 54.3296 34.3525C54.0835 34.3525 53.8966 34.2842 53.769 34.1475C53.646 34.0062 53.5845 33.8376 53.5845 33.6416ZM60.3619 42.0977C60.6627 42.0977 60.9406 42.0361 61.1959 41.9131C61.4511 41.79 61.6607 41.6214 61.8248 41.4072C61.9888 41.1885 62.0823 40.9401 62.105 40.6621H63.3082C63.2854 41.0996 63.1373 41.5075 62.8638 41.8857C62.5949 42.2594 62.2418 42.5625 61.8043 42.7949C61.3668 43.0228 60.886 43.1367 60.3619 43.1367C59.8059 43.1367 59.3205 43.0387 58.9058 42.8428C58.4957 42.6468 58.1539 42.3779 57.8804 42.0361C57.6115 41.6943 57.4087 41.3024 57.272 40.8604C57.1399 40.4137 57.0738 39.9421 57.0738 39.4453V39.1582C57.0738 38.6615 57.1399 38.1921 57.272 37.75C57.4087 37.3034 57.6115 36.9092 57.8804 36.5674C58.1539 36.2256 58.4957 35.9567 58.9058 35.7607C59.3205 35.5648 59.8059 35.4668 60.3619 35.4668C60.9406 35.4668 61.4465 35.5853 61.8795 35.8223C62.3124 36.0547 62.6519 36.3737 62.898 36.7793C63.1487 37.1803 63.2854 37.6361 63.3082 38.1465H62.105C62.0823 37.8411 61.9957 37.5654 61.8453 37.3193C61.6994 37.0732 61.4989 36.8773 61.2437 36.7314C60.9931 36.5811 60.6991 36.5059 60.3619 36.5059C59.9745 36.5059 59.6487 36.5833 59.3843 36.7383C59.1246 36.8887 58.9172 37.0938 58.7623 37.3535C58.6119 37.6087 58.5025 37.8936 58.4341 38.208C58.3703 38.5179 58.3384 38.8346 58.3384 39.1582V39.4453C58.3384 39.7689 58.3703 40.0879 58.4341 40.4023C58.4979 40.7168 58.605 41.0016 58.7554 41.2568C58.9104 41.512 59.1177 41.7171 59.3775 41.8721C59.6418 42.0225 59.9699 42.0977 60.3619 42.0977ZM68.1647 35.6035V43H66.8932V35.6035H68.1647ZM70.6461 35.6035V36.6289H64.4596V35.6035H70.6461ZM73.3493 38.1465H75.571C76.168 38.1465 76.6716 38.2513 77.0818 38.4609C77.4919 38.666 77.8018 38.9508 78.0114 39.3154C78.2256 39.6755 78.3327 40.0856 78.3327 40.5459C78.3327 40.8877 78.2735 41.209 78.155 41.5098C78.0365 41.806 77.8588 42.0658 77.6218 42.2891C77.3894 42.5124 77.1 42.6878 76.7536 42.8154C76.4118 42.9385 76.0176 43 75.571 43H72.4265V35.6035H73.6911V41.9609H75.571C75.9356 41.9609 76.2273 41.8949 76.446 41.7627C76.6648 41.6305 76.822 41.4596 76.9177 41.25C77.0134 41.0404 77.0612 40.8216 77.0612 40.5938C77.0612 40.3704 77.0134 40.1517 76.9177 39.9375C76.822 39.7233 76.6648 39.5456 76.446 39.4043C76.2273 39.2585 75.9356 39.1855 75.571 39.1855H73.3493V38.1465ZM84.3339 43V35.6035H85.5985V41.9609H89.0028V35.6035H90.2743V43H84.3339ZM91.1493 41.9609L91.0263 45.1943H89.8983V43H88.9345V41.9609H91.1493ZM94.3105 40.9971L97.7216 35.6035H98.9931V43H97.7216V37.6064L94.3105 43H93.0527V35.6035H94.3105V40.9971ZM102.298 35.6035L103.918 38.2969L105.559 35.6035H107.042L104.622 39.2539L107.117 43H105.654L103.945 40.2246L102.236 43H100.767L103.255 39.2539L100.842 35.6035H102.298ZM117.63 35.6035V36.6494H113.891V35.6035H117.63ZM114.075 35.6035V43H112.811V35.6035H114.075ZM118.751 35.6035V43H117.48V35.6035H118.751ZM122.466 37.0254V45.8438H121.195V35.6035H122.357L122.466 37.0254ZM127.449 39.2402V39.3838C127.449 39.9215 127.386 40.4206 127.258 40.8809C127.13 41.3366 126.944 41.7331 126.698 42.0703C126.456 42.4076 126.158 42.6696 125.802 42.8564C125.447 43.0433 125.039 43.1367 124.578 43.1367C124.109 43.1367 123.694 43.0592 123.334 42.9043C122.974 42.7493 122.669 42.5238 122.418 42.2275C122.168 41.9313 121.967 41.5758 121.817 41.1611C121.671 40.7464 121.571 40.2793 121.516 39.7598V38.9941C121.571 38.4473 121.673 37.9574 121.824 37.5244C121.974 37.0915 122.172 36.7223 122.418 36.417C122.669 36.1071 122.972 35.8724 123.327 35.7129C123.683 35.5488 124.093 35.4668 124.558 35.4668C125.023 35.4668 125.435 35.5579 125.795 35.7402C126.155 35.918 126.458 36.1732 126.704 36.5059C126.95 36.8385 127.135 37.2373 127.258 37.7021C127.386 38.1624 127.449 38.6751 127.449 39.2402ZM126.178 39.3838V39.2402C126.178 38.8711 126.139 38.5247 126.062 38.2012C125.984 37.873 125.864 37.5859 125.699 37.3398C125.54 37.0892 125.335 36.8932 125.084 36.752C124.834 36.6061 124.535 36.5332 124.189 36.5332C123.87 36.5332 123.592 36.5879 123.355 36.6973C123.122 36.8066 122.924 36.9548 122.76 37.1416C122.596 37.3239 122.462 37.5335 122.357 37.7705C122.256 38.0029 122.181 38.2445 122.131 38.4951V40.2656C122.222 40.5846 122.35 40.8854 122.514 41.168C122.678 41.446 122.897 41.6715 123.17 41.8447C123.444 42.0133 123.788 42.0977 124.202 42.0977C124.544 42.0977 124.838 42.027 125.084 41.8857C125.335 41.7399 125.54 41.5417 125.699 41.291C125.864 41.0404 125.984 40.7533 126.062 40.4297C126.139 40.1016 126.178 39.7529 126.178 39.3838ZM129.148 39.3838V39.2266C129.148 38.6934 129.225 38.1989 129.38 37.7432C129.535 37.2829 129.758 36.8841 130.05 36.5469C130.342 36.2051 130.695 35.9408 131.11 35.7539C131.524 35.5625 131.989 35.4668 132.504 35.4668C133.024 35.4668 133.491 35.5625 133.906 35.7539C134.325 35.9408 134.68 36.2051 134.972 36.5469C135.268 36.8841 135.494 37.2829 135.649 37.7432C135.804 38.1989 135.881 38.6934 135.881 39.2266V39.3838C135.881 39.917 135.804 40.4115 135.649 40.8672C135.494 41.3229 135.268 41.7217 134.972 42.0635C134.68 42.4007 134.327 42.665 133.912 42.8564C133.502 43.0433 133.037 43.1367 132.518 43.1367C131.998 43.1367 131.531 43.0433 131.117 42.8564C130.702 42.665 130.346 42.4007 130.05 42.0635C129.758 41.7217 129.535 41.3229 129.38 40.8672C129.225 40.4115 129.148 39.917 129.148 39.3838ZM130.412 39.2266V39.3838C130.412 39.7529 130.456 40.1016 130.542 40.4297C130.629 40.7533 130.759 41.0404 130.932 41.291C131.11 41.5417 131.331 41.7399 131.595 41.8857C131.859 42.027 132.167 42.0977 132.518 42.0977C132.864 42.0977 133.167 42.027 133.427 41.8857C133.691 41.7399 133.91 41.5417 134.083 41.291C134.257 41.0404 134.386 40.7533 134.473 40.4297C134.564 40.1016 134.61 39.7529 134.61 39.3838V39.2266C134.61 38.862 134.564 38.5179 134.473 38.1943C134.386 37.8662 134.254 37.5768 134.077 37.3262C133.903 37.071 133.685 36.8704 133.42 36.7246C133.161 36.5788 132.855 36.5059 132.504 36.5059C132.158 36.5059 131.853 36.5788 131.588 36.7246C131.328 36.8704 131.11 37.071 130.932 37.3262C130.759 37.5768 130.629 37.8662 130.542 38.1943C130.456 38.5179 130.412 38.862 130.412 39.2266ZM142.631 32.3838H143.67C143.67 32.8304 143.602 33.1859 143.465 33.4502C143.329 33.71 143.142 33.9105 142.905 34.0518C142.672 34.193 142.408 34.3001 142.112 34.373C141.82 34.446 141.517 34.5166 141.203 34.585C140.811 34.667 140.446 34.7969 140.109 34.9746C139.776 35.1478 139.489 35.3939 139.247 35.7129C139.011 36.0319 138.835 36.4466 138.721 36.957C138.612 37.4674 138.582 38.0986 138.632 38.8506V39.4795H137.593V38.8506C137.593 38.0075 137.673 37.2715 137.832 36.6426C137.997 36.0137 138.227 35.4827 138.523 35.0498C138.819 34.6169 139.17 34.2728 139.576 34.0176C139.986 33.7624 140.437 33.5869 140.929 33.4912C141.285 33.4229 141.59 33.3499 141.845 33.2725C142.1 33.1904 142.294 33.0811 142.426 32.9443C142.563 32.8076 142.631 32.6208 142.631 32.3838ZM141.134 36.0273C141.617 36.0273 142.048 36.1117 142.426 36.2803C142.804 36.4489 143.126 36.6836 143.39 36.9844C143.654 37.2852 143.855 37.6406 143.992 38.0508C144.133 38.4564 144.204 38.8984 144.204 39.377V39.5273C144.204 40.0423 144.128 40.5208 143.978 40.9629C143.832 41.4004 143.616 41.7832 143.329 42.1113C143.046 42.4349 142.7 42.6878 142.289 42.8701C141.884 43.0524 141.421 43.1436 140.902 43.1436C140.382 43.1436 139.917 43.0524 139.507 42.8701C139.102 42.6878 138.755 42.4349 138.468 42.1113C138.181 41.7832 137.962 41.4004 137.812 40.9629C137.666 40.5208 137.593 40.0423 137.593 39.5273V39.377C137.593 39.263 137.614 39.1514 137.655 39.042C137.696 38.9326 137.746 38.821 137.805 38.707C137.869 38.5931 137.926 38.4723 137.976 38.3447C138.145 37.9346 138.375 37.554 138.666 37.2031C138.963 36.8522 139.316 36.5697 139.726 36.3555C140.141 36.1367 140.61 36.0273 141.134 36.0273ZM140.888 37.0596C140.423 37.0596 140.04 37.1667 139.74 37.3809C139.443 37.5951 139.222 37.8799 139.077 38.2354C138.931 38.5863 138.858 38.9668 138.858 39.377V39.5273C138.858 39.8737 138.899 40.2018 138.981 40.5117C139.063 40.8216 139.186 41.0973 139.35 41.3389C139.519 41.5758 139.731 41.7627 139.986 41.8994C140.246 42.0361 140.551 42.1045 140.902 42.1045C141.253 42.1045 141.556 42.0361 141.811 41.8994C142.066 41.7627 142.276 41.5758 142.44 41.3389C142.604 41.0973 142.727 40.8216 142.809 40.5117C142.891 40.2018 142.932 39.8737 142.932 39.5273V39.377C142.932 39.0671 142.891 38.7731 142.809 38.4951C142.727 38.2171 142.602 37.971 142.433 37.7568C142.269 37.5426 142.057 37.374 141.797 37.251C141.542 37.1234 141.239 37.0596 140.888 37.0596ZM151.001 35.6035V36.6494H147.426V35.6035H151.001ZM152.116 35.6035V43H150.851V35.6035H152.116ZM147.119 35.6035H148.39L148.199 39.1719C148.167 39.7233 148.114 40.2109 148.042 40.6348C147.973 41.054 147.877 41.4141 147.754 41.7148C147.636 42.0156 147.486 42.2617 147.303 42.4531C147.126 42.64 146.911 42.779 146.661 42.8701C146.41 42.9567 146.121 43 145.792 43H145.396V41.8857L145.669 41.8652C145.865 41.8516 146.032 41.806 146.168 41.7285C146.31 41.651 146.428 41.5371 146.524 41.3867C146.62 41.2318 146.697 41.0335 146.756 40.792C146.82 40.5505 146.868 40.2633 146.9 39.9307C146.936 39.598 146.964 39.2106 146.982 38.7686L147.119 35.6035ZM157.642 43.1367C157.127 43.1367 156.66 43.0501 156.241 42.877C155.826 42.6992 155.468 42.4508 155.168 42.1318C154.871 41.8128 154.643 41.4346 154.484 40.9971C154.324 40.5596 154.245 40.0811 154.245 39.5615V39.2744C154.245 38.6729 154.334 38.1374 154.511 37.668C154.689 37.194 154.931 36.793 155.236 36.4648C155.541 36.1367 155.888 35.8883 156.275 35.7197C156.662 35.5511 157.063 35.4668 157.478 35.4668C158.007 35.4668 158.462 35.5579 158.845 35.7402C159.233 35.9225 159.549 36.1777 159.796 36.5059C160.042 36.8294 160.224 37.2122 160.342 37.6543C160.461 38.0918 160.52 38.5703 160.52 39.0898V39.6572H154.997V38.625H159.255V38.5293C159.237 38.2012 159.169 37.8822 159.05 37.5723C158.936 37.2624 158.754 37.0072 158.504 36.8066C158.253 36.6061 157.911 36.5059 157.478 36.5059C157.191 36.5059 156.927 36.5674 156.685 36.6904C156.444 36.8089 156.236 36.9867 156.063 37.2236C155.89 37.4606 155.755 37.75 155.66 38.0918C155.564 38.4336 155.516 38.8278 155.516 39.2744V39.5615C155.516 39.9124 155.564 40.2428 155.66 40.5527C155.76 40.8581 155.904 41.127 156.09 41.3594C156.282 41.5918 156.512 41.7741 156.781 41.9062C157.054 42.0384 157.364 42.1045 157.711 42.1045C158.157 42.1045 158.535 42.0133 158.845 41.8311C159.155 41.6488 159.426 41.4049 159.659 41.0996L160.424 41.708C160.265 41.9495 160.062 42.1797 159.816 42.3984C159.57 42.6172 159.267 42.7949 158.907 42.9316C158.551 43.0684 158.13 43.1367 157.642 43.1367ZM166.669 41.3184L169.184 35.6035H170.401L167.106 43H166.231L162.95 35.6035H164.167L166.669 41.3184ZM163.798 35.6035V43H162.533V35.6035H163.798ZM169.499 43V35.6035H170.77V43H169.499ZM182.138 38.8096V39.835H178.227V38.8096H182.138ZM178.494 35.6035V43H177.229V35.6035H178.494ZM183.163 35.6035V43H181.891V35.6035H183.163ZM189.981 41.7354V37.9277C189.981 37.6361 189.922 37.3831 189.804 37.1689C189.69 36.9502 189.517 36.7816 189.284 36.6631C189.052 36.5446 188.765 36.4854 188.423 36.4854C188.104 36.4854 187.823 36.54 187.582 36.6494C187.345 36.7588 187.158 36.9023 187.021 37.0801C186.889 37.2578 186.823 37.4492 186.823 37.6543H185.559C185.559 37.39 185.627 37.1279 185.764 36.8682C185.9 36.6084 186.096 36.3737 186.351 36.1641C186.611 35.9499 186.921 35.7812 187.281 35.6582C187.646 35.5306 188.051 35.4668 188.498 35.4668C189.036 35.4668 189.51 35.5579 189.92 35.7402C190.335 35.9225 190.658 36.1982 190.891 36.5674C191.128 36.932 191.246 37.39 191.246 37.9414V41.3867C191.246 41.6328 191.267 41.8949 191.308 42.1729C191.353 42.4508 191.419 42.6901 191.506 42.8906V43H190.186C190.123 42.8542 190.073 42.6605 190.036 42.4189C190 42.1729 189.981 41.945 189.981 41.7354ZM190.2 38.5156L190.214 39.4043H188.935C188.575 39.4043 188.254 39.4339 187.972 39.4932C187.689 39.5479 187.452 39.6322 187.261 39.7461C187.069 39.86 186.923 40.0036 186.823 40.1768C186.723 40.3454 186.673 40.5436 186.673 40.7715C186.673 41.0039 186.725 41.2158 186.83 41.4072C186.935 41.5986 187.092 41.7513 187.302 41.8652C187.516 41.9746 187.778 42.0293 188.088 42.0293C188.475 42.0293 188.817 41.9473 189.113 41.7832C189.409 41.6191 189.644 41.4186 189.817 41.1816C189.995 40.9447 190.091 40.7145 190.104 40.4912L190.644 41.0996C190.613 41.291 190.526 41.5029 190.385 41.7354C190.243 41.9678 190.054 42.1911 189.817 42.4053C189.585 42.6149 189.307 42.7904 188.983 42.9316C188.664 43.0684 188.304 43.1367 187.903 43.1367C187.402 43.1367 186.962 43.0387 186.584 42.8428C186.21 42.6468 185.919 42.3848 185.709 42.0566C185.504 41.724 185.401 41.3525 185.401 40.9424C185.401 40.5459 185.479 40.1973 185.634 39.8965C185.789 39.5911 186.012 39.3382 186.304 39.1377C186.595 38.9326 186.946 38.7777 187.356 38.6729C187.767 38.568 188.225 38.5156 188.73 38.5156H190.2ZM196.615 42.0977C196.916 42.0977 197.194 42.0361 197.449 41.9131C197.704 41.79 197.914 41.6214 198.078 41.4072C198.242 41.1885 198.336 40.9401 198.358 40.6621H199.562C199.539 41.0996 199.391 41.5075 199.117 41.8857C198.848 42.2594 198.495 42.5625 198.058 42.7949C197.62 43.0228 197.139 43.1367 196.615 43.1367C196.059 43.1367 195.574 43.0387 195.159 42.8428C194.749 42.6468 194.407 42.3779 194.134 42.0361C193.865 41.6943 193.662 41.3024 193.525 40.8604C193.393 40.4137 193.327 39.9421 193.327 39.4453V39.1582C193.327 38.6615 193.393 38.1921 193.525 37.75C193.662 37.3034 193.865 36.9092 194.134 36.5674C194.407 36.2256 194.749 35.9567 195.159 35.7607C195.574 35.5648 196.059 35.4668 196.615 35.4668C197.194 35.4668 197.7 35.5853 198.133 35.8223C198.566 36.0547 198.905 36.3737 199.151 36.7793C199.402 37.1803 199.539 37.6361 199.562 38.1465H198.358C198.336 37.8411 198.249 37.5654 198.099 37.3193C197.953 37.0732 197.752 36.8773 197.497 36.7314C197.246 36.5811 196.952 36.5059 196.615 36.5059C196.228 36.5059 195.902 36.5833 195.638 36.7383C195.378 36.8887 195.171 37.0938 195.016 37.3535C194.865 37.6087 194.756 37.8936 194.688 38.208C194.624 38.5179 194.592 38.8346 194.592 39.1582V39.4453C194.592 39.7689 194.624 40.0879 194.688 40.4023C194.751 40.7168 194.858 41.0016 195.009 41.2568C195.164 41.512 195.371 41.7171 195.631 41.8721C195.895 42.0225 196.223 42.0977 196.615 42.0977ZM204.418 35.6035V43H203.147V35.6035H204.418ZM206.899 35.6035V36.6289H200.713V35.6035H206.899ZM209.938 35.6035V43H208.666V35.6035H209.938ZM208.57 33.6416C208.57 33.4365 208.632 33.2633 208.755 33.1221C208.883 32.9808 209.069 32.9102 209.316 32.9102C209.557 32.9102 209.742 32.9808 209.869 33.1221C210.001 33.2633 210.068 33.4365 210.068 33.6416C210.068 33.8376 210.001 34.0062 209.869 34.1475C209.742 34.2842 209.557 34.3525 209.316 34.3525C209.069 34.3525 208.883 34.2842 208.755 34.1475C208.632 34.0062 208.57 33.8376 208.57 33.6416ZM217.33 35.6035V36.6494H213.755V35.6035H217.33ZM218.445 35.6035V43H217.18V35.6035H218.445ZM213.447 35.6035H214.719L214.528 39.1719C214.496 39.7233 214.443 40.2109 214.37 40.6348C214.302 41.054 214.206 41.4141 214.083 41.7148C213.965 42.0156 213.814 42.2617 213.632 42.4531C213.454 42.64 213.24 42.779 212.989 42.8701C212.739 42.9567 212.449 43 212.121 43H211.725V41.8857L211.998 41.8652C212.194 41.8516 212.361 41.806 212.497 41.7285C212.639 41.651 212.757 41.5371 212.853 41.3867C212.948 41.2318 213.026 41.0335 213.085 40.792C213.149 40.5505 213.197 40.2633 213.229 39.9307C213.265 39.598 213.293 39.2106 213.311 38.7686L213.447 35.6035ZM221.941 38.1465H224.162C224.759 38.1465 225.263 38.2513 225.673 38.4609C226.083 38.666 226.393 38.9508 226.603 39.3154C226.817 39.6755 226.924 40.0856 226.924 40.5459C226.924 40.8877 226.865 41.209 226.746 41.5098C226.628 41.806 226.45 42.0658 226.213 42.2891C225.981 42.5124 225.691 42.6878 225.345 42.8154C225.003 42.9385 224.609 43 224.162 43H221.018V35.6035H222.283V41.9609H224.162C224.527 41.9609 224.819 41.8949 225.037 41.7627C225.256 41.6305 225.413 41.4596 225.509 41.25C225.605 41.0404 225.653 40.8216 225.653 40.5938C225.653 40.3704 225.605 40.1517 225.509 39.9375C225.413 39.7233 225.256 39.5456 225.037 39.4043C224.819 39.2585 224.527 39.1855 224.162 39.1855H221.941V38.1465ZM230.297 35.6035V43H229.033V35.6035H230.297ZM235.151 35.6035L231.644 39.8418H229.873L229.682 38.7344H231.131L233.613 35.6035H235.151ZM233.79 43L231.07 39.6504L231.883 38.7344L235.397 43H233.79ZM238.285 40.9971L241.696 35.6035H242.967V43H241.696V37.6064L238.285 43H237.027V35.6035H238.285V40.9971ZM0.628906 63.3838V63.2266C0.628906 62.6934 0.70638 62.1989 0.861328 61.7432C1.01628 61.2829 1.23958 60.8841 1.53125 60.5469C1.82292 60.2051 2.17611 59.9408 2.59082 59.7539C3.00553 59.5625 3.47038 59.4668 3.98535 59.4668C4.50488 59.4668 4.97201 59.5625 5.38672 59.7539C5.80599 59.9408 6.16146 60.2051 6.45312 60.5469C6.74935 60.8841 6.97493 61.2829 7.12988 61.7432C7.28483 62.1989 7.3623 62.6934 7.3623 63.2266V63.3838C7.3623 63.917 7.28483 64.4115 7.12988 64.8672C6.97493 65.3229 6.74935 65.7217 6.45312 66.0635C6.16146 66.4007 5.80827 66.665 5.39355 66.8564C4.9834 67.0433 4.51855 67.1367 3.99902 67.1367C3.47949 67.1367 3.01237 67.0433 2.59766 66.8564C2.18294 66.665 1.82747 66.4007 1.53125 66.0635C1.23958 65.7217 1.01628 65.3229 0.861328 64.8672C0.70638 64.4115 0.628906 63.917 0.628906 63.3838ZM1.89355 63.2266V63.3838C1.89355 63.7529 1.93685 64.1016 2.02344 64.4297C2.11003 64.7533 2.23991 65.0404 2.41309 65.291C2.59082 65.5417 2.81185 65.7399 3.07617 65.8857C3.34049 66.027 3.64811 66.0977 3.99902 66.0977C4.34538 66.0977 4.64844 66.027 4.9082 65.8857C5.17253 65.7399 5.39128 65.5417 5.56445 65.291C5.73763 65.0404 5.86751 64.7533 5.9541 64.4297C6.04525 64.1016 6.09082 63.7529 6.09082 63.3838V63.2266C6.09082 62.862 6.04525 62.5179 5.9541 62.1943C5.86751 61.8662 5.73535 61.5768 5.55762 61.3262C5.38444 61.071 5.16569 60.8704 4.90137 60.7246C4.6416 60.5788 4.33626 60.5059 3.98535 60.5059C3.639 60.5059 3.33366 60.5788 3.06934 60.7246C2.80957 60.8704 2.59082 61.071 2.41309 61.3262C2.23991 61.5768 2.11003 61.8662 2.02344 62.1943C1.93685 62.5179 1.89355 62.862 1.89355 63.2266ZM14.9464 59.6035V67H13.6817V59.6035H14.9464ZM14.5157 63.001V64.04C14.2605 64.1357 14.0007 64.2223 13.7364 64.2998C13.4766 64.3727 13.2009 64.432 12.9093 64.4775C12.6221 64.5186 12.31 64.5391 11.9727 64.5391C11.3894 64.5391 10.8835 64.4388 10.4552 64.2383C10.0268 64.0332 9.69637 63.7256 9.46395 63.3154C9.23152 62.9007 9.11531 62.3789 9.11531 61.75V59.5898H10.38V61.75C10.38 62.1602 10.4415 62.4928 10.5645 62.748C10.6876 63.0033 10.8676 63.1924 11.1046 63.3154C11.3415 63.4339 11.6309 63.4932 11.9727 63.4932C12.3009 63.4932 12.6085 63.4727 12.8956 63.4316C13.1873 63.3861 13.4652 63.3268 13.7296 63.2539C13.9985 63.181 14.2605 63.0967 14.5157 63.001ZM20.4728 67.1367C19.9578 67.1367 19.4907 67.0501 19.0714 66.877C18.6567 66.6992 18.299 66.4508 17.9982 66.1318C17.702 65.8128 17.4741 65.4346 17.3146 64.9971C17.1551 64.5596 17.0754 64.0811 17.0754 63.5615V63.2744C17.0754 62.6729 17.1642 62.1374 17.342 61.668C17.5197 61.194 17.7612 60.793 18.0666 60.4648C18.3719 60.1367 18.7183 59.8883 19.1056 59.7197C19.493 59.5511 19.894 59.4668 20.3088 59.4668C20.8374 59.4668 21.2931 59.5579 21.6759 59.7402C22.0633 59.9225 22.38 60.1777 22.6261 60.5059C22.8722 60.8294 23.0545 61.2122 23.173 61.6543C23.2915 62.0918 23.3507 62.5703 23.3507 63.0898V63.6572H17.8273V62.625H22.0861V62.5293C22.0679 62.2012 21.9995 61.8822 21.881 61.5723C21.7671 61.2624 21.5848 61.0072 21.3341 60.8066C21.0835 60.6061 20.7417 60.5059 20.3088 60.5059C20.0216 60.5059 19.7573 60.5674 19.5158 60.6904C19.2742 60.8089 19.0669 60.9867 18.8937 61.2236C18.7205 61.4606 18.5861 61.75 18.4904 62.0918C18.3947 62.4336 18.3468 62.8278 18.3468 63.2744V63.5615C18.3468 63.9124 18.3947 64.2428 18.4904 64.5527C18.5907 64.8581 18.7342 65.127 18.9211 65.3594C19.1125 65.5918 19.3426 65.7741 19.6115 65.9062C19.8849 66.0384 20.1948 66.1045 20.5412 66.1045C20.9878 66.1045 21.366 66.0133 21.6759 65.8311C21.9858 65.6488 22.257 65.4049 22.4894 65.0996L23.255 65.708C23.0955 65.9495 22.8927 66.1797 22.6466 66.3984C22.4005 66.6172 22.0975 66.7949 21.7375 66.9316C21.382 67.0684 20.9604 67.1367 20.4728 67.1367ZM28.72 63.7461H26.2932L26.2795 62.7344H28.262C28.6539 62.7344 28.9797 62.6956 29.2395 62.6182C29.5038 62.5407 29.7021 62.4245 29.8342 62.2695C29.9664 62.1146 30.0325 61.9232 30.0325 61.6953C30.0325 61.5176 29.9937 61.3626 29.9163 61.2305C29.8433 61.0938 29.7317 60.9821 29.5813 60.8955C29.4309 60.8044 29.244 60.7383 29.0207 60.6973C28.802 60.6517 28.5445 60.6289 28.2483 60.6289H26.6282V67H25.3635V59.6035H28.2483C28.7177 59.6035 29.1392 59.6445 29.5129 59.7266C29.8912 59.8086 30.2125 59.9339 30.4768 60.1025C30.7457 60.2666 30.9508 60.4762 31.092 60.7314C31.2333 60.9867 31.3039 61.2874 31.3039 61.6338C31.3039 61.8571 31.2584 62.069 31.1672 62.2695C31.0761 62.4701 30.9416 62.6478 30.7639 62.8027C30.5862 62.9577 30.3674 63.0853 30.1077 63.1855C29.8479 63.2812 29.5494 63.3428 29.2121 63.3701L28.72 63.7461ZM28.72 67H25.8352L26.4641 65.9746H28.72C29.0709 65.9746 29.3625 65.9313 29.595 65.8447C29.8274 65.7536 30.0006 65.626 30.1145 65.4619C30.233 65.2933 30.2922 65.0928 30.2922 64.8604C30.2922 64.6279 30.233 64.4297 30.1145 64.2656C30.0006 64.097 29.8274 63.9694 29.595 63.8828C29.3625 63.7917 29.0709 63.7461 28.72 63.7461H26.7991L26.8127 62.7344H29.2121L29.6702 63.1172C30.0758 63.1491 30.4198 63.2493 30.7024 63.418C30.9849 63.5866 31.1991 63.8008 31.345 64.0605C31.4908 64.3158 31.5637 64.5938 31.5637 64.8945C31.5637 65.2409 31.4976 65.5462 31.3655 65.8105C31.2379 66.0749 31.051 66.2959 30.8049 66.4736C30.5588 66.6468 30.2603 66.779 29.9094 66.8701C29.5585 66.9567 29.162 67 28.72 67ZM35.0462 64.9971L38.4573 59.6035H39.7288V67H38.4573V61.6064L35.0462 67H33.7884V59.6035H35.0462V64.9971ZM43.5121 59.6035H44.7768L44.6674 62.3721C44.64 63.0739 44.5603 63.68 44.4281 64.1904C44.296 64.7008 44.1273 65.1361 43.9223 65.4961C43.7172 65.8516 43.487 66.1501 43.2318 66.3916C42.9812 66.6331 42.7214 66.8359 42.4525 67H41.8236L41.8578 65.9678L42.1176 65.9609C42.268 65.7832 42.4138 65.6009 42.5551 65.4141C42.6964 65.2227 42.8262 64.9971 42.9447 64.7373C43.0632 64.473 43.1612 64.1517 43.2387 63.7734C43.3207 63.3906 43.3731 62.9235 43.3959 62.3721L43.5121 59.6035ZM43.8266 59.6035H48.2768V67H47.0121V60.7725H43.8266V59.6035ZM41.5365 65.9609H49.227V69.1807H47.9623V67H42.8012V69.1807H41.5297L41.5365 65.9609ZM56.0659 62.8096V63.835H52.1557V62.8096H56.0659ZM52.4223 59.6035V67H51.1577V59.6035H52.4223ZM57.0913 59.6035V67H55.8198V59.6035H57.0913ZM63.9097 65.7354V61.9277C63.9097 61.6361 63.8505 61.3831 63.732 61.1689C63.6181 60.9502 63.4449 60.7816 63.2125 60.6631C62.98 60.5446 62.6929 60.4854 62.3511 60.4854C62.0321 60.4854 61.7518 60.54 61.5103 60.6494C61.2733 60.7588 61.0865 60.9023 60.9498 61.0801C60.8176 61.2578 60.7515 61.4492 60.7515 61.6543H59.4869C59.4869 61.39 59.5552 61.1279 59.692 60.8682C59.8287 60.6084 60.0246 60.3737 60.2798 60.1641C60.5396 59.9499 60.8495 59.7812 61.2095 59.6582C61.5741 59.5306 61.9797 59.4668 62.4263 59.4668C62.9641 59.4668 63.438 59.5579 63.8482 59.7402C64.2629 59.9225 64.5865 60.1982 64.8189 60.5674C65.0559 60.932 65.1744 61.39 65.1744 61.9414V65.3867C65.1744 65.6328 65.1949 65.8949 65.2359 66.1729C65.2815 66.4508 65.3476 66.6901 65.4341 66.8906V67H64.1148C64.051 66.8542 64.0009 66.6605 63.9644 66.4189C63.928 66.1729 63.9097 65.945 63.9097 65.7354ZM64.1285 62.5156L64.1421 63.4043H62.8638C62.5038 63.4043 62.1825 63.4339 61.9 63.4932C61.6174 63.5479 61.3804 63.6322 61.189 63.7461C60.9976 63.86 60.8518 64.0036 60.7515 64.1768C60.6513 64.3454 60.6011 64.5436 60.6011 64.7715C60.6011 65.0039 60.6535 65.2158 60.7584 65.4072C60.8632 65.5986 61.0204 65.7513 61.23 65.8652C61.4442 65.9746 61.7063 66.0293 62.0162 66.0293C62.4035 66.0293 62.7453 65.9473 63.0416 65.7832C63.3378 65.6191 63.5725 65.4186 63.7457 65.1816C63.9234 64.9447 64.0191 64.7145 64.0328 64.4912L64.5728 65.0996C64.5409 65.291 64.4543 65.5029 64.313 65.7354C64.1718 65.9678 63.9826 66.1911 63.7457 66.4053C63.5132 66.6149 63.2352 66.7904 62.9117 66.9316C62.5927 67.0684 62.2326 67.1367 61.8316 67.1367C61.3303 67.1367 60.8905 67.0387 60.5123 66.8428C60.1386 66.6468 59.8469 66.3848 59.6373 66.0566C59.4322 65.724 59.3296 65.3525 59.3296 64.9424C59.3296 64.5459 59.4071 64.1973 59.5621 63.8965C59.717 63.5911 59.9403 63.3382 60.232 63.1377C60.5237 62.9326 60.8746 62.7777 61.2847 62.6729C61.6949 62.568 62.1529 62.5156 62.6587 62.5156H64.1285ZM68.7321 65.4961V66.5146C68.7321 66.9294 68.6273 67.3669 68.4176 67.8271C68.208 68.292 67.914 68.6794 67.5358 68.9893L66.818 68.4902C66.9638 68.2897 67.0869 68.0846 67.1871 67.875C67.2874 67.6699 67.3626 67.4557 67.4127 67.2324C67.4674 67.0137 67.4948 66.7812 67.4948 66.5352V65.4961H68.7321ZM84.9393 65.9609L84.8162 69.1943H83.6883V67H82.7244V65.9609H84.9393ZM74.6922 59.6035H75.9568V65.9609H78.6639V59.6035H79.9353V65.9609H82.6355V59.6035H83.9002V67H74.6922V59.6035ZM86.3368 63.3838V63.2266C86.3368 62.6934 86.4143 62.1989 86.5692 61.7432C86.7242 61.2829 86.9475 60.8841 87.2391 60.5469C87.5308 60.2051 87.884 59.9408 88.2987 59.7539C88.7134 59.5625 89.1783 59.4668 89.6932 59.4668C90.2128 59.4668 90.6799 59.5625 91.0946 59.7539C91.5139 59.9408 91.8694 60.2051 92.161 60.5469C92.4572 60.8841 92.6828 61.2829 92.8378 61.7432C92.9927 62.1989 93.0702 62.6934 93.0702 63.2266V63.3838C93.0702 63.917 92.9927 64.4115 92.8378 64.8672C92.6828 65.3229 92.4572 65.7217 92.161 66.0635C91.8694 66.4007 91.5162 66.665 91.1014 66.8564C90.6913 67.0433 90.2264 67.1367 89.7069 67.1367C89.1874 67.1367 88.7203 67.0433 88.3055 66.8564C87.8908 66.665 87.5354 66.4007 87.2391 66.0635C86.9475 65.7217 86.7242 65.3229 86.5692 64.8672C86.4143 64.4115 86.3368 63.917 86.3368 63.3838ZM87.6014 63.2266V63.3838C87.6014 63.7529 87.6447 64.1016 87.7313 64.4297C87.8179 64.7533 87.9478 65.0404 88.121 65.291C88.2987 65.5417 88.5197 65.7399 88.7841 65.8857C89.0484 66.027 89.356 66.0977 89.7069 66.0977C90.0533 66.0977 90.3563 66.027 90.6161 65.8857C90.8804 65.7399 91.0992 65.5417 91.2723 65.291C91.4455 65.0404 91.5754 64.7533 91.662 64.4297C91.7531 64.1016 91.7987 63.7529 91.7987 63.3838V63.2266C91.7987 62.862 91.7531 62.5179 91.662 62.1943C91.5754 61.8662 91.4432 61.5768 91.2655 61.3262C91.0923 61.071 90.8736 60.8704 90.6093 60.7246C90.3495 60.5788 90.0442 60.5059 89.6932 60.5059C89.3469 60.5059 89.0416 60.5788 88.7772 60.7246C88.5175 60.8704 88.2987 61.071 88.121 61.3262C87.9478 61.5768 87.8179 61.8662 87.7313 62.1943C87.6447 62.5179 87.6014 62.862 87.6014 63.2266ZM100.233 61.0254V69.8438H98.962V59.6035H100.124L100.233 61.0254ZM105.217 63.2402V63.3838C105.217 63.9215 105.153 64.4206 105.025 64.8809C104.898 65.3366 104.711 65.7331 104.465 66.0703C104.223 66.4076 103.925 66.6696 103.569 66.8564C103.214 67.0433 102.806 67.1367 102.346 67.1367C101.876 67.1367 101.462 67.0592 101.102 66.9043C100.742 66.7493 100.436 66.5238 100.186 66.2275C99.9349 65.9313 99.7344 65.5758 99.584 65.1611C99.4382 64.7464 99.3379 64.2793 99.2832 63.7598V62.9941C99.3379 62.4473 99.4405 61.9574 99.5909 61.5244C99.7412 61.0915 99.9395 60.7223 100.186 60.417C100.436 60.1071 100.739 59.8724 101.095 59.7129C101.45 59.5488 101.86 59.4668 102.325 59.4668C102.79 59.4668 103.203 59.5579 103.563 59.7402C103.923 59.918 104.226 60.1732 104.472 60.5059C104.718 60.8385 104.902 61.2373 105.025 61.7021C105.153 62.1624 105.217 62.6751 105.217 63.2402ZM103.945 63.3838V63.2402C103.945 62.8711 103.907 62.5247 103.829 62.2012C103.752 61.873 103.631 61.5859 103.467 61.3398C103.307 61.0892 103.102 60.8932 102.852 60.752C102.601 60.6061 102.302 60.5332 101.956 60.5332C101.637 60.5332 101.359 60.5879 101.122 60.6973C100.89 60.8066 100.691 60.9548 100.527 61.1416C100.363 61.3239 100.229 61.5335 100.124 61.7705C100.024 62.0029 99.9486 62.2445 99.8985 62.4951V64.2656C99.9896 64.5846 100.117 64.8854 100.281 65.168C100.445 65.446 100.664 65.6715 100.938 65.8447C101.211 66.0133 101.555 66.0977 101.97 66.0977C102.312 66.0977 102.606 66.027 102.852 65.8857C103.102 65.7399 103.307 65.5417 103.467 65.291C103.631 65.0404 103.752 64.7533 103.829 64.4297C103.907 64.1016 103.945 63.7529 103.945 63.3838ZM110.319 67.1367C109.804 67.1367 109.337 67.0501 108.918 66.877C108.503 66.6992 108.146 66.4508 107.845 66.1318C107.549 65.8128 107.321 65.4346 107.161 64.9971C107.002 64.5596 106.922 64.0811 106.922 63.5615V63.2744C106.922 62.6729 107.011 62.1374 107.189 61.668C107.366 61.194 107.608 60.793 107.913 60.4648C108.219 60.1367 108.565 59.8883 108.952 59.7197C109.34 59.5511 109.741 59.4668 110.155 59.4668C110.684 59.4668 111.14 59.5579 111.523 59.7402C111.91 59.9225 112.227 60.1777 112.473 60.5059C112.719 60.8294 112.901 61.2122 113.02 61.6543C113.138 62.0918 113.197 62.5703 113.197 63.0898V63.6572H107.674V62.625H111.933V62.5293C111.915 62.2012 111.846 61.8822 111.728 61.5723C111.614 61.2624 111.431 61.0072 111.181 60.8066C110.93 60.6061 110.588 60.5059 110.155 60.5059C109.868 60.5059 109.604 60.5674 109.362 60.6904C109.121 60.8089 108.914 60.9867 108.74 61.2236C108.567 61.4606 108.433 61.75 108.337 62.0918C108.241 62.4336 108.193 62.8278 108.193 63.2744V63.5615C108.193 63.9124 108.241 64.2428 108.337 64.5527C108.437 64.8581 108.581 65.127 108.768 65.3594C108.959 65.5918 109.189 65.7741 109.458 65.9062C109.732 66.0384 110.041 66.1045 110.388 66.1045C110.834 66.1045 111.213 66.0133 111.523 65.8311C111.832 65.6488 112.104 65.4049 112.336 65.0996L113.102 65.708C112.942 65.9495 112.739 66.1797 112.493 66.3984C112.247 66.6172 111.944 66.7949 111.584 66.9316C111.229 67.0684 110.807 67.1367 110.319 67.1367ZM119.455 65.7354V61.9277C119.455 61.6361 119.396 61.3831 119.278 61.1689C119.164 60.9502 118.99 60.7816 118.758 60.6631C118.526 60.5446 118.238 60.4854 117.897 60.4854C117.578 60.4854 117.297 60.54 117.056 60.6494C116.819 60.7588 116.632 60.9023 116.495 61.0801C116.363 61.2578 116.297 61.4492 116.297 61.6543H115.032C115.032 61.39 115.101 61.1279 115.238 60.8682C115.374 60.6084 115.57 60.3737 115.825 60.1641C116.085 59.9499 116.395 59.7812 116.755 59.6582C117.12 59.5306 117.525 59.4668 117.972 59.4668C118.51 59.4668 118.984 59.5579 119.394 59.7402C119.808 59.9225 120.132 60.1982 120.364 60.5674C120.601 60.932 120.72 61.39 120.72 61.9414V65.3867C120.72 65.6328 120.74 65.8949 120.781 66.1729C120.827 66.4508 120.893 66.6901 120.98 66.8906V67H119.66C119.597 66.8542 119.546 66.6605 119.51 66.4189C119.474 66.1729 119.455 65.945 119.455 65.7354ZM119.674 62.5156L119.688 63.4043H118.409C118.049 63.4043 117.728 63.4339 117.446 63.4932C117.163 63.5479 116.926 63.6322 116.735 63.7461C116.543 63.86 116.397 64.0036 116.297 64.1768C116.197 64.3454 116.147 64.5436 116.147 64.7715C116.147 65.0039 116.199 65.2158 116.304 65.4072C116.409 65.5986 116.566 65.7513 116.776 65.8652C116.99 65.9746 117.252 66.0293 117.562 66.0293C117.949 66.0293 118.291 65.9473 118.587 65.7832C118.883 65.6191 119.118 65.4186 119.291 65.1816C119.469 64.9447 119.565 64.7145 119.578 64.4912L120.118 65.0996C120.086 65.291 120 65.5029 119.859 65.7354C119.717 65.9678 119.528 66.1911 119.291 66.4053C119.059 66.6149 118.781 66.7904 118.457 66.9316C118.138 67.0684 117.778 67.1367 117.377 67.1367C116.876 67.1367 116.436 67.0387 116.058 66.8428C115.684 66.6468 115.392 66.3848 115.183 66.0566C114.978 65.724 114.875 65.3525 114.875 64.9424C114.875 64.5459 114.953 64.1973 115.108 63.8965C115.263 63.5911 115.486 63.3382 115.778 63.1377C116.069 62.9326 116.42 62.7777 116.83 62.6729C117.24 62.568 117.698 62.5156 118.204 62.5156H119.674ZM128.072 59.6035V60.6494H124.496V59.6035H128.072ZM129.186 59.6035V67H127.921V59.6035H129.186ZM124.189 59.6035H125.46L125.269 63.1719C125.237 63.7233 125.185 64.2109 125.112 64.6348C125.043 65.054 124.948 65.4141 124.824 65.7148C124.706 66.0156 124.556 66.2617 124.373 66.4531C124.196 66.64 123.981 66.779 123.731 66.8701C123.48 66.9567 123.191 67 122.863 67H122.466V65.8857L122.74 65.8652C122.935 65.8516 123.102 65.806 123.239 65.7285C123.38 65.651 123.498 65.5371 123.594 65.3867C123.69 65.2318 123.767 65.0335 123.826 64.792C123.89 64.5505 123.938 64.2633 123.97 63.9307C124.006 63.598 124.034 63.2106 124.052 62.7686L124.189 59.6035ZM133.017 59.6035V67H131.745V59.6035H133.017ZM131.65 57.6416C131.65 57.4365 131.711 57.2633 131.834 57.1221C131.962 56.9808 132.149 56.9102 132.395 56.9102C132.636 56.9102 132.821 56.9808 132.949 57.1221C133.081 57.2633 133.147 57.4365 133.147 57.6416C133.147 57.8376 133.081 58.0062 132.949 58.1475C132.821 58.2842 132.636 58.3525 132.395 58.3525C132.149 58.3525 131.962 58.2842 131.834 58.1475C131.711 58.0062 131.65 57.8376 131.65 57.6416ZM138.229 63.4658H136.869V62.6865H138.126C138.477 62.6865 138.755 62.6432 138.96 62.5566C139.165 62.4655 139.311 62.3402 139.398 62.1807C139.484 62.0212 139.528 61.8343 139.528 61.6201C139.528 61.4287 139.478 61.2487 139.377 61.0801C139.282 60.9069 139.127 60.7679 138.913 60.6631C138.698 60.5537 138.411 60.499 138.051 60.499C137.76 60.499 137.495 60.5514 137.258 60.6562C137.021 60.7565 136.832 60.8955 136.691 61.0732C136.554 61.2464 136.486 61.4424 136.486 61.6611H135.221C135.221 61.21 135.349 60.8226 135.604 60.499C135.864 60.1709 136.208 59.918 136.636 59.7402C137.069 59.5625 137.541 59.4736 138.051 59.4736C138.48 59.4736 138.862 59.5215 139.2 59.6172C139.541 59.7083 139.831 59.8451 140.068 60.0273C140.305 60.2051 140.485 60.4284 140.608 60.6973C140.735 60.9616 140.799 61.2692 140.799 61.6201C140.799 61.8708 140.74 62.1077 140.622 62.3311C140.503 62.5544 140.332 62.7526 140.109 62.9258C139.886 63.0944 139.614 63.2266 139.295 63.3223C138.981 63.418 138.625 63.4658 138.229 63.4658ZM136.869 62.9873H138.229C138.671 62.9873 139.061 63.0306 139.398 63.1172C139.735 63.1992 140.018 63.3223 140.246 63.4863C140.473 63.6504 140.644 63.8532 140.758 64.0947C140.877 64.3317 140.936 64.6051 140.936 64.915C140.936 65.2614 140.865 65.5736 140.724 65.8516C140.587 66.125 140.391 66.3574 140.136 66.5488C139.881 66.7402 139.576 66.8861 139.22 66.9863C138.869 67.0866 138.48 67.1367 138.051 67.1367C137.573 67.1367 137.108 67.0547 136.657 66.8906C136.206 66.7266 135.834 66.4736 135.542 66.1318C135.251 65.7855 135.105 65.3457 135.105 64.8125H136.37C136.37 65.0358 136.44 65.2477 136.581 65.4482C136.723 65.6488 136.919 65.8105 137.169 65.9336C137.425 66.0566 137.719 66.1182 138.051 66.1182C138.407 66.1182 138.703 66.0635 138.94 65.9541C139.177 65.8447 139.355 65.6989 139.473 65.5166C139.596 65.3343 139.658 65.1361 139.658 64.9219C139.658 64.6439 139.603 64.4206 139.494 64.252C139.384 64.0833 139.216 63.9603 138.988 63.8828C138.764 63.8008 138.477 63.7598 138.126 63.7598H136.869V62.9873ZM147.358 65.7354V61.9277C147.358 61.6361 147.299 61.3831 147.18 61.1689C147.066 60.9502 146.893 60.7816 146.661 60.6631C146.428 60.5446 146.141 60.4854 145.799 60.4854C145.48 60.4854 145.2 60.54 144.959 60.6494C144.722 60.7588 144.535 60.9023 144.398 61.0801C144.266 61.2578 144.2 61.4492 144.2 61.6543H142.935C142.935 61.39 143.003 61.1279 143.14 60.8682C143.277 60.6084 143.473 60.3737 143.728 60.1641C143.988 59.9499 144.298 59.7812 144.658 59.6582C145.022 59.5306 145.428 59.4668 145.875 59.4668C146.412 59.4668 146.886 59.5579 147.296 59.7402C147.711 59.9225 148.035 60.1982 148.267 60.5674C148.504 60.932 148.623 61.39 148.623 61.9414V65.3867C148.623 65.6328 148.643 65.8949 148.684 66.1729C148.73 66.4508 148.796 66.6901 148.882 66.8906V67H147.563C147.499 66.8542 147.449 66.6605 147.413 66.4189C147.376 66.1729 147.358 65.945 147.358 65.7354ZM147.577 62.5156L147.59 63.4043H146.312C145.952 63.4043 145.631 63.4339 145.348 63.4932C145.066 63.5479 144.829 63.6322 144.637 63.7461C144.446 63.86 144.3 64.0036 144.2 64.1768C144.099 64.3454 144.049 64.5436 144.049 64.7715C144.049 65.0039 144.102 65.2158 144.207 65.4072C144.311 65.5986 144.469 65.7513 144.678 65.8652C144.892 65.9746 145.154 66.0293 145.464 66.0293C145.852 66.0293 146.194 65.9473 146.49 65.7832C146.786 65.6191 147.021 65.4186 147.194 65.1816C147.372 64.9447 147.467 64.7145 147.481 64.4912L148.021 65.0996C147.989 65.291 147.903 65.5029 147.761 65.7354C147.62 65.9678 147.431 66.1911 147.194 66.4053C146.961 66.6149 146.683 66.7904 146.36 66.9316C146.041 67.0684 145.681 67.1367 145.28 67.1367C144.778 67.1367 144.339 67.0387 143.96 66.8428C143.587 66.6468 143.295 66.3848 143.085 66.0566C142.88 65.724 142.778 65.3525 142.778 64.9424C142.778 64.5459 142.855 64.1973 143.01 63.8965C143.165 63.5911 143.389 63.3382 143.68 63.1377C143.972 62.9326 144.323 62.7777 144.733 62.6729C145.143 62.568 145.601 62.5156 146.107 62.5156H147.577ZM151.141 67V59.6035H152.406V65.9609H155.81V59.6035H157.082V67H151.141ZM157.957 65.9609L157.834 69.1943H156.706V67H155.742V65.9609H157.957ZM161.125 59.6035V67H159.853V59.6035H161.125ZM159.758 57.6416C159.758 57.4365 159.819 57.2633 159.942 57.1221C160.07 56.9808 160.257 56.9102 160.503 56.9102C160.744 56.9102 160.929 56.9808 161.056 57.1221C161.188 57.2633 161.255 57.4365 161.255 57.6416C161.255 57.8376 161.188 58.0062 161.056 58.1475C160.929 58.2842 160.744 58.3525 160.503 58.3525C160.257 58.3525 160.07 58.2842 159.942 58.1475C159.819 58.0062 159.758 57.8376 159.758 57.6416ZM165.072 63.4727H166.439L164.3 67H162.932L165.072 63.4727ZM166.132 59.6035H169.221V67H167.957V60.6289H166.132C165.772 60.6289 165.478 60.6904 165.25 60.8135C165.022 60.932 164.856 61.0869 164.751 61.2783C164.646 61.4697 164.594 61.668 164.594 61.873C164.594 62.0736 164.641 62.2673 164.737 62.4541C164.833 62.6364 164.983 62.7868 165.188 62.9053C165.393 63.0238 165.658 63.083 165.981 63.083H168.299V64.1221H165.981C165.557 64.1221 165.181 64.0651 164.853 63.9512C164.525 63.8372 164.247 63.68 164.019 63.4795C163.791 63.2744 163.618 63.0352 163.5 62.7617C163.381 62.4837 163.322 62.1829 163.322 61.8594C163.322 61.5358 163.384 61.2373 163.507 60.9639C163.634 60.6904 163.817 60.4512 164.053 60.2461C164.295 60.041 164.589 59.8838 164.935 59.7744C165.286 59.6605 165.685 59.6035 166.132 59.6035ZM180.5 59.6035V60.6494H176.761V59.6035H180.5ZM176.945 59.6035V67H175.681V59.6035H176.945ZM181.621 59.6035V67H180.35V59.6035H181.621ZM189.014 59.6035V60.6494H185.438V59.6035H189.014ZM190.128 59.6035V67H188.863V59.6035H190.128ZM185.131 59.6035H186.402L186.211 63.1719C186.179 63.7233 186.127 64.2109 186.054 64.6348C185.985 65.054 185.89 65.4141 185.767 65.7148C185.648 66.0156 185.498 66.2617 185.315 66.4531C185.138 66.64 184.924 66.779 184.673 66.8701C184.422 66.9567 184.133 67 183.805 67H183.408V65.8857L183.682 65.8652C183.878 65.8516 184.044 65.806 184.181 65.7285C184.322 65.651 184.44 65.5371 184.536 65.3867C184.632 65.2318 184.709 65.0335 184.769 64.792C184.832 64.5505 184.88 64.2633 184.912 63.9307C184.949 63.598 184.976 63.2106 184.994 62.7686L185.131 59.6035ZM196.946 65.7354V61.9277C196.946 61.6361 196.887 61.3831 196.769 61.1689C196.655 60.9502 196.482 60.7816 196.249 60.6631C196.017 60.5446 195.73 60.4854 195.388 60.4854C195.069 60.4854 194.788 60.54 194.547 60.6494C194.31 60.7588 194.123 60.9023 193.986 61.0801C193.854 61.2578 193.788 61.4492 193.788 61.6543H192.524C192.524 61.39 192.592 61.1279 192.729 60.8682C192.865 60.6084 193.061 60.3737 193.316 60.1641C193.576 59.9499 193.886 59.7812 194.246 59.6582C194.611 59.5306 195.016 59.4668 195.463 59.4668C196.001 59.4668 196.475 59.5579 196.885 59.7402C197.3 59.9225 197.623 60.1982 197.856 60.5674C198.093 60.932 198.211 61.39 198.211 61.9414V65.3867C198.211 65.6328 198.232 65.8949 198.273 66.1729C198.318 66.4508 198.384 66.6901 198.471 66.8906V67H197.151C197.088 66.8542 197.038 66.6605 197.001 66.4189C196.965 66.1729 196.946 65.945 196.946 65.7354ZM197.165 62.5156L197.179 63.4043H195.9C195.54 63.4043 195.219 63.4339 194.937 63.4932C194.654 63.5479 194.417 63.6322 194.226 63.7461C194.034 63.86 193.888 64.0036 193.788 64.1768C193.688 64.3454 193.638 64.5436 193.638 64.7715C193.638 65.0039 193.69 65.2158 193.795 65.4072C193.9 65.5986 194.057 65.7513 194.267 65.8652C194.481 65.9746 194.743 66.0293 195.053 66.0293C195.44 66.0293 195.782 65.9473 196.078 65.7832C196.374 65.6191 196.609 65.4186 196.782 65.1816C196.96 64.9447 197.056 64.7145 197.069 64.4912L197.609 65.0996C197.578 65.291 197.491 65.5029 197.35 65.7354C197.208 65.9678 197.019 66.1911 196.782 66.4053C196.55 66.6149 196.272 66.7904 195.948 66.9316C195.629 67.0684 195.269 67.1367 194.868 67.1367C194.367 67.1367 193.927 67.0387 193.549 66.8428C193.175 66.6468 192.884 66.3848 192.674 66.0566C192.469 65.724 192.366 65.3525 192.366 64.9424C192.366 64.5459 192.444 64.1973 192.599 63.8965C192.754 63.5911 192.977 63.3382 193.269 63.1377C193.56 62.9326 193.911 62.7777 194.321 62.6729C194.732 62.568 195.19 62.5156 195.695 62.5156H197.165ZM205.638 62.8096V63.835H201.728V62.8096H205.638ZM201.994 59.6035V67H200.73V59.6035H201.994ZM206.663 59.6035V67H205.392V59.6035H206.663ZM208.785 63.3838V63.2266C208.785 62.6934 208.863 62.1989 209.018 61.7432C209.173 61.2829 209.396 60.8841 209.688 60.5469C209.979 60.2051 210.333 59.9408 210.747 59.7539C211.162 59.5625 211.627 59.4668 212.142 59.4668C212.661 59.4668 213.128 59.5625 213.543 59.7539C213.962 59.9408 214.318 60.2051 214.61 60.5469C214.906 60.8841 215.131 61.2829 215.286 61.7432C215.441 62.1989 215.519 62.6934 215.519 63.2266V63.3838C215.519 63.917 215.441 64.4115 215.286 64.8672C215.131 65.3229 214.906 65.7217 214.61 66.0635C214.318 66.4007 213.965 66.665 213.55 66.8564C213.14 67.0433 212.675 67.1367 212.156 67.1367C211.636 67.1367 211.169 67.0433 210.754 66.8564C210.339 66.665 209.984 66.4007 209.688 66.0635C209.396 65.7217 209.173 65.3229 209.018 64.8672C208.863 64.4115 208.785 63.917 208.785 63.3838ZM210.05 63.2266V63.3838C210.05 63.7529 210.093 64.1016 210.18 64.4297C210.267 64.7533 210.396 65.0404 210.57 65.291C210.747 65.5417 210.968 65.7399 211.233 65.8857C211.497 66.027 211.805 66.0977 212.156 66.0977C212.502 66.0977 212.805 66.027 213.065 65.8857C213.329 65.7399 213.548 65.5417 213.721 65.291C213.894 65.0404 214.024 64.7533 214.111 64.4297C214.202 64.1016 214.247 63.7529 214.247 63.3838V63.2266C214.247 62.862 214.202 62.5179 214.111 62.1943C214.024 61.8662 213.892 61.5768 213.714 61.3262C213.541 61.071 213.322 60.8704 213.058 60.7246C212.798 60.5788 212.493 60.5059 212.142 60.5059C211.795 60.5059 211.49 60.5788 211.226 60.7246C210.966 60.8704 210.747 61.071 210.57 61.3262C210.396 61.5768 210.267 61.8662 210.18 62.1943C210.093 62.5179 210.05 62.862 210.05 63.2266ZM220.997 63.7461H218.571L218.557 62.7344H220.539C220.931 62.7344 221.257 62.6956 221.517 62.6182C221.781 62.5407 221.979 62.4245 222.112 62.2695C222.244 62.1146 222.31 61.9232 222.31 61.6953C222.31 61.5176 222.271 61.3626 222.194 61.2305C222.121 61.0938 222.009 60.9821 221.859 60.8955C221.708 60.8044 221.521 60.7383 221.298 60.6973C221.079 60.6517 220.822 60.6289 220.526 60.6289H218.906V67H217.641V59.6035H220.526C220.995 59.6035 221.417 59.6445 221.79 59.7266C222.169 59.8086 222.49 59.9339 222.754 60.1025C223.023 60.2666 223.228 60.4762 223.369 60.7314C223.511 60.9867 223.581 61.2874 223.581 61.6338C223.581 61.8571 223.536 62.069 223.445 62.2695C223.353 62.4701 223.219 62.6478 223.041 62.8027C222.864 62.9577 222.645 63.0853 222.385 63.1855C222.125 63.2812 221.827 63.3428 221.49 63.3701L220.997 63.7461ZM220.997 67H218.113L218.742 65.9746H220.997C221.348 65.9746 221.64 65.9313 221.872 65.8447C222.105 65.7536 222.278 65.626 222.392 65.4619C222.51 65.2933 222.57 65.0928 222.57 64.8604C222.57 64.6279 222.51 64.4297 222.392 64.2656C222.278 64.097 222.105 63.9694 221.872 63.8828C221.64 63.7917 221.348 63.7461 220.997 63.7461H219.076L219.09 62.7344H221.49L221.948 63.1172C222.353 63.1491 222.697 63.2493 222.98 63.418C223.262 63.5866 223.477 63.8008 223.622 64.0605C223.768 64.3158 223.841 64.5938 223.841 64.8945C223.841 65.2409 223.775 65.5462 223.643 65.8105C223.515 66.0749 223.328 66.2959 223.082 66.4736C222.836 66.6468 222.538 66.779 222.187 66.8701C221.836 66.9567 221.439 67 220.997 67ZM227.324 64.9971L230.735 59.6035H232.006V67H230.735V61.6064L227.324 67H226.066V59.6035H227.324V64.9971ZM235.311 59.6035L236.931 62.2969L238.572 59.6035H240.055L237.635 63.2539L240.13 67H238.667L236.958 64.2246L235.249 67H233.78L236.268 63.2539L233.855 59.6035H235.311ZM3.72559 87.4658H2.36523V86.6865H3.62305C3.97396 86.6865 4.25195 86.6432 4.45703 86.5566C4.66211 86.4655 4.80794 86.3402 4.89453 86.1807C4.98112 86.0212 5.02441 85.8343 5.02441 85.6201C5.02441 85.4287 4.97428 85.2487 4.87402 85.0801C4.77832 84.9069 4.62337 84.7679 4.40918 84.6631C4.19499 84.5537 3.90788 84.499 3.54785 84.499C3.25618 84.499 2.99186 84.5514 2.75488 84.6562C2.5179 84.7565 2.32878 84.8955 2.1875 85.0732C2.05078 85.2464 1.98242 85.4424 1.98242 85.6611H0.717773C0.717773 85.21 0.845378 84.8226 1.10059 84.499C1.36035 84.1709 1.70443 83.918 2.13281 83.7402C2.56576 83.5625 3.03743 83.4736 3.54785 83.4736C3.97624 83.4736 4.35905 83.5215 4.69629 83.6172C5.03809 83.7083 5.32747 83.8451 5.56445 84.0273C5.80143 84.2051 5.98145 84.4284 6.10449 84.6973C6.2321 84.9616 6.2959 85.2692 6.2959 85.6201C6.2959 85.8708 6.23665 86.1077 6.11816 86.3311C5.99967 86.5544 5.82878 86.7526 5.60547 86.9258C5.38216 87.0944 5.111 87.2266 4.79199 87.3223C4.47754 87.418 4.12207 87.4658 3.72559 87.4658ZM2.36523 86.9873H3.72559C4.16764 86.9873 4.55729 87.0306 4.89453 87.1172C5.23177 87.1992 5.51432 87.3223 5.74219 87.4863C5.97005 87.6504 6.14095 87.8532 6.25488 88.0947C6.37337 88.3317 6.43262 88.6051 6.43262 88.915C6.43262 89.2614 6.36198 89.5736 6.2207 89.8516C6.08398 90.125 5.88802 90.3574 5.63281 90.5488C5.3776 90.7402 5.07227 90.8861 4.7168 90.9863C4.36589 91.0866 3.97624 91.1367 3.54785 91.1367C3.06934 91.1367 2.60449 91.0547 2.15332 90.8906C1.70215 90.7266 1.33073 90.4736 1.03906 90.1318C0.747396 89.7855 0.601562 89.3457 0.601562 88.8125H1.86621C1.86621 89.0358 1.93685 89.2477 2.07812 89.4482C2.2194 89.6488 2.41536 89.8105 2.66602 89.9336C2.92122 90.0566 3.21517 90.1182 3.54785 90.1182C3.90332 90.1182 4.19954 90.0635 4.43652 89.9541C4.6735 89.8447 4.85124 89.6989 4.96973 89.5166C5.09277 89.3343 5.1543 89.1361 5.1543 88.9219C5.1543 88.6439 5.09961 88.4206 4.99023 88.252C4.88086 88.0833 4.71224 87.9603 4.48438 87.8828C4.26107 87.8008 3.97396 87.7598 3.62305 87.7598H2.36523V86.9873ZM12.8546 89.7354V85.9277C12.8546 85.6361 12.7953 85.3831 12.6768 85.1689C12.5629 84.9502 12.3897 84.7816 12.1573 84.6631C11.9249 84.5446 11.6378 84.4854 11.296 84.4854C10.977 84.4854 10.6967 84.54 10.4552 84.6494C10.2182 84.7588 10.0313 84.9023 9.89461 85.0801C9.76245 85.2578 9.69637 85.4492 9.69637 85.6543H8.43172C8.43172 85.39 8.50008 85.1279 8.6368 84.8682C8.77352 84.6084 8.96948 84.3737 9.22469 84.1641C9.48445 83.9499 9.79435 83.7812 10.1544 83.6582C10.519 83.5306 10.9246 83.4668 11.3712 83.4668C11.9089 83.4668 12.3829 83.5579 12.793 83.7402C13.2078 83.9225 13.5313 84.1982 13.7638 84.5674C14.0007 84.932 14.1192 85.39 14.1192 85.9414V89.3867C14.1192 89.6328 14.1397 89.8949 14.1807 90.1729C14.2263 90.4508 14.2924 90.6901 14.379 90.8906V91H13.0596C12.9958 90.8542 12.9457 90.6605 12.9093 90.4189C12.8728 90.1729 12.8546 89.945 12.8546 89.7354ZM13.0733 86.5156L13.087 87.4043H11.8087C11.4486 87.4043 11.1274 87.4339 10.8448 87.4932C10.5623 87.5479 10.3253 87.6322 10.1339 87.7461C9.94246 87.86 9.79663 88.0036 9.69637 88.1768C9.59611 88.3454 9.54598 88.5436 9.54598 88.7715C9.54598 89.0039 9.59839 89.2158 9.7032 89.4072C9.80802 89.5986 9.96525 89.7513 10.1749 89.8652C10.3891 89.9746 10.6511 90.0293 10.961 90.0293C11.3484 90.0293 11.6902 89.9473 11.9864 89.7832C12.2826 89.6191 12.5173 89.4186 12.6905 89.1816C12.8682 88.9447 12.9639 88.7145 12.9776 88.4912L13.5177 89.0996C13.4858 89.291 13.3992 89.5029 13.2579 89.7354C13.1166 89.9678 12.9275 90.1911 12.6905 90.4053C12.4581 90.6149 12.1801 90.7904 11.8565 90.9316C11.5375 91.0684 11.1775 91.1367 10.7764 91.1367C10.2751 91.1367 9.83536 91.0387 9.45711 90.8428C9.08341 90.6468 8.79174 90.3848 8.58211 90.0566C8.37703 89.724 8.27449 89.3525 8.27449 88.9424C8.27449 88.5459 8.35197 88.1973 8.50691 87.8965C8.66186 87.5911 8.88517 87.3382 9.17684 87.1377C9.4685 86.9326 9.81941 86.7777 10.2296 86.6729C10.6397 86.568 11.0977 86.5156 11.6036 86.5156H13.0733ZM20.0011 87.7461H17.5744L17.5607 86.7344H19.5431C19.9351 86.7344 20.2609 86.6956 20.5207 86.6182C20.785 86.5407 20.9832 86.4245 21.1154 86.2695C21.2476 86.1146 21.3136 85.9232 21.3136 85.6953C21.3136 85.5176 21.2749 85.3626 21.1974 85.2305C21.1245 85.0938 21.0129 84.9821 20.8625 84.8955C20.7121 84.8044 20.5252 84.7383 20.3019 84.6973C20.0832 84.6517 19.8257 84.6289 19.5295 84.6289H17.9093V91H16.6447V83.6035H19.5295C19.9989 83.6035 20.4204 83.6445 20.7941 83.7266C21.1724 83.8086 21.4936 83.9339 21.758 84.1025C22.0268 84.2666 22.2319 84.4762 22.3732 84.7314C22.5145 84.9867 22.5851 85.2874 22.5851 85.6338C22.5851 85.8571 22.5395 86.069 22.4484 86.2695C22.3573 86.4701 22.2228 86.6478 22.0451 86.8027C21.8673 86.9577 21.6486 87.0853 21.3888 87.1855C21.1291 87.2812 20.8306 87.3428 20.4933 87.3701L20.0011 87.7461ZM20.0011 91H17.1164L17.7453 89.9746H20.0011C20.352 89.9746 20.6437 89.9313 20.8761 89.8447C21.1086 89.7536 21.2817 89.626 21.3957 89.4619C21.5142 89.2933 21.5734 89.0928 21.5734 88.8604C21.5734 88.6279 21.5142 88.4297 21.3957 88.2656C21.2817 88.097 21.1086 87.9694 20.8761 87.8828C20.6437 87.7917 20.352 87.7461 20.0011 87.7461H18.0802L18.0939 86.7344H20.4933L20.9513 87.1172C21.3569 87.1491 21.701 87.2493 21.9836 87.418C22.2661 87.5866 22.4803 87.8008 22.6261 88.0605C22.772 88.3158 22.8449 88.5938 22.8449 88.8945C22.8449 89.2409 22.7788 89.5462 22.6466 89.8105C22.519 90.0749 22.3322 90.2959 22.0861 90.4736C21.84 90.6468 21.5415 90.779 21.1906 90.8701C20.8397 90.9567 20.4432 91 20.0011 91ZM26.2932 83.6035H27.5579L27.4485 86.3721C27.4211 87.0739 27.3414 87.68 27.2092 88.1904C27.0771 88.7008 26.9084 89.1361 26.7034 89.4961C26.4983 89.8516 26.2681 90.1501 26.0129 90.3916C25.7623 90.6331 25.5025 90.8359 25.2336 91H24.6047L24.6389 89.9678L24.8987 89.9609C25.0491 89.7832 25.1949 89.6009 25.3362 89.4141C25.4774 89.2227 25.6073 88.9971 25.7258 88.7373C25.8443 88.473 25.9423 88.1517 26.0198 87.7734C26.1018 87.3906 26.1542 86.9235 26.177 86.3721L26.2932 83.6035ZM26.6077 83.6035H31.0579V91H29.7932V84.7725H26.6077V83.6035ZM24.3176 89.9609H32.008V93.1807H30.7434V91H25.5823V93.1807H24.3108L24.3176 89.9609ZM38.1907 89.7354V85.9277C38.1907 85.6361 38.1315 85.3831 38.013 85.1689C37.8991 84.9502 37.7259 84.7816 37.4935 84.6631C37.2611 84.5446 36.9739 84.4854 36.6321 84.4854C36.3131 84.4854 36.0329 84.54 35.7913 84.6494C35.5543 84.7588 35.3675 84.9023 35.2308 85.0801C35.0986 85.2578 35.0325 85.4492 35.0325 85.6543H33.7679C33.7679 85.39 33.8363 85.1279 33.973 84.8682C34.1097 84.6084 34.3057 84.3737 34.5609 84.1641C34.8206 83.9499 35.1305 83.7812 35.4905 83.6582C35.8551 83.5306 36.2607 83.4668 36.7073 83.4668C37.2451 83.4668 37.7191 83.5579 38.1292 83.7402C38.5439 83.9225 38.8675 84.1982 39.0999 84.5674C39.3369 84.932 39.4554 85.39 39.4554 85.9414V89.3867C39.4554 89.6328 39.4759 89.8949 39.5169 90.1729C39.5625 90.4508 39.6286 90.6901 39.7152 90.8906V91H38.3958C38.332 90.8542 38.2819 90.6605 38.2454 90.4189C38.209 90.1729 38.1907 89.945 38.1907 89.7354ZM38.4095 86.5156L38.4232 87.4043H37.1448C36.7848 87.4043 36.4635 87.4339 36.181 87.4932C35.8984 87.5479 35.6614 87.6322 35.47 87.7461C35.2786 87.86 35.1328 88.0036 35.0325 88.1768C34.9323 88.3454 34.8821 88.5436 34.8821 88.7715C34.8821 89.0039 34.9346 89.2158 35.0394 89.4072C35.1442 89.5986 35.3014 89.7513 35.5111 89.8652C35.7252 89.9746 35.9873 90.0293 36.2972 90.0293C36.6846 90.0293 37.0264 89.9473 37.3226 89.7832C37.6188 89.6191 37.8535 89.4186 38.0267 89.1816C38.2044 88.9447 38.3001 88.7145 38.3138 88.4912L38.8538 89.0996C38.8219 89.291 38.7353 89.5029 38.5941 89.7354C38.4528 89.9678 38.2637 90.1911 38.0267 90.4053C37.7943 90.6149 37.5163 90.7904 37.1927 90.9316C36.8737 91.0684 36.5137 91.1367 36.1126 91.1367C35.6113 91.1367 35.1715 91.0387 34.7933 90.8428C34.4196 90.6468 34.1279 90.3848 33.9183 90.0566C33.7132 89.724 33.6107 89.3525 33.6107 88.9424C33.6107 88.5459 33.6881 88.1973 33.8431 87.8965C33.998 87.5911 34.2213 87.3382 34.513 87.1377C34.8047 86.9326 35.1556 86.7777 35.5657 86.6729C35.9759 86.568 36.4339 86.5156 36.9398 86.5156H38.4095ZM46.8822 86.8096V87.835H42.9721V86.8096H46.8822ZM43.2387 83.6035V91H41.974V83.6035H43.2387ZM47.9076 83.6035V91H46.6361V83.6035H47.9076ZM51.4038 86.1465H53.6255C54.2225 86.1465 54.7261 86.2513 55.1362 86.4609C55.5464 86.666 55.8563 86.9508 56.0659 87.3154C56.2801 87.6755 56.3872 88.0856 56.3872 88.5459C56.3872 88.8877 56.3279 89.209 56.2095 89.5098C56.091 89.806 55.9132 90.0658 55.6763 90.2891C55.4438 90.5124 55.1544 90.6878 54.8081 90.8154C54.4663 90.9385 54.0721 91 53.6255 91H50.4809V83.6035H51.7456V89.9609H53.6255C53.9901 89.9609 54.2817 89.8949 54.5005 89.7627C54.7192 89.6305 54.8764 89.4596 54.9721 89.25C55.0679 89.0404 55.1157 88.8216 55.1157 88.5938C55.1157 88.3704 55.0679 88.1517 54.9721 87.9375C54.8764 87.7233 54.7192 87.5456 54.5005 87.4043C54.2817 87.2585 53.9901 87.1855 53.6255 87.1855H51.4038V86.1465ZM58.4068 90.3301C58.4068 90.1159 58.4729 89.9359 58.605 89.79C58.7418 89.6396 58.9377 89.5645 59.1929 89.5645C59.4481 89.5645 59.6418 89.6396 59.774 89.79C59.9107 89.9359 59.9791 90.1159 59.9791 90.3301C59.9791 90.5397 59.9107 90.7174 59.774 90.8633C59.6418 91.0091 59.4481 91.082 59.1929 91.082C58.9377 91.082 58.7418 91.0091 58.605 90.8633C58.4729 90.7174 58.4068 90.5397 58.4068 90.3301Z" fill="#757575"/>
</svg>
