<svg width="270" height="74" viewBox="0 0 270 74" fill="none" xmlns="http://www.w3.org/2000/svg">
<path d="M8.99609 3.04688V13H6.94531V4.65332H2.94629V13H0.895508V3.04688H8.99609ZM14.3311 9.39062L16.7784 3.04688H18.9864L15.5753 11.0723C15.4568 11.3457 15.3201 11.6077 15.1651 11.8584C15.0147 12.1045 14.8347 12.3255 14.6251 12.5215C14.4154 12.7129 14.1648 12.8656 13.8731 12.9795C13.5815 13.0889 13.2328 13.1436 12.8272 13.1436C12.727 13.1436 12.6039 13.1413 12.4581 13.1367C12.3123 13.1322 12.196 13.1253 12.1095 13.1162L12.0958 11.5166C12.1505 11.5303 12.2371 11.5394 12.3555 11.5439C12.474 11.5439 12.5606 11.5439 12.6153 11.5439C12.8842 11.5439 13.0961 11.5052 13.2511 11.4277C13.406 11.3503 13.529 11.2409 13.6202 11.0996C13.7159 10.9538 13.8002 10.7829 13.8731 10.5869L14.3311 9.39062ZM12.711 3.04688L14.9805 7.97559L15.6163 10.2383L14.0919 10.2656L10.5098 3.04688H12.711ZM27.1105 7.10059V8.7002H21.9152V7.10059H27.1105ZM22.5236 3.04688V13H20.4728V3.04688H22.5236ZM28.5734 3.04688V13H26.5295V3.04688H28.5734ZM32.8352 3.04688V13H30.7844V3.04688H32.8352ZM38.7004 3.04688L34.886 8.8916H32.3772L32.1174 7.06641H33.7922L36.2121 3.04688H38.7004ZM36.5881 13L33.7991 8.5498L35.2209 7.08691L39.0217 13H36.5881ZM44.6986 3.04688V13H42.6546V3.04688H44.6986ZM47.7611 3.04688V4.65332H39.64V3.04688H47.7611ZM52.474 9.39062L54.9213 3.04688H57.1293L53.7182 11.0723C53.5997 11.3457 53.463 11.6077 53.308 11.8584C53.1576 12.1045 52.9776 12.3255 52.768 12.5215C52.5583 12.7129 52.3077 12.8656 52.016 12.9795C51.7243 13.0889 51.3757 13.1436 50.9701 13.1436C50.8699 13.1436 50.7468 13.1413 50.601 13.1367C50.4551 13.1322 50.3389 13.1253 50.2523 13.1162L50.2387 11.5166C50.2934 11.5303 50.3799 11.5394 50.4984 11.5439C50.6169 11.5439 50.7035 11.5439 50.7582 11.5439C51.0271 11.5439 51.239 11.5052 51.3939 11.4277C51.5489 11.3503 51.6719 11.2409 51.7631 11.0996C51.8588 10.9538 51.9431 10.7829 52.016 10.5869L52.474 9.39062ZM50.8539 3.04688L53.1234 7.97559L53.7592 10.2383L52.2348 10.2656L48.6527 3.04688H50.8539ZM62.0337 4.74902L59.3266 13H57.146L60.8442 3.04688H62.2319L62.0337 4.74902ZM64.2827 13L61.5688 4.74902L61.3501 3.04688H62.7514L66.4702 13H64.2827ZM64.1596 9.29492V10.9014H58.9028V9.29492H64.1596ZM74.5738 3.04688V4.65332H69.6246V3.04688H74.5738ZM76.0367 3.04688V13H73.9859V3.04688H76.0367ZM69.3648 3.04688H71.4088L71.1558 8.04395C71.1194 8.79134 71.0487 9.44076 70.9439 9.99219C70.8436 10.5436 70.7069 11.013 70.5338 11.4004C70.3606 11.7832 70.1464 12.0931 69.8912 12.3301C69.6405 12.5625 69.3443 12.7334 69.0025 12.8428C68.6607 12.9476 68.2711 13 67.8336 13H67.3277V11.4004L67.5875 11.3799C67.8108 11.3571 68.0067 11.2979 68.1754 11.2021C68.344 11.1064 68.4875 10.9629 68.606 10.7715C68.7291 10.5801 68.8293 10.3363 68.9068 10.04C68.9888 9.73926 69.0526 9.3724 69.0982 8.93945C69.1483 8.50651 69.1825 8.00065 69.2007 7.42188L69.3648 3.04688ZM79.567 6.67676H81.8913C82.6751 6.67676 83.3496 6.80664 83.9147 7.06641C84.4798 7.32617 84.915 7.69076 85.2204 8.16016C85.5257 8.62956 85.6784 9.17643 85.6784 9.80078C85.6784 10.2747 85.5918 10.7077 85.4186 11.0996C85.2454 11.487 84.9925 11.8242 84.6598 12.1113C84.3317 12.3939 83.9352 12.6126 83.4704 12.7676C83.0055 12.9225 82.4791 13 81.8913 13H78.2272V3.04688H80.2848V11.4004H81.8913C82.2832 11.4004 82.6067 11.3275 82.862 11.1816C83.1172 11.0358 83.3086 10.8421 83.4362 10.6006C83.5683 10.3545 83.6344 10.0833 83.6344 9.78711C83.6344 9.50456 83.5683 9.24935 83.4362 9.02148C83.3086 8.78906 83.1172 8.60677 82.862 8.47461C82.6067 8.34245 82.2832 8.27637 81.8913 8.27637H79.567V6.67676ZM94.0486 7.10059V8.7002H88.8532V7.10059H94.0486ZM89.4616 3.04688V13H87.4109V3.04688H89.4616ZM95.5114 3.04688V13H93.4675V3.04688H95.5114ZM99.8963 3.04688V13H97.8523V3.04688H99.8963ZM108.007 9.69824H110.051C110.01 10.3682 109.825 10.9629 109.497 11.4824C109.173 12.002 108.72 12.4076 108.137 12.6992C107.558 12.9909 106.861 13.1367 106.045 13.1367C105.407 13.1367 104.835 13.0273 104.329 12.8086C103.823 12.5853 103.39 12.2663 103.03 11.8516C102.675 11.4368 102.404 10.9355 102.217 10.3477C102.03 9.75977 101.936 9.10124 101.936 8.37207V7.68164C101.936 6.95247 102.032 6.29395 102.224 5.70605C102.419 5.11361 102.697 4.61003 103.058 4.19531C103.422 3.7806 103.857 3.46159 104.363 3.23828C104.869 3.01497 105.434 2.90332 106.058 2.90332C106.888 2.90332 107.587 3.05371 108.157 3.35449C108.731 3.65527 109.176 4.06999 109.49 4.59863C109.809 5.12728 110.001 5.72884 110.064 6.40332H108.014C107.991 6.00228 107.911 5.66276 107.774 5.38477C107.638 5.10221 107.43 4.8903 107.152 4.74902C106.879 4.60319 106.514 4.53027 106.058 4.53027C105.717 4.53027 105.418 4.59408 105.163 4.72168C104.908 4.84928 104.694 5.04297 104.52 5.30273C104.347 5.5625 104.217 5.89062 104.131 6.28711C104.049 6.67904 104.008 7.13932 104.008 7.66797V8.37207C104.008 8.88704 104.046 9.34049 104.124 9.73242C104.201 10.1198 104.32 10.4479 104.479 10.7168C104.643 10.9811 104.853 11.1816 105.108 11.3184C105.368 11.4505 105.68 11.5166 106.045 11.5166C106.473 11.5166 106.826 11.4482 107.104 11.3115C107.382 11.1748 107.594 10.972 107.74 10.7031C107.891 10.4342 107.979 10.0993 108.007 9.69824ZM116.062 3.04688V13H114.019V3.04688H116.062ZM119.125 3.04688V4.65332H111.004V3.04688H119.125ZM122.149 6.67676H124.474C125.258 6.67676 125.932 6.80664 126.497 7.06641C127.062 7.32617 127.497 7.69076 127.803 8.16016C128.108 8.62956 128.261 9.17643 128.261 9.80078C128.261 10.2747 128.174 10.7077 128.001 11.0996C127.828 11.487 127.575 11.8242 127.242 12.1113C126.914 12.3939 126.518 12.6126 126.053 12.7676C125.588 12.9225 125.062 13 124.474 13H120.81V3.04688H122.867V11.4004H124.474C124.866 11.4004 125.189 11.3275 125.444 11.1816C125.7 11.0358 125.891 10.8421 126.019 10.6006C126.151 10.3545 126.217 10.0833 126.217 9.78711C126.217 9.50456 126.151 9.24935 126.019 9.02148C125.891 8.78906 125.7 8.60677 125.444 8.47461C125.189 8.34245 124.866 8.27637 124.474 8.27637H122.149V6.67676Z" fill="#212121"/>
<path d="M4.2041 38.2217H3.02148V37.3809H4.15625C4.65755 37.3809 5.06315 37.3102 5.37305 37.1689C5.68294 37.0277 5.90853 36.8317 6.0498 36.5811C6.19108 36.3304 6.26172 36.041 6.26172 35.7129C6.26172 35.3984 6.18424 35.1113 6.0293 34.8516C5.87435 34.5872 5.63509 34.3776 5.31152 34.2227C4.98796 34.0632 4.57096 33.9834 4.06055 33.9834C3.67773 33.9834 3.33138 34.0563 3.02148 34.2021C2.71159 34.3434 2.46549 34.5417 2.2832 34.7969C2.10091 35.0475 2.00977 35.3369 2.00977 35.665H0.69043C0.69043 35.2412 0.779297 34.8607 0.957031 34.5234C1.13477 34.1816 1.37858 33.8923 1.68848 33.6553C1.99837 33.4137 2.35612 33.2292 2.76172 33.1016C3.17188 32.974 3.60482 32.9102 4.06055 32.9102C4.59375 32.9102 5.07682 32.9717 5.50977 33.0947C5.94271 33.2132 6.31413 33.391 6.62402 33.6279C6.93392 33.8649 7.1709 34.1589 7.33496 34.5098C7.49902 34.8607 7.58105 35.2686 7.58105 35.7334C7.58105 36.0752 7.5013 36.3965 7.3418 36.6973C7.18229 36.998 6.95443 37.2624 6.6582 37.4902C6.36198 37.7181 6.00651 37.8981 5.5918 38.0303C5.17708 38.1579 4.71452 38.2217 4.2041 38.2217ZM3.02148 37.6406H4.2041C4.76465 37.6406 5.26367 37.6976 5.70117 37.8115C6.13867 37.9255 6.50781 38.0918 6.80859 38.3105C7.10938 38.5293 7.33724 38.8005 7.49219 39.124C7.65169 39.443 7.73145 39.8099 7.73145 40.2246C7.73145 40.6895 7.6403 41.1019 7.45801 41.4619C7.28027 41.8219 7.02734 42.1273 6.69922 42.3779C6.37109 42.6286 5.98145 42.8177 5.53027 42.9453C5.08366 43.0729 4.59375 43.1367 4.06055 43.1367C3.63216 43.1367 3.20833 43.082 2.78906 42.9727C2.37435 42.8587 1.99837 42.6855 1.66113 42.4531C1.32389 42.2161 1.05273 41.9154 0.847656 41.5508C0.647135 41.1862 0.546875 40.7487 0.546875 40.2383H1.86621C1.86621 40.571 1.95736 40.8763 2.13965 41.1543C2.3265 41.4323 2.58398 41.6556 2.91211 41.8242C3.24023 41.9883 3.62305 42.0703 4.06055 42.0703C4.56185 42.0703 4.98568 41.9928 5.33203 41.8379C5.68294 41.6784 5.94954 41.4619 6.13184 41.1885C6.31868 40.9105 6.41211 40.5983 6.41211 40.252C6.41211 39.9466 6.36198 39.6823 6.26172 39.459C6.16602 39.2311 6.02246 39.0443 5.83105 38.8984C5.64421 38.7526 5.40951 38.6455 5.12695 38.5771C4.84896 38.5042 4.52539 38.4678 4.15625 38.4678H3.02148V37.6406ZM14.0577 41.7354V37.9277C14.0577 37.6361 13.9985 37.3831 13.88 37.1689C13.766 36.9502 13.5929 36.7816 13.3604 36.6631C13.128 36.5446 12.8409 36.4854 12.4991 36.4854C12.1801 36.4854 11.8998 36.54 11.6583 36.6494C11.4213 36.7588 11.2345 36.9023 11.0977 37.0801C10.9656 37.2578 10.8995 37.4492 10.8995 37.6543H9.63484C9.63484 37.39 9.7032 37.1279 9.83992 36.8682C9.97664 36.6084 10.1726 36.3737 10.4278 36.1641C10.6876 35.9499 10.9975 35.7812 11.3575 35.6582C11.7221 35.5306 12.1277 35.4668 12.5743 35.4668C13.1121 35.4668 13.586 35.5579 13.9962 35.7402C14.4109 35.9225 14.7345 36.1982 14.9669 36.5674C15.2039 36.932 15.3223 37.39 15.3223 37.9414V41.3867C15.3223 41.6328 15.3429 41.8949 15.3839 42.1729C15.4294 42.4508 15.4955 42.6901 15.5821 42.8906V43H14.2628C14.199 42.8542 14.1488 42.6605 14.1124 42.4189C14.0759 42.1729 14.0577 41.945 14.0577 41.7354ZM14.2764 38.5156L14.2901 39.4043H13.0118C12.6518 39.4043 12.3305 39.4339 12.0479 39.4932C11.7654 39.5479 11.5284 39.6322 11.337 39.7461C11.1456 39.86 10.9998 40.0036 10.8995 40.1768C10.7992 40.3454 10.7491 40.5436 10.7491 40.7715C10.7491 41.0039 10.8015 41.2158 10.9063 41.4072C11.0111 41.5986 11.1684 41.7513 11.378 41.8652C11.5922 41.9746 11.8542 42.0293 12.1641 42.0293C12.5515 42.0293 12.8933 41.9473 13.1895 41.7832C13.4858 41.6191 13.7205 41.4186 13.8936 41.1816C14.0714 40.9447 14.1671 40.7145 14.1807 40.4912L14.7208 41.0996C14.6889 41.291 14.6023 41.5029 14.461 41.7354C14.3197 41.9678 14.1306 42.1911 13.8936 42.4053C13.6612 42.6149 13.3832 42.7904 13.0596 42.9316C12.7406 43.0684 12.3806 43.1367 11.9796 43.1367C11.4783 43.1367 11.0385 43.0387 10.6602 42.8428C10.2865 42.6468 9.99487 42.3848 9.78523 42.0566C9.58016 41.724 9.47762 41.3525 9.47762 40.9424C9.47762 40.5459 9.55509 40.1973 9.71004 39.8965C9.86499 39.5911 10.0883 39.3382 10.38 39.1377C10.6716 38.9326 11.0225 38.7777 11.4327 38.6729C11.8429 38.568 12.3009 38.5156 12.8067 38.5156H14.2764ZM21.2043 39.7461H18.7775L18.7638 38.7344H20.7463C21.1382 38.7344 21.464 38.6956 21.7238 38.6182C21.9881 38.5407 22.1864 38.4245 22.3185 38.2695C22.4507 38.1146 22.5168 37.9232 22.5168 37.6953C22.5168 37.5176 22.478 37.3626 22.4005 37.2305C22.3276 37.0938 22.216 36.9821 22.0656 36.8955C21.9152 36.8044 21.7283 36.7383 21.505 36.6973C21.2863 36.6517 21.0288 36.6289 20.7326 36.6289H19.1125V43H17.8478V35.6035H20.7326C21.202 35.6035 21.6235 35.6445 21.9972 35.7266C22.3755 35.8086 22.6968 35.9339 22.9611 36.1025C23.23 36.2666 23.4351 36.4762 23.5763 36.7314C23.7176 36.9867 23.7882 37.2874 23.7882 37.6338C23.7882 37.8571 23.7427 38.069 23.6515 38.2695C23.5604 38.4701 23.4259 38.6478 23.2482 38.8027C23.0705 38.9577 22.8517 39.0853 22.592 39.1855C22.3322 39.2812 22.0337 39.3428 21.6964 39.3701L21.2043 39.7461ZM21.2043 43H18.3195L18.9484 41.9746H21.2043C21.5552 41.9746 21.8468 41.9313 22.0793 41.8447C22.3117 41.7536 22.4849 41.626 22.5988 41.4619C22.7173 41.2933 22.7765 41.0928 22.7765 40.8604C22.7765 40.6279 22.7173 40.4297 22.5988 40.2656C22.4849 40.097 22.3117 39.9694 22.0793 39.8828C21.8468 39.7917 21.5552 39.7461 21.2043 39.7461H19.2834L19.297 38.7344H21.6964L22.1545 39.1172C22.5601 39.1491 22.9041 39.2493 23.1867 39.418C23.4692 39.5866 23.6834 39.8008 23.8293 40.0605C23.9751 40.3158 24.048 40.5938 24.048 40.8945C24.048 41.2409 23.9819 41.5462 23.8498 41.8105C23.7222 42.0749 23.5353 42.2959 23.2892 42.4736C23.0431 42.6468 22.7446 42.779 22.3937 42.8701C22.0428 42.9567 21.6463 43 21.2043 43ZM27.4963 35.6035H28.761L28.6516 38.3721C28.6243 39.0739 28.5445 39.68 28.4123 40.1904C28.2802 40.7008 28.1116 41.1361 27.9065 41.4961C27.7014 41.8516 27.4713 42.1501 27.2161 42.3916C26.9654 42.6331 26.7056 42.8359 26.4368 43H25.8079L25.842 41.9678L26.1018 41.9609C26.2522 41.7832 26.398 41.6009 26.5393 41.4141C26.6806 41.2227 26.8105 40.9971 26.9289 40.7373C27.0474 40.473 27.1454 40.1517 27.2229 39.7734C27.3049 39.3906 27.3573 38.9235 27.3801 38.3721L27.4963 35.6035ZM27.8108 35.6035H32.261V43H30.9963V36.7725H27.8108V35.6035ZM25.5207 41.9609H33.2112V45.1807H31.9465V43H26.7854V45.1807H25.5139L25.5207 41.9609ZM39.3939 41.7354V37.9277C39.3939 37.6361 39.3346 37.3831 39.2161 37.1689C39.1022 36.9502 38.929 36.7816 38.6966 36.6631C38.4642 36.5446 38.1771 36.4854 37.8353 36.4854C37.5163 36.4854 37.236 36.54 36.9945 36.6494C36.7575 36.7588 36.5706 36.9023 36.4339 37.0801C36.3017 37.2578 36.2357 37.4492 36.2357 37.6543H34.971C34.971 37.39 35.0394 37.1279 35.1761 36.8682C35.3128 36.6084 35.5088 36.3737 35.764 36.1641C36.0238 35.9499 36.3336 35.7812 36.6937 35.6582C37.0583 35.5306 37.4639 35.4668 37.9105 35.4668C38.4482 35.4668 38.9222 35.5579 39.3323 35.7402C39.7471 35.9225 40.0706 36.1982 40.303 36.5674C40.54 36.932 40.6585 37.39 40.6585 37.9414V41.3867C40.6585 41.6328 40.679 41.8949 40.72 42.1729C40.7656 42.4508 40.8317 42.6901 40.9183 42.8906V43H39.5989C39.5351 42.8542 39.485 42.6605 39.4486 42.4189C39.4121 42.1729 39.3939 41.945 39.3939 41.7354ZM39.6126 38.5156L39.6263 39.4043H38.348C37.9879 39.4043 37.6667 39.4339 37.3841 39.4932C37.1015 39.5479 36.8646 39.6322 36.6732 39.7461C36.4818 39.86 36.3359 40.0036 36.2357 40.1768C36.1354 40.3454 36.0853 40.5436 36.0853 40.7715C36.0853 41.0039 36.1377 41.2158 36.2425 41.4072C36.3473 41.5986 36.5045 41.7513 36.7142 41.8652C36.9284 41.9746 37.1904 42.0293 37.5003 42.0293C37.8877 42.0293 38.2295 41.9473 38.5257 41.7832C38.8219 41.6191 39.0566 41.4186 39.2298 41.1816C39.4075 40.9447 39.5032 40.7145 39.5169 40.4912L40.057 41.0996C40.0251 41.291 39.9385 41.5029 39.7972 41.7354C39.6559 41.9678 39.4668 42.1911 39.2298 42.4053C38.9974 42.6149 38.7194 42.7904 38.3958 42.9316C38.0768 43.0684 37.7168 43.1367 37.3157 43.1367C36.8144 43.1367 36.3747 43.0387 35.9964 42.8428C35.6227 42.6468 35.331 42.3848 35.1214 42.0566C34.9163 41.724 34.8138 41.3525 34.8138 40.9424C34.8138 40.5459 34.8913 40.1973 35.0462 39.8965C35.2012 39.5911 35.4245 39.3382 35.7161 39.1377C36.0078 38.9326 36.3587 38.7777 36.7689 38.6729C37.179 38.568 37.637 38.5156 38.1429 38.5156H39.6126ZM48.0854 38.8096V39.835H44.1752V38.8096H48.0854ZM44.4418 35.6035V43H43.1771V35.6035H44.4418ZM49.1107 35.6035V43H47.8393V35.6035H49.1107ZM56.5854 38.8096V39.835H52.6753V38.8096H56.5854ZM52.9419 35.6035V43H51.6772V35.6035H52.9419ZM57.6108 35.6035V43H56.3393V35.6035H57.6108ZM61.565 39.4727H62.9322L60.7925 43H59.4254L61.565 39.4727ZM62.6246 35.6035H65.7144V43H64.4498V36.6289H62.6246C62.2645 36.6289 61.9706 36.6904 61.7427 36.8135C61.5149 36.932 61.3485 37.0869 61.2437 37.2783C61.1389 37.4697 61.0865 37.668 61.0865 37.873C61.0865 38.0736 61.1343 38.2673 61.23 38.4541C61.3257 38.6364 61.4761 38.7868 61.6812 38.9053C61.8863 39.0238 62.1506 39.083 62.4742 39.083H64.7916V40.1221H62.4742C62.0504 40.1221 61.6744 40.0651 61.3462 39.9512C61.0181 39.8372 60.7401 39.68 60.5123 39.4795C60.2844 39.2744 60.1112 39.0352 59.9927 38.7617C59.8742 38.4837 59.815 38.1829 59.815 37.8594C59.815 37.5358 59.8765 37.2373 59.9996 36.9639C60.1272 36.6904 60.3095 36.4512 60.5464 36.2461C60.788 36.041 61.0819 35.8838 61.4283 35.7744C61.7792 35.6605 62.178 35.6035 62.6246 35.6035ZM71.7292 39.3838V39.2266C71.7292 38.6934 71.8067 38.1989 71.9616 37.7432C72.1166 37.2829 72.3399 36.8841 72.6316 36.5469C72.9232 36.2051 73.2764 35.9408 73.6911 35.7539C74.1058 35.5625 74.5707 35.4668 75.0857 35.4668C75.6052 35.4668 76.0723 35.5625 76.487 35.7539C76.9063 35.9408 77.2618 36.2051 77.5534 36.5469C77.8497 36.8841 78.0752 37.2829 78.2302 37.7432C78.3851 38.1989 78.4626 38.6934 78.4626 39.2266V39.3838C78.4626 39.917 78.3851 40.4115 78.2302 40.8672C78.0752 41.3229 77.8497 41.7217 77.5534 42.0635C77.2618 42.4007 76.9086 42.665 76.4939 42.8564C76.0837 43.0433 75.6189 43.1367 75.0993 43.1367C74.5798 43.1367 74.1127 43.0433 73.698 42.8564C73.2833 42.665 72.9278 42.4007 72.6316 42.0635C72.3399 41.7217 72.1166 41.3229 71.9616 40.8672C71.8067 40.4115 71.7292 39.917 71.7292 39.3838ZM72.9939 39.2266V39.3838C72.9939 39.7529 73.0372 40.1016 73.1237 40.4297C73.2103 40.7533 73.3402 41.0404 73.5134 41.291C73.6911 41.5417 73.9122 41.7399 74.1765 41.8857C74.4408 42.027 74.7484 42.0977 75.0993 42.0977C75.4457 42.0977 75.7487 42.027 76.0085 41.8857C76.2728 41.7399 76.4916 41.5417 76.6648 41.291C76.8379 41.0404 76.9678 40.7533 77.0544 40.4297C77.1456 40.1016 77.1911 39.7529 77.1911 39.3838V39.2266C77.1911 38.862 77.1456 38.5179 77.0544 38.1943C76.9678 37.8662 76.8357 37.5768 76.6579 37.3262C76.4848 37.071 76.266 36.8704 76.0017 36.7246C75.7419 36.5788 75.4366 36.5059 75.0857 36.5059C74.7393 36.5059 74.434 36.5788 74.1696 36.7246C73.9099 36.8704 73.6911 37.071 73.5134 37.3262C73.3402 37.5768 73.2103 37.8662 73.1237 38.1943C73.0372 38.5179 72.9939 38.862 72.9939 39.2266ZM81.7332 37.0254V45.8438H80.4617V35.6035H81.6238L81.7332 37.0254ZM86.7166 39.2402V39.3838C86.7166 39.9215 86.6528 40.4206 86.5252 40.8809C86.3976 41.3366 86.2107 41.7331 85.9646 42.0703C85.7231 42.4076 85.4246 42.6696 85.0691 42.8564C84.7137 43.0433 84.3058 43.1367 83.8455 43.1367C83.3761 43.1367 82.9614 43.0592 82.6014 42.9043C82.2413 42.7493 81.936 42.5238 81.6853 42.2275C81.4347 41.9313 81.2342 41.5758 81.0838 41.1611C80.938 40.7464 80.8377 40.2793 80.783 39.7598V38.9941C80.8377 38.4473 80.9402 37.9574 81.0906 37.5244C81.241 37.0915 81.4393 36.7223 81.6853 36.417C81.936 36.1071 82.2391 35.8724 82.5945 35.7129C82.95 35.5488 83.3602 35.4668 83.825 35.4668C84.2898 35.4668 84.7023 35.5579 85.0623 35.7402C85.4223 35.918 85.7254 36.1732 85.9715 36.5059C86.2176 36.8385 86.4021 37.2373 86.5252 37.7021C86.6528 38.1624 86.7166 38.6751 86.7166 39.2402ZM85.4451 39.3838V39.2402C85.4451 38.8711 85.4064 38.5247 85.3289 38.2012C85.2514 37.873 85.1307 37.5859 84.9666 37.3398C84.8071 37.0892 84.602 36.8932 84.3514 36.752C84.1007 36.6061 83.8022 36.5332 83.4559 36.5332C83.1368 36.5332 82.8589 36.5879 82.6219 36.6973C82.3895 36.8066 82.1912 36.9548 82.0271 37.1416C81.8631 37.3239 81.7286 37.5335 81.6238 37.7705C81.5236 38.0029 81.4484 38.2445 81.3982 38.4951V40.2656C81.4894 40.5846 81.617 40.8854 81.7811 41.168C81.9451 41.446 82.1639 41.6715 82.4373 41.8447C82.7107 42.0133 83.0548 42.0977 83.4695 42.0977C83.8113 42.0977 84.1053 42.027 84.3514 41.8857C84.602 41.7399 84.8071 41.5417 84.9666 41.291C85.1307 41.0404 85.2514 40.7533 85.3289 40.4297C85.4064 40.1016 85.4451 39.7529 85.4451 39.3838ZM93.5282 35.6035V36.6494H90.1102V43H88.8456V35.6035H93.5282ZM99.4101 41.7354V37.9277C99.4101 37.6361 99.3509 37.3831 99.2324 37.1689C99.1185 36.9502 98.9453 36.7816 98.7129 36.6631C98.4804 36.5446 98.1933 36.4854 97.8515 36.4854C97.5325 36.4854 97.2522 36.54 97.0107 36.6494C96.7737 36.7588 96.5869 36.9023 96.4502 37.0801C96.318 37.2578 96.2519 37.4492 96.2519 37.6543H94.9873C94.9873 37.39 95.0556 37.1279 95.1923 36.8682C95.3291 36.6084 95.525 36.3737 95.7802 36.1641C96.04 35.9499 96.3499 35.7812 96.7099 35.6582C97.0745 35.5306 97.4801 35.4668 97.9267 35.4668C98.4645 35.4668 98.9384 35.5579 99.3486 35.7402C99.7633 35.9225 100.087 36.1982 100.319 36.5674C100.556 36.932 100.675 37.39 100.675 37.9414V41.3867C100.675 41.6328 100.695 41.8949 100.736 42.1729C100.782 42.4508 100.848 42.6901 100.935 42.8906V43H99.6152C99.5514 42.8542 99.5013 42.6605 99.4648 42.4189C99.4283 42.1729 99.4101 41.945 99.4101 41.7354ZM99.6289 38.5156L99.6425 39.4043H98.3642C98.0042 39.4043 97.6829 39.4339 97.4004 39.4932C97.1178 39.5479 96.8808 39.6322 96.6894 39.7461C96.498 39.86 96.3522 40.0036 96.2519 40.1768C96.1517 40.3454 96.1015 40.5436 96.1015 40.7715C96.1015 41.0039 96.1539 41.2158 96.2588 41.4072C96.3636 41.5986 96.5208 41.7513 96.7304 41.8652C96.9446 41.9746 97.2067 42.0293 97.5166 42.0293C97.9039 42.0293 98.2457 41.9473 98.542 41.7832C98.8382 41.6191 99.0729 41.4186 99.2461 41.1816C99.4238 40.9447 99.5195 40.7145 99.5332 40.4912L100.073 41.0996C100.041 41.291 99.9547 41.5029 99.8134 41.7354C99.6722 41.9678 99.483 42.1911 99.2461 42.4053C99.0136 42.6149 98.7356 42.7904 98.4121 42.9316C98.0931 43.0684 97.733 43.1367 97.332 43.1367C96.8307 43.1367 96.3909 43.0387 96.0127 42.8428C95.639 42.6468 95.3473 42.3848 95.1377 42.0566C94.9326 41.724 94.83 41.3525 94.83 40.9424C94.83 40.5459 94.9075 40.1973 95.0625 39.8965C95.2174 39.5911 95.4407 39.3382 95.7324 39.1377C96.0241 38.9326 96.375 38.7777 96.7851 38.6729C97.1953 38.568 97.6533 38.5156 98.1591 38.5156H99.6289ZM108.102 38.8096V39.835H104.191V38.8096H108.102ZM104.458 35.6035V43H103.193V35.6035H104.458ZM109.127 35.6035V43H107.856V35.6035H109.127ZM112.958 35.6035V43H111.687V35.6035H112.958ZM111.591 33.6416C111.591 33.4365 111.652 33.2633 111.776 33.1221C111.903 32.9808 112.09 32.9102 112.336 32.9102C112.578 32.9102 112.762 32.9808 112.89 33.1221C113.022 33.2633 113.088 33.4365 113.088 33.6416C113.088 33.8376 113.022 34.0062 112.89 34.1475C112.762 34.2842 112.578 34.3525 112.336 34.3525C112.09 34.3525 111.903 34.2842 111.776 34.1475C111.652 34.0062 111.591 33.8376 111.591 33.6416ZM118.17 39.4658H116.81V38.6865H118.068C118.418 38.6865 118.696 38.6432 118.902 38.5566C119.107 38.4655 119.252 38.3402 119.339 38.1807C119.426 38.0212 119.469 37.8343 119.469 37.6201C119.469 37.4287 119.419 37.2487 119.319 37.0801C119.223 36.9069 119.068 36.7679 118.854 36.6631C118.64 36.5537 118.352 36.499 117.992 36.499C117.701 36.499 117.436 36.5514 117.199 36.6562C116.962 36.7565 116.773 36.8955 116.632 37.0732C116.495 37.2464 116.427 37.4424 116.427 37.6611H115.162C115.162 37.21 115.29 36.8226 115.545 36.499C115.805 36.1709 116.149 35.918 116.577 35.7402C117.01 35.5625 117.482 35.4736 117.992 35.4736C118.421 35.4736 118.804 35.5215 119.141 35.6172C119.483 35.7083 119.772 35.8451 120.009 36.0273C120.246 36.2051 120.426 36.4284 120.549 36.6973C120.677 36.9616 120.74 37.2692 120.74 37.6201C120.74 37.8708 120.681 38.1077 120.563 38.3311C120.444 38.5544 120.273 38.7526 120.05 38.9258C119.827 39.0944 119.556 39.2266 119.237 39.3223C118.922 39.418 118.567 39.4658 118.17 39.4658ZM116.81 38.9873H118.17C118.612 38.9873 119.002 39.0306 119.339 39.1172C119.676 39.1992 119.959 39.3223 120.187 39.4863C120.415 39.6504 120.585 39.8532 120.699 40.0947C120.818 40.3317 120.877 40.6051 120.877 40.915C120.877 41.2614 120.807 41.5736 120.665 41.8516C120.529 42.125 120.333 42.3574 120.077 42.5488C119.822 42.7402 119.517 42.8861 119.161 42.9863C118.81 43.0866 118.421 43.1367 117.992 43.1367C117.514 43.1367 117.049 43.0547 116.598 42.8906C116.147 42.7266 115.775 42.4736 115.484 42.1318C115.192 41.7855 115.046 41.3457 115.046 40.8125H116.311C116.311 41.0358 116.381 41.2477 116.523 41.4482C116.664 41.6488 116.86 41.8105 117.111 41.9336C117.366 42.0566 117.66 42.1182 117.992 42.1182C118.348 42.1182 118.644 42.0635 118.881 41.9541C119.118 41.8447 119.296 41.6989 119.414 41.5166C119.537 41.3343 119.599 41.1361 119.599 40.9219C119.599 40.6439 119.544 40.4206 119.435 40.252C119.325 40.0833 119.157 39.9603 118.929 39.8828C118.706 39.8008 118.418 39.7598 118.068 39.7598H116.81V38.9873ZM127.299 41.7354V37.9277C127.299 37.6361 127.24 37.3831 127.121 37.1689C127.007 36.9502 126.834 36.7816 126.602 36.6631C126.369 36.5446 126.082 36.4854 125.741 36.4854C125.421 36.4854 125.141 36.54 124.9 36.6494C124.663 36.7588 124.476 36.9023 124.339 37.0801C124.207 37.2578 124.141 37.4492 124.141 37.6543H122.876C122.876 37.39 122.945 37.1279 123.081 36.8682C123.218 36.6084 123.414 36.3737 123.669 36.1641C123.929 35.9499 124.239 35.7812 124.599 35.6582C124.963 35.5306 125.369 35.4668 125.816 35.4668C126.353 35.4668 126.827 35.5579 127.238 35.7402C127.652 35.9225 127.976 36.1982 128.208 36.5674C128.445 36.932 128.564 37.39 128.564 37.9414V41.3867C128.564 41.6328 128.584 41.8949 128.625 42.1729C128.671 42.4508 128.737 42.6901 128.824 42.8906V43H127.504C127.44 42.8542 127.39 42.6605 127.354 42.4189C127.317 42.1729 127.299 41.945 127.299 41.7354ZM127.518 38.5156L127.532 39.4043H126.253C125.893 39.4043 125.572 39.4339 125.289 39.4932C125.007 39.5479 124.77 39.6322 124.578 39.7461C124.387 39.86 124.241 40.0036 124.141 40.1768C124.041 40.3454 123.991 40.5436 123.991 40.7715C123.991 41.0039 124.043 41.2158 124.148 41.4072C124.253 41.5986 124.41 41.7513 124.619 41.8652C124.834 41.9746 125.096 42.0293 125.406 42.0293C125.793 42.0293 126.135 41.9473 126.431 41.7832C126.727 41.6191 126.962 41.4186 127.135 41.1816C127.313 40.9447 127.408 40.7145 127.422 40.4912L127.962 41.0996C127.93 41.291 127.844 41.5029 127.702 41.7354C127.561 41.9678 127.372 42.1911 127.135 42.4053C126.903 42.6149 126.625 42.7904 126.301 42.9316C125.982 43.0684 125.622 43.1367 125.221 43.1367C124.72 43.1367 124.28 43.0387 123.902 42.8428C123.528 42.6468 123.236 42.3848 123.027 42.0566C122.822 41.724 122.719 41.3525 122.719 40.9424C122.719 40.5459 122.796 40.1973 122.951 39.8965C123.106 39.5911 123.33 39.3382 123.621 39.1377C123.913 38.9326 124.264 38.7777 124.674 38.6729C125.084 38.568 125.542 38.5156 126.048 38.5156H127.518ZM131.082 43V35.6035H132.347V41.9609H135.751V35.6035H137.023V43H131.082ZM137.898 41.9609L137.775 45.1943H136.647V43H135.683V41.9609H137.898ZM141.066 35.6035V43H139.794V35.6035H141.066ZM139.699 33.6416C139.699 33.4365 139.76 33.2633 139.883 33.1221C140.011 32.9808 140.198 32.9102 140.444 32.9102C140.685 32.9102 140.87 32.9808 140.997 33.1221C141.13 33.2633 141.196 33.4365 141.196 33.6416C141.196 33.8376 141.13 34.0062 140.997 34.1475C140.87 34.2842 140.685 34.3525 140.444 34.3525C140.198 34.3525 140.011 34.2842 139.883 34.1475C139.76 34.0062 139.699 33.8376 139.699 33.6416ZM144.883 35.6035V43H143.619V35.6035H144.883ZM142.074 33.6416C142.074 33.4365 142.138 33.2633 142.265 33.1221C142.393 32.9808 142.577 32.9102 142.819 32.9102C143.065 32.9102 143.252 32.9808 143.379 33.1221C143.507 33.2633 143.571 33.4365 143.571 33.6416C143.571 33.8376 143.507 34.0062 143.379 34.1475C143.252 34.2842 143.065 34.3525 142.819 34.3525C142.577 34.3525 142.393 34.2842 142.265 34.1475C142.138 34.0062 142.074 33.8376 142.074 33.6416ZM145.02 33.6553C145.02 33.4502 145.082 33.277 145.205 33.1357C145.332 32.9945 145.519 32.9238 145.765 32.9238C146.007 32.9238 146.191 32.9945 146.319 33.1357C146.451 33.277 146.517 33.4502 146.517 33.6553C146.517 33.8512 146.451 34.0199 146.319 34.1611C146.191 34.2979 146.007 34.3662 145.765 34.3662C145.519 34.3662 145.332 34.2979 145.205 34.1611C145.082 34.0199 145.02 33.8512 145.02 33.6553ZM148.557 41.4961V42.5146C148.557 42.9294 148.452 43.3669 148.243 43.8271C148.033 44.292 147.739 44.6794 147.361 44.9893L146.643 44.4902C146.789 44.2897 146.912 44.0846 147.012 43.875C147.113 43.6699 147.188 43.4557 147.238 43.2324C147.293 43.0137 147.32 42.7812 147.32 42.5352V41.4961H148.557ZM154.148 39.3838V39.2266C154.148 38.6934 154.226 38.1989 154.381 37.7432C154.536 37.2829 154.759 36.8841 155.051 36.5469C155.342 36.2051 155.695 35.9408 156.11 35.7539C156.525 35.5625 156.99 35.4668 157.505 35.4668C158.024 35.4668 158.491 35.5625 158.906 35.7539C159.325 35.9408 159.681 36.2051 159.972 36.5469C160.269 36.8841 160.494 37.2829 160.649 37.7432C160.804 38.1989 160.882 38.6934 160.882 39.2266V39.3838C160.882 39.917 160.804 40.4115 160.649 40.8672C160.494 41.3229 160.269 41.7217 159.972 42.0635C159.681 42.4007 159.328 42.665 158.913 42.8564C158.503 43.0433 158.038 43.1367 157.518 43.1367C156.999 43.1367 156.532 43.0433 156.117 42.8564C155.702 42.665 155.347 42.4007 155.051 42.0635C154.759 41.7217 154.536 41.3229 154.381 40.8672C154.226 40.4115 154.148 39.917 154.148 39.3838ZM155.413 39.2266V39.3838C155.413 39.7529 155.456 40.1016 155.543 40.4297C155.629 40.7533 155.759 41.0404 155.932 41.291C156.11 41.5417 156.331 41.7399 156.595 41.8857C156.86 42.027 157.167 42.0977 157.518 42.0977C157.865 42.0977 158.168 42.027 158.428 41.8857C158.692 41.7399 158.911 41.5417 159.084 41.291C159.257 41.0404 159.387 40.7533 159.473 40.4297C159.565 40.1016 159.61 39.7529 159.61 39.3838V39.2266C159.61 38.862 159.565 38.5179 159.473 38.1943C159.387 37.8662 159.255 37.5768 159.077 37.3262C158.904 37.071 158.685 36.8704 158.421 36.7246C158.161 36.5788 157.856 36.5059 157.505 36.5059C157.158 36.5059 156.853 36.5788 156.589 36.7246C156.329 36.8704 156.11 37.071 155.932 37.3262C155.759 37.5768 155.629 37.8662 155.543 38.1943C155.456 38.5179 155.413 38.862 155.413 39.2266ZM165.848 42.0977C166.148 42.0977 166.426 42.0361 166.681 41.9131C166.937 41.79 167.146 41.6214 167.31 41.4072C167.474 41.1885 167.568 40.9401 167.591 40.6621H168.794C168.771 41.0996 168.623 41.5075 168.349 41.8857C168.081 42.2594 167.727 42.5625 167.29 42.7949C166.852 43.0228 166.372 43.1367 165.848 43.1367C165.292 43.1367 164.806 43.0387 164.391 42.8428C163.981 42.6468 163.639 42.3779 163.366 42.0361C163.097 41.6943 162.894 41.3024 162.758 40.8604C162.625 40.4137 162.559 39.9421 162.559 39.4453V39.1582C162.559 38.6615 162.625 38.1921 162.758 37.75C162.894 37.3034 163.097 36.9092 163.366 36.5674C163.639 36.2256 163.981 35.9567 164.391 35.7607C164.806 35.5648 165.292 35.4668 165.848 35.4668C166.426 35.4668 166.932 35.5853 167.365 35.8223C167.798 36.0547 168.138 36.3737 168.384 36.7793C168.634 37.1803 168.771 37.6361 168.794 38.1465H167.591C167.568 37.8411 167.481 37.5654 167.331 37.3193C167.185 37.0732 166.985 36.8773 166.729 36.7314C166.479 36.5811 166.185 36.5059 165.848 36.5059C165.46 36.5059 165.134 36.5833 164.87 36.7383C164.61 36.8887 164.403 37.0938 164.248 37.3535C164.098 37.6087 163.988 37.8936 163.92 38.208C163.856 38.5179 163.824 38.8346 163.824 39.1582V39.4453C163.824 39.7689 163.856 40.0879 163.92 40.4023C163.984 40.7168 164.091 41.0016 164.241 41.2568C164.396 41.512 164.603 41.7171 164.863 41.8721C165.127 42.0225 165.456 42.0977 165.848 42.0977ZM170.301 39.3838V39.2266C170.301 38.6934 170.378 38.1989 170.533 37.7432C170.688 37.2829 170.911 36.8841 171.203 36.5469C171.495 36.2051 171.848 35.9408 172.263 35.7539C172.677 35.5625 173.142 35.4668 173.657 35.4668C174.177 35.4668 174.644 35.5625 175.059 35.7539C175.478 35.9408 175.833 36.2051 176.125 36.5469C176.421 36.8841 176.647 37.2829 176.802 37.7432C176.957 38.1989 177.034 38.6934 177.034 39.2266V39.3838C177.034 39.917 176.957 40.4115 176.802 40.8672C176.647 41.3229 176.421 41.7217 176.125 42.0635C175.833 42.4007 175.48 42.665 175.065 42.8564C174.655 43.0433 174.19 43.1367 173.671 43.1367C173.151 43.1367 172.684 43.0433 172.269 42.8564C171.855 42.665 171.499 42.4007 171.203 42.0635C170.911 41.7217 170.688 41.3229 170.533 40.8672C170.378 40.4115 170.301 39.917 170.301 39.3838ZM171.565 39.2266V39.3838C171.565 39.7529 171.609 40.1016 171.695 40.4297C171.782 40.7533 171.912 41.0404 172.085 41.291C172.263 41.5417 172.484 41.7399 172.748 41.8857C173.012 42.027 173.32 42.0977 173.671 42.0977C174.017 42.0977 174.32 42.027 174.58 41.8857C174.844 41.7399 175.063 41.5417 175.236 41.291C175.409 41.0404 175.539 40.7533 175.626 40.4297C175.717 40.1016 175.763 39.7529 175.763 39.3838V39.2266C175.763 38.862 175.717 38.5179 175.626 38.1943C175.539 37.8662 175.407 37.5768 175.229 37.3262C175.056 37.071 174.837 36.8704 174.573 36.7246C174.313 36.5788 174.008 36.5059 173.657 36.5059C173.311 36.5059 173.005 36.5788 172.741 36.7246C172.481 36.8704 172.263 37.071 172.085 37.3262C171.912 37.5768 171.782 37.8662 171.695 38.1943C171.609 38.5179 171.565 38.862 171.565 39.2266ZM183.784 32.3838H184.823C184.823 32.8304 184.755 33.1859 184.618 33.4502C184.481 33.71 184.295 33.9105 184.058 34.0518C183.825 34.193 183.561 34.3001 183.265 34.373C182.973 34.446 182.67 34.5166 182.355 34.585C181.964 34.667 181.599 34.7969 181.262 34.9746C180.929 35.1478 180.642 35.3939 180.4 35.7129C180.163 36.0319 179.988 36.4466 179.874 36.957C179.765 37.4674 179.735 38.0986 179.785 38.8506V39.4795H178.746V38.8506C178.746 38.0075 178.826 37.2715 178.985 36.6426C179.149 36.0137 179.38 35.4827 179.676 35.0498C179.972 34.6169 180.323 34.2728 180.729 34.0176C181.139 33.7624 181.59 33.5869 182.082 33.4912C182.438 33.4229 182.743 33.3499 182.998 33.2725C183.253 33.1904 183.447 33.0811 183.579 32.9443C183.716 32.8076 183.784 32.6208 183.784 32.3838ZM182.287 36.0273C182.77 36.0273 183.201 36.1117 183.579 36.2803C183.957 36.4489 184.279 36.6836 184.543 36.9844C184.807 37.2852 185.008 37.6406 185.145 38.0508C185.286 38.4564 185.356 38.8984 185.356 39.377V39.5273C185.356 40.0423 185.281 40.5208 185.131 40.9629C184.985 41.4004 184.769 41.7832 184.481 42.1113C184.199 42.4349 183.853 42.6878 183.442 42.8701C183.037 43.0524 182.574 43.1436 182.055 43.1436C181.535 43.1436 181.07 43.0524 180.66 42.8701C180.255 42.6878 179.908 42.4349 179.621 42.1113C179.334 41.7832 179.115 41.4004 178.965 40.9629C178.819 40.5208 178.746 40.0423 178.746 39.5273V39.377C178.746 39.263 178.767 39.1514 178.808 39.042C178.849 38.9326 178.899 38.821 178.958 38.707C179.022 38.5931 179.079 38.4723 179.129 38.3447C179.298 37.9346 179.528 37.554 179.819 37.2031C180.116 36.8522 180.469 36.5697 180.879 36.3555C181.294 36.1367 181.763 36.0273 182.287 36.0273ZM182.041 37.0596C181.576 37.0596 181.193 37.1667 180.893 37.3809C180.596 37.5951 180.375 37.8799 180.229 38.2354C180.084 38.5863 180.011 38.9668 180.011 39.377V39.5273C180.011 39.8737 180.052 40.2018 180.134 40.5117C180.216 40.8216 180.339 41.0973 180.503 41.3389C180.672 41.5758 180.883 41.7627 181.139 41.8994C181.398 42.0361 181.704 42.1045 182.055 42.1045C182.406 42.1045 182.709 42.0361 182.964 41.8994C183.219 41.7627 183.429 41.5758 183.593 41.3389C183.757 41.0973 183.88 40.8216 183.962 40.5117C184.044 40.2018 184.085 39.8737 184.085 39.5273V39.377C184.085 39.0671 184.044 38.7731 183.962 38.4951C183.88 38.2171 183.755 37.971 183.586 37.7568C183.422 37.5426 183.21 37.374 182.95 37.251C182.695 37.1234 182.392 37.0596 182.041 37.0596ZM192.154 35.6035V36.6494H188.579V35.6035H192.154ZM193.269 35.6035V43H192.004V35.6035H193.269ZM188.272 35.6035H189.543L189.352 39.1719C189.32 39.7233 189.267 40.2109 189.194 40.6348C189.126 41.054 189.03 41.4141 188.907 41.7148C188.789 42.0156 188.638 42.2617 188.456 42.4531C188.278 42.64 188.064 42.779 187.814 42.8701C187.563 42.9567 187.274 43 186.945 43H186.549V41.8857L186.822 41.8652C187.018 41.8516 187.185 41.806 187.321 41.7285C187.463 41.651 187.581 41.5371 187.677 41.3867C187.773 41.2318 187.85 41.0335 187.909 40.792C187.973 40.5505 188.021 40.2633 188.053 39.9307C188.089 39.598 188.117 39.2106 188.135 38.7686L188.272 35.6035ZM197.093 40.9971L200.504 35.6035H201.776V43H200.504V37.6064L197.093 43H195.835V35.6035H197.093V40.9971ZM207.698 39.7461H205.272L205.258 38.7344H207.24C207.632 38.7344 207.958 38.6956 208.218 38.6182C208.482 38.5407 208.681 38.4245 208.813 38.2695C208.945 38.1146 209.011 37.9232 209.011 37.6953C209.011 37.5176 208.972 37.3626 208.895 37.2305C208.822 37.0938 208.71 36.9821 208.56 36.8955C208.409 36.8044 208.223 36.7383 207.999 36.6973C207.781 36.6517 207.523 36.6289 207.227 36.6289H205.607V43H204.342V35.6035H207.227C207.696 35.6035 208.118 35.6445 208.491 35.7266C208.87 35.8086 209.191 35.9339 209.455 36.1025C209.724 36.2666 209.929 36.4762 210.071 36.7314C210.212 36.9867 210.282 37.2874 210.282 37.6338C210.282 37.8571 210.237 38.069 210.146 38.2695C210.055 38.4701 209.92 38.6478 209.742 38.8027C209.565 38.9577 209.346 39.0853 209.086 39.1855C208.826 39.2812 208.528 39.3428 208.191 39.3701L207.698 39.7461ZM207.698 43H204.814L205.443 41.9746H207.698C208.049 41.9746 208.341 41.9313 208.573 41.8447C208.806 41.7536 208.979 41.626 209.093 41.4619C209.211 41.2933 209.271 41.0928 209.271 40.8604C209.271 40.6279 209.211 40.4297 209.093 40.2656C208.979 40.097 208.806 39.9694 208.573 39.8828C208.341 39.7917 208.049 39.7461 207.698 39.7461H205.778L205.791 38.7344H208.191L208.649 39.1172C209.054 39.1491 209.398 39.2493 209.681 39.418C209.963 39.5866 210.178 39.8008 210.323 40.0605C210.469 40.3158 210.542 40.5938 210.542 40.8945C210.542 41.2409 210.476 41.5462 210.344 41.8105C210.216 42.0749 210.03 42.2959 209.783 42.4736C209.537 42.6468 209.239 42.779 208.888 42.8701C208.537 42.9567 208.141 43 207.698 43ZM212.323 39.3838V39.2266C212.323 38.6934 212.4 38.1989 212.555 37.7432C212.71 37.2829 212.933 36.8841 213.225 36.5469C213.517 36.2051 213.87 35.9408 214.284 35.7539C214.699 35.5625 215.164 35.4668 215.679 35.4668C216.199 35.4668 216.666 35.5625 217.08 35.7539C217.5 35.9408 217.855 36.2051 218.147 36.5469C218.443 36.8841 218.669 37.2829 218.824 37.7432C218.978 38.1989 219.056 38.6934 219.056 39.2266V39.3838C219.056 39.917 218.978 40.4115 218.824 40.8672C218.669 41.3229 218.443 41.7217 218.147 42.0635C217.855 42.4007 217.502 42.665 217.087 42.8564C216.677 43.0433 216.212 43.1367 215.693 43.1367C215.173 43.1367 214.706 43.0433 214.291 42.8564C213.877 42.665 213.521 42.4007 213.225 42.0635C212.933 41.7217 212.71 41.3229 212.555 40.8672C212.4 40.4115 212.323 39.917 212.323 39.3838ZM213.587 39.2266V39.3838C213.587 39.7529 213.631 40.1016 213.717 40.4297C213.804 40.7533 213.934 41.0404 214.107 41.291C214.284 41.5417 214.506 41.7399 214.77 41.8857C215.034 42.027 215.342 42.0977 215.693 42.0977C216.039 42.0977 216.342 42.027 216.602 41.8857C216.866 41.7399 217.085 41.5417 217.258 41.291C217.431 41.0404 217.561 40.7533 217.648 40.4297C217.739 40.1016 217.784 39.7529 217.784 39.3838V39.2266C217.784 38.862 217.739 38.5179 217.648 38.1943C217.561 37.8662 217.429 37.5768 217.251 37.3262C217.078 37.071 216.859 36.8704 216.595 36.7246C216.335 36.5788 216.03 36.5059 215.679 36.5059C215.333 36.5059 215.027 36.5788 214.763 36.7246C214.503 36.8704 214.284 37.071 214.107 37.3262C213.934 37.5768 213.804 37.8662 213.717 38.1943C213.631 38.5179 213.587 38.862 213.587 39.2266ZM226.219 37.0254V45.8438H224.948V35.6035H226.11L226.219 37.0254ZM231.203 39.2402V39.3838C231.203 39.9215 231.139 40.4206 231.011 40.8809C230.884 41.3366 230.697 41.7331 230.451 42.0703C230.209 42.4076 229.911 42.6696 229.555 42.8564C229.2 43.0433 228.792 43.1367 228.332 43.1367C227.862 43.1367 227.447 43.0592 227.087 42.9043C226.727 42.7493 226.422 42.5238 226.171 42.2275C225.921 41.9313 225.72 41.5758 225.57 41.1611C225.424 40.7464 225.324 40.2793 225.269 39.7598V38.9941C225.324 38.4473 225.426 37.9574 225.577 37.5244C225.727 37.0915 225.925 36.7223 226.171 36.417C226.422 36.1071 226.725 35.8724 227.081 35.7129C227.436 35.5488 227.846 35.4668 228.311 35.4668C228.776 35.4668 229.188 35.5579 229.548 35.7402C229.908 35.918 230.211 36.1732 230.458 36.5059C230.704 36.8385 230.888 37.2373 231.011 37.7021C231.139 38.1624 231.203 38.6751 231.203 39.2402ZM229.931 39.3838V39.2402C229.931 38.8711 229.892 38.5247 229.815 38.2012C229.737 37.873 229.617 37.5859 229.453 37.3398C229.293 37.0892 229.088 36.8932 228.837 36.752C228.587 36.6061 228.288 36.5332 227.942 36.5332C227.623 36.5332 227.345 36.5879 227.108 36.6973C226.875 36.8066 226.677 36.9548 226.513 37.1416C226.349 37.3239 226.215 37.5335 226.11 37.7705C226.01 38.0029 225.934 38.2445 225.884 38.4951V40.2656C225.975 40.5846 226.103 40.8854 226.267 41.168C226.431 41.446 226.65 41.6715 226.923 41.8447C227.197 42.0133 227.541 42.0977 227.956 42.0977C228.297 42.0977 228.591 42.027 228.837 41.8857C229.088 41.7399 229.293 41.5417 229.453 41.291C229.617 41.0404 229.737 40.7533 229.815 40.4297C229.892 40.1016 229.931 39.7529 229.931 39.3838ZM237.597 41.7354V37.9277C237.597 37.6361 237.538 37.3831 237.419 37.1689C237.306 36.9502 237.132 36.7816 236.9 36.6631C236.668 36.5446 236.38 36.4854 236.039 36.4854C235.72 36.4854 235.439 36.54 235.198 36.6494C234.961 36.7588 234.774 36.9023 234.637 37.0801C234.505 37.2578 234.439 37.4492 234.439 37.6543H233.174C233.174 37.39 233.243 37.1279 233.379 36.8682C233.516 36.6084 233.712 36.3737 233.967 36.1641C234.227 35.9499 234.537 35.7812 234.897 35.6582C235.262 35.5306 235.667 35.4668 236.114 35.4668C236.652 35.4668 237.126 35.5579 237.536 35.7402C237.95 35.9225 238.274 36.1982 238.506 36.5674C238.743 36.932 238.862 37.39 238.862 37.9414V41.3867C238.862 41.6328 238.882 41.8949 238.923 42.1729C238.969 42.4508 239.035 42.6901 239.122 42.8906V43H237.802C237.739 42.8542 237.688 42.6605 237.652 42.4189C237.615 42.1729 237.597 41.945 237.597 41.7354ZM237.816 38.5156L237.83 39.4043H236.551C236.191 39.4043 235.87 39.4339 235.587 39.4932C235.305 39.5479 235.068 39.6322 234.877 39.7461C234.685 39.86 234.539 40.0036 234.439 40.1768C234.339 40.3454 234.289 40.5436 234.289 40.7715C234.289 41.0039 234.341 41.2158 234.446 41.4072C234.551 41.5986 234.708 41.7513 234.918 41.8652C235.132 41.9746 235.394 42.0293 235.704 42.0293C236.091 42.0293 236.433 41.9473 236.729 41.7832C237.025 41.6191 237.26 41.4186 237.433 41.1816C237.611 40.9447 237.707 40.7145 237.72 40.4912L238.26 41.0996C238.228 41.291 238.142 41.5029 238.001 41.7354C237.859 41.9678 237.67 42.1911 237.433 42.4053C237.201 42.6149 236.923 42.7904 236.599 42.9316C236.28 43.0684 235.92 43.1367 235.519 43.1367C235.018 43.1367 234.578 43.0387 234.2 42.8428C233.826 42.6468 233.534 42.3848 233.325 42.0566C233.12 41.724 233.017 41.3525 233.017 40.9424C233.017 40.5459 233.095 40.1973 233.25 39.8965C233.405 39.5911 233.628 39.3382 233.919 39.1377C234.211 38.9326 234.562 38.7777 234.972 38.6729C235.382 38.568 235.84 38.5156 236.346 38.5156H237.816ZM245.523 41.3184L248.039 35.6035H249.256L245.961 43H245.086L241.804 35.6035H243.021L245.523 41.3184ZM242.652 35.6035V43H241.387V35.6035H242.652ZM248.353 43V35.6035H249.625V43H248.353ZM253.456 35.6035V43H252.191V35.6035H253.456ZM258.309 35.6035L254.802 39.8418H253.032L252.841 38.7344H254.29L256.771 35.6035H258.309ZM256.949 43L254.228 39.6504L255.042 38.7344L258.555 43H256.949ZM261.443 40.9971L264.854 35.6035H266.126V43H264.854V37.6064L261.443 43H260.185V35.6035H261.443V40.9971ZM2.33789 59.6035V67H1.06641V59.6035H2.33789ZM0.970703 57.6416C0.970703 57.4365 1.03223 57.2633 1.15527 57.1221C1.28288 56.9808 1.46973 56.9102 1.71582 56.9102C1.95736 56.9102 2.14193 56.9808 2.26953 57.1221C2.40169 57.2633 2.46777 57.4365 2.46777 57.6416C2.46777 57.8376 2.40169 58.0062 2.26953 58.1475C2.14193 58.2842 1.95736 58.3525 1.71582 58.3525C1.46973 58.3525 1.28288 58.2842 1.15527 58.1475C1.03223 58.0062 0.970703 57.8376 0.970703 57.6416ZM12.9328 65.3184L15.4484 59.6035H16.6652L13.3703 67H12.4953L9.21402 59.6035H10.4308L12.9328 65.3184ZM10.0617 59.6035V67H8.79703V59.6035H10.0617ZM15.7629 67V59.6035H17.0343V67H15.7629ZM20.8655 59.6035V67H19.594V59.6035H20.8655ZM19.4983 57.6416C19.4983 57.4365 19.5598 57.2633 19.6829 57.1221C19.8105 56.9808 19.9973 56.9102 20.2434 56.9102C20.4849 56.9102 20.6695 56.9808 20.7971 57.1221C20.9293 57.2633 20.9954 57.4365 20.9954 57.6416C20.9954 57.8376 20.9293 58.0062 20.7971 58.1475C20.6695 58.2842 20.4849 58.3525 20.2434 58.3525C19.9973 58.3525 19.8105 58.2842 19.6829 58.1475C19.5598 58.0062 19.4983 57.8376 19.4983 57.6416ZM26.2757 66.0977C26.5765 66.0977 26.8545 66.0361 27.1097 65.9131C27.3649 65.79 27.5745 65.6214 27.7386 65.4072C27.9027 65.1885 27.9961 64.9401 28.0189 64.6621H29.222C29.1992 65.0996 29.0511 65.5075 28.7777 65.8857C28.5088 66.2594 28.1556 66.5625 27.7181 66.7949C27.2806 67.0228 26.7998 67.1367 26.2757 67.1367C25.7197 67.1367 25.2344 67.0387 24.8196 66.8428C24.4095 66.6468 24.0677 66.3779 23.7943 66.0361C23.5254 65.6943 23.3226 65.3024 23.1859 64.8604C23.0537 64.4137 22.9876 63.9421 22.9876 63.4453V63.1582C22.9876 62.6615 23.0537 62.1921 23.1859 61.75C23.3226 61.3034 23.5254 60.9092 23.7943 60.5674C24.0677 60.2256 24.4095 59.9567 24.8196 59.7607C25.2344 59.5648 25.7197 59.4668 26.2757 59.4668C26.8545 59.4668 27.3603 59.5853 27.7933 59.8223C28.2262 60.0547 28.5657 60.3737 28.8118 60.7793C29.0625 61.1803 29.1992 61.6361 29.222 62.1465H28.0189C27.9961 61.8411 27.9095 61.5654 27.7591 61.3193C27.6133 61.0732 27.4127 60.8773 27.1575 60.7314C26.9069 60.5811 26.6129 60.5059 26.2757 60.5059C25.8883 60.5059 25.5625 60.5833 25.2982 60.7383C25.0384 60.8887 24.831 61.0938 24.6761 61.3535C24.5257 61.6087 24.4163 61.8936 24.348 62.208C24.2842 62.5179 24.2523 62.8346 24.2523 63.1582V63.4453C24.2523 63.7689 24.2842 64.0879 24.348 64.4023C24.4118 64.7168 24.5189 65.0016 24.6693 65.2568C24.8242 65.512 25.0316 65.7171 25.2913 65.8721C25.5557 66.0225 25.8838 66.0977 26.2757 66.0977ZM31.1732 67V59.6035H32.4379V65.9609H35.8422V59.6035H37.1137V67H31.1732ZM37.9887 65.9609L37.8656 69.1943H36.7377V67H35.7738V65.9609H37.9887ZM42.852 67.1367C42.3371 67.1367 41.8699 67.0501 41.4507 66.877C41.036 66.6992 40.6782 66.4508 40.3774 66.1318C40.0812 65.8128 39.8533 65.4346 39.6938 64.9971C39.5343 64.5596 39.4546 64.0811 39.4546 63.5615V63.2744C39.4546 62.6729 39.5434 62.1374 39.7212 61.668C39.8989 61.194 40.1404 60.793 40.4458 60.4648C40.7511 60.1367 41.0975 59.8883 41.4848 59.7197C41.8722 59.5511 42.2733 59.4668 42.688 59.4668C43.2166 59.4668 43.6723 59.5579 44.0552 59.7402C44.4425 59.9225 44.7593 60.1777 45.0054 60.5059C45.2514 60.8294 45.4337 61.2122 45.5522 61.6543C45.6707 62.0918 45.73 62.5703 45.73 63.0898V63.6572H40.2065V62.625H44.4653V62.5293C44.4471 62.2012 44.3787 61.8822 44.2602 61.5723C44.1463 61.2624 43.964 61.0072 43.7134 60.8066C43.4627 60.6061 43.1209 60.5059 42.688 60.5059C42.4009 60.5059 42.1365 60.5674 41.895 60.6904C41.6535 60.8089 41.4461 60.9867 41.2729 61.2236C41.0998 61.4606 40.9653 61.75 40.8696 62.0918C40.7739 62.4336 40.7261 62.8278 40.7261 63.2744V63.5615C40.7261 63.9124 40.7739 64.2428 40.8696 64.5527C40.9699 64.8581 41.1134 65.127 41.3003 65.3594C41.4917 65.5918 41.7218 65.7741 41.9907 65.9062C42.2641 66.0384 42.574 66.1045 42.9204 66.1045C43.367 66.1045 43.7453 66.0133 44.0552 65.8311C44.3651 65.6488 44.6362 65.4049 44.8686 65.0996L45.6343 65.708C45.4748 65.9495 45.272 66.1797 45.0259 66.3984C44.7798 66.6172 44.4767 66.7949 44.1167 66.9316C43.7612 67.0684 43.3397 67.1367 42.852 67.1367ZM56.5368 62.8096V63.835H52.6266V62.8096H56.5368ZM52.8932 59.6035V67H51.6286V59.6035H52.8932ZM57.5621 59.6035V67H56.2907V59.6035H57.5621ZM64.3806 65.7354V61.9277C64.3806 61.6361 64.3213 61.3831 64.2029 61.1689C64.0889 60.9502 63.9157 60.7816 63.6833 60.6631C63.4509 60.5446 63.1638 60.4854 62.822 60.4854C62.503 60.4854 62.2227 60.54 61.9812 60.6494C61.7442 60.7588 61.5573 60.9023 61.4206 61.0801C61.2885 61.2578 61.2224 61.4492 61.2224 61.6543H59.9577C59.9577 61.39 60.0261 61.1279 60.1628 60.8682C60.2995 60.6084 60.4955 60.3737 60.7507 60.1641C61.0105 59.9499 61.3204 59.7812 61.6804 59.6582C62.045 59.5306 62.4506 59.4668 62.8972 59.4668C63.4349 59.4668 63.9089 59.5579 64.3191 59.7402C64.7338 59.9225 65.0573 60.1982 65.2898 60.5674C65.5267 60.932 65.6452 61.39 65.6452 61.9414V65.3867C65.6452 65.6328 65.6657 65.8949 65.7068 66.1729C65.7523 66.4508 65.8184 66.6901 65.905 66.8906V67H64.5857C64.5219 66.8542 64.4717 66.6605 64.4353 66.4189C64.3988 66.1729 64.3806 65.945 64.3806 65.7354ZM64.5993 62.5156L64.613 63.4043H63.3347C62.9747 63.4043 62.6534 63.4339 62.3708 63.4932C62.0883 63.5479 61.8513 63.6322 61.6599 63.7461C61.4685 63.86 61.3226 64.0036 61.2224 64.1768C61.1221 64.3454 61.072 64.5436 61.072 64.7715C61.072 65.0039 61.1244 65.2158 61.2292 65.4072C61.334 65.5986 61.4913 65.7513 61.7009 65.8652C61.9151 65.9746 62.1771 66.0293 62.487 66.0293C62.8744 66.0293 63.2162 65.9473 63.5124 65.7832C63.8086 65.6191 64.0433 65.4186 64.2165 65.1816C64.3943 64.9447 64.49 64.7145 64.5036 64.4912L65.0437 65.0996C65.0118 65.291 64.9252 65.5029 64.7839 65.7354C64.6426 65.9678 64.4535 66.1911 64.2165 66.4053C63.9841 66.6149 63.7061 66.7904 63.3825 66.9316C63.0635 67.0684 62.7035 67.1367 62.3025 67.1367C61.8012 67.1367 61.3614 67.0387 60.9831 66.8428C60.6094 66.6468 60.3178 66.3848 60.1081 66.0566C59.903 65.724 59.8005 65.3525 59.8005 64.9424C59.8005 64.5459 59.878 64.1973 60.0329 63.8965C60.1879 63.5911 60.4112 63.3382 60.7029 63.1377C60.9945 62.9326 61.3454 62.7777 61.7556 62.6729C62.1657 62.568 62.6237 62.5156 63.1296 62.5156H64.5993ZM71.5271 63.7461H69.1004L69.0867 62.7344H71.0691C71.4611 62.7344 71.7869 62.6956 72.0467 62.6182C72.311 62.5407 72.5092 62.4245 72.6414 62.2695C72.7736 62.1146 72.8396 61.9232 72.8396 61.6953C72.8396 61.5176 72.8009 61.3626 72.7234 61.2305C72.6505 61.0938 72.5389 60.9821 72.3885 60.8955C72.2381 60.8044 72.0512 60.7383 71.8279 60.6973C71.6092 60.6517 71.3517 60.6289 71.0555 60.6289H69.4353V67H68.1707V59.6035H71.0555C71.5249 59.6035 71.9464 59.6445 72.3201 59.7266C72.6984 59.8086 73.0197 59.9339 73.284 60.1025C73.5529 60.2666 73.7579 60.4762 73.8992 60.7314C74.0405 60.9867 74.1111 61.2874 74.1111 61.6338C74.1111 61.8571 74.0656 62.069 73.9744 62.2695C73.8833 62.4701 73.7488 62.6478 73.5711 62.8027C73.3934 62.9577 73.1746 63.0853 72.9148 63.1855C72.6551 63.2812 72.3566 63.3428 72.0193 63.3701L71.5271 63.7461ZM71.5271 67H68.6424L69.2713 65.9746H71.5271C71.8781 65.9746 72.1697 65.9313 72.4021 65.8447C72.6346 65.7536 72.8077 65.626 72.9217 65.4619C73.0402 65.2933 73.0994 65.0928 73.0994 64.8604C73.0994 64.6279 73.0402 64.4297 72.9217 64.2656C72.8077 64.097 72.6346 63.9694 72.4021 63.8828C72.1697 63.7917 71.8781 63.7461 71.5271 63.7461H69.6062L69.6199 62.7344H72.0193L72.4773 63.1172C72.8829 63.1491 73.227 63.2493 73.5096 63.418C73.7921 63.5866 74.0063 63.8008 74.1521 64.0605C74.298 64.3158 74.3709 64.5938 74.3709 64.8945C74.3709 65.2409 74.3048 65.5462 74.1727 65.8105C74.045 66.0749 73.8582 66.2959 73.6121 66.4736C73.366 66.6468 73.0675 66.779 72.7166 66.8701C72.3657 66.9567 71.9692 67 71.5271 67ZM82.0643 59.6035V67H80.7997V59.6035H82.0643ZM81.6337 63.001V64.04C81.3785 64.1357 81.1187 64.2223 80.8544 64.2998C80.5946 64.3727 80.3189 64.432 80.0272 64.4775C79.7401 64.5186 79.4279 64.5391 79.0907 64.5391C78.5074 64.5391 78.0015 64.4388 77.5731 64.2383C77.1447 64.0332 76.8143 63.7256 76.5819 63.3154C76.3495 62.9007 76.2333 62.3789 76.2333 61.75V59.5898H77.4979V61.75C77.4979 62.1602 77.5595 62.4928 77.6825 62.748C77.8055 63.0033 77.9856 63.1924 78.2225 63.3154C78.4595 63.4339 78.7489 63.4932 79.0907 63.4932C79.4188 63.4932 79.7264 63.4727 80.0136 63.4316C80.3052 63.3861 80.5832 63.3268 80.8475 63.2539C81.1164 63.181 81.3785 63.0967 81.6337 63.001ZM88.8828 65.7354V61.9277C88.8828 61.6361 88.8235 61.3831 88.705 61.1689C88.5911 60.9502 88.4179 60.7816 88.1855 60.6631C87.9531 60.5446 87.666 60.4854 87.3242 60.4854C87.0052 60.4854 86.7249 60.54 86.4834 60.6494C86.2464 60.7588 86.0595 60.9023 85.9228 61.0801C85.7907 61.2578 85.7246 61.4492 85.7246 61.6543H84.4599C84.4599 61.39 84.5283 61.1279 84.665 60.8682C84.8017 60.6084 84.9977 60.3737 85.2529 60.1641C85.5127 59.9499 85.8226 59.7812 86.1826 59.6582C86.5472 59.5306 86.9528 59.4668 87.3994 59.4668C87.9371 59.4668 88.4111 59.5579 88.8213 59.7402C89.236 59.9225 89.5595 60.1982 89.792 60.5674C90.0289 60.932 90.1474 61.39 90.1474 61.9414V65.3867C90.1474 65.6328 90.1679 65.8949 90.2089 66.1729C90.2545 66.4508 90.3206 66.6901 90.4072 66.8906V67H89.0879C89.0241 66.8542 88.9739 66.6605 88.9375 66.4189C88.901 66.1729 88.8828 65.945 88.8828 65.7354ZM89.1015 62.5156L89.1152 63.4043H87.8369C87.4768 63.4043 87.1556 63.4339 86.873 63.4932C86.5905 63.5479 86.3535 63.6322 86.1621 63.7461C85.9707 63.86 85.8248 64.0036 85.7246 64.1768C85.6243 64.3454 85.5742 64.5436 85.5742 64.7715C85.5742 65.0039 85.6266 65.2158 85.7314 65.4072C85.8362 65.5986 85.9935 65.7513 86.2031 65.8652C86.4173 65.9746 86.6793 66.0293 86.9892 66.0293C87.3766 66.0293 87.7184 65.9473 88.0146 65.7832C88.3108 65.6191 88.5455 65.4186 88.7187 65.1816C88.8964 64.9447 88.9921 64.7145 89.0058 64.4912L89.5459 65.0996C89.514 65.291 89.4274 65.5029 89.2861 65.7354C89.1448 65.9678 88.9557 66.1911 88.7187 66.4053C88.4863 66.6149 88.2083 66.7904 87.8847 66.9316C87.5657 67.0684 87.2057 67.1367 86.8046 67.1367C86.3033 67.1367 85.8636 67.0387 85.4853 66.8428C85.1116 66.6468 84.8199 66.3848 84.6103 66.0566C84.4052 65.724 84.3027 65.3525 84.3027 64.9424C84.3027 64.5459 84.3802 64.1973 84.5351 63.8965C84.6901 63.5911 84.9134 63.3382 85.205 63.1377C85.4967 62.9326 85.8476 62.7777 86.2578 62.6729C86.6679 62.568 87.1259 62.5156 87.6318 62.5156H89.1015ZM97.5743 62.8096V63.835H93.6641V62.8096H97.5743ZM93.9307 59.6035V67H92.6661V59.6035H93.9307ZM98.5996 59.6035V67H97.3282V59.6035H98.5996ZM106.074 62.8096V63.835H102.164V62.8096H106.074ZM102.431 59.6035V67H101.166V59.6035H102.431ZM107.1 59.6035V67H105.828V59.6035H107.1ZM111.054 63.4727H112.421L110.281 67H108.914L111.054 63.4727ZM112.113 59.6035H115.203V67H113.939V60.6289H112.113C111.753 60.6289 111.46 60.6904 111.232 60.8135C111.004 60.932 110.837 61.0869 110.733 61.2783C110.628 61.4697 110.575 61.668 110.575 61.873C110.575 62.0736 110.623 62.2673 110.719 62.4541C110.815 62.6364 110.965 62.7868 111.17 62.9053C111.375 63.0238 111.64 63.083 111.963 63.083H114.28V64.1221H111.963C111.539 64.1221 111.163 64.0651 110.835 63.9512C110.507 63.8372 110.229 63.68 110.001 63.4795C109.773 63.2744 109.6 63.0352 109.482 62.7617C109.363 62.4837 109.304 62.1829 109.304 61.8594C109.304 61.5358 109.365 61.2373 109.488 60.9639C109.616 60.6904 109.798 60.4512 110.035 60.2461C110.277 60.041 110.571 59.8838 110.917 59.7744C111.268 59.6605 111.667 59.6035 112.113 59.6035ZM122.927 59.6035V67H121.662V59.6035H122.927ZM127.781 59.6035L124.274 63.8418H122.503L122.312 62.7344H123.761L126.243 59.6035H127.781ZM126.42 67L123.7 63.6504L124.513 62.7344L128.027 67H126.42ZM133.909 65.7354V61.9277C133.909 61.6361 133.849 61.3831 133.731 61.1689C133.617 60.9502 133.444 60.7816 133.211 60.6631C132.979 60.5446 132.692 60.4854 132.35 60.4854C132.031 60.4854 131.751 60.54 131.509 60.6494C131.272 60.7588 131.085 60.9023 130.949 61.0801C130.817 61.2578 130.75 61.4492 130.75 61.6543H129.486C129.486 61.39 129.554 61.1279 129.691 60.8682C129.828 60.6084 130.024 60.3737 130.279 60.1641C130.539 59.9499 130.848 59.7812 131.208 59.6582C131.573 59.5306 131.979 59.4668 132.425 59.4668C132.963 59.4668 133.437 59.5579 133.847 59.7402C134.262 59.9225 134.585 60.1982 134.818 60.5674C135.055 60.932 135.173 61.39 135.173 61.9414V65.3867C135.173 65.6328 135.194 65.8949 135.235 66.1729C135.28 66.4508 135.346 66.6901 135.433 66.8906V67H134.114C134.05 66.8542 134 66.6605 133.963 66.4189C133.927 66.1729 133.909 65.945 133.909 65.7354ZM134.127 62.5156L134.141 63.4043H132.863C132.503 63.4043 132.181 63.4339 131.899 63.4932C131.616 63.5479 131.379 63.6322 131.188 63.7461C130.997 63.86 130.851 64.0036 130.75 64.1768C130.65 64.3454 130.6 64.5436 130.6 64.7715C130.6 65.0039 130.652 65.2158 130.757 65.4072C130.862 65.5986 131.019 65.7513 131.229 65.8652C131.443 65.9746 131.705 66.0293 132.015 66.0293C132.402 66.0293 132.744 65.9473 133.04 65.7832C133.337 65.6191 133.571 65.4186 133.745 65.1816C133.922 64.9447 134.018 64.7145 134.032 64.4912L134.572 65.0996C134.54 65.291 134.453 65.5029 134.312 65.7354C134.171 65.9678 133.982 66.1911 133.745 66.4053C133.512 66.6149 133.234 66.7904 132.911 66.9316C132.592 67.0684 132.232 67.1367 131.831 67.1367C131.329 67.1367 130.889 67.0387 130.511 66.8428C130.137 66.6468 129.846 66.3848 129.636 66.0566C129.431 65.724 129.329 65.3525 129.329 64.9424C129.329 64.5459 129.406 64.1973 129.561 63.8965C129.716 63.5911 129.939 63.3382 130.231 63.1377C130.523 62.9326 130.873 62.7777 131.284 62.6729C131.694 62.568 132.152 62.5156 132.658 62.5156H134.127ZM138.916 59.6035H140.18L140.071 62.3721C140.043 63.0739 139.964 63.68 139.832 64.1904C139.699 64.7008 139.531 65.1361 139.326 65.4961C139.121 65.8516 138.89 66.1501 138.635 66.3916C138.385 66.6331 138.125 66.8359 137.856 67H137.227L137.261 65.9678L137.521 65.9609C137.671 65.7832 137.817 65.6009 137.959 65.4141C138.1 65.2227 138.23 64.9971 138.348 64.7373C138.467 64.473 138.565 64.1517 138.642 63.7734C138.724 63.3906 138.777 62.9235 138.799 62.3721L138.916 59.6035ZM139.23 59.6035H143.68V67H142.416V60.7725H139.23V59.6035ZM136.94 65.9609H144.63V69.1807H143.366V67H138.205V69.1807H136.933L136.94 65.9609ZM147.716 61.0254V69.8438H146.445V59.6035H147.607L147.716 61.0254ZM152.7 63.2402V63.3838C152.7 63.9215 152.636 64.4206 152.508 64.8809C152.381 65.3366 152.194 65.7331 151.948 66.0703C151.706 66.4076 151.408 66.6696 151.052 66.8564C150.697 67.0433 150.289 67.1367 149.829 67.1367C149.359 67.1367 148.945 67.0592 148.585 66.9043C148.225 66.7493 147.919 66.5238 147.669 66.2275C147.418 65.9313 147.217 65.5758 147.067 65.1611C146.921 64.7464 146.821 64.2793 146.766 63.7598V62.9941C146.821 62.4473 146.923 61.9574 147.074 61.5244C147.224 61.0915 147.422 60.7223 147.669 60.417C147.919 60.1071 148.222 59.8724 148.578 59.7129C148.933 59.5488 149.343 59.4668 149.808 59.4668C150.273 59.4668 150.685 59.5579 151.046 59.7402C151.406 59.918 151.709 60.1732 151.955 60.5059C152.201 60.8385 152.385 61.2373 152.508 61.7021C152.636 62.1624 152.7 62.6751 152.7 63.2402ZM151.428 63.3838V63.2402C151.428 62.8711 151.39 62.5247 151.312 62.2012C151.235 61.873 151.114 61.5859 150.95 61.3398C150.79 61.0892 150.585 60.8932 150.335 60.752C150.084 60.6061 149.785 60.5332 149.439 60.5332C149.12 60.5332 148.842 60.5879 148.605 60.6973C148.373 60.8066 148.174 60.9548 148.01 61.1416C147.846 61.3239 147.712 61.5335 147.607 61.7705C147.507 62.0029 147.432 62.2445 147.381 62.4951V64.2656C147.473 64.5846 147.6 64.8854 147.764 65.168C147.928 65.446 148.147 65.6715 148.421 65.8447C148.694 66.0133 149.038 66.0977 149.453 66.0977C149.795 66.0977 150.088 66.027 150.335 65.8857C150.585 65.7399 150.79 65.5417 150.95 65.291C151.114 65.0404 151.235 64.7533 151.312 64.4297C151.39 64.1016 151.428 63.7529 151.428 63.3838ZM156.107 59.6035V67H154.836V59.6035H156.107ZM154.74 57.6416C154.74 57.4365 154.801 57.2633 154.924 57.1221C155.052 56.9808 155.239 56.9102 155.485 56.9102C155.727 56.9102 155.911 56.9808 156.039 57.1221C156.171 57.2633 156.237 57.4365 156.237 57.6416C156.237 57.8376 156.171 58.0062 156.039 58.1475C155.911 58.2842 155.727 58.3525 155.485 58.3525C155.239 58.3525 155.052 58.2842 154.924 58.1475C154.801 58.0062 154.74 57.8376 154.74 57.6416ZM162.03 63.7461H159.603L159.59 62.7344H161.572C161.964 62.7344 162.29 62.6956 162.55 62.6182C162.814 62.5407 163.012 62.4245 163.144 62.2695C163.276 62.1146 163.343 61.9232 163.343 61.6953C163.343 61.5176 163.304 61.3626 163.226 61.2305C163.153 61.0938 163.042 60.9821 162.891 60.8955C162.741 60.8044 162.554 60.7383 162.331 60.6973C162.112 60.6517 161.855 60.6289 161.558 60.6289H159.938V67H158.674V59.6035H161.558C162.028 59.6035 162.449 59.6445 162.823 59.7266C163.201 59.8086 163.523 59.9339 163.787 60.1025C164.056 60.2666 164.261 60.4762 164.402 60.7314C164.543 60.9867 164.614 61.2874 164.614 61.6338C164.614 61.8571 164.568 62.069 164.477 62.2695C164.386 62.4701 164.252 62.6478 164.074 62.8027C163.896 62.9577 163.678 63.0853 163.418 63.1855C163.158 63.2812 162.859 63.3428 162.522 63.3701L162.03 63.7461ZM162.03 67H159.145L159.774 65.9746H162.03C162.381 65.9746 162.673 65.9313 162.905 65.8447C163.137 65.7536 163.311 65.626 163.425 65.4619C163.543 65.2933 163.602 65.0928 163.602 64.8604C163.602 64.6279 163.543 64.4297 163.425 64.2656C163.311 64.097 163.137 63.9694 162.905 63.8828C162.673 63.7917 162.381 63.7461 162.03 63.7461H160.109L160.123 62.7344H162.522L162.98 63.1172C163.386 63.1491 163.73 63.2493 164.012 63.418C164.295 63.5866 164.509 63.8008 164.655 64.0605C164.801 64.3158 164.874 64.5938 164.874 64.8945C164.874 65.2409 164.808 65.5462 164.676 65.8105C164.548 66.0749 164.361 66.2959 164.115 66.4736C163.869 66.6468 163.57 66.779 163.219 66.8701C162.869 66.9567 162.472 67 162.03 67ZM173.896 59.6035V67H172.625V59.6035H173.896ZM176.378 59.6035V60.6289H170.191V59.6035H176.378ZM179.539 63.4727H180.906L178.767 67H177.399L179.539 63.4727ZM180.599 59.6035H183.688V67H182.424V60.6289H180.599C180.239 60.6289 179.945 60.6904 179.717 60.8135C179.489 60.932 179.323 61.0869 179.218 61.2783C179.113 61.4697 179.061 61.668 179.061 61.873C179.061 62.0736 179.108 62.2673 179.204 62.4541C179.3 62.6364 179.45 62.7868 179.655 62.9053C179.86 63.0238 180.125 63.083 180.448 63.083H182.766V64.1221H180.448C180.024 64.1221 179.648 64.0651 179.32 63.9512C178.992 63.8372 178.714 63.68 178.486 63.4795C178.258 63.2744 178.085 63.0352 177.967 62.7617C177.848 62.4837 177.789 62.1829 177.789 61.8594C177.789 61.5358 177.851 61.2373 177.974 60.9639C178.101 60.6904 178.284 60.4512 178.521 60.2461C178.762 60.041 179.056 59.8838 179.402 59.7744C179.753 59.6605 180.152 59.6035 180.599 59.6035ZM190.924 59.6035V60.6494H187.506V67H186.241V59.6035H190.924ZM197.462 62.8096V63.835H193.552V62.8096H197.462ZM193.819 59.6035V67H192.554V59.6035H193.819ZM198.487 59.6035V67H197.216V59.6035H198.487ZM204.014 67.1367C203.499 67.1367 203.032 67.0501 202.613 66.877C202.198 66.6992 201.84 66.4508 201.539 66.1318C201.243 65.8128 201.015 65.4346 200.856 64.9971C200.696 64.5596 200.616 64.0811 200.616 63.5615V63.2744C200.616 62.6729 200.705 62.1374 200.883 61.668C201.061 61.194 201.302 60.793 201.608 60.4648C201.913 60.1367 202.259 59.8883 202.647 59.7197C203.034 59.5511 203.435 59.4668 203.85 59.4668C204.378 59.4668 204.834 59.5579 205.217 59.7402C205.604 59.9225 205.921 60.1777 206.167 60.5059C206.413 60.8294 206.596 61.2122 206.714 61.6543C206.833 62.0918 206.892 62.5703 206.892 63.0898V63.6572H201.368V62.625H205.627V62.5293C205.609 62.2012 205.541 61.8822 205.422 61.5723C205.308 61.2624 205.126 61.0072 204.875 60.8066C204.625 60.6061 204.283 60.5059 203.85 60.5059C203.563 60.5059 203.298 60.5674 203.057 60.6904C202.815 60.8089 202.608 60.9867 202.435 61.2236C202.262 61.4606 202.127 61.75 202.031 62.0918C201.936 62.4336 201.888 62.8278 201.888 63.2744V63.5615C201.888 63.9124 201.936 64.2428 202.031 64.5527C202.132 64.8581 202.275 65.127 202.462 65.3594C202.654 65.5918 202.884 65.7741 203.153 65.9062C203.426 66.0384 203.736 66.1045 204.082 66.1045C204.529 66.1045 204.907 66.0133 205.217 65.8311C205.527 65.6488 205.798 65.4049 206.031 65.0996L206.796 65.708C206.637 65.9495 206.434 66.1797 206.188 66.3984C205.942 66.6172 205.639 66.7949 205.279 66.9316C204.923 67.0684 204.502 67.1367 204.014 67.1367ZM214.759 66.2344L216.817 59.6035H218.17L215.204 68.1416C215.135 68.3239 215.044 68.5199 214.93 68.7295C214.821 68.9437 214.679 69.1465 214.506 69.3379C214.333 69.5293 214.123 69.6842 213.877 69.8027C213.636 69.9258 213.346 69.9873 213.009 69.9873C212.909 69.9873 212.781 69.9736 212.626 69.9463C212.471 69.9189 212.362 69.8962 212.298 69.8779L212.291 68.8525C212.328 68.8571 212.385 68.8617 212.462 68.8662C212.544 68.8753 212.601 68.8799 212.633 68.8799C212.92 68.8799 213.164 68.8411 213.365 68.7637C213.565 68.6908 213.734 68.5654 213.871 68.3877C214.012 68.2145 214.133 67.9753 214.233 67.6699L214.759 66.2344ZM213.248 59.6035L215.169 65.3457L215.497 66.6787L214.588 67.1436L211.868 59.6035H213.248ZM226.585 66.0977C226.885 66.0977 227.163 66.0361 227.419 65.9131C227.674 65.79 227.883 65.6214 228.047 65.4072C228.211 65.1885 228.305 64.9401 228.328 64.6621H229.531C229.508 65.0996 229.36 65.5075 229.086 65.8857C228.818 66.2594 228.464 66.5625 228.027 66.7949C227.589 67.0228 227.109 67.1367 226.585 67.1367C226.029 67.1367 225.543 67.0387 225.128 66.8428C224.718 66.6468 224.377 66.3779 224.103 66.0361C223.834 65.6943 223.631 65.3024 223.495 64.8604C223.363 64.4137 223.296 63.9421 223.296 63.4453V63.1582C223.296 62.6615 223.363 62.1921 223.495 61.75C223.631 61.3034 223.834 60.9092 224.103 60.5674C224.377 60.2256 224.718 59.9567 225.128 59.7607C225.543 59.5648 226.029 59.4668 226.585 59.4668C227.163 59.4668 227.669 59.5853 228.102 59.8223C228.535 60.0547 228.875 60.3737 229.121 60.7793C229.371 61.1803 229.508 61.6361 229.531 62.1465H228.328C228.305 61.8411 228.218 61.5654 228.068 61.3193C227.922 61.0732 227.722 60.8773 227.466 60.7314C227.216 60.5811 226.922 60.5059 226.585 60.5059C226.197 60.5059 225.871 60.5833 225.607 60.7383C225.347 60.8887 225.14 61.0938 224.985 61.3535C224.835 61.6087 224.725 61.8936 224.657 62.208C224.593 62.5179 224.561 62.8346 224.561 63.1582V63.4453C224.561 63.7689 224.593 64.0879 224.657 64.4023C224.721 64.7168 224.828 65.0016 224.978 65.2568C225.133 65.512 225.34 65.7171 225.6 65.8721C225.864 66.0225 226.193 66.0977 226.585 66.0977ZM234.442 67.1367C233.927 67.1367 233.46 67.0501 233.041 66.877C232.626 66.6992 232.268 66.4508 231.967 66.1318C231.671 65.8128 231.443 65.4346 231.284 64.9971C231.124 64.5596 231.045 64.0811 231.045 63.5615V63.2744C231.045 62.6729 231.133 62.1374 231.311 61.668C231.489 61.194 231.73 60.793 232.036 60.4648C232.341 60.1367 232.687 59.8883 233.075 59.7197C233.462 59.5511 233.863 59.4668 234.278 59.4668C234.807 59.4668 235.262 59.5579 235.645 59.7402C236.033 59.9225 236.349 60.1777 236.595 60.5059C236.841 60.8294 237.024 61.2122 237.142 61.6543C237.261 62.0918 237.32 62.5703 237.32 63.0898V63.6572H231.797V62.625H236.055V62.5293C236.037 62.2012 235.969 61.8822 235.85 61.5723C235.736 61.2624 235.554 61.0072 235.303 60.8066C235.053 60.6061 234.711 60.5059 234.278 60.5059C233.991 60.5059 233.727 60.5674 233.485 60.6904C233.243 60.8089 233.036 60.9867 232.863 61.2236C232.69 61.4606 232.555 61.75 232.46 62.0918C232.364 62.4336 232.316 62.8278 232.316 63.2744V63.5615C232.316 63.9124 232.364 64.2428 232.46 64.5527C232.56 64.8581 232.703 65.127 232.89 65.3594C233.082 65.5918 233.312 65.7741 233.581 65.9062C233.854 66.0384 234.164 66.1045 234.51 66.1045C234.957 66.1045 235.335 66.0133 235.645 65.8311C235.955 65.6488 236.226 65.4049 236.459 65.0996L237.224 65.708C237.065 65.9495 236.862 66.1797 236.616 66.3984C236.37 66.6172 236.067 66.7949 235.707 66.9316C235.351 67.0684 234.93 67.1367 234.442 67.1367ZM243.961 56.3838H245C245 56.8304 244.931 57.1859 244.795 57.4502C244.658 57.71 244.471 57.9105 244.234 58.0518C244.002 58.193 243.737 58.3001 243.441 58.373C243.149 58.446 242.846 58.5166 242.532 58.585C242.14 58.667 241.775 58.7969 241.438 58.9746C241.106 59.1478 240.818 59.3939 240.577 59.7129C240.34 60.0319 240.164 60.4466 240.051 60.957C239.941 61.4674 239.912 62.0986 239.962 62.8506V63.4795H238.923V62.8506C238.923 62.0075 239.002 61.2715 239.162 60.6426C239.326 60.0137 239.556 59.4827 239.852 59.0498C240.148 58.6169 240.499 58.2728 240.905 58.0176C241.315 57.7624 241.766 57.5869 242.259 57.4912C242.614 57.4229 242.919 57.3499 243.175 57.2725C243.43 57.1904 243.623 57.0811 243.756 56.9443C243.892 56.8076 243.961 56.6208 243.961 56.3838ZM242.464 60.0273C242.947 60.0273 243.377 60.1117 243.756 60.2803C244.134 60.4489 244.455 60.6836 244.719 60.9844C244.984 61.2852 245.184 61.6406 245.321 62.0508C245.462 62.4564 245.533 62.8984 245.533 63.377V63.5273C245.533 64.0423 245.458 64.5208 245.307 64.9629C245.162 65.4004 244.945 65.7832 244.658 66.1113C244.375 66.4349 244.029 66.6878 243.619 66.8701C243.213 67.0524 242.751 67.1436 242.231 67.1436C241.712 67.1436 241.247 67.0524 240.837 66.8701C240.431 66.6878 240.085 66.4349 239.798 66.1113C239.51 65.7832 239.292 65.4004 239.141 64.9629C238.995 64.5208 238.923 64.0423 238.923 63.5273V63.377C238.923 63.263 238.943 63.1514 238.984 63.042C239.025 62.9326 239.075 62.821 239.134 62.707C239.198 62.5931 239.255 62.4723 239.305 62.3447C239.474 61.9346 239.704 61.554 239.996 61.2031C240.292 60.8522 240.645 60.5697 241.055 60.3555C241.47 60.1367 241.94 60.0273 242.464 60.0273ZM242.217 61.0596C241.753 61.0596 241.37 61.1667 241.069 61.3809C240.773 61.5951 240.552 61.8799 240.406 62.2354C240.26 62.5863 240.187 62.9668 240.187 63.377V63.5273C240.187 63.8737 240.228 64.2018 240.31 64.5117C240.392 64.8216 240.515 65.0973 240.679 65.3389C240.848 65.5758 241.06 65.7627 241.315 65.8994C241.575 66.0361 241.88 66.1045 242.231 66.1045C242.582 66.1045 242.885 66.0361 243.14 65.8994C243.396 65.7627 243.605 65.5758 243.769 65.3389C243.933 65.0973 244.056 64.8216 244.138 64.5117C244.22 64.2018 244.261 63.8737 244.261 63.5273V63.377C244.261 63.0671 244.22 62.7731 244.138 62.4951C244.056 62.2171 243.931 61.971 243.762 61.7568C243.598 61.5426 243.386 61.374 243.127 61.251C242.871 61.1234 242.568 61.0596 242.217 61.0596ZM250.458 67.1367C249.943 67.1367 249.476 67.0501 249.056 66.877C248.642 66.6992 248.284 66.4508 247.983 66.1318C247.687 65.8128 247.459 65.4346 247.3 64.9971C247.14 64.5596 247.06 64.0811 247.06 63.5615V63.2744C247.06 62.6729 247.149 62.1374 247.327 61.668C247.505 61.194 247.746 60.793 248.052 60.4648C248.357 60.1367 248.703 59.8883 249.091 59.7197C249.478 59.5511 249.879 59.4668 250.294 59.4668C250.822 59.4668 251.278 59.5579 251.661 59.7402C252.048 59.9225 252.365 60.1777 252.611 60.5059C252.857 60.8294 253.04 61.2122 253.158 61.6543C253.276 62.0918 253.336 62.5703 253.336 63.0898V63.6572H247.812V62.625H252.071V62.5293C252.053 62.2012 251.985 61.8822 251.866 61.5723C251.752 61.2624 251.57 61.0072 251.319 60.8066C251.068 60.6061 250.727 60.5059 250.294 60.5059C250.007 60.5059 249.742 60.5674 249.501 60.6904C249.259 60.8089 249.052 60.9867 248.879 61.2236C248.706 61.4606 248.571 61.75 248.475 62.0918C248.38 62.4336 248.332 62.8278 248.332 63.2744V63.5615C248.332 63.9124 248.38 64.2428 248.475 64.5527C248.576 64.8581 248.719 65.127 248.906 65.3594C249.097 65.5918 249.328 65.7741 249.596 65.9062C249.87 66.0384 250.18 66.1045 250.526 66.1045C250.973 66.1045 251.351 66.0133 251.661 65.8311C251.971 65.6488 252.242 65.4049 252.474 65.0996L253.24 65.708C253.081 65.9495 252.878 66.1797 252.632 66.3984C252.386 66.6172 252.082 66.7949 251.722 66.9316C251.367 67.0684 250.945 67.1367 250.458 67.1367ZM255.253 66.3301C255.253 66.1159 255.319 65.9359 255.451 65.79C255.588 65.6396 255.784 65.5645 256.039 65.5645C256.294 65.5645 256.488 65.6396 256.62 65.79C256.757 65.9359 256.825 66.1159 256.825 66.3301C256.825 66.5397 256.757 66.7174 256.62 66.8633C256.488 67.0091 256.294 67.082 256.039 67.082C255.784 67.082 255.588 67.0091 255.451 66.8633C255.319 66.7174 255.253 66.5397 255.253 66.3301Z" fill="#757575"/>
</svg>
