<svg width="89" height="23" viewBox="0 0 89 23" fill="none" xmlns="http://www.w3.org/2000/svg">
<path d="M19.6 22L19.57 9.4L13.39 19.78H11.2L5.05 9.67V22H0.49V0.999999H4.51L12.37 14.05L20.11 0.999999H24.1L24.16 22H19.6ZM36.4923 22.24C34.7923 22.24 33.2623 21.89 31.9023 21.19C30.5623 20.47 29.5123 19.48 28.7523 18.22C27.9923 16.96 27.6123 15.53 27.6123 13.93C27.6123 12.33 27.9923 10.9 28.7523 9.64C29.5123 8.38 30.5623 7.4 31.9023 6.7C33.2623 5.98 34.7923 5.62 36.4923 5.62C38.1923 5.62 39.7123 5.98 41.0523 6.7C42.3923 7.4 43.4423 8.38 44.2023 9.64C44.9623 10.9 45.3423 12.33 45.3423 13.93C45.3423 15.53 44.9623 16.96 44.2023 18.22C43.4423 19.48 42.3923 20.47 41.0523 21.19C39.7123 21.89 38.1923 22.24 36.4923 22.24ZM36.4923 18.4C37.6923 18.4 38.6723 18 39.4323 17.2C40.2123 16.38 40.6023 15.29 40.6023 13.93C40.6023 12.57 40.2123 11.49 39.4323 10.69C38.6723 9.87 37.6923 9.46 36.4923 9.46C35.2923 9.46 34.3023 9.87 33.5223 10.69C32.7423 11.49 32.3523 12.57 32.3523 13.93C32.3523 15.29 32.7423 16.38 33.5223 17.2C34.3023 18 35.2923 18.4 36.4923 18.4ZM62.9905 11.17H67.4305V19.69C66.2905 20.55 64.9705 21.21 63.4705 21.67C61.9705 22.13 60.4605 22.36 58.9405 22.36C56.7605 22.36 54.8005 21.9 53.0605 20.98C51.3205 20.04 49.9505 18.75 48.9505 17.11C47.9705 15.45 47.4805 13.58 47.4805 11.5C47.4805 9.42 47.9705 7.56 48.9505 5.92C49.9505 4.26 51.3305 2.97 53.0905 2.05C54.8505 1.11 56.8305 0.64 59.0305 0.64C60.8705 0.64 62.5405 0.949999 64.0405 1.57C65.5405 2.19 66.8005 3.09 67.8205 4.27L64.7005 7.15C63.2005 5.57 61.3905 4.78 59.2705 4.78C57.9305 4.78 56.7405 5.06 55.7005 5.62C54.6605 6.18 53.8505 6.97 53.2705 7.99C52.6905 9.01 52.4005 10.18 52.4005 11.5C52.4005 12.8 52.6905 13.96 53.2705 14.98C53.8505 16 54.6505 16.8 55.6705 17.38C56.7105 17.94 57.8905 18.22 59.2105 18.22C60.6105 18.22 61.8705 17.92 62.9905 17.32V11.17ZM79.2951 22.24C77.5951 22.24 76.0651 21.89 74.7051 21.19C73.3651 20.47 72.3151 19.48 71.5551 18.22C70.7951 16.96 70.4151 15.53 70.4151 13.93C70.4151 12.33 70.7951 10.9 71.5551 9.64C72.3151 8.38 73.3651 7.4 74.7051 6.7C76.0651 5.98 77.5951 5.62 79.2951 5.62C80.9951 5.62 82.5151 5.98 83.8551 6.7C85.1951 7.4 86.2451 8.38 87.0051 9.64C87.7651 10.9 88.1451 12.33 88.1451 13.93C88.1451 15.53 87.7651 16.96 87.0051 18.22C86.2451 19.48 85.1951 20.47 83.8551 21.19C82.5151 21.89 80.9951 22.24 79.2951 22.24ZM79.2951 18.4C80.4951 18.4 81.4751 18 82.2351 17.2C83.0151 16.38 83.4051 15.29 83.4051 13.93C83.4051 12.57 83.0151 11.49 82.2351 10.69C81.4751 9.87 80.4951 9.46 79.2951 9.46C78.0951 9.46 77.1051 9.87 76.3251 10.69C75.5451 11.49 75.1551 12.57 75.1551 13.93C75.1551 15.29 75.5451 16.38 76.3251 17.2C77.1051 18 78.0951 18.4 79.2951 18.4Z" fill="#95E1D3"/>
</svg>
