<svg width="74" height="73" viewBox="0 0 74 73" fill="none" xmlns="http://www.w3.org/2000/svg">
<path d="M71.6551 36.311C71.6551 17.1899 56.1542 1.68921 37.0329 1.68921C17.9117 1.68921 2.41086 17.1899 2.41086 36.311C2.41086 55.432 17.9116 70.9331 37.0329 70.9331C56.1542 70.9331 71.6551 55.432 71.6551 36.311Z" fill="white" stroke="#FED136" stroke-width="3"/>
<path fill-rule="evenodd" clip-rule="evenodd" d="M39.0591 15.3696C40.3759 14.6089 42.0599 15.0601 42.8201 16.3771L46.9501 23.5308C47.0701 23.7385 47.1598 23.9554 47.2208 24.1764H51.1049C53.0057 24.1764 54.5466 25.7171 54.5466 27.6177C54.5466 29.5182 53.0057 31.0596 51.1049 31.0596H19.4418C17.5409 31.0596 16 29.5182 16 27.6177C16 25.7171 17.5409 24.1764 19.4418 24.1764H23.3256C23.3866 23.9554 23.4764 23.7385 23.5963 23.5308L27.7262 16.3771C28.4867 15.0601 30.1705 14.6089 31.4874 15.3696C32.8043 16.1302 33.2555 17.8137 32.4951 19.1307L29.5819 24.1764H40.9646L38.0513 19.1307C37.291 17.8137 37.7421 16.1302 39.0591 15.3696ZM20.0241 53.0863L18.8327 32.436H51.7138L50.5224 53.0863H20.0241ZM36.6499 39.3192C36.6499 38.559 36.0337 37.943 35.2733 37.943C34.5131 37.943 33.8966 38.559 33.8966 39.3192V47.5796C33.8966 48.3398 34.5131 48.9562 35.2733 48.9562C36.0337 48.9562 36.6499 48.3398 36.6499 47.5796V39.3192ZM43.5334 37.943C44.2936 37.943 44.91 38.559 44.91 39.3192V47.5796C44.91 48.3398 44.2936 48.9562 43.5334 48.9562C42.773 48.9562 42.1565 48.3398 42.1565 47.5796V39.3192C42.1565 38.559 42.773 37.943 43.5334 37.943ZM28.39 39.3192C28.39 38.559 27.7736 37.943 27.0134 37.943C26.253 37.943 25.6366 38.559 25.6366 39.3192V47.5796C25.6366 48.3398 26.253 48.9562 27.0134 48.9562C27.7736 48.9562 28.39 48.3398 28.39 47.5796V39.3192Z" fill="#FED136"/>
</svg>
