<svg width="162" height="39" viewBox="0 0 162 39" fill="none" xmlns="http://www.w3.org/2000/svg">
<g clip-path="url(#clip0_0_75)">
<path d="M63.0066 15.776C63.8466 15.776 64.2666 15.884 64.2666 16.1C64.2666 16.34 63.8466 16.532 63.0066 16.676C62.1666 16.82 61.4466 16.892 60.8466 16.892C59.1666 23.084 57.9786 26.924 57.2826 28.412C55.5066 32.18 53.5866 34.868 51.5226 36.476C49.4586 38.084 47.4066 38.888 45.3666 38.888C43.2306 38.888 41.5626 38.144 40.3626 36.656C39.9066 36.104 39.6786 35.576 39.6786 35.072C39.7026 34.832 39.7746 34.7 39.8946 34.676C40.0866 34.676 40.3146 34.856 40.5786 35.216C40.9866 35.768 41.3346 36.2 41.6226 36.512C41.9346 36.824 42.3786 37.136 42.9546 37.448C43.5546 37.76 44.1786 37.916 44.8266 37.916C46.5306 37.916 48.1626 37.328 49.7226 36.152C51.2826 34.976 52.6146 33.476 53.7186 31.652C54.8226 29.828 55.7466 27.98 56.4906 26.108C57.2346 24.26 57.7986 22.484 58.1826 20.78C57.1746 22.724 55.2666 24.356 52.4586 25.676C49.6506 26.996 46.8186 27.656 43.9626 27.656C40.9386 27.656 38.5386 26.792 36.7626 25.064C34.9866 23.312 34.0986 21.152 34.0986 18.584C34.0986 17.072 34.3626 15.608 34.8906 14.192C35.4186 12.776 36.1386 11.504 37.0506 10.376C37.9866 9.224 39.0786 8.18 40.3266 7.244C41.5746 6.284 42.9066 5.492 44.3226 4.868C45.7626 4.22 47.2506 3.716 48.7866 3.356C50.3466 2.996 51.8826 2.816 53.3946 2.816C53.7306 2.816 54.0666 2.828 54.4026 2.852C56.1306 2.948 57.5346 3.212 58.6146 3.644C59.7186 4.076 60.4146 4.52 60.7026 4.976C60.8466 5.216 60.9186 5.432 60.9186 5.624C60.9186 5.72 60.8946 5.828 60.8466 5.948C60.7986 6.044 60.7386 6.128 60.6666 6.2C60.6186 6.248 60.5346 6.332 60.4146 6.452C60.2946 6.572 60.2106 6.668 60.1626 6.74C60.0906 6.836 60.0066 6.968 59.9106 7.136C59.8146 7.28 59.7186 7.424 59.6226 7.568C59.5506 7.712 59.4666 7.856 59.3706 8C59.2746 8.12 59.1786 8.228 59.0826 8.324C59.0106 8.396 58.9386 8.432 58.8666 8.432C58.8186 8.432 58.7706 8.42 58.7226 8.396C58.6986 8.372 58.6746 8.336 58.6506 8.288V8.252C58.6506 8.084 58.7346 7.832 58.9026 7.496C59.0706 7.136 59.1546 6.836 59.1546 6.596C59.1546 6.236 58.9986 5.84 58.6866 5.408C57.9426 4.376 56.3946 3.752 54.0426 3.536C53.7546 3.512 53.4426 3.5 53.1066 3.5C52.5066 3.5 51.8586 3.536 51.1626 3.608C50.4906 3.68 49.7346 3.824 48.8946 4.04C48.0786 4.232 47.2506 4.484 46.4106 4.796C45.5946 5.084 44.7546 5.48 43.8906 5.984C43.0266 6.464 42.2226 7.016 41.4786 7.64C40.7346 8.24 40.0146 8.984 39.3186 9.872C38.6226 10.736 38.0346 11.672 37.5546 12.68C36.5946 14.696 36.1146 16.64 36.1146 18.512C36.1146 20.864 36.9786 22.784 38.7066 24.272C40.4346 25.736 42.4026 26.468 44.6106 26.468C48.1866 26.468 51.1026 25.712 53.3586 24.2C55.6386 22.664 57.5466 20.288 59.0826 17.072C57.0426 17.192 53.7786 17.252 49.2906 17.252C48.8826 17.252 48.5466 17.132 48.2826 16.892C48.0426 16.628 47.9226 16.34 47.9226 16.028C47.9226 15.716 48.1626 15.44 48.6426 15.2C49.1466 14.96 49.5786 14.84 49.9386 14.84C49.9626 14.84 49.9866 14.84 50.0106 14.84C50.1546 14.84 50.2386 14.888 50.2626 14.984C50.2626 15.008 50.2506 15.032 50.2266 15.056C50.1066 15.2 50.0226 15.32 49.9746 15.416C49.9506 15.512 49.9986 15.584 50.1186 15.632C50.3826 15.632 51.1506 15.656 52.4226 15.704C53.6946 15.728 55.1946 15.752 56.9226 15.776C58.6746 15.776 60.1146 15.776 61.2426 15.776C62.0106 15.776 62.5986 15.776 63.0066 15.776ZM75.5982 15.272C76.0542 15.344 76.2822 15.476 76.2822 15.668C76.2822 15.86 76.1022 16.052 75.7422 16.244C75.3822 16.412 75.0582 16.496 74.7702 16.496C74.7702 19.304 74.0382 21.704 72.5742 23.696C71.1102 25.688 69.6582 26.684 68.2182 26.684C66.8262 26.684 66.1302 25.676 66.1302 23.66C66.1302 23.108 66.1782 22.556 66.2742 22.004C66.3942 21.38 66.6102 20.576 66.9222 19.592C67.2342 18.608 67.6422 17.54 68.1462 16.388C68.6502 15.236 69.2622 14.264 69.9822 13.472C70.7262 12.656 71.4702 12.248 72.2142 12.248H72.4662C72.4662 11.912 72.5622 11.624 72.7542 11.384C72.9462 11.144 73.2102 11.024 73.5462 11.024C73.8822 11.048 74.1822 11.756 74.4462 13.148C74.7102 14.516 75.0942 15.224 75.5982 15.272ZM73.7622 16.208C73.5462 16.088 73.2822 15.668 72.9702 14.948C72.6582 14.204 72.4422 13.832 72.3222 13.832C71.5782 13.832 70.7142 14.936 69.7302 17.144C68.7462 19.328 68.1342 21.056 67.8942 22.328C67.7982 22.88 67.7502 23.384 67.7502 23.84C67.7502 25.016 68.0862 25.604 68.7582 25.604C69.7182 25.604 70.7862 24.632 71.9622 22.688C73.1622 20.72 73.7622 18.56 73.7622 16.208ZM85.7449 3.572C84.4249 6.308 83.0809 9.62 81.7129 13.508C80.3449 17.372 79.3369 20.756 78.6889 23.66C78.6649 23.732 78.6529 23.828 78.6529 23.948C78.6529 24.236 78.7729 24.38 79.0129 24.38C79.1569 24.38 79.5409 24.2 80.1649 23.84C80.8129 23.48 81.2209 23.3 81.3889 23.3C81.5329 23.3 81.6409 23.348 81.7129 23.444C81.7129 23.732 81.1129 24.272 79.9129 25.064C78.7129 25.832 77.8609 26.216 77.3569 26.216C76.9009 26.216 76.6729 26 76.6729 25.568C76.6729 25.328 76.7209 25.076 76.8169 24.812C77.4409 23.108 78.0169 21.416 78.5449 19.736C79.0969 18.056 79.7209 16.064 80.4169 13.76C81.1129 11.432 81.6289 9.716 81.9649 8.612C82.0369 8.396 82.0729 8.18 82.0729 7.964C82.0729 7.868 82.0489 7.784 82.0009 7.712C81.9769 7.616 81.9649 7.532 81.9649 7.46C81.9649 7.388 82.0009 7.244 82.0729 7.028C82.5529 5.516 82.9969 4.508 83.4049 4.004C83.8129 3.5 84.4129 3.248 85.2049 3.248C85.5409 3.248 85.7209 3.356 85.7449 3.572ZM99.1305 2.672C99.2025 2.72 99.2385 2.828 99.2385 2.996C99.2385 3.38 99.0465 4.1 98.6625 5.156C98.3025 6.188 97.7865 7.544 97.1145 9.224C96.4665 10.88 95.9625 12.236 95.6025 13.292C95.6265 13.268 95.6505 13.256 95.6745 13.256C95.7705 13.256 95.8665 13.34 95.9625 13.508C96.0825 13.676 96.1425 13.832 96.1425 13.976C96.1425 14.12 96.0225 14.192 95.7825 14.192C95.4705 14.192 95.3025 14.156 95.2785 14.084C94.7985 15.164 94.1865 16.916 93.4425 19.34C92.7225 21.764 92.3625 23.252 92.3625 23.804C92.3625 24.356 92.5185 24.632 92.8305 24.632C93.1905 24.632 93.6105 24.428 94.0905 24.02C94.5705 23.588 94.9905 23.156 95.3505 22.724C95.7345 22.292 95.9625 22.076 96.0345 22.076C96.1065 22.076 96.1425 22.136 96.1425 22.256C96.1425 22.328 96.1185 22.424 96.0705 22.544C96.0465 22.664 96.0105 22.772 95.9625 22.868C95.9385 22.94 95.9145 22.976 95.8905 22.976C95.3385 23.528 94.5705 24.164 93.5865 24.884C92.6025 25.58 91.8345 25.928 91.2825 25.928C90.8265 25.928 90.5985 25.676 90.5985 25.172C90.5985 23.876 91.0545 21.896 91.9665 19.232C90.9345 20.696 89.6745 22.232 88.1865 23.84C86.7225 25.448 85.5705 26.252 84.7305 26.252C84.2265 26.252 83.9745 25.892 83.9745 25.172C83.9745 24.14 84.3345 22.652 85.0545 20.708C85.7745 18.74 86.6265 16.964 87.6105 15.38C88.6185 13.772 89.4585 12.968 90.1305 12.968H90.2745C90.4425 12.968 90.6345 12.884 90.8505 12.716C91.0905 12.524 91.3425 12.428 91.6065 12.428C91.9665 12.428 92.4705 12.524 93.1185 12.716C93.7905 12.908 94.1505 13.004 94.1985 13.004C94.2225 13.004 94.2345 12.992 94.2345 12.968C95.9625 8.312 96.8505 5.912 96.8985 5.768C96.6345 5.768 96.5025 5.624 96.5025 5.336C96.5025 4.664 96.8625 3.788 97.5825 2.708C97.6785 2.516 97.8705 2.42 98.1585 2.42C98.4705 2.42 98.7945 2.504 99.1305 2.672ZM93.9825 13.796C93.9825 13.532 93.2745 13.4 91.8585 13.4C91.4505 13.4 91.1505 13.424 90.9585 13.472C90.4305 13.616 89.4105 15.068 87.8985 17.828C86.4105 20.588 85.6665 22.604 85.6665 23.876C85.6665 24.26 85.7865 24.452 86.0265 24.452C86.2665 24.452 86.6145 24.26 87.0705 23.876C87.5265 23.492 87.9465 23.084 88.3305 22.652C88.7145 22.22 89.1345 21.752 89.5905 21.248C90.0465 20.72 90.2865 20.432 90.3105 20.384C90.9585 19.664 91.5465 18.824 92.0745 17.864C92.6265 16.88 93.0705 15.968 93.4065 15.128C93.7665 14.288 93.9585 13.844 93.9825 13.796ZM106.762 14.804C106.906 15.548 106.978 16.148 106.978 16.604C106.978 17.132 106.798 17.588 106.438 17.972C106.078 18.332 105.61 18.596 105.034 18.764C104.458 18.908 103.942 19.016 103.486 19.088C103.03 19.136 102.598 19.16 102.19 19.16C101.95 19.16 101.674 19.16 101.362 19.16C101.074 19.136 100.918 19.124 100.894 19.124C100.102 21.14 99.7057 22.724 99.7057 23.876C99.7057 24.836 100.066 25.316 100.786 25.316C101.29 25.316 101.878 25.004 102.55 24.38C103.222 23.732 103.81 23.096 104.314 22.472C104.818 21.824 105.118 21.5 105.214 21.5C105.382 21.5 105.466 21.596 105.466 21.788C105.466 22.46 104.806 23.396 103.486 24.596C102.166 25.772 101.134 26.36 100.39 26.36C99.7897 26.36 99.2377 26.18 98.7337 25.82C98.2537 25.436 98.0137 24.812 98.0137 23.948C98.0137 23.684 98.0497 23.372 98.1217 23.012C98.2897 22.1 98.5057 21.212 98.7697 20.348C99.0577 19.484 99.2137 18.956 99.2377 18.764C98.8777 18.668 98.6977 18.476 98.6977 18.188C98.6977 17.924 98.9017 17.792 99.3097 17.792H99.5617C100.522 15.896 101.074 14.804 101.218 14.516C101.89 13.244 103.174 12.608 105.07 12.608C105.886 12.608 106.45 13.34 106.762 14.804ZM105.466 16.532C105.466 15.932 105.406 15.416 105.286 14.984C105.166 14.552 105.022 14.252 104.854 14.084C104.71 13.916 104.554 13.832 104.386 13.832C103.906 13.832 103.33 14.348 102.658 15.38C102.01 16.412 101.53 17.324 101.218 18.116C101.266 18.116 101.458 18.128 101.794 18.152C102.13 18.176 102.418 18.188 102.658 18.188C103.642 18.188 104.35 18.08 104.782 17.864C105.214 17.648 105.442 17.204 105.466 16.532ZM120.659 12.608C119.435 14.648 118.295 16.988 117.239 19.628C116.183 22.268 115.655 24.248 115.655 25.568C115.655 26 115.751 26.216 115.943 26.216C116.015 26.216 116.243 26.096 116.627 25.856C117.035 25.616 117.275 25.496 117.347 25.496C117.491 25.496 117.563 25.568 117.563 25.712C117.563 26 117.299 26.324 116.771 26.684C116.243 27.044 115.715 27.224 115.187 27.224C114.491 27.224 114.143 26.708 114.143 25.676C114.143 24.74 114.335 23.648 114.719 22.4C115.103 21.152 115.703 19.556 116.519 17.612C117.335 15.668 117.743 14.684 117.743 14.66C117.863 14.348 117.923 14.108 117.923 13.94C117.923 13.82 117.887 13.76 117.815 13.76C117.695 13.76 117.431 13.976 117.023 14.408C115.991 15.56 114.515 17.528 112.595 20.312C110.675 23.096 109.691 24.812 109.643 25.46C109.619 25.628 109.391 25.856 108.959 26.144C108.527 26.456 108.167 26.612 107.879 26.612C107.711 26.612 107.615 26.528 107.591 26.36C107.639 26.432 108.083 25.232 108.923 22.76C109.787 20.288 110.399 18.5 110.759 17.396C110.855 17.108 110.903 16.892 110.903 16.748C110.903 16.652 110.879 16.568 110.831 16.496C110.807 16.4 110.795 16.328 110.795 16.28C110.795 16.184 110.831 16.028 110.903 15.812C111.455 14.276 111.923 13.268 112.307 12.788C112.691 12.284 113.279 12.032 114.071 12.032C114.383 12.032 114.563 12.14 114.611 12.356C112.643 16.388 111.467 19.268 111.083 20.996C115.043 14.612 118.079 11.42 120.191 11.42C120.671 11.42 120.911 11.576 120.911 11.888C120.911 12.104 120.827 12.344 120.659 12.608Z" fill="#FED136"/>
</g>
<defs>
<clipPath id="clip0_0_75">
<rect width="162" height="47" fill="white" transform="translate(0 -6)"/>
</clipPath>
</defs>
</svg>
