<svg width="13" height="17" viewBox="0 0 13 17" fill="none" xmlns="http://www.w3.org/2000/svg">
<path fill-rule="evenodd" clip-rule="evenodd" d="M9.15488 5.74644L12.2196 14.0133C12.3998 14.4499 12.3466 14.9622 12.0713 15.3685C11.796 15.775 11.3372 16.0167 10.8437 16.0167H2.12186C1.62839 16.0167 1.1696 15.775 0.894144 15.3693C0.618879 14.9622 0.565599 14.4494 0.751929 13.9971L3.81083 5.74644V3.31351C3.23128 3.1133 2.81618 2.56814 2.81618 1.92875V1.53193C2.81618 0.723066 3.47978 0.0655518 4.2955 0.0655518H8.66992C9.48565 0.0655518 10.1492 0.723066 10.1492 1.53193V1.92875C10.1492 2.56854 9.73303 3.11444 9.15488 3.31392V5.74644ZM4.6124 11.6394C4.33492 11.6394 4.10944 11.8618 4.10944 12.1391C4.10944 12.4158 4.33492 12.6387 4.6124 12.6387C4.89208 12.6387 5.11768 12.4158 5.11768 12.1391C5.11768 11.8618 4.89208 11.6394 4.6124 11.6394ZM8.23034 13.4374C8.23034 12.9625 7.84078 12.5749 7.35898 12.5749C6.87671 12.5749 6.48805 12.9625 6.48805 13.4374C6.48805 13.9143 6.87671 14.3021 7.35898 14.3021C7.84078 14.3021 8.23034 13.9143 8.23034 13.4374ZM7.24609 10.0602C6.89878 10.0602 6.61733 10.3404 6.61733 10.6823C6.61733 11.0254 6.89878 11.3046 7.24609 11.3046C7.59151 11.3046 7.87279 11.0254 7.87279 10.6823C7.87279 10.3404 7.59151 10.0602 7.24609 10.0602ZM4.78927 2.91004V5.91869L3.64784 8.99747H3.69293C3.69293 8.99747 8.36231 8.92138 9.00131 8.26335C9.00796 8.25665 9.0141 8.2514 9.02029 8.24612C9.02496 8.24214 9.02965 8.23813 9.0346 8.23346L8.1763 5.91869V2.42497H8.66549C8.94599 2.42497 9.17066 2.20235 9.17066 1.92875V1.53193C9.17066 1.25792 8.94599 1.0355 8.66992 1.0355H4.2955C4.01942 1.0355 3.79463 1.25792 3.79463 1.53193V1.92875C3.79463 2.20235 4.01942 2.42497 4.2955 2.42497H4.78484L4.78927 2.91004ZM6.82294 7.11064C6.82294 7.48378 6.5174 7.78698 6.14248 7.78698C5.76536 7.78698 5.46026 7.48378 5.46026 7.11064C5.46026 6.73911 5.76536 6.4353 6.14248 6.4353C6.5174 6.4353 6.82294 6.73911 6.82294 7.11064Z" fill="white"/>
</svg>
