<svg width="17" height="17" viewBox="0 0 17 17" fill="none" xmlns="http://www.w3.org/2000/svg">
<path fill-rule="evenodd" clip-rule="evenodd" d="M7.92925 6.77824L7.96693 6.77989C8.10432 6.77989 8.2369 6.71445 8.32198 6.60376C8.4163 6.48056 8.44127 6.31939 8.38894 6.17407C8.38445 6.16138 7.95578 4.91578 8.51246 3.87836C9.10338 2.8904 9.29592 2.09474 9.08443 1.51402C8.89457 0.992185 8.46636 0.853751 8.4193 0.840128C8.18478 0.770892 7.93051 0.909345 7.86135 1.14445C7.79107 1.38336 7.92673 1.63589 8.14485 1.69999C8.14739 1.7009 8.20785 1.73121 8.24251 1.82613C8.29339 1.96552 8.3476 2.39754 7.75863 3.38755L7.73701 3.424C7.69202 3.49876 7.64347 3.57628 7.59101 3.65716C6.90952 4.71068 6.70537 5.54052 6.98425 6.12205C7.20862 6.59168 7.68166 6.75521 7.92925 6.77824ZM14.2693 14.4288C13.6673 14.3861 12.9784 14.3524 12.2348 14.3269C12.9133 13.7369 13.4861 12.9719 13.9071 12.0818C14.1127 12.2892 14.3682 12.4405 14.6578 12.5111C14.7845 12.5424 14.9127 12.5576 15.0399 12.5576C15.331 12.5576 15.6174 12.4772 15.8723 12.3206C16.2387 12.0953 16.4964 11.74 16.5975 11.3196C16.6988 10.899 16.6316 10.4643 16.4083 10.0951C16.0342 9.47569 15.3123 9.20678 14.649 9.37328C14.6778 9.08472 14.6974 8.79256 14.6974 8.49407C14.6974 8.18268 14.4474 7.93045 14.1385 7.93045H3.79267C3.48403 7.93045 3.23375 8.18268 3.23375 8.49407C3.23375 10.9074 4.20864 13.0398 5.69314 14.3275C4.95087 14.3529 4.26303 14.3864 3.66199 14.4288C1.56957 14.5764 0.961212 14.7169 0.961212 15.3628C0.961212 16.0084 1.56957 16.1491 3.66199 16.2968C5.0806 16.3969 6.96422 16.4521 8.96565 16.4521C10.9669 16.4521 12.8505 16.3969 14.2693 16.2968C16.3617 16.1491 16.9699 16.0084 16.9699 15.3628C16.9699 14.7169 16.3617 14.5764 14.2693 14.4288ZM14.5373 10.1367C14.5394 10.1353 14.5416 10.1347 14.5439 10.1341C14.5461 10.1335 14.5483 10.133 14.5503 10.1317C14.9905 9.86133 15.5672 10.0026 15.8356 10.4468C15.9656 10.6617 16.0046 10.915 15.9456 11.1601C15.8868 11.405 15.737 11.6117 15.5233 11.7426C15.31 11.8743 15.0585 11.9133 14.8162 11.8541C14.5734 11.7947 14.3679 11.6435 14.2382 11.428C14.2313 11.4165 14.2221 11.4079 14.2128 11.3992C14.2079 11.3945 14.2029 11.3899 14.1983 11.3847C14.3415 10.9863 14.4543 10.5687 14.5373 10.1367ZM4.37196 9.05759H13.5594C13.3398 12.0961 11.3633 14.4819 8.96565 14.4819C6.56798 14.4819 4.59168 12.0961 4.37196 9.05759ZM10.3462 6.86292L10.3149 6.86201C10.0818 6.83926 9.7653 6.69868 9.61106 6.37561C9.4131 5.96365 9.53789 5.42133 9.99301 4.71793C10.0205 4.67503 10.0466 4.63346 10.0709 4.59331L10.0967 4.5502C10.4476 3.9613 10.3862 3.74738 10.3781 3.72516C10.3795 3.72589 10.3982 3.73408 10.424 3.74154C10.3167 3.70919 10.2279 3.63628 10.1746 3.53686C10.1208 3.4368 10.1091 3.322 10.1414 3.21336C10.2046 2.99617 10.4467 2.86264 10.6645 2.92654C10.7262 2.94518 11.0321 3.05496 11.1693 3.43106C11.3174 3.83812 11.1983 4.35482 10.8058 5.0104C10.5007 5.57968 10.7397 6.28523 10.7427 6.29395L10.7427 6.29398C10.792 6.4312 10.7683 6.58256 10.6791 6.69838C10.5993 6.8018 10.4749 6.86292 10.3462 6.86292Z" fill="white"/>
</svg>
