<svg width="17" height="17" viewBox="0 0 17 17" fill="none" xmlns="http://www.w3.org/2000/svg">
<path fill-rule="evenodd" clip-rule="evenodd" d="M15.6166 4.14856H9.93633L12.177 1.46615C12.2129 1.47261 12.2437 1.48624 12.2809 1.48624C12.6497 1.48624 12.948 1.18875 12.948 0.820515C12.948 0.454442 12.6497 0.154907 12.2809 0.154907C11.9139 0.154907 11.6137 0.454442 11.6137 0.820515C11.6137 0.901018 11.6339 0.975156 11.6596 1.0461L9.06779 4.14856H8.82358L6.23297 1.0461C6.25812 0.975156 6.27766 0.901018 6.27766 0.820515C6.27766 0.454442 5.97932 0.154907 5.61049 0.154907C5.24292 0.154907 4.94331 0.454442 4.94331 0.820515C4.94331 1.18875 5.24292 1.48624 5.61049 1.48624C5.64762 1.48624 5.67973 1.47261 5.71432 1.46615L7.95564 4.14856H2.27529C1.5389 4.14856 0.94162 4.74514 0.94162 5.47914V14.7977C0.94162 15.5327 1.5389 16.1285 2.27529 16.1285H15.6166C16.3531 16.1285 16.9504 15.5327 16.9504 14.7977V5.47914C16.9504 4.74514 16.3531 4.14856 15.6166 4.14856ZM12.948 13.4664C12.948 14.2013 12.3513 14.7977 11.6137 14.7977H3.60966C2.87322 14.7977 2.27529 14.2013 2.27529 13.4664V6.81076C2.27529 6.07533 2.87322 5.47914 3.60966 5.47914H11.6137C12.3513 5.47914 12.948 6.07533 12.948 6.81076V13.4664ZM14.9136 7.51784C14.3875 7.51784 13.9607 7.09154 13.9607 6.56705C13.9607 6.04204 14.3875 5.61676 14.9136 5.61676C15.4392 5.61676 15.8659 6.04204 15.8659 6.56705C15.8659 7.09154 15.4392 7.51784 14.9136 7.51784Z" fill="white"/>
</svg>
