<svg width="17" height="16" viewBox="0 0 17 16" fill="none" xmlns="http://www.w3.org/2000/svg">
<path fill-rule="evenodd" clip-rule="evenodd" d="M16.2787 0.698858C16.3341 0.670076 16.402 0.676952 16.4523 0.715346C16.5013 0.754262 16.5234 0.818054 16.5086 0.879182L13.5981 12.7609C13.5875 12.804 13.5594 12.8399 13.521 12.8623C13.4966 12.8757 13.4687 12.8834 13.4409 12.8834C13.4252 12.8834 13.4095 12.8808 13.3942 12.8765L7.57218 11.1203C7.52031 11.1047 7.47999 11.0642 7.46428 11.0129C7.44923 10.9611 7.46107 10.9052 7.49599 10.8645L13.2913 4.07265L5.7463 10.4585C5.70433 10.497 5.64413 10.5094 5.58968 10.4921L0.629142 8.93013C0.566993 8.90997 0.522837 8.85477 0.51708 8.79047C0.51195 8.72544 0.545903 8.66431 0.604822 8.63461L16.2787 0.698858ZM7.66701 12.3653L9.27578 12.8555C9.32383 12.8702 9.36223 12.9063 9.37984 12.9531C9.39747 12.9993 9.392 13.0518 9.36479 13.0937L7.756 15.6106C7.72524 15.6577 7.6737 15.6851 7.61958 15.6851C7.60421 15.6851 7.58917 15.6828 7.57474 15.6789C7.50526 15.6587 7.45787 15.5964 7.45787 15.5252V12.5183C7.45787 12.4674 7.48189 12.4195 7.52352 12.3893C7.56481 12.359 7.61829 12.3495 7.66701 12.3653Z" fill="white"/>
</svg>
