<svg width="1377" height="957" viewBox="0 0 1377 957" fill="none" xmlns="http://www.w3.org/2000/svg">
<g opacity="0.5">
<path opacity="0.05" d="M723.346 138.44C718.945 122.152 704.065 110.154 686.381 110.154C665.233 110.154 648.085 127.302 648.085 148.449C648.085 148.606 648.097 148.751 648.097 148.907C630.312 151.03 616.918 160.257 616.918 171.328C616.918 177.83 621.542 183.695 628.96 187.85C628.502 189.403 628.245 191.023 628.245 192.676C628.245 204.473 640.511 214.036 655.637 214.036C665.3 214.036 673.779 210.137 678.661 204.239C686.805 210.327 697.53 214.036 709.282 214.036C734.73 214.036 755.363 196.698 755.363 175.316C755.375 158.057 741.924 143.433 723.346 138.44Z" fill="#C6C6C6"/>
<path opacity="0.05" d="M119.806 215.075C111.997 186.163 85.5997 164.893 54.2306 164.893C16.7062 164.893 -13.702 195.313 -13.702 232.826C-13.702 233.105 -13.6797 233.373 -13.6797 233.641C-45.2386 237.417 -69 253.783 -69 273.423C-69 284.951 -60.7891 295.352 -47.6293 302.747C-48.4448 305.506 -48.8917 308.366 -48.8917 311.316C-48.8917 332.239 -27.1411 349.209 -0.296486 349.209C16.8403 349.209 31.8992 342.282 40.5458 331.837C54.9903 342.64 74.015 349.209 94.8718 349.209C140.026 349.209 176.635 318.454 176.635 280.505C176.623 249.873 152.762 223.934 119.806 215.075Z" fill="#C6C6C6"/>
<path opacity="0.1" d="M825.236 270.281C819.767 249.954 801.279 235 779.309 235C753.027 235 731.73 256.387 731.73 282.762C731.73 282.958 731.745 283.146 731.745 283.335C709.642 285.99 693 297.496 693 311.304C693 319.41 698.751 326.722 707.968 331.921C707.396 333.861 707.084 335.872 707.084 337.946C707.084 352.657 722.317 364.587 741.119 364.587C753.121 364.587 763.668 359.717 769.724 352.374C779.841 359.969 793.165 364.587 807.773 364.587C839.398 364.587 865.038 342.964 865.038 316.284C865.03 294.747 848.318 276.51 825.236 270.281Z" fill="#C6C6C6"/>
<path opacity="0.15" d="M76.3009 423.71C69.3403 397.951 45.8094 379 17.8472 379C-15.6019 379 -42.7077 406.103 -42.7077 439.526C-42.7077 439.774 -42.6877 440.013 -42.6877 440.252C-70.8192 443.616 -92 458.198 -92 475.696C-92 485.967 -84.6808 495.234 -72.9503 501.823C-73.6772 504.281 -74.0755 506.829 -74.0755 509.457C-74.0755 528.099 -54.6872 543.218 -30.758 543.218C-15.4824 543.218 -2.05892 537.047 5.64861 527.741C18.5244 537.366 35.4829 543.218 54.0746 543.218C94.325 543.218 126.958 515.817 126.958 482.006C126.958 454.714 105.687 431.603 76.3009 423.71Z" fill="#C6C6C6"/>
<path opacity="0.15" d="M511.301 649.71C504.34 623.951 480.809 605 452.847 605C419.398 605 392.292 632.103 392.292 665.526C392.292 665.774 392.312 666.013 392.312 666.252C364.181 669.616 343 684.198 343 701.696C343 711.967 350.319 721.234 362.05 727.823C361.323 730.281 360.924 732.829 360.924 735.457C360.924 754.099 380.313 769.218 404.242 769.218C419.518 769.218 432.941 763.047 440.649 753.741C453.524 763.366 470.483 769.218 489.075 769.218C529.325 769.218 561.958 741.817 561.958 708.006C561.958 680.714 540.687 657.603 511.301 649.71Z" fill="#C6C6C6"/>
<path opacity="0.15" d="M943.301 124.71C936.34 98.9509 912.809 80 884.847 80C851.398 80 824.292 107.103 824.292 140.526C824.292 140.774 824.312 141.013 824.312 141.252C796.181 144.616 775 159.198 775 176.696C775 186.967 782.319 196.234 794.05 202.823C793.323 205.281 792.924 207.829 792.924 210.457C792.924 229.099 812.313 244.218 836.242 244.218C851.518 244.218 864.941 238.047 872.649 228.741C885.524 238.366 902.483 244.218 921.075 244.218C961.325 244.218 993.958 216.817 993.958 183.006C993.958 155.714 972.687 132.603 943.301 124.71Z" fill="#C6C6C6"/>
<path opacity="0.05" d="M362.539 799.005C353.376 765.01 322.402 740 285.595 740C241.565 740 205.885 775.768 205.885 819.877C205.885 820.206 205.911 820.521 205.911 820.836C168.881 825.276 141 844.519 141 867.612C141 881.168 150.634 893.397 166.076 902.093C165.119 905.337 164.594 908.7 164.594 912.167C164.594 936.77 190.116 956.723 221.614 956.723C241.722 956.723 259.392 948.579 269.537 936.298C286.486 949 308.809 956.723 333.282 956.723C386.265 956.723 429.22 920.561 429.22 875.94C429.22 839.922 401.221 809.421 362.539 799.005Z" fill="#C6C6C6"/>
<path opacity="0.1" d="M202.324 695.069C198.133 679.474 183.967 668 167.132 668C146.995 668 130.676 684.409 130.676 704.645C130.676 704.795 130.688 704.94 130.688 705.085C113.752 707.121 101 715.95 101 726.544C101 732.762 105.406 738.373 112.469 742.362C112.031 743.851 111.791 745.393 111.791 746.984C111.791 758.271 123.464 767.425 137.87 767.425C147.067 767.425 155.148 763.688 159.788 758.054C167.54 763.881 177.75 767.425 188.943 767.425C213.175 767.425 232.821 750.835 232.821 730.364C232.821 713.841 220.016 699.848 202.324 695.069Z" fill="#C6C6C6"/>
<path opacity="0.09" d="M861.519 759.977C856.121 739.826 837.873 725 816.188 725C790.248 725 769.227 746.203 769.227 772.35C769.227 772.545 769.242 772.731 769.242 772.918C747.426 775.55 731 786.957 731 800.646C731 808.682 736.676 815.931 745.773 821.086C745.21 823.009 744.901 825.002 744.901 827.058C744.901 841.642 759.936 853.47 778.494 853.47C790.34 853.47 800.75 848.642 806.727 841.362C816.713 848.892 829.864 853.47 844.282 853.47C875.497 853.47 900.804 832.034 900.804 805.583C900.804 784.232 884.308 766.152 861.519 759.977Z" fill="#C6C6C6"/>
<path opacity="0.1" d="M1328.71 506.885C1322.11 482.177 1299.78 464 1273.24 464C1241.5 464 1215.78 489.996 1215.78 522.055C1215.78 522.294 1215.8 522.523 1215.8 522.752C1189.1 525.979 1169 539.965 1169 556.749C1169 566.601 1175.95 575.489 1187.08 581.81C1186.39 584.168 1186.01 586.612 1186.01 589.132C1186.01 607.014 1204.41 621.515 1227.12 621.515C1241.61 621.515 1254.35 615.596 1261.67 606.67C1273.89 615.902 1289.98 621.515 1307.62 621.515C1345.82 621.515 1376.79 595.233 1376.79 562.802C1376.79 536.624 1356.6 514.456 1328.71 506.885Z" fill="#C6C6C6"/>
<circle opacity="0.1" cx="757.5" cy="43.5" r="43.5" fill="#FAD34F"/>
</g>
</svg>
