<svg aria-hidden="true" style="position: absolute; width: 0; height: 0; overflow: hidden;" version="1.1" xmlns="http://www.w3.org/2000/svg" xmlns:xlink="http://www.w3.org/1999/xlink">
<defs>
<symbol id="icon-apps" viewBox="0 0 32 32">
<path d="M5.333 0h4c2.946 0 5.333 2.388 5.333 5.333v4c0 2.946-2.388 5.333-5.333 5.333h-4c-2.946 0-5.333-2.388-5.333-5.333v-4c0-2.946 2.388-5.333 5.333-5.333z"></path>
<path d="M22.667 0h4c2.945 0 5.333 2.388 5.333 5.333v4c0 2.946-2.388 5.333-5.333 5.333h-4c-2.945 0-5.333-2.388-5.333-5.333v-4c-0-2.946 2.388-5.333 5.333-5.333z"></path>
<path d="M5.333 17.333h4c2.946 0 5.333 2.388 5.333 5.333v4c0 2.945-2.388 5.333-5.333 5.333h-4c-2.946 0-5.333-2.388-5.333-5.333v-4c0-2.946 2.388-5.333 5.333-5.333z"></path>
<path d="M22.667 17.333h4c2.945 0 5.333 2.388 5.333 5.333v4c0 2.946-2.388 5.333-5.333 5.333h-4c-2.945 0-5.333-2.388-5.333-5.333v-4c-0-2.946 2.388-5.333 5.333-5.333z"></path>
</symbol>
<symbol id="icon-checkbox" viewBox="0 0 32 32">
<path d="M25.333 0h-18.667c-3.68 0.004-6.662 2.987-6.667 6.667v18.667c0.004 3.68 2.987 6.662 6.667 6.667h18.667c3.68-0.004 6.662-2.987 6.667-6.667v-18.667c-0.004-3.68-2.987-6.662-6.667-6.667zM26.667 10.772l-12.339 12.339c-1.041 1.042-2.73 1.042-3.771 0.001-0-0-0.001-0-0.001-0.001l-5.223-5.221c-0.522-0.522-0.522-1.368 0-1.889s1.368-0.522 1.889 0l5.221 5.221 12.34-12.339c0.522-0.52 1.366-0.518 1.886 0.003s0.518 1.366-0.003 1.886z"></path>
</symbol>
<symbol id="icon-heart" viewBox="0 0 32 32">
<path d="M23.333 2.556c-3.145 0.050-5.871 1.794-7.311 4.357l-0.022 0.043c-1.463-2.606-4.189-4.35-7.326-4.4l-0.007-0c-4.835 0.217-8.673 4.189-8.673 9.058 0 0.12 0.002 0.24 0.007 0.359l-0.001-0.017c0 6.063 6.381 12.684 11.733 17.173 1.145 0.967 2.637 1.555 4.267 1.555s3.122-0.588 4.277-1.563l-0.010 0.008c5.352-4.489 11.733-11.111 11.733-17.173 0.004-0.102 0.006-0.222 0.006-0.342 0-4.869-3.838-8.842-8.654-9.057l-0.019-0.001z"></path>
</symbol>
<symbol id="icon-home" viewBox="0 0 32 32">
<path d="M22.667 23.99v8h5.333c2.209 0 4-1.791 4-4v-12.161c0-0.693-0.269-1.358-0.751-1.856l-11.331-12.249c-1.999-2.163-5.373-2.296-7.537-0.297-0.103 0.095-0.202 0.194-0.297 0.297l-11.311 12.245c-0.496 0.5-0.775 1.176-0.775 1.88v12.141c0 2.209 1.791 4 4 4h5.333v-8c0.025-3.636 2.96-6.605 6.505-6.69 3.663-0.088 6.801 2.931 6.829 6.69z"></path>
<path d="M16 19.99c-2.209 0-4 1.791-4 4v8h8v-8c0-2.209-1.791-4-4-4z"></path>
</symbol>
<symbol id="icon-office" viewBox="0 0 32 32">
<path d="M0 32h16v-32h-16v32zM10 4h4v4h-4v-4zM10 12h4v4h-4v-4zM10 20h4v4h-4v-4zM2 4h4v4h-4v-4zM2 12h4v4h-4v-4zM2 20h4v4h-4v-4zM18 10h14v2h-14zM18 32h4v-8h6v8h4v-18h-14z"></path>
</symbol>
<symbol id="icon-images" viewBox="0 0 36 32">
<path d="M34 4h-2v-2c0-1.1-0.9-2-2-2h-28c-1.1 0-2 0.9-2 2v24c0 1.1 0.9 2 2 2h2v2c0 1.1 0.9 2 2 2h28c1.1 0 2-0.9 2-2v-24c0-1.1-0.9-2-2-2zM4 6v20h-1.996c-0.001-0.001-0.003-0.002-0.004-0.004v-23.993c0.001-0.001 0.002-0.003 0.004-0.004h27.993c0.001 0.001 0.003 0.002 0.004 0.004v1.996h-24c-1.1 0-2 0.9-2 2v0zM34 29.996c-0.001 0.001-0.002 0.003-0.004 0.004h-27.993c-0.001-0.001-0.003-0.002-0.004-0.004v-23.993c0.001-0.001 0.002-0.003 0.004-0.004h27.993c0.001 0.001 0.003 0.002 0.004 0.004v23.993z"></path>
<path d="M30 11c0 1.657-1.343 3-3 3s-3-1.343-3-3 1.343-3 3-3 3 1.343 3 3z"></path>
<path d="M32 28h-24v-4l7-12 8 10h2l7-6z"></path>
</symbol>
<symbol id="icon-connection" viewBox="0 0 40 32">
<path d="M20 18c3.308 0 6.308 1.346 8.481 3.519l-2.827 2.827c-1.449-1.449-3.449-2.346-5.654-2.346s-4.206 0.897-5.654 2.346l-2.827-2.827c2.173-2.173 5.173-3.519 8.481-3.519zM5.858 15.858c3.777-3.777 8.8-5.858 14.142-5.858s10.365 2.080 14.142 5.858l-2.828 2.828c-3.022-3.022-7.040-4.686-11.314-4.686s-8.292 1.664-11.314 4.686l-2.828-2.828zM30.899 4.201c3.334 1.41 6.329 3.429 8.899 6v0l-2.828 2.828c-4.533-4.533-10.56-7.029-16.971-7.029s-12.438 2.496-16.971 7.029l-2.828-2.828c2.571-2.571 5.565-4.589 8.899-6 3.453-1.461 7.12-2.201 10.899-2.201s7.446 0.741 10.899 2.201zM18 28c0-1.105 0.895-2 2-2s2 0.895 2 2c0 1.105-0.895 2-2 2s-2-0.895-2-2z"></path>
</symbol>
<symbol id="icon-folder" viewBox="0 0 32 32">
<path d="M14 4l4 4h14v22h-32v-26z"></path>
</symbol>
<symbol id="icon-credit-card" viewBox="0 0 32 32">
<path d="M29 4h-26c-1.65 0-3 1.35-3 3v18c0 1.65 1.35 3 3 3h26c1.65 0 3-1.35 3-3v-18c0-1.65-1.35-3-3-3zM3 6h26c0.542 0 1 0.458 1 1v3h-28v-3c0-0.542 0.458-1 1-1zM29 26h-26c-0.542 0-1-0.458-1-1v-9h28v9c0 0.542-0.458 1-1 1zM4 20h2v4h-2zM8 20h2v4h-2zM12 20h2v4h-2z"></path>
</symbol>
</defs>
</svg>
